<svg width="250" height="250" viewBox="0 0 250 250" fill="none" xmlns="http://www.w3.org/2000/svg">
<g opacity="0.75">
<path d="M98.8382 70.8372C74.0096 66.3154 54.3777 71.0482 46.5534 84.6001C40.715 94.713 42.3839 108.121 50.6016 122.453C50.7639 122.75 50.9839 123.013 51.2489 123.224C51.5139 123.436 51.8184 123.592 52.1447 123.684C52.4709 123.776 52.8123 123.803 53.1487 123.761C53.4852 123.72 53.81 123.611 54.1041 123.443C54.3982 123.274 54.6557 123.048 54.8614 122.779C55.0671 122.509 55.2169 122.202 55.3021 121.873C55.3872 121.545 55.406 121.203 55.3573 120.868C55.3085 120.532 55.1933 120.21 55.0183 119.92C47.617 107.009 46.1763 95.4386 50.9635 87.1465C57.4635 75.8888 74.9739 71.6669 97.9254 75.8468C98.585 75.9566 99.2612 75.8026 99.8082 75.4181C100.355 75.0335 100.729 74.4493 100.849 73.7915C100.969 73.1337 100.825 72.4552 100.449 71.9024C100.073 71.3496 99.4941 70.967 98.8382 70.8372V70.8372ZM63.5129 139.873C73.5522 150.906 86.5953 161.254 101.47 169.841C137.487 190.636 175.83 196.194 194.727 183.309C195.01 183.124 195.253 182.884 195.441 182.603C195.63 182.323 195.761 182.007 195.827 181.676C195.893 181.344 195.892 181.003 195.824 180.671C195.757 180.34 195.624 180.026 195.433 179.746C195.242 179.467 194.998 179.228 194.714 179.044C194.431 178.86 194.113 178.735 193.78 178.675C193.448 178.615 193.106 178.622 192.776 178.695C192.446 178.769 192.134 178.907 191.858 179.103C174.945 190.634 138.523 185.354 104.017 165.432C89.5865 157.101 76.956 147.08 67.2794 136.446C67.0548 136.197 66.7832 135.995 66.4803 135.851C66.1774 135.708 65.8491 135.625 65.5143 135.609C65.1794 135.592 64.8447 135.642 64.5292 135.756C64.2136 135.869 63.9236 136.043 63.6757 136.269C63.4277 136.495 63.2268 136.767 63.0844 137.07C62.9419 137.374 62.8608 137.702 62.8457 138.037C62.8306 138.372 62.8817 138.707 62.9962 139.022C63.1107 139.337 63.2863 139.626 63.5129 139.873V139.873Z" fill="white"/>
<path d="M188.699 136.776C204.956 117.57 210.632 98.2532 202.824 84.73C197.08 74.7784 184.934 69.5244 168.792 69.3143C168.123 69.3153 167.481 69.5795 167.005 70.0498C166.53 70.5202 166.258 71.1588 166.249 71.8277C166.241 72.4967 166.496 73.1421 166.959 73.6246C167.422 74.1071 168.057 74.3878 168.726 74.4061C183.243 74.5951 193.707 79.1217 198.415 87.2763C204.9 98.5091 199.838 115.735 184.812 133.486C184.591 133.741 184.424 134.036 184.318 134.356C184.213 134.676 184.172 135.014 184.198 135.35C184.224 135.685 184.316 136.013 184.47 136.313C184.623 136.612 184.834 136.879 185.092 137.096C185.349 137.314 185.646 137.478 185.967 137.58C186.288 137.682 186.626 137.719 186.962 137.689C187.297 137.659 187.624 137.563 187.922 137.407C188.22 137.25 188.484 137.036 188.699 136.776ZM146.917 71.685C132.218 74.8348 116.571 80.993 101.545 89.668C64.3644 111.134 40.1106 142.787 43.479 165.739C43.5239 166.073 43.6346 166.395 43.8048 166.685C43.975 166.976 44.2013 167.23 44.4704 167.433C44.7396 167.636 45.0463 167.783 45.3728 167.867C45.6994 167.95 46.0392 167.968 46.3726 167.919C46.706 167.87 47.0264 167.755 47.3152 167.581C47.604 167.408 47.8554 167.178 48.0549 166.907C48.2544 166.635 48.398 166.327 48.4773 165.999C48.5567 165.672 48.5703 165.332 48.5173 164.999C45.526 144.62 68.5167 114.617 104.091 94.078C118.668 85.6618 133.818 79.6993 147.984 76.6641C148.315 76.5988 148.63 76.4681 148.911 76.2797C149.191 76.0913 149.432 75.849 149.618 75.5668C149.803 75.2846 149.931 74.9683 149.994 74.6362C150.056 74.3041 150.052 73.9629 149.981 73.6325C149.91 73.3021 149.775 72.9891 149.582 72.7117C149.389 72.4343 149.142 72.1981 148.857 72.0168C148.572 71.8356 148.254 71.7129 147.921 71.6559C147.587 71.5989 147.246 71.6088 146.917 71.685V71.685Z" fill="white"/>
<path d="M86.6821 181.65C95.1833 205.385 109.089 220 124.727 220C136.131 220 146.682 212.225 154.911 198.539C155.089 198.252 155.208 197.933 155.262 197.6C155.315 197.266 155.302 196.926 155.223 196.598C155.144 196.27 155 195.961 154.8 195.689C154.601 195.416 154.349 195.187 154.059 195.013C153.77 194.839 153.449 194.724 153.115 194.676C152.781 194.627 152.441 194.645 152.114 194.729C151.787 194.813 151.48 194.961 151.211 195.165C150.942 195.368 150.716 195.623 150.546 195.915C143.152 208.215 134.069 214.907 124.727 214.907C111.737 214.907 99.3337 201.873 91.4769 179.934C91.3693 179.613 91.1987 179.316 90.9751 179.062C90.7514 178.808 90.4792 178.6 90.1745 178.452C89.8697 178.304 89.5385 178.219 89.2002 178.2C88.8619 178.182 88.5234 178.231 88.2044 178.346C87.8855 178.46 87.5925 178.636 87.3426 178.865C87.0928 179.094 86.8911 179.37 86.7495 179.678C86.6078 179.986 86.5289 180.319 86.5175 180.657C86.5061 180.996 86.5624 181.333 86.6831 181.65H86.6821ZM164.325 177.007C168.727 162.945 171.09 146.724 171.09 129.82C171.09 87.6391 156.326 51.2779 135.299 41.9412C134.684 41.6839 133.994 41.6776 133.375 41.9234C132.756 42.1693 132.258 42.6479 131.988 43.2566C131.717 43.8653 131.696 44.5556 131.929 45.1796C132.162 45.8036 132.63 46.3117 133.233 46.5947C151.987 54.9232 165.997 89.4312 165.997 129.82C165.997 146.22 163.709 161.928 159.467 175.486C159.361 175.807 159.321 176.145 159.347 176.481C159.374 176.818 159.467 177.146 159.621 177.446C159.775 177.746 159.988 178.012 160.246 178.229C160.504 178.447 160.803 178.611 161.125 178.711C161.447 178.812 161.786 178.848 162.122 178.817C162.458 178.785 162.784 178.687 163.082 178.529C163.38 178.37 163.644 178.154 163.857 177.893C164.071 177.632 164.23 177.33 164.326 177.007H164.325ZM212.278 174.513C212.278 167.783 206.822 162.327 200.092 162.327C193.362 162.327 187.906 167.783 187.906 174.513C187.906 181.243 193.362 186.699 200.092 186.699C206.822 186.699 212.278 181.243 212.278 174.513ZM207.186 174.513C207.186 175.445 207.002 176.367 206.646 177.228C206.289 178.088 205.767 178.871 205.108 179.529C204.449 180.188 203.667 180.711 202.807 181.067C201.946 181.424 201.023 181.607 200.092 181.607C199.16 181.607 198.238 181.424 197.377 181.067C196.516 180.711 195.734 180.188 195.076 179.529C194.417 178.871 193.894 178.088 193.538 177.228C193.181 176.367 192.998 175.445 192.998 174.513C192.998 172.632 193.745 170.827 195.076 169.497C196.406 168.167 198.21 167.419 200.092 167.419C201.973 167.419 203.778 168.167 205.108 169.497C206.438 170.827 207.186 172.632 207.186 174.513ZM49.1857 186.699C55.9167 186.699 61.3723 181.243 61.3723 174.513C61.3723 167.783 55.9158 162.327 49.1857 162.327C42.4565 162.327 37 167.783 37 174.513C37 181.243 42.4565 186.699 49.1857 186.699ZM49.1857 181.607C47.3042 181.607 45.4999 180.86 44.1695 179.529C42.8391 178.199 42.0918 176.395 42.0918 174.513C42.0918 172.632 42.8391 170.827 44.1695 169.497C45.4999 168.167 47.3042 167.419 49.1857 167.419C51.0671 167.419 52.8714 168.167 54.2018 169.497C55.5322 170.827 56.2796 172.632 56.2796 174.513C56.2796 176.395 55.5322 178.199 54.2018 179.529C52.8714 180.86 51.0671 181.607 49.1857 181.607V181.607Z" fill="white"/>
<path d="M124.727 54.3713C131.457 54.3713 136.912 48.9158 136.912 42.1857C136.912 35.4555 131.457 30 124.727 30C117.996 30 112.541 35.4555 112.541 42.1857C112.541 48.9158 117.996 54.3713 124.727 54.3713V54.3713ZM124.727 49.2796C122.845 49.2796 121.041 48.5322 119.71 47.2018C118.38 45.8714 117.633 44.0671 117.633 42.1857C117.633 40.3042 118.38 38.4999 119.71 37.1695C121.041 35.8391 122.845 35.0918 124.727 35.0918C126.608 35.0918 128.412 35.8391 129.743 37.1695C131.073 38.4999 131.82 40.3042 131.82 42.1857C131.82 44.0671 131.073 45.8714 129.743 47.2018C128.412 48.5322 126.608 49.2796 124.727 49.2796V49.2796ZM126.587 138.437C121.828 139.466 117.139 136.441 116.109 131.681C115.616 129.396 116.05 127.008 117.317 125.043C118.584 123.078 120.579 121.696 122.865 121.202C127.624 120.174 132.313 123.198 133.344 127.958C134.373 132.717 131.348 137.407 126.587 138.437Z" fill="white"/>
</g>
</svg>
