<svg width="250" height="250" viewBox="0 0 250 250" fill="none" xmlns="http://www.w3.org/2000/svg">
<path opacity="0.35" d="M124.999 81.7456C116.437 81.7456 108.066 84.2847 100.947 89.0419C93.8271 93.799 88.2781 100.561 85.0013 108.471C81.7246 116.382 80.8672 125.087 82.5377 133.485C84.2082 141.883 88.3315 149.597 94.3862 155.652C100.441 161.707 108.155 165.83 116.553 167.501C124.951 169.171 133.656 168.314 141.567 165.037C149.478 161.76 156.239 156.211 160.996 149.092C165.754 141.972 168.293 133.602 168.293 125.039C168.279 113.561 163.713 102.557 155.597 94.4411C147.481 86.3249 136.477 81.7593 124.999 81.7456V81.7456Z" fill="white"/>
<path opacity="0.35" d="M187.161 85.5839C198.052 85.5839 206.882 76.7544 206.882 65.8627C206.882 54.9711 198.052 46.1416 187.161 46.1416C176.269 46.1416 167.44 54.9711 167.44 65.8627C167.44 76.7544 176.269 85.5839 187.161 85.5839Z" fill="white"/>
<path opacity="0.75" d="M211.444 85.6872L210.617 83.878L209.324 85.3771C206.091 89.0457 202.003 91.86 197.422 93.5705L196.13 94.0358L196.647 95.3281C203.611 112.077 204.493 130.736 199.138 148.068C193.784 165.399 182.531 180.309 167.332 190.211C152.134 200.113 133.948 204.381 115.931 202.277C97.9142 200.172 81.2024 191.826 68.6954 178.688C56.1883 165.549 48.6753 148.447 47.4598 130.348C46.2443 112.249 51.4029 94.2961 62.0408 79.6032C72.6786 64.9103 88.1244 54.405 105.698 49.9099C123.272 45.4148 141.865 47.2136 158.251 54.9942L159.466 55.5757L159.996 54.2834C161.927 49.7913 164.937 45.8451 168.758 42.7945L170.309 41.5021L168.538 40.5845C155.088 33.5938 140.145 29.9623 124.986 30.0003C104.463 30.0032 84.492 36.6526 68.0629 48.9531C51.6339 61.2537 39.6301 78.5439 33.848 98.2362C28.066 117.928 28.8166 138.964 35.9877 158.194C43.1588 177.424 56.3645 193.814 73.6286 204.913C90.8927 216.011 111.287 221.22 131.758 219.76C152.23 218.299 171.678 210.249 187.192 196.813C202.707 183.377 213.453 165.278 217.822 145.225C222.191 125.172 219.949 104.243 211.431 85.5709L211.444 85.6872Z" fill="white"/>
</svg>
