<svg width="250" height="250" viewBox="0 0 250 250" fill="none" xmlns="http://www.w3.org/2000/svg">
<path opacity="0.35" d="M220 125C220 177.467 177.467 220 125 220C72.5329 220 30 177.467 30 125C30 72.5329 72.5329 30 125 30C177.467 30 220 72.5329 220 125Z" fill="white"/>
<path opacity="0.35" d="M156.635 110.344C148.911 76.271 132.813 67.2003 128.706 60.7882C127.013 57.9635 125.513 55.0274 124.216 52C124 55.0269 123.601 56.9339 121.028 59.2293C115.862 63.8353 93.9218 81.7145 92.0754 120.429C90.3551 156.525 118.612 178.784 122.345 181.084C125.215 182.497 128.711 181.114 130.417 179.818C144.038 170.469 162.649 145.548 156.65 110.344" fill="white"/>
<path d="M125.387 161.863C124.675 170.797 124.166 175.989 122.36 181.094C122.36 181.094 123.545 189.6 124.378 198.61H127.324C128.027 192.265 129.1 185.967 130.538 179.747C126.724 177.87 125.533 169.703 125.387 161.863Z" fill="white" fill-opacity="0.65"/>
<path opacity="0.35" d="M130.533 179.752C126.678 177.971 125.563 169.632 125.392 161.863C126.345 149.047 126.623 136.19 126.224 123.345C126.023 116.605 126.32 60.9194 124.565 52.7668C125.766 55.528 127.149 58.2061 128.706 60.7832C132.813 67.2003 148.916 76.271 156.635 110.344C162.649 145.487 144.139 170.343 130.533 179.752Z" fill="white"/>
</svg>
