<svg width="250" height="250" viewBox="0 0 250 250" fill="none" xmlns="http://www.w3.org/2000/svg">
<path opacity="0.85" d="M141.87 30C140.5 30 139.226 30.2941 138.046 30.6915C140.548 32.3605 141.925 34.5859 142.606 37.0974C142.662 37.4391 142.757 37.6855 142.804 38.0273C142.863 38.3206 142.897 38.6184 142.907 38.9174C143.097 43.249 141.775 43.7974 140.849 46.3566C139.424 49.6549 139.819 53.1996 141.529 56.0529C141.686 56.4355 141.882 56.8005 142.115 57.1417C140.255 44.6796 150.61 42.8118 152.518 38.9174C152.668 35.5158 149.874 33.2506 147.665 31.677C145.929 30.582 143.92 30.0033 141.87 30.0079V30ZM157.474 32.8056C157.284 33.9421 157.426 33.648 157.379 34.2362C157.331 34.6336 157.331 35.1263 157.284 35.5158C157.181 35.9132 157.086 36.3106 156.935 36.7C156.84 37.0974 156.698 37.4948 156.539 37.8842L156.009 39.0128C155.851 39.2115 155.764 39.4102 155.613 39.6089L155.32 40.046C155.087 40.3833 154.841 40.712 154.584 41.0315C154.291 41.3336 154.046 41.6753 153.697 41.9217V41.9694C153.404 42.2158 153.111 42.5098 152.763 42.7642C151.734 43.551 150.562 44.1391 149.478 44.8783C149.137 45.1167 148.789 45.3234 148.496 45.6174C148.163 45.8526 147.851 46.1158 147.562 46.4043C147.222 46.6983 146.976 46.9924 146.683 47.3421C146.438 47.6362 146.145 47.9779 145.947 48.3276C145.701 48.6604 145.471 49.0052 145.258 49.3608C145.06 49.7582 144.918 50.1 144.72 50.4894C144.569 50.8868 144.427 51.2286 144.324 51.626C144.194 52.0319 144.081 52.4428 143.984 52.8579C143.936 53.0566 143.936 53.3029 143.889 53.4937C143.833 53.6924 143.833 53.8911 143.786 54.0898C143.786 54.4872 143.738 54.9243 143.738 55.3217C143.738 55.6157 143.738 55.9098 143.786 56.2039C143.786 56.6013 143.833 56.9987 143.936 57.4358C143.984 57.8332 144.079 58.2306 144.174 58.628C144.332 59.0174 144.427 59.4068 144.569 59.8042C144.672 60.0427 144.815 60.297 144.918 60.4957L133.629 56.1085C131.721 55.5681 129.852 55.0753 127.937 54.6302L124.849 53.8911C121.904 53.3029 118.912 52.8579 115.919 52.5638C115.816 52.5638 115.769 52.5161 115.674 52.5161C110.617 52.0076 105.526 51.9411 100.458 52.3174C97.4656 52.5161 94.4732 52.9055 91.4807 53.3983C89.2568 53.783 87.0468 54.2442 84.8545 54.7812L82.6457 55.3694C81.9174 55.6634 81.2208 56.0052 80.5399 56.3072L78.917 57.0464C78.822 57.094 78.727 57.094 78.6795 57.1417C78.1808 57.3881 77.7454 57.5868 77.302 57.8332C76.6646 58.1155 76.0411 58.4284 75.4337 58.771C75.0933 58.9141 74.7529 59.1128 74.452 59.2638C74.3115 59.3514 74.1661 59.431 74.0166 59.5022C73.5733 59.7565 73.13 60.0029 72.7341 60.2493C72.3301 60.4735 71.939 60.7203 71.5625 60.9885C71.2142 61.2269 70.8737 61.4256 70.5808 61.672C70.5333 61.7276 70.4779 61.7276 70.4304 61.7753C70.1375 61.974 69.7971 62.2204 69.4963 62.4667L69.4013 62.5621L68.665 63.1503C68.57 63.2059 68.4671 63.3013 68.3721 63.349C68.1267 63.5476 67.8813 63.794 67.6359 63.9848C67.5884 64.0881 67.4854 64.1437 67.4379 64.1835C67.145 64.4855 66.8521 64.7319 66.5592 65.0259C66.5038 65.0259 66.5038 65.0736 66.4563 65.1213C66.1512 65.389 65.858 65.6701 65.5775 65.9638C65.5221 66.0115 65.5221 66.0592 65.4746 66.0592C65.2169 66.3124 64.9713 66.5776 64.7384 66.8539C64.6434 66.9493 64.5009 67.0447 64.398 67.1401C64.1351 67.4523 63.8549 67.7495 63.5588 68.0302C63.5113 68.1256 63.4163 68.1812 63.3688 68.2686C62.973 68.666 62.6326 69.0634 62.2367 69.4608L62.0942 69.6039C61.3026 70.4463 60.4713 71.2809 59.5847 72.02C58.7059 72.8148 57.7718 73.546 56.8376 74.1897C54.962 75.5348 52.9377 76.6576 50.8051 77.5358C49.776 77.9808 48.6914 78.3782 47.6147 78.72C45.5564 79.1651 43.4427 79.9996 41.6298 80.1506C41.234 80.1506 40.7986 80.246 40.4027 80.2937L39.1756 80.5877L37.9961 81.0328C37.6002 81.1838 37.2123 81.3825 36.8244 81.5732C36.4761 81.8196 36.0882 82.0183 35.7398 82.2647C35.3905 82.5185 35.0623 82.8003 34.7582 83.1072C34.4178 83.3456 34.0694 83.6953 33.7765 83.9894C33.4836 84.3311 33.1907 84.6252 32.9453 84.9749C32.6999 85.3723 32.4069 85.7141 32.209 86.1114C31.9512 86.4695 31.7209 86.8468 31.5203 87.24C31.3224 87.6851 31.1245 88.0825 30.982 88.5196C30.8315 88.917 30.689 89.3621 30.5386 89.7992C30.4436 90.1966 30.3407 90.594 30.3011 90.9914C30.3011 91.0311 30.2457 91.0868 30.2457 91.1344C30.1507 91.5795 30.1507 92.1677 30.0953 92.4617C30.0478 92.8114 30.0003 93.0976 30.0003 93.4473C29.9912 94.3044 30.1924 95.1505 30.5861 95.9111V95.9588C30.7365 96.2528 30.9345 96.5548 31.1324 96.8489C31.3224 97.143 31.5282 97.4371 31.7657 97.7311C32.0111 97.9775 32.304 98.2795 32.6049 98.5259C32.8909 98.814 33.2008 99.0772 33.5311 99.3127C34.7107 100.346 35.0036 100.688 36.5236 101.475C36.769 101.626 37.0144 101.721 37.3152 101.872C37.3627 101.872 37.4102 101.92 37.4577 101.92C37.4577 102.023 37.4577 102.071 37.5052 102.166C37.6198 102.978 37.8325 103.774 38.1386 104.534C38.2969 104.829 38.3919 105.123 38.5344 105.417C38.5898 105.52 38.6373 105.615 38.6927 105.663C38.8827 106.06 39.0806 106.402 39.2706 106.752L40.0069 107.785C40.2523 108.079 40.5531 108.421 40.8461 108.723C41.139 109.017 41.4319 109.263 41.7802 109.557C41.7802 109.557 41.8277 109.605 41.8752 109.605C42.1681 109.852 42.461 110.098 42.7619 110.297C43.1033 110.537 43.4633 110.75 43.8385 110.932C44.1789 111.131 44.5748 111.33 44.9627 111.481C45.279 111.624 45.6076 111.738 45.9443 111.823C45.9998 111.87 46.0473 111.87 46.1423 111.918C46.3402 111.974 46.5856 112.021 46.7756 112.069C46.6331 114.731 46.5856 117.235 46.9814 118.125C47.4168 119.111 49.5781 116.106 51.7314 112.657C51.4464 116.059 51.2485 120.049 51.7314 121.233C52.2776 122.465 55.2147 118.618 57.7718 114.382C92.5653 106.307 124.311 130.436 127.644 164.532C127.01 159.207 120.479 156.259 117.487 156.998C116.014 160.638 113.513 165.319 109.491 168.228C109.831 164.969 109.689 161.631 109 158.373C107.901 162.909 105.823 167.147 102.912 170.787C98.2573 171.129 93.5944 168.864 91.1403 165.462C90.9424 165.319 90.8948 165.025 90.7444 164.826C90.6019 164.485 90.4515 164.135 90.3486 163.793C90.2062 163.463 90.1077 163.116 90.0557 162.76C90.0082 162.41 90.0082 162.069 90.0082 161.671V160.932C90.0668 160.582 90.1488 160.237 90.2536 159.899C90.3565 159.557 90.4515 159.215 90.6019 158.866C90.7919 158.524 90.9423 158.174 91.1878 157.832C92.019 155.464 92.019 153.541 90.499 152.412C90.2038 152.218 89.891 152.054 89.5649 151.919C89.3749 151.872 89.1294 151.776 88.9315 151.721L88.5357 151.577C88.1996 151.468 87.8555 151.386 87.5065 151.331C87.1722 151.233 86.8258 151.182 86.4774 151.18C86.121 151.124 85.7613 151.092 85.4007 151.085C85.1553 151.085 84.9099 151.132 84.6645 151.132C84.2976 151.13 83.9324 151.181 83.5799 151.283C83.2395 151.331 82.8991 151.379 82.5507 151.474C82.2006 151.568 81.8568 151.685 81.5216 151.824C81.1812 151.967 80.8883 152.118 80.5399 152.269C80.247 152.412 79.9541 152.611 79.6058 152.762C68.1742 160.248 74.9983 177.781 82.7962 182.86C79.8512 183.4 76.8587 184.036 76.0275 184.68L75.9245 184.775C78.0383 186.055 80.247 187.144 82.5507 188.082C85.6936 189.115 89.0265 190.045 90.499 190.442V190.49C94.5644 191.328 98.7218 191.627 102.865 191.38C124.604 189.854 142.416 173.251 145.654 151.379L145.947 152.658C146.097 153.548 146.287 154.486 146.39 155.416V155.464C146.485 155.909 146.533 156.354 146.588 156.751V156.942C146.636 157.387 146.683 157.832 146.683 158.23C146.731 158.77 146.778 159.311 146.778 159.851V160.646C146.778 160.884 146.834 161.178 146.834 161.425C146.834 161.727 146.778 162.021 146.778 162.315V163.006C146.778 163.348 146.731 163.642 146.731 163.992C146.731 164.191 146.731 164.389 146.683 164.628C146.683 164.977 146.636 165.319 146.636 165.717C146.588 165.86 146.588 166.011 146.588 166.154L146.43 167.29C146.43 167.441 146.43 167.584 146.39 167.735C146.335 168.228 146.24 168.673 146.192 169.166V169.261L145.899 170.644V170.787L145.607 172.115C145.607 172.17 145.551 172.273 145.551 172.313C145.461 172.764 145.347 173.21 145.211 173.648V173.792C145.06 174.284 144.918 174.729 144.815 175.174C144.767 175.222 144.767 175.27 144.767 175.27L144.324 176.748C144.134 177.241 143.984 177.686 143.786 178.179C143.588 178.671 143.445 179.164 143.247 179.609C143.049 180.102 142.852 180.539 142.662 181.04H142.606C142.416 181.477 142.21 181.97 141.973 182.415C141.932 182.533 141.881 182.647 141.822 182.757C141.775 182.804 141.775 182.86 141.727 182.908C138.482 189.43 133.759 195.097 127.937 199.455C127.541 199.701 127.153 200.003 126.757 200.297C126.662 200.393 126.52 200.44 126.417 200.536C126.066 200.796 125.707 201.045 125.34 201.283L125.483 201.577H125.538L127.596 201.283H127.644C128.918 201.084 130.193 200.838 131.467 200.591C131.816 200.544 132.204 200.44 132.552 200.345L133.241 200.194C133.581 200.146 133.922 200.051 134.27 200.003C134.563 199.9 134.856 199.844 135.149 199.757C140.057 198.565 144.815 196.943 149.383 195.028C141.497 205.812 131.008 214.405 118.904 220C124.556 219.603 130.193 218.673 135.64 217.091C155.354 211.272 172.004 197.915 182.007 179.895C179.987 191.303 175.48 202.12 168.81 211.575C173.566 208.426 177.96 204.758 181.912 200.639C192.895 189.128 200.106 174.517 202.574 158.77C204.237 166.559 204.728 174.586 203.999 182.51C239.418 132.908 206.937 81.4779 193.344 67.9348C193.296 67.8315 193.249 67.7838 193.249 67.6884C193.201 67.7361 193.201 67.7361 193.201 67.7838C193.201 67.7361 193.201 67.7361 193.146 67.6884C193.146 68.2766 193.098 68.8647 193.051 69.4608C192.915 70.5642 192.751 71.664 192.56 72.7591C192.322 73.84 192.022 74.9289 191.729 76.0177C191.38 77.051 190.992 78.1319 190.541 79.1651C190.093 80.1855 189.604 81.1877 189.077 82.1693C187.981 84.1004 186.718 85.9302 185.3 87.6374C184.564 88.5196 183.78 89.3065 182.989 90.1012C182.526 90.526 182.051 90.9368 181.564 91.3331L180.44 92.3187C179.564 93.0127 178.646 93.6524 177.693 94.2341C176.755 94.8405 175.788 95.4001 174.795 95.9111C173.766 96.4038 172.737 96.8489 171.708 97.294C169.611 98.0944 167.443 98.688 165.232 99.0664C164.1 99.265 162.976 99.3604 161.891 99.4637C161.108 99.5193 160.324 99.5511 159.54 99.5591C158.424 99.5437 157.309 99.4774 156.199 99.3604C155.078 99.2721 153.965 99.1075 152.866 98.8677C151.753 98.6649 150.656 98.3861 149.581 98.0331H149.525C150.61 97.9298 151.686 97.8344 152.771 97.6357C154.98 97.2512 157.149 96.6578 159.247 95.8634C160.324 95.466 161.353 94.9732 162.334 94.4805C163.363 93.9877 164.298 93.4473 165.279 92.8591C166.213 92.2233 167.14 91.5795 168.026 90.8881C168.913 90.1966 169.744 89.4575 170.528 88.6706C171.359 87.9315 172.096 87.097 172.832 86.2545C173.568 85.3723 174.257 84.4821 174.89 83.5999C174.993 83.4489 175.096 83.2502 175.191 83.1072C175.682 82.3124 176.173 81.5256 176.616 80.7387C177.698 78.7782 178.583 76.715 179.26 74.5792C179.608 73.546 179.854 72.4651 180.099 71.3762C180.297 70.2476 180.495 69.1667 180.59 68.0779C180.685 66.9493 180.788 65.8128 180.788 64.7319C180.788 63.9371 180.733 63.1503 180.685 62.3634C180.587 61.2601 180.455 60.1602 180.289 59.0651C180.098 57.9547 179.855 56.854 179.561 55.7668C179.213 54.7335 178.872 53.6447 178.476 52.6115C178.08 51.5783 177.598 50.5451 177.107 49.5595C176.56 48.574 176.022 47.5885 175.436 46.6506C174.81 45.7299 174.155 44.8287 173.473 43.9484C172.737 43.1059 172.001 42.2634 171.217 41.4289C170.804 41.0061 170.379 40.5953 169.942 40.197C167.726 38.4724 165.43 36.851 163.118 35.3727C162.801 35.1889 162.473 35.0243 162.136 34.8799C160.681 33.9853 159.113 33.2903 157.474 32.8135V32.8056Z" fill="white"/>
</svg>
