<svg width="250" height="250" viewBox="0 0 250 250" fill="none" xmlns="http://www.w3.org/2000/svg">
<path opacity="0.35" d="M230.691 125.453C230.691 111.45 213.155 98.179 186.269 89.9495C192.473 62.5464 189.716 40.7446 177.566 33.7646C174.765 32.1273 171.49 31.3517 167.914 31.3517V40.96C169.896 40.96 171.49 41.3478 172.826 42.0803C178.686 45.441 181.228 58.2378 179.246 74.6968C178.772 78.747 177.996 83.0125 177.048 87.3643C168.604 85.2961 159.383 83.7019 149.689 82.6678C143.872 74.6968 137.84 67.4583 131.765 61.1246C145.811 48.0693 158.995 40.917 167.957 40.917V31.3087C156.108 31.3087 140.597 39.7536 124.914 54.4031C109.23 39.8398 93.7191 31.481 81.8703 31.481V41.0893C90.7892 41.0893 104.017 48.1986 118.063 61.1676C112.031 67.5014 105.999 74.6968 100.268 82.6678C90.5307 83.7019 81.3102 85.2961 72.8652 87.4074C71.8742 83.0987 71.1417 78.9193 70.6247 74.9123C68.5996 58.4532 71.0986 45.6565 76.9153 42.2526C78.2079 41.4771 79.8883 41.1324 81.8703 41.1324V31.5241C78.251 31.5241 74.9764 32.2996 72.1327 33.9369C60.0254 40.917 57.3109 62.6757 63.5585 89.9926C36.7587 98.2652 19.3086 111.493 19.3086 125.453C19.3086 139.456 36.8448 152.727 63.7308 160.956C57.5264 188.359 60.2839 210.161 72.4343 217.141C75.235 218.778 78.5095 219.554 82.1288 219.554C93.9776 219.554 109.489 211.109 125.172 196.459C140.856 211.023 156.367 219.382 168.216 219.382C171.835 219.382 175.11 218.606 177.953 216.969C190.061 209.989 192.775 188.23 186.528 160.913C213.241 152.684 230.691 139.413 230.691 125.453ZM174.593 96.7141C172.998 102.272 171.016 108.003 168.776 113.733C167.009 110.286 165.157 106.839 163.132 103.392C161.15 99.9456 159.038 96.5848 156.927 93.3102C163.045 94.215 168.948 95.3353 174.593 96.7141ZM154.859 142.601C151.498 148.418 148.051 153.933 144.475 159.06C138.055 159.62 131.549 159.922 125 159.922C118.494 159.922 111.988 159.62 105.611 159.103C102.035 153.976 98.5448 148.504 95.184 142.731C91.9094 137.086 88.9365 131.356 86.222 125.582C88.8934 119.808 91.9095 114.035 95.141 108.391C98.5017 102.574 101.949 97.0588 105.525 91.9315C111.945 91.3713 118.451 91.0697 125 91.0697C131.506 91.0697 138.012 91.3713 144.389 91.8884C147.965 97.0157 151.455 102.488 154.816 108.261C158.09 113.906 161.063 119.636 163.778 125.41C161.063 131.183 158.09 136.957 154.859 142.601ZM168.776 137C171.103 142.774 173.085 148.547 174.722 154.148C169.077 155.527 163.132 156.691 156.97 157.595C159.081 154.278 161.193 150.874 163.175 147.384C165.157 143.937 167.009 140.447 168.776 137ZM125.086 182.973C121.079 178.837 117.072 174.227 113.108 169.186C116.986 169.358 120.95 169.487 124.957 169.487C129.007 169.487 133.014 169.401 136.935 169.186C133.057 174.227 129.05 178.837 125.086 182.973ZM93.0297 157.595C86.9114 156.691 81.0086 155.57 75.3642 154.192C76.9584 148.633 78.9404 142.903 81.1809 137.172C82.9474 140.619 84.8002 144.066 86.8252 147.513C88.8503 150.96 90.9185 154.321 93.0297 157.595ZM124.871 67.9322C128.878 72.0685 132.885 76.6788 136.849 81.7199C132.971 81.5476 129.007 81.4183 125 81.4183C120.95 81.4183 116.943 81.5045 113.022 81.7199C116.9 76.6788 120.907 72.0685 124.871 67.9322ZM92.9866 93.3102C90.8754 96.6279 88.7641 100.032 86.7822 103.522C84.8002 106.969 82.9474 110.416 81.1809 113.863C78.8542 108.089 76.8722 102.315 75.235 96.7141C80.8793 95.3784 86.8252 94.215 92.9866 93.3102ZM53.9933 147.255C38.7406 140.749 28.8738 132.217 28.8738 125.453C28.8738 118.688 38.7406 110.114 53.9933 103.651C57.6987 102.057 61.7489 100.635 65.9283 99.2993C68.3842 107.744 71.6157 116.534 75.6227 125.539C71.6588 134.501 68.4704 143.248 66.0575 151.649C61.792 150.314 57.7418 148.849 53.9933 147.255ZM77.1739 208.825C71.3141 205.465 68.772 192.668 70.754 176.209C71.2279 172.159 72.0035 167.893 72.9514 163.541C81.3963 165.609 90.6169 167.204 100.311 168.238C106.128 176.209 112.16 183.447 118.235 189.781C104.189 202.836 91.0046 209.989 82.0426 209.989C80.1037 209.946 78.4664 209.558 77.1739 208.825ZM179.375 175.993C181.4 192.452 178.901 205.249 173.085 208.653C171.792 209.429 170.112 209.773 168.13 209.773C159.211 209.773 145.983 202.664 131.937 189.695C137.969 183.361 144.001 176.166 149.732 168.195C159.469 167.161 168.69 165.566 177.135 163.455C178.126 167.807 178.901 171.986 179.375 175.993ZM195.964 147.255C192.258 148.849 188.208 150.271 184.029 151.606C181.573 143.161 178.341 134.372 174.334 125.367C178.298 116.405 181.486 107.658 183.899 99.2562C188.165 100.592 192.215 102.057 196.007 103.651C211.259 110.157 221.126 118.688 221.126 125.453C221.083 132.217 211.216 140.792 195.964 147.255Z" fill="white"/>
<path opacity="0.35" fill-rule="evenodd" clip-rule="evenodd" d="M172.266 31.7722C174.169 32.1594 175.946 32.818 177.566 33.7646C189.716 40.7446 192.474 62.5464 186.269 89.9495C213.155 98.179 230.691 111.45 230.691 125.453C230.691 139.413 213.241 152.684 186.528 160.913C192.775 188.23 190.061 209.989 177.953 216.969C175.11 218.606 171.835 219.382 168.216 219.382C156.367 219.382 140.856 211.023 125.172 196.459C109.489 211.109 93.9777 219.554 82.1289 219.554C78.5096 219.554 75.235 218.778 72.4344 217.141C60.284 210.161 57.5264 188.359 63.7309 160.956C36.8449 152.727 19.3087 139.456 19.3087 125.453C19.3087 111.493 36.7587 98.2652 63.5586 89.9926C57.311 62.6757 60.0255 40.917 72.1328 33.9369C73.8001 32.977 75.6155 32.3132 77.5617 31.9284C78.9349 31.6568 80.3731 31.5241 81.8704 31.5241V31.481C82.3624 31.481 82.8607 31.4954 83.3651 31.5241C84.2835 31.5763 85.2219 31.6758 86.179 31.8216C97.3551 33.5242 111.067 41.5456 124.914 54.4031C138.743 41.4861 152.437 33.3929 163.606 31.6593C163.62 31.6571 163.634 31.6548 163.649 31.6526C164.608 31.505 165.549 31.4044 166.47 31.3517C166.957 31.3239 167.439 31.3095 167.914 31.3087C167.929 31.3087 167.943 31.3087 167.957 31.3087V31.3517C169.435 31.3543 170.861 31.4896 172.223 31.7635C172.237 31.7664 172.252 31.7693 172.266 31.7722ZM76.9154 42.2526C71.0987 45.6565 68.5997 58.4532 70.6248 74.9123C70.9714 77.5985 71.4148 80.3623 71.968 83.1905C72.2401 84.581 72.5386 85.9872 72.8653 87.4074C74.2427 87.063 75.6408 86.7324 77.0583 86.4157C84.3318 84.791 92.119 83.5333 100.268 82.6678C105.068 75.991 110.08 69.8583 115.126 64.3204C116.104 63.247 117.084 62.196 118.063 61.1676C116.987 60.1745 115.917 59.2156 114.852 58.2918C104.109 48.9674 94.0138 43.2007 86.179 41.5683C85.1093 41.3455 84.0818 41.1997 83.1005 41.1324C82.6819 41.1037 82.2718 41.0893 81.8704 41.0893V41.1324C80.2038 41.1324 78.7505 41.3761 77.5617 41.9147C77.3367 42.0167 77.1211 42.1292 76.9154 42.2526ZM82.9445 45.4411H81.8704C80.3239 45.4411 79.5106 45.7202 79.1322 45.9473L79.1119 45.9594L79.0915 45.9714C77.8611 46.6914 76.1019 49.1148 75.0597 54.5047C74.0707 59.6194 73.9264 66.4544 74.8995 74.3728C75.2276 76.9134 75.6454 79.5266 76.1648 82.2005C83.0266 80.6696 90.3126 79.4622 97.9012 78.5941C102.446 72.3928 107.164 66.6641 111.915 61.4477C106.254 56.5463 100.851 52.7267 95.9672 50.0402C90.6786 47.1308 86.2706 45.6994 82.9445 45.4411ZM167.957 40.96C167.943 40.96 167.929 40.96 167.914 40.96V40.917C167.526 40.918 167.13 40.9324 166.726 40.96C165.731 41.0282 164.689 41.177 163.606 41.405C155.757 43.0561 145.695 48.8587 134.966 58.2377C133.905 59.1652 132.837 60.1277 131.765 61.1246C132.748 62.1495 133.73 63.198 134.71 64.2696C139.786 69.8201 144.813 75.9867 149.689 82.6678C157.8 83.5331 165.58 84.7905 172.851 86.3895C174.27 86.7016 175.67 87.0266 177.049 87.3643C177.358 85.9458 177.648 84.5365 177.916 83.1408C178.47 80.2547 178.927 77.4268 179.246 74.6968C181.228 58.2378 178.686 45.4411 172.826 42.0803C172.644 41.9806 172.458 41.8873 172.266 41.8005C171.059 41.2541 169.65 40.9649 167.957 40.96ZM166.882 45.2687C163.544 45.5278 159.138 46.9668 153.856 49.8938C148.975 52.5984 143.575 56.4457 137.911 61.3858C142.703 66.6271 147.439 72.3907 152.04 78.5932C159.595 79.4603 166.866 80.6641 173.715 82.168C174.24 79.4208 174.667 76.7532 174.967 74.196L174.967 74.1889L174.968 74.1817C175.922 66.2583 175.758 59.4207 174.75 54.3109C173.697 48.9766 171.948 46.5687 170.716 45.8374C170.131 45.5252 169.284 45.2687 167.914 45.2687H166.882ZM166.351 27.0431H163.606V27.3052C157.937 28.0782 151.921 30.2882 145.83 33.5689C139.049 37.2218 131.976 42.3081 124.905 48.5838C117.834 42.3486 110.764 37.3022 103.984 33.6804C97.8786 30.4187 91.8522 28.2291 86.179 27.4691V27.2154H83.4835C82.9419 27.1868 82.4041 27.1723 81.8704 27.1723H77.5617V27.5515C74.8909 27.9837 72.3424 28.8445 69.9829 30.203L69.9808 30.2042C62.2816 34.6428 58.1967 43.3928 56.6986 53.7198C55.327 63.1739 56.0018 74.6119 58.5252 87.0886C46.4512 91.152 36.2115 96.2916 28.7146 102.208C20.5256 108.67 15 116.576 15 125.453C15 134.354 20.5505 142.283 28.7724 148.755C36.3019 154.682 46.5845 159.824 58.7036 163.872C56.199 176.389 55.5442 187.858 56.9367 197.334C58.4566 207.676 62.5617 216.431 70.274 220.869C73.8462 222.953 77.8965 223.863 82.1289 223.863C89.0209 223.863 96.579 221.429 104.256 217.294C111.038 213.641 118.11 208.554 125.181 202.279C132.252 208.514 139.322 213.56 146.102 217.182C153.78 221.284 161.333 223.69 168.216 223.69C172.461 223.69 176.502 222.776 180.103 220.703L180.105 220.701C187.805 216.263 191.889 207.513 193.388 197.186C194.759 187.732 194.084 176.295 191.561 163.818C203.598 159.771 213.815 154.631 221.3 148.711C229.478 142.243 235 134.326 235 125.453C235 116.552 229.45 108.623 221.228 102.151C213.698 96.2233 203.416 91.0818 191.296 87.0341C193.801 74.517 194.456 63.0474 193.063 53.5719C191.543 43.2299 187.438 34.4752 179.726 30.0369C177.411 28.6859 174.894 27.8278 172.266 27.3917V27H167.957C167.426 27 166.89 27.0145 166.351 27.0431ZM53.9934 103.651C38.7407 110.114 28.8739 118.688 28.8739 125.453C28.8739 132.217 38.7407 140.749 53.9934 147.255C56.521 148.33 59.1859 149.346 61.9614 150.303C63.302 150.766 64.6684 151.214 66.0576 151.649C66.4501 150.283 66.8631 148.907 67.2966 147.522C69.5283 140.396 72.3036 133.043 75.6228 125.539C72.2637 117.99 69.4496 110.592 67.1805 103.422C66.7429 102.039 66.3254 100.665 65.9283 99.2993C64.5473 99.7406 63.1804 100.191 61.8354 100.655C59.11 101.593 56.4744 102.584 53.9934 103.651ZM63.0907 104.779C60.4939 105.677 58.0133 106.612 55.6962 107.609L55.6853 107.614L55.6744 107.618C48.3315 110.73 42.4763 114.273 38.5386 117.692C34.3897 121.295 33.1825 124.029 33.1825 125.453C33.1825 126.873 34.3854 129.596 38.5364 133.195C42.4752 136.61 48.332 140.155 55.6796 143.29C58.0569 144.301 60.5725 145.263 63.204 146.174C65.3094 139.459 67.8817 132.562 70.9176 125.544C67.8423 118.481 65.2322 111.539 63.0907 104.779ZM70.754 176.209C68.772 192.668 71.3141 205.465 77.1739 208.825C78.4665 209.558 80.1038 209.946 82.0427 209.989C90.3204 209.989 102.2 203.887 115.034 192.668C116.095 191.74 117.163 190.778 118.235 189.781C117.252 188.756 116.27 187.708 115.29 186.636C110.214 181.086 105.187 174.919 100.311 168.238C92.1998 167.373 84.4201 166.115 77.1488 164.516C75.7299 164.204 74.3303 163.879 72.9514 163.541C72.6425 164.96 72.3518 166.369 72.0839 167.765C71.53 170.651 71.0735 173.479 70.754 176.209ZM76.2846 168.738C75.7605 171.485 75.3327 174.152 75.0335 176.71L75.0326 176.717L75.0318 176.724C74.0777 184.647 74.242 191.485 75.2504 196.595C76.3099 201.963 78.0748 204.368 79.3077 205.082C79.8095 205.364 80.6804 205.643 82.0907 205.68C85.5298 205.667 90.3003 204.25 96.1442 201.012C101.025 198.307 106.425 194.46 112.089 189.52C107.297 184.278 102.561 178.515 97.9601 172.312C90.4053 171.445 83.1335 170.241 76.2846 168.738ZM175.098 176.509L175.096 176.499C174.798 173.979 174.373 171.368 173.839 168.661C166.976 170.193 159.689 171.4 152.099 172.268C147.554 178.47 142.836 184.198 138.085 189.415C143.746 194.316 149.149 198.136 154.033 200.822C159.912 204.057 164.704 205.465 168.13 205.465C169.676 205.465 170.489 205.185 170.868 204.958L170.888 204.946L170.908 204.934C172.139 204.214 173.898 201.791 174.94 196.401C175.93 191.283 176.074 184.444 175.099 176.52L175.098 176.509ZM135.148 192.571C134.084 191.647 133.013 190.688 131.937 189.695C132.916 188.667 133.896 187.616 134.874 186.542C139.92 181.004 144.932 174.872 149.732 168.195C157.881 167.329 165.668 166.072 172.942 164.447C174.359 164.13 175.757 163.8 177.135 163.455C177.459 164.879 177.76 166.284 178.035 167.671C178.601 170.523 179.056 173.297 179.375 175.993C181.4 192.452 178.901 205.249 173.085 208.653C171.792 209.429 170.112 209.773 168.13 209.773C159.894 209.773 147.984 203.711 135.148 192.571ZM194.272 143.292L194.283 143.287C201.625 140.176 207.481 136.632 211.426 133.212C215.566 129.622 216.8 126.882 216.817 125.439C216.81 124.015 215.601 121.298 211.464 117.71C207.526 114.297 201.672 110.753 194.327 107.619C191.916 106.605 189.388 105.642 186.753 104.731C184.648 111.447 182.075 118.343 179.039 125.361C182.115 132.425 184.725 139.366 186.866 146.126C189.463 145.229 191.944 144.294 194.261 143.297L194.272 143.292ZM188.122 150.251C186.777 150.714 185.41 151.165 184.029 151.606C183.631 150.241 183.214 148.866 182.776 147.483C180.507 140.313 177.693 132.916 174.334 125.367C177.653 117.862 180.429 110.509 182.66 103.383C183.094 101.999 183.507 100.623 183.899 99.2562C185.288 99.691 186.654 100.14 187.996 100.602C190.775 101.559 193.449 102.576 196.007 103.651C211.259 110.157 221.126 118.688 221.126 125.453C221.083 132.217 211.216 140.792 195.964 147.255C193.483 148.322 190.847 149.312 188.122 150.251ZM174.593 96.7141C173.207 96.3755 171.805 96.0525 170.388 95.7444C167.847 95.1918 165.257 94.6872 162.623 94.2271C160.746 93.8994 158.847 93.5942 156.927 93.3102C157.954 94.9034 158.981 96.5169 159.994 98.1508C161.062 99.8753 162.114 101.623 163.132 103.392C164.162 105.147 165.148 106.901 166.101 108.656C167.02 110.348 167.909 112.041 168.776 113.733C169.482 111.928 170.162 110.122 170.813 108.322C171.719 105.814 172.567 103.317 173.347 100.845C173.785 99.4596 174.2 98.0816 174.593 96.7141ZM169.133 99.8812C167.984 99.6337 166.823 99.396 165.652 99.1677C166.058 99.8502 166.46 100.537 166.857 101.228C167.253 101.902 167.643 102.576 168.026 103.249C168.409 102.121 168.778 100.998 169.133 99.8812ZM142.085 154.935C145.172 150.402 148.175 145.556 151.125 140.452C153.95 135.516 156.578 130.472 159.008 125.41C156.58 120.361 153.951 115.356 151.089 110.423C148.15 105.374 145.113 100.565 142.01 96.0261C136.388 95.6137 130.688 95.3784 125 95.3784C119.266 95.3784 113.561 95.6144 107.915 96.0569C104.828 100.59 101.825 105.435 98.8759 110.539C96.0417 115.49 93.3826 120.53 90.9869 125.57C93.4155 130.623 96.0468 135.631 98.9103 140.567C101.85 145.617 104.887 150.426 107.99 154.966C113.612 155.378 119.312 155.613 125 155.613C130.734 155.613 136.439 155.377 142.085 154.935ZM144.475 159.06C138.055 159.62 131.549 159.922 125 159.922C118.494 159.922 111.988 159.62 105.611 159.103C102.035 153.976 98.5449 148.504 95.1841 142.731C91.9095 137.086 88.9366 131.356 86.2221 125.582C88.8935 119.808 91.9095 114.035 95.141 108.391C98.5018 102.574 101.949 97.0588 105.525 91.9315C111.945 91.3713 118.451 91.0697 125 91.0697C131.506 91.0697 138.012 91.3713 144.389 91.8884C147.965 97.0157 151.455 102.488 154.816 108.261C158.09 113.906 161.063 119.636 163.778 125.41C161.063 131.183 158.09 136.957 154.859 142.601C151.498 148.418 148.051 153.933 144.475 159.06ZM168.776 137C167.915 138.679 167.034 140.369 166.128 142.059C165.173 143.837 164.191 145.616 163.175 147.384C162.143 149.2 161.077 150.992 159.994 152.761C158.996 154.393 157.983 156.004 156.97 157.595C158.881 157.315 160.772 157.009 162.639 156.68C165.315 156.208 167.944 155.688 170.518 155.123C171.936 154.812 173.338 154.486 174.722 154.148C174.322 152.782 173.903 151.405 173.462 150.021C172.657 147.491 171.784 144.936 170.842 142.369C170.187 140.583 169.498 138.792 168.776 137ZM168.08 147.467C167.697 148.152 167.309 148.837 166.916 149.521C166.493 150.265 166.066 151.004 165.634 151.739C166.851 151.499 168.056 151.249 169.249 150.99C168.874 149.821 168.484 148.646 168.08 147.467ZM122.128 179.833C120.32 177.862 118.515 175.797 116.716 173.641C115.511 172.196 114.307 170.711 113.108 169.186C114.986 169.269 116.885 169.343 118.798 169.396C120.836 169.453 122.891 169.487 124.957 169.487C127.077 169.487 129.185 169.464 131.275 169.41C133.178 169.362 135.066 169.288 136.935 169.186C135.757 170.716 134.568 172.207 133.371 173.658C131.602 175.803 129.816 177.858 128.031 179.82C127.048 180.9 126.066 181.951 125.086 182.973C124.1 181.955 123.113 180.908 122.128 179.833ZM125.072 176.669C124.214 175.729 123.355 174.766 122.497 173.781C123.314 173.791 124.134 173.796 124.957 173.796C125.848 173.796 126.738 173.792 127.626 173.783C126.776 174.767 125.924 175.729 125.072 176.669ZM93.0298 157.595C92.0032 156.003 90.9869 154.391 89.9807 152.758C88.9175 151.032 87.8657 149.284 86.8253 147.513C85.7945 145.759 84.8084 144.004 83.8556 142.25C82.9365 140.557 82.0483 138.865 81.181 137.172C80.475 138.978 79.7947 140.784 79.1441 142.584C78.238 145.091 77.3895 147.588 76.6095 150.06C76.1722 151.446 75.7565 152.824 75.3643 154.192C76.7504 154.53 78.1521 154.853 79.5687 155.161C82.1137 155.715 84.7068 156.22 87.3446 156.68C89.2176 157.007 91.1131 157.312 93.0298 157.595ZM84.3232 151.742C83.9172 151.063 83.5129 150.381 83.1103 149.696C82.7106 149.015 82.3178 148.336 81.9312 147.656C81.5481 148.784 81.1786 149.907 80.8237 151.024C81.9792 151.273 83.1458 151.512 84.3232 151.742ZM124.871 67.9322C123.891 68.9546 122.909 70.0058 121.926 71.0854C120.141 73.0474 118.355 75.1029 116.585 77.248C115.389 78.6981 114.199 80.1892 113.022 81.7199C114.891 81.6173 116.779 81.544 118.682 81.4953C120.772 81.4419 122.88 81.4183 125 81.4183C127.066 81.4183 129.121 81.4527 131.159 81.5096C133.072 81.5631 134.971 81.6365 136.849 81.7199C135.65 80.1948 134.446 78.7092 133.24 77.2641C131.442 75.1085 129.637 73.0433 127.829 71.0725C126.844 69.9974 125.857 68.9505 124.871 67.9322ZM124.885 74.2368C124.033 75.177 123.181 76.1391 122.331 77.1225C123.219 77.1138 124.109 77.1097 125 77.1097C125.823 77.1097 126.643 77.115 127.46 77.1249C126.602 76.1398 125.743 75.177 124.885 74.2368ZM89.9629 98.1437C90.9614 96.5127 91.974 94.9016 92.9867 93.3102C91.0759 93.5908 89.1859 93.8963 87.3191 94.2241C84.6444 94.6937 82.0176 95.209 79.4461 95.7626C78.0251 96.0685 76.621 96.3861 75.235 96.7141C75.6346 98.0812 76.0548 99.4585 76.4955 100.844C77.3007 103.375 78.1746 105.932 79.117 108.499C79.7719 110.284 80.4599 112.073 81.181 113.863C82.0431 112.18 82.9257 110.498 83.8338 108.816C84.7866 107.051 85.7675 105.287 86.7822 103.522C87.8135 101.706 88.8798 99.9131 89.9629 98.1437ZM84.3271 99.1599C83.1121 99.3966 81.9082 99.6425 80.7161 99.8969C81.0909 101.066 81.4805 102.241 81.8852 103.42C82.2657 102.742 82.651 102.063 83.0413 101.384C83.4651 100.638 83.8942 99.8964 84.3271 99.1599Z" fill="white"/>
<path opacity="0.35" d="M124.741 145.23C135.616 145.23 144.432 136.414 144.432 125.539C144.432 114.664 135.616 105.848 124.741 105.848C113.867 105.848 105.051 114.664 105.051 125.539C105.051 136.414 113.867 145.23 124.741 145.23Z" fill="white"/>
<path opacity="0.35" fill-rule="evenodd" clip-rule="evenodd" d="M148.741 125.539C148.741 138.793 137.996 149.538 124.742 149.538C111.487 149.538 100.742 138.793 100.742 125.539C100.742 112.285 111.487 101.54 124.742 101.54C137.996 101.54 148.741 112.285 148.741 125.539ZM144.432 125.539C144.432 136.414 135.616 145.23 124.742 145.23C113.867 145.23 105.051 136.414 105.051 125.539C105.051 114.664 113.867 105.848 124.742 105.848C135.616 105.848 144.432 114.664 144.432 125.539Z" fill="white"/>
<g opacity="0.75">
<path d="M230.691 125.453C230.691 111.45 213.155 98.179 186.269 89.9495C192.473 62.5464 189.716 40.7446 177.566 33.7646C174.765 32.1273 171.49 31.3517 167.914 31.3517V40.96C169.896 40.96 171.49 41.3478 172.826 42.0803C178.686 45.441 181.228 58.2378 179.246 74.6968C178.772 78.747 177.996 83.0125 177.048 87.3643C168.604 85.2961 159.383 83.7019 149.689 82.6678C143.872 74.6968 137.84 67.4583 131.765 61.1246C145.811 48.0693 158.995 40.917 167.957 40.917V31.3087C156.108 31.3087 140.597 39.7536 124.914 54.4031C109.23 39.8398 93.7191 31.481 81.8703 31.481V41.0893C90.7892 41.0893 104.017 48.1986 118.063 61.1676C112.031 67.5014 105.999 74.6968 100.268 82.6678C90.5307 83.7019 81.3102 85.2961 72.8652 87.4074C71.8742 83.0987 71.1417 78.9193 70.6247 74.9123C68.5996 58.4532 71.0986 45.6565 76.9153 42.2526C78.2079 41.4771 79.8883 41.1324 81.8703 41.1324V31.5241C78.251 31.5241 74.9764 32.2996 72.1327 33.9369C60.0254 40.917 57.3109 62.6757 63.5585 89.9926C36.7587 98.2652 19.3086 111.493 19.3086 125.453C19.3086 139.456 36.8448 152.727 63.7308 160.956C57.5264 188.359 60.2839 210.161 72.4343 217.141C75.235 218.778 78.5095 219.554 82.1288 219.554C93.9776 219.554 109.489 211.109 125.172 196.459C140.856 211.023 156.367 219.382 168.216 219.382C171.835 219.382 175.11 218.606 177.953 216.969C190.061 209.989 192.775 188.23 186.528 160.913C213.241 152.684 230.691 139.413 230.691 125.453ZM174.593 96.7141C172.998 102.272 171.016 108.003 168.776 113.733C167.009 110.286 165.157 106.839 163.132 103.392C161.15 99.9456 159.038 96.5848 156.927 93.3102C163.045 94.215 168.948 95.3353 174.593 96.7141ZM154.859 142.601C151.498 148.418 148.051 153.933 144.475 159.06C138.055 159.62 131.549 159.922 125 159.922C118.494 159.922 111.988 159.62 105.611 159.103C102.035 153.976 98.5448 148.504 95.184 142.731C91.9094 137.086 88.9365 131.356 86.222 125.582C88.8934 119.808 91.9095 114.035 95.141 108.391C98.5017 102.574 101.949 97.0588 105.525 91.9315C111.945 91.3713 118.451 91.0697 125 91.0697C131.506 91.0697 138.012 91.3713 144.389 91.8884C147.965 97.0157 151.455 102.488 154.816 108.261C158.09 113.906 161.063 119.636 163.778 125.41C161.063 131.183 158.09 136.957 154.859 142.601ZM168.776 137C171.103 142.774 173.085 148.547 174.722 154.148C169.077 155.527 163.132 156.691 156.97 157.595C159.081 154.278 161.193 150.874 163.175 147.384C165.157 143.937 167.009 140.447 168.776 137ZM125.086 182.973C121.079 178.837 117.072 174.227 113.108 169.186C116.986 169.358 120.95 169.487 124.957 169.487C129.007 169.487 133.014 169.401 136.935 169.186C133.057 174.227 129.05 178.837 125.086 182.973ZM93.0297 157.595C86.9114 156.691 81.0086 155.57 75.3642 154.192C76.9584 148.633 78.9404 142.903 81.1809 137.172C82.9474 140.619 84.8002 144.066 86.8252 147.513C88.8503 150.96 90.9185 154.321 93.0297 157.595ZM124.871 67.9322C128.878 72.0685 132.885 76.6788 136.849 81.7199C132.971 81.5476 129.007 81.4183 125 81.4183C120.95 81.4183 116.943 81.5045 113.022 81.7199C116.9 76.6788 120.907 72.0685 124.871 67.9322ZM92.9866 93.3102C90.8754 96.6279 88.7641 100.032 86.7822 103.522C84.8002 106.969 82.9474 110.416 81.1809 113.863C78.8542 108.089 76.8722 102.315 75.235 96.7141C80.8793 95.3784 86.8252 94.215 92.9866 93.3102ZM53.9933 147.255C38.7406 140.749 28.8738 132.217 28.8738 125.453C28.8738 118.688 38.7406 110.114 53.9933 103.651C57.6987 102.057 61.7489 100.635 65.9283 99.2993C68.3842 107.744 71.6157 116.534 75.6227 125.539C71.6588 134.501 68.4704 143.248 66.0575 151.649C61.792 150.314 57.7418 148.849 53.9933 147.255ZM77.1739 208.825C71.3141 205.465 68.772 192.668 70.754 176.209C71.2279 172.159 72.0035 167.893 72.9514 163.541C81.3963 165.609 90.6169 167.204 100.311 168.238C106.128 176.209 112.16 183.447 118.235 189.781C104.189 202.836 91.0046 209.989 82.0426 209.989C80.1037 209.946 78.4664 209.558 77.1739 208.825ZM179.375 175.993C181.4 192.452 178.901 205.249 173.085 208.653C171.792 209.429 170.112 209.773 168.13 209.773C159.211 209.773 145.983 202.664 131.937 189.695C137.969 183.361 144.001 176.166 149.732 168.195C159.469 167.161 168.69 165.566 177.135 163.455C178.126 167.807 178.901 171.986 179.375 175.993ZM195.964 147.255C192.258 148.849 188.208 150.271 184.029 151.606C181.573 143.161 178.341 134.372 174.334 125.367C178.298 116.405 181.486 107.658 183.899 99.2562C188.165 100.592 192.215 102.057 196.007 103.651C211.259 110.157 221.126 118.688 221.126 125.453C221.083 132.217 211.216 140.792 195.964 147.255Z" fill="white"/>
<path d="M124.741 145.23C135.616 145.23 144.432 136.414 144.432 125.539C144.432 114.664 135.616 105.848 124.741 105.848C113.867 105.848 105.051 114.664 105.051 125.539C105.051 136.414 113.867 145.23 124.741 145.23Z" fill="white"/>
</g>
</svg>
