<svg width="250" height="250" viewBox="0 0 250 250" fill="none" xmlns="http://www.w3.org/2000/svg">
<path opacity="0.75" d="M161.65 159.974C168.661 159.248 173.981 153.203 173.739 145.949C173.498 138.696 167.452 132.893 160.199 132.893H159.716C152.22 133.135 146.417 139.421 146.659 146.916C146.901 150.543 148.352 153.687 150.528 155.863C142.307 172.063 129.734 183.911 110.875 193.824C98.0608 200.594 84.7631 203.012 71.4653 201.32C60.5848 199.869 52.1224 195.034 46.8024 187.054C39.0658 175.206 38.3407 162.391 44.869 149.576C49.4631 140.388 56.7158 133.618 61.3099 130.233C60.3429 127.09 58.8919 121.77 58.1668 117.902C23.108 143.29 26.7351 177.624 37.3736 193.824C45.3521 205.914 61.5519 213.41 79.4438 213.41C84.2792 213.41 89.1145 212.926 93.9506 211.718C124.899 205.672 148.352 187.296 161.65 159.974V159.974ZM204.204 129.992C185.828 108.472 158.749 96.6243 127.8 96.6243H123.932C121.756 92.2721 117.162 89.3702 112.084 89.3702H111.601C104.106 89.6121 98.3035 95.8984 98.5448 103.395C98.7867 110.648 104.831 116.451 112.084 116.451H112.568C117.887 116.209 122.481 112.824 124.415 108.23H128.767C147.143 108.23 164.551 113.549 180.268 123.946C192.357 131.926 201.061 142.323 205.896 154.896C210.007 165.051 209.765 174.964 205.412 183.428C198.643 196.242 187.279 203.254 172.289 203.254C162.617 203.254 153.43 200.352 148.593 198.176C145.934 200.594 141.098 204.463 137.713 206.881C148.11 211.717 158.749 214.377 168.903 214.377C192.115 214.377 209.281 201.561 215.81 188.747C222.821 174.722 222.337 150.543 204.204 129.992V129.992ZM81.3779 164.083C81.6199 171.337 87.6643 177.14 94.9177 177.14H95.4016C102.897 176.899 108.699 170.611 108.457 163.116C108.216 155.862 102.171 150.06 94.9177 150.06H94.4345C93.9506 150.06 93.2248 150.06 92.7423 150.301C82.8289 133.859 78.7187 115.967 80.1697 96.6236C81.136 82.116 85.9721 69.5426 94.4345 59.1453C101.446 50.199 114.986 45.8468 124.174 45.6056C149.802 45.1217 160.682 77.038 161.408 89.8533C164.551 90.5784 169.87 92.2714 173.498 93.4804C170.596 54.3107 146.417 34 123.207 34C101.446 34 81.3779 49.7166 73.3987 72.9285C62.277 103.878 69.5304 133.618 83.0701 157.072C81.8619 158.764 81.136 161.424 81.3779 164.084V164.083Z" fill="white"/>
<path opacity="0.35" fill-rule="evenodd" clip-rule="evenodd" d="M146.652 146.916C146.41 139.421 152.213 133.135 159.709 132.893H160.192C167.446 132.893 173.491 138.696 173.732 145.949C173.974 153.203 168.655 159.248 161.643 159.974C148.345 187.296 124.892 205.672 93.9437 211.718C89.1076 212.926 84.2723 213.41 79.4369 213.41C61.545 213.41 45.3453 205.914 37.3667 193.824C27.3924 178.636 23.5814 147.507 52.0381 122.755C53.933 121.107 55.9711 119.487 58.1599 117.902C58.5779 120.132 59.2371 122.844 59.9058 125.344C60.3971 127.18 60.8935 128.902 61.303 130.233C56.7089 133.618 49.4562 140.388 44.8621 149.576C38.3338 162.391 39.0589 175.206 46.7955 187.054C52.1155 195.034 60.5779 199.869 71.4584 201.32C84.7562 203.012 98.054 200.594 110.869 193.824C129.728 183.911 142.3 172.063 150.521 155.863C148.345 153.687 146.894 150.543 146.652 146.916ZM142.267 156.4C140.783 153.705 139.884 150.627 139.668 147.382L139.66 147.262L139.656 147.142C139.291 135.846 148.06 126.265 159.483 125.896L159.596 125.893H160.192C171.192 125.893 180.36 134.661 180.728 145.717C180.728 145.717 180.728 145.716 180.728 145.717M142.267 156.4C134.836 169.211 123.928 179.051 107.612 187.628L107.605 187.631L107.599 187.635C96.0105 193.757 84.1648 195.877 72.3624 194.379C63.1389 193.144 56.6499 189.199 52.638 183.198C46.2945 173.466 45.7102 163.333 51.0994 152.754L51.1113 152.73L51.1231 152.707C55.0752 144.803 61.4432 138.824 65.4554 135.868L65.9158 135.529C68.3369 143.24 71.5238 150.557 75.2096 157.368C74.4793 159.641 74.1918 162.114 74.3824 164.513C74.8526 175.476 83.976 184.14 94.9108 184.14H95.5073L95.6199 184.136C107.043 183.769 115.812 174.186 115.447 162.89L115.447 162.883C115.099 152.432 106.888 144.027 96.7006 143.137C89.0335 128.971 85.9016 113.699 87.1432 97.1472L87.1454 97.118L87.1473 97.0888C88.024 83.9264 92.3723 72.7597 99.8567 63.5641L99.8974 63.514L99.9372 63.4633C102.474 60.226 106.467 57.5184 111.155 55.58C115.811 53.6554 120.639 52.7044 124.325 52.6039C133.714 52.4371 140.889 58.066 146.205 66.4807C151.573 74.9794 154.116 85.0088 154.412 90.2492L154.545 92.5886C146.005 90.627 137.046 89.6243 127.793 89.6243H127.645C123.878 85.1314 118.2 82.3702 112.078 82.3702H111.481L111.368 82.3738C99.9458 82.7425 91.178 92.3239 91.5415 103.62L91.5418 103.628C91.9105 114.682 101.077 123.451 112.078 123.451H112.72L112.879 123.444C119.202 123.156 124.827 119.968 128.393 115.23H128.76C145.724 115.23 161.794 120.123 176.399 129.785L176.405 129.789C187.408 137.051 195.098 146.338 199.356 157.408L199.378 157.465L199.401 157.522C202.845 166.031 202.482 173.781 199.198 180.192C193.637 190.694 184.659 196.254 172.282 196.254C163.839 196.254 155.638 193.673 151.459 191.793L148.664 190.535C155.622 183.468 161.563 175.284 166.383 166.109C175.008 163.408 181.044 155.197 180.728 145.717M124.484 208.453C115.667 213.079 105.958 216.486 95.4614 218.553C90.0408 219.89 84.6847 220.41 79.4369 220.41C59.8485 220.41 41.122 212.224 31.5242 197.68L31.5199 197.673L31.5156 197.667C19.0174 178.635 15.6864 140.017 54.0542 112.233L60.9957 107.206C60.6069 95.4177 62.2985 83.1179 66.7879 70.6066C75.5816 45.0823 97.9783 27 123.2 27C150.95 27 177.369 51.0801 180.472 92.9632L181.183 102.56C191.889 108.343 201.446 116.001 209.484 125.403C229.355 147.957 230.421 175.162 222.064 191.877L222.052 191.901L222.04 191.924C214.271 207.175 194.637 221.377 168.897 221.377C157.535 221.377 145.89 218.407 134.754 213.229L124.484 208.453ZM204.197 129.992C185.821 108.472 158.742 96.6243 127.793 96.6243H123.925C121.749 92.2721 117.155 89.3702 112.078 89.3702H111.594C104.099 89.6121 98.2967 95.8984 98.5379 103.395C98.7798 110.648 104.824 116.451 112.078 116.451H112.561C117.88 116.209 122.474 112.824 124.408 108.23H128.76C147.136 108.23 164.544 113.549 180.261 123.946C192.35 131.926 201.054 142.323 205.889 154.896C210 165.051 209.758 174.964 205.406 183.428C198.636 196.242 187.272 203.254 172.282 203.254C162.61 203.254 153.423 200.352 148.587 198.176C147.4 199.256 145.779 200.624 144.047 202.023C141.899 203.759 139.58 205.542 137.706 206.881C140.21 208.046 142.728 209.084 145.25 209.99C153.199 212.844 161.187 214.377 168.897 214.377C192.108 214.377 209.275 201.561 215.803 188.747C222.814 174.722 222.33 150.543 204.197 129.992ZM73.3918 72.9285C81.3711 49.7166 101.439 34 123.2 34C144.849 34 167.34 51.6695 172.623 85.8307C173.004 88.2949 173.295 90.845 173.491 93.4804C171.396 92.7822 168.737 91.9227 166.259 91.1813C164.446 90.6389 162.729 90.1597 161.401 89.8533C160.675 77.038 149.796 45.1217 124.167 45.6056C114.979 45.8468 101.439 50.199 94.4276 59.1453C85.9652 69.5426 81.1291 82.116 80.1628 96.6236C78.7118 115.967 82.822 133.859 92.7354 150.301C93.2179 150.06 93.9437 150.06 94.4276 150.06H94.9108C102.164 150.06 108.209 155.862 108.451 163.116C108.692 170.611 102.89 176.899 95.3947 177.14H94.9108C87.6574 177.14 81.613 171.337 81.3711 164.083C81.1291 161.423 81.855 158.764 83.0632 157.072C69.5235 133.618 62.2701 103.878 73.3918 72.9285Z" fill="white"/>
</svg>
