<svg width="250" height="250" viewBox="0 0 250 250" fill="none" xmlns="http://www.w3.org/2000/svg">
<path opacity="0.35" d="M100.94 32.9991C125.523 26.6883 152.693 30.3657 174.373 43.7601C201.678 60.1059 219.504 91.0258 219.958 122.854C220.956 155 204.218 186.874 177.322 204.354C147.386 224.513 105.975 225.286 75.4035 206.125C44.2434 187.509 26.0547 149.96 30.7272 113.909C34.4908 75.8148 63.8834 42.2165 100.94 32.9999V32.9991Z" fill="white"/>
<path opacity="0.65" fill-rule="evenodd" clip-rule="evenodd" d="M205.04 113.806C200.248 63.9048 143.456 29.5015 97.1552 48.1352C64.148 59.7697 41.0877 94.6729 44.2981 129.849C45.5186 173.295 87.1171 209.971 130.162 205.654C175.424 204.335 212.501 158.707 205.04 113.806ZM102.06 120.186C111.506 120.322 120.997 120.322 130.488 120.276C136.018 111.697 141.626 103.175 147.235 94.6523C152.849 86.1206 158.464 77.5889 164 69C150.164 79.8426 136.714 91.154 123.271 102.46C116.217 108.393 109.165 114.324 102.06 120.186ZM148.031 129.814C138.54 129.678 129.048 129.678 119.512 129.678C113.979 138.262 108.368 146.801 102.756 155.339C97.1445 163.877 91.533 172.416 86 181C98.8379 170.989 111.294 160.509 123.752 150.028C131.81 143.248 139.868 136.468 148.031 129.814Z" fill="white"/>
</svg>
