<svg width="250" height="250" viewBox="0 0 250 250" fill="none" xmlns="http://www.w3.org/2000/svg">
<circle opacity="0.35" cx="125" cy="125" r="95" fill="white"/>
<path d="M178.328 148.576C178.324 148.571 178.32 148.567 178.316 148.563C178.504 147.924 178.697 147.29 178.861 146.636C185.898 118.599 168.724 85.4526 139.661 68C152.397 85.2653 158.028 106.178 153.025 124.466C152.579 126.097 152.042 127.663 151.449 129.184C150.806 128.761 149.995 128.281 148.906 127.681C148.906 127.681 119.997 109.831 88.6629 78.2589C87.8408 77.4301 105.371 103.315 125.266 124.334C115.893 119.074 89.7709 100.068 73.2338 84.9322C75.2655 88.3205 77.6821 91.5832 80.3385 94.7243C94.1484 112.238 112.158 133.847 133.735 150.44C118.575 159.718 97.1536 160.439 75.8254 150.45C70.55 147.978 65.5907 144.995 61 141.606C70.0282 156.047 83.9329 168.506 100.856 175.78C121.038 184.453 141.107 183.865 156.055 175.922L156.043 175.939C156.111 175.896 156.198 175.849 156.269 175.805C156.883 175.475 157.492 175.139 158.088 174.784C165.269 171.056 179.455 167.274 187.069 182.089C188.933 185.714 192.896 166.501 178.328 148.576Z" fill="white"/>
</svg>
