<svg width="200" height="200" viewBox="0 0 200 200" fill="none" xmlns="http://www.w3.org/2000/svg">
<path fill-rule="evenodd" clip-rule="evenodd" d="M99.5294 0H0V102.529V199.804H67.1045C72.2309 200.701 74.1534 197.625 74.1534 194.934C74.1534 192.499 74.0252 184.425 74.0252 175.838C48.2647 180.58 41.6003 169.558 39.5497 163.791C38.3962 160.843 33.3979 151.743 29.0404 149.308C25.4519 147.386 20.3254 142.644 28.9123 142.516C36.9865 142.388 42.7537 149.949 44.6762 153.025C53.9038 168.533 68.6424 164.175 74.5378 161.484C75.435 154.819 78.1264 150.334 81.0741 147.77C58.2613 145.207 34.4232 136.364 34.4232 97.1466C34.4232 85.9965 38.3962 76.7689 44.9325 69.5918C43.9072 67.0286 40.3187 56.5193 45.9578 42.4215C45.9578 42.4215 54.5446 39.7301 74.1534 52.9308C82.3557 50.6239 91.0707 49.4704 99.7857 49.4704C108.501 49.4704 117.216 50.6239 125.418 52.9308C145.027 39.602 153.614 42.4215 153.614 42.4215C159.253 56.5193 155.664 67.0286 154.639 69.5918C161.175 76.7689 165.148 85.8684 165.148 97.1466C165.148 136.492 141.182 145.207 118.369 147.77C122.086 150.975 125.29 157.126 125.29 166.738C125.29 180.452 125.162 191.474 125.162 194.934C125.162 197.625 132.211 199.804 132.211 199.804H200V102.529V0H99.5294Z" fill="#1B1F23"/>
</svg>
