<svg width="200" height="200" viewBox="0 0 200 200" fill="none" xmlns="http://www.w3.org/2000/svg">
<path d="M99.9935 192.209L136.839 78.8748H63.2017L99.9935 192.209Z" fill="#E24329"/>
<path d="M11.594 78.8748L0.373811 113.307C-0.64152 116.434 0.454963 119.885 3.13487 121.834L99.9935 192.209L11.594 78.8748Z" fill="#FCA326"/>
<path d="M11.594 78.8748H63.2017L40.9912 10.619C39.8544 7.12699 34.9004 7.12699 33.7228 10.619L11.594 78.8748Z" fill="#E24329"/>
<path d="M188.446 78.8748L199.626 113.307C200.641 116.434 199.545 119.885 196.865 121.834L99.9934 192.209L188.446 78.8748Z" fill="#FCA326"/>
<path d="M188.446 78.8748H136.839L159.008 10.619C160.145 7.12699 165.099 7.12699 166.277 10.619L188.446 78.8748Z" fill="#E24329"/>
<path d="M99.9934 192.209L136.839 78.8748H188.446L99.9934 192.209Z" fill="#FC6D26"/>
<path d="M99.9935 192.209L11.594 78.8748H63.2017L99.9935 192.209Z" fill="#FC6D26"/>
</svg>
