<svg width="200" height="200" viewBox="0 0 200 200" fill="none" xmlns="http://www.w3.org/2000/svg">
<g clip-path="url(#clip0_56_84)">
<path d="M170.413 170.411H140.778V124.003C140.778 112.936 140.581 98.6898 125.366 98.6898C109.931 98.6898 107.569 110.747 107.569 123.197V170.408H77.9353V74.9729H106.384V88.0148H106.783C112.575 78.111 123.385 72.1737 134.852 72.5995C164.887 72.5995 170.425 92.3553 170.425 118.057L170.413 170.411ZM44.4979 61.9273C35.0637 61.9273 27.297 54.1651 27.297 44.7309C27.297 35.2967 35.0602 27.5336 44.4943 27.5336C53.9276 27.5336 61.6898 35.2949 61.6916 44.7273C61.6916 54.1597 53.9303 61.9264 44.4979 61.9273ZM59.3147 170.411H29.6498V74.9729H59.3147V170.411ZM185.186 0.0137939L0 0.0137982V14.429V185.565V199.996H200V194.5V14.4173V0.0137982L185.186 0.0137939Z" fill="#0A66C2"/>
</g>
<defs>
<clipPath id="clip0_56_84">
<rect width="200" height="200" fill="white"/>
</clipPath>
</defs>
</svg>
