<svg width="100" height="100" viewBox="0 0 100 100" fill="none" xmlns="http://www.w3.org/2000/svg">
<circle cx="50" cy="50" r="50" fill="url(#paint0_linear_51_1962)"/>
<g filter="url(#filter0_i_51_1962)">
<path d="M53.5312 16.0401C53.5312 14.3819 52.1455 13 50.4827 13C48.8545 13 47.4688 14.3819 47.4688 16.0401V23.2948C47.4688 24.9185 48.8545 26.3003 50.4827 26.3003C52.1455 26.3003 53.5312 24.9185 53.5312 23.2948V16.0401ZM67.5958 29.2022C66.4527 30.3768 66.4527 32.2768 67.5958 33.4514C68.7737 34.5914 70.7136 34.626 71.8915 33.4514L77.0531 28.304C78.2309 27.1294 78.2309 25.1603 77.0531 24.0203C75.9099 22.8457 73.97 22.8457 72.8268 24.0203L67.5958 29.2022ZM29.0739 33.4514C30.2517 34.5914 32.1917 34.5914 33.3349 33.4514C34.5127 32.3459 34.5127 30.3422 33.3695 29.2022L28.2079 24.0203C27.0993 22.8802 25.1247 22.8457 23.9469 24.0203C22.8037 25.1603 22.8037 27.1294 23.9122 28.2695L29.0739 33.4514ZM50.4827 32.8641C40.8176 32.8641 32.8152 40.8443 32.8152 50.5173C32.8152 60.1557 40.8176 68.1359 50.4827 68.1359C60.1132 68.1359 68.1155 60.1557 68.1155 50.5173C68.1155 40.8443 60.1132 32.8641 50.4827 32.8641ZM84.9515 53.5228C86.6143 53.5228 88 52.1409 88 50.5173C88 48.8936 86.6143 47.5117 84.9515 47.5117H77.7113C76.0831 47.5117 74.6975 48.8936 74.6975 50.5173C74.6975 52.1409 76.0831 53.5228 77.7113 53.5228H84.9515ZM16.0139 47.5117C14.3857 47.5117 13 48.8936 13 50.5173C13 52.1409 14.3857 53.5228 16.0139 53.5228H23.254C24.9169 53.5228 26.3025 52.1409 26.3025 50.5173C26.3025 48.8936 24.9169 47.5117 23.254 47.5117H16.0139ZM71.8568 67.6177C70.7136 66.4431 68.7737 66.4431 67.5958 67.6177C66.4527 68.7577 66.4527 70.6923 67.5958 71.8669L72.8268 77.0488C73.97 78.1888 75.9099 78.1543 77.0531 77.0143C78.2309 75.8397 78.2309 73.9051 77.0531 72.7651L71.8568 67.6177ZM23.9122 72.7305C22.7691 73.8706 22.7691 75.8052 23.8776 76.9797C25.0208 78.1198 26.9954 78.1543 28.1732 77.0143L33.3349 71.8669C34.5127 70.7269 34.5127 68.7923 33.3695 67.6177C32.2263 66.4777 30.2517 66.4777 29.0739 67.6177L23.9122 72.7305ZM53.5312 77.7397C53.5312 76.0815 52.1455 74.6997 50.4827 74.6997C48.8545 74.6997 47.4688 76.0815 47.4688 77.7397V84.9945C47.4688 86.6181 48.8545 88 50.4827 88C52.1455 88 53.5312 86.6181 53.5312 84.9945V77.7397Z" fill="white" fill-opacity="0.75"/>
</g>
<defs>
<filter id="filter0_i_51_1962" x="13" y="13" width="75" height="75" filterUnits="userSpaceOnUse" color-interpolation-filters="sRGB">
<feFlood flood-opacity="0" result="BackgroundImageFix"/>
<feBlend mode="normal" in="SourceGraphic" in2="BackgroundImageFix" result="shape"/>
<feColorMatrix in="SourceAlpha" type="matrix" values="0 0 0 0 0 0 0 0 0 0 0 0 0 0 0 0 0 0 127 0" result="hardAlpha"/>
<feOffset/>
<feGaussianBlur stdDeviation="2.5"/>
<feComposite in2="hardAlpha" operator="arithmetic" k2="-1" k3="1"/>
<feColorMatrix type="matrix" values="0 0 0 0 0 0 0 0 0 0 0 0 0 0 0 0 0 0 0.35 0"/>
<feBlend mode="normal" in2="shape" result="effect1_innerShadow_51_1962"/>
</filter>
<linearGradient id="paint0_linear_51_1962" x1="0" y1="0" x2="100" y2="100" gradientUnits="userSpaceOnUse">
<stop stop-color="#7437FC"/>
<stop offset="1" stop-color="#EF008F"/>
</linearGradient>
</defs>
</svg>
