<svg width="100" height="100" viewBox="0 0 100 100" fill="none" xmlns="http://www.w3.org/2000/svg">
<g clip-path="url(#clip0_46_1147)">
<rect width="100" height="100" fill="white"/>
<path d="M89.7282 22.9919C89.4558 23.2646 89.1322 23.481 88.776 23.6286C88.4198 23.7762 88.038 23.8521 87.6525 23.852C87.2669 23.8519 86.8852 23.7758 86.5291 23.628C86.173 23.4802 85.8495 23.2637 85.5772 22.9908L83.5 20.9136L83.4177 20.9959L81.3877 18.966L85.6233 14.7303L89.7304 18.8375C90.0036 19.1101 90.2203 19.434 90.3681 19.7905C90.5159 20.147 90.5919 20.5292 90.5917 20.9151C90.5915 21.3011 90.5151 21.6832 90.3669 22.0396C90.2188 22.3959 90.0017 22.7195 89.7282 22.9919V22.9919Z" fill="#2CB756"/>
<path d="M80.3239 38.6717L71.0029 29.3507L81.3877 18.9659L83.4177 20.9959L74.9465 29.4671C77.2398 32.2139 79.0574 35.325 80.3239 38.6717V38.6717Z" fill="#4BC770"/>
<path d="M99.4434 42.4495L91.7726 50.1204L88.8467 47.1945L94.189 47.1945L94.1901 44.2555C94.1904 43.6439 94.3816 43.0476 94.737 42.5499C95.0924 42.0521 95.5943 41.6777 96.1726 41.4789C96.751 41.28 97.377 41.2667 97.9634 41.4407C98.5497 41.6147 99.0671 41.9674 99.4434 42.4495V42.4495Z" fill="#55C281"/>
<path d="M99.4523 57.8L91.7726 50.1203L99.4435 42.4495C99.8435 42.9642 100.06 43.598 100.058 44.25L100.055 56.0005C100.06 56.6507 99.8477 57.2839 99.4523 57.8V57.8Z" fill="#77DA95"/>
<path d="M80.875 40.2482L71.0029 50.1203L60.6181 39.7355L71.0029 29.3507L80.3239 38.6717C80.5222 39.1935 80.706 39.719 80.875 40.2482Z" fill="#00672A"/>
<path d="M88.8258 53.0671L82.2836 53.0682C82.0687 55.4242 81.596 57.7495 80.8739 60.0024L70.993 50.1215L80.8651 40.2494C81.5872 42.5063 82.0596 44.8357 82.2737 47.1957L88.8368 47.1957L91.7626 50.1215L88.8258 53.0671Z" fill="#2CB756"/>
<path d="M97.1236 58.9429C96.7379 58.943 96.356 58.8671 95.9996 58.7196C95.6433 58.572 95.3195 58.3557 95.0468 58.083C94.774 57.8102 94.5577 57.4864 94.4102 57.1301C94.2626 56.7737 94.1867 56.3918 94.1868 56.0061L94.1879 53.0671L88.8259 53.0671L91.7726 50.1204L99.4522 57.8C99.1768 58.1553 98.8239 58.443 98.4203 58.6411C98.0167 58.8392 97.5732 58.9424 97.1236 58.9429V58.9429Z" fill="#55C281"/>
<path d="M71.0029 50.1204L60.618 39.7356L50.2332 50.1204L60.618 60.5052L71.0029 50.1204Z" fill="#068339"/>
<path d="M80.8794 59.997L71.0029 50.1205L60.6181 60.5053L71.0029 70.8901L80.336 61.5571L80.8794 59.997Z" fill="#00672A"/>
<path d="M83.4067 79.2559L81.3877 81.2749L71.0029 70.8901L80.3348 61.5581C79.0685 64.9178 77.2466 68.0408 74.9454 70.7967L83.4067 79.2559Z" fill="#55C281"/>
<path d="M89.7282 81.4253L85.6332 85.5204L81.3877 81.2749L83.4067 79.2559L83.4978 79.347L85.5739 77.271C86.1248 76.7201 86.872 76.4106 87.6511 76.4106C88.4302 76.4106 89.1773 76.7201 89.7282 77.271C90.2791 77.8219 90.5886 78.569 90.5886 79.3481C90.5886 80.1272 90.2791 80.8744 89.7282 81.4253V81.4253Z" fill="#77DA95"/>
<path d="M60.6181 60.5052L50.2333 50.1204L39.8485 60.5052L50.2333 70.89L60.6181 60.5052Z" fill="#00672A"/>
<path d="M61.5557 80.3373L71.003 70.8901L60.6182 60.5052L50.2334 70.8901L60.1691 80.8258L61.5557 80.3373Z" fill="#2CB756"/>
<path d="M81.3877 81.2748L79.2546 83.408L70.7943 74.9478C68.0377 77.2489 64.9144 79.0711 61.5546 80.3383L71.0029 70.89L81.3877 81.2748Z" fill="#77DA95"/>
<path d="M85.6333 85.5204L81.4208 89.7329C80.8698 90.2838 80.1227 90.5933 79.3436 90.5933C78.5645 90.5933 77.8173 90.2838 77.2664 89.7329C76.7155 89.182 76.406 88.4349 76.406 87.6558C76.406 86.8767 76.7155 86.1295 77.2664 85.5786L79.3458 83.4992L79.2546 83.4081L81.3878 81.2749L85.6333 85.5204Z" fill="#55C281"/>
<path d="M57.9217 99.348L50.2366 91.6628L53.068 88.8314L53.0691 94.1858L56.007 94.1858C56.6059 94.1858 57.1905 94.369 57.6823 94.7108C58.1741 95.0526 58.5496 95.5366 58.7585 96.0979C58.9673 96.6593 58.9995 97.271 58.8507 97.8512C58.702 98.4313 58.3793 98.9521 57.9261 99.3436L57.9217 99.348Z" fill="#55C281"/>
<path d="M40.2459 80.8773L50.2333 70.8899L39.8485 60.5051L29.4637 70.8899L39.0394 80.4656L40.2459 80.8773Z" fill="#068339"/>
<path d="M53.0647 88.8283L50.2333 91.6597L47.1911 88.6175L47.1911 82.2872C44.8312 82.074 42.5021 81.6013 40.2459 80.8775L50.2366 70.8868L60.1702 80.8204C57.865 81.5734 55.4821 82.0632 53.0669 82.2806L53.0647 88.8283Z" fill="#00672A"/>
<path d="M39.0393 80.4657C35.5525 79.1946 32.3126 77.3284 29.4636 74.95L21.1088 83.3048L19.0788 81.2748L29.4636 70.89L39.0393 80.4657Z" fill="#4BC770"/>
<path d="M50.2333 91.6596L42.4482 99.4447C41.9661 99.0684 41.6134 98.551 41.4394 97.9646C41.2654 97.3783 41.2788 96.7523 41.4776 96.1739C41.6764 95.5955 42.0508 95.0936 42.5486 94.7382C43.0463 94.3828 43.6426 94.1916 44.2542 94.1913L47.191 94.1903V88.6174L50.2333 91.6596Z" fill="#55C281"/>
<path d="M57.9217 99.3481C57.3899 99.8114 56.7079 100.066 56.0026 100.064L44.2542 100.065C43.6023 100.067 42.9685 99.8502 42.4537 99.4502L50.2388 91.6652L57.9217 99.3481Z" fill="#77DA95"/>
<path d="M22.9883 89.7318C22.7158 90.0046 22.3922 90.221 22.036 90.3686C21.6799 90.5162 21.2981 90.5921 20.9125 90.592C20.527 90.5919 20.1452 90.5158 19.7891 90.368C19.433 90.2202 19.1095 90.0037 18.8372 89.7307L14.73 85.6236L19.0787 81.2749L21.1087 83.3049L20.9111 83.5025L22.9883 85.5797C23.2611 85.8522 23.4775 86.1758 23.6252 86.5321C23.7728 86.8883 23.8489 87.2701 23.8489 87.6558C23.8489 88.0414 23.7728 88.4232 23.6252 88.7795C23.4775 89.1357 23.2611 89.4593 22.9883 89.7318Z" fill="#2CB756"/>
<path opacity="0.54" d="M89.7282 81.4252L81.4206 89.7328C80.8697 90.2837 80.1225 90.5932 79.3434 90.5932C78.5643 90.5932 77.8171 90.2837 77.2662 89.7328C76.7153 89.1819 76.4058 88.4347 76.4058 87.6556C76.4058 86.8765 76.7153 86.1294 77.2662 85.5785L79.3456 83.4991L70.7942 74.9477C68.0376 77.2488 64.9143 79.071 61.5545 80.3383C61.0978 80.5125 60.636 80.675 60.169 80.8257C57.8639 81.5787 55.481 82.0685 53.0658 82.2859L53.0646 88.8282L53.069 94.1858L56.007 94.1858C56.7743 94.2033 57.5043 94.5203 58.0408 95.0692C58.5773 95.6181 58.8777 96.3551 58.8777 97.1226C58.8777 97.8901 58.5773 98.6272 58.0408 99.176C57.5043 99.7249 56.7743 100.042 56.007 100.059L44.2586 100.061C43.4913 100.043 42.7612 99.726 42.2247 99.1771C41.6882 98.6283 41.3878 97.8912 41.3878 97.1237C41.3878 96.3562 41.6882 95.6191 42.2247 95.0703C42.7612 94.5214 43.4913 94.2044 44.2586 94.1869L47.1954 94.1858V88.613L47.1954 82.2826C44.8356 82.0695 42.5064 81.5967 40.2502 80.873C39.8451 80.7467 39.4444 80.6073 39.0437 80.4613C35.5569 79.1902 32.317 77.3239 29.468 74.9455L20.9155 83.498L22.9927 85.5752C23.2757 85.8454 23.5017 86.1694 23.6577 86.5283C23.8136 86.8871 23.8963 87.2735 23.9008 87.6647C23.9053 88.0559 23.8315 88.4441 23.6839 88.8064C23.5362 89.1687 23.3177 89.4979 23.041 89.7745C22.7644 90.0512 22.4352 90.2697 22.0729 90.4174C21.7106 90.565 21.3224 90.6388 20.9312 90.6343C20.54 90.6298 20.1536 90.5471 19.7947 90.3912C19.4359 90.2353 19.1119 90.0092 18.8417 89.7262L14.7345 85.6191L14.6873 85.5719L85.576 14.6831L85.6233 14.7303L89.7304 18.8375C90.2807 19.3878 90.5899 20.1342 90.5899 20.9125C90.5899 21.6907 90.2807 22.4371 89.7304 22.9874C89.1801 23.5378 88.4337 23.8469 87.6554 23.8469C86.8772 23.8469 86.1308 23.5378 85.5804 22.9874L83.5033 20.9103L74.9497 29.4638C77.2431 32.2106 79.0606 35.3217 80.3271 38.6684C80.5255 39.1903 80.7092 39.7158 80.8782 40.245C81.6004 42.5019 82.0727 44.8313 82.2868 47.1912H88.8499L94.1922 47.1912L94.1933 44.2522C94.1844 43.8609 94.2538 43.4718 94.3974 43.1077C94.5409 42.7436 94.7558 42.4118 95.0294 42.132C95.303 41.8521 95.6298 41.6297 95.9905 41.4779C96.3513 41.326 96.7387 41.2478 97.1301 41.2478C97.5215 41.2478 97.9089 41.326 98.2697 41.4779C98.6304 41.6297 98.9572 41.8521 99.2308 42.132C99.5044 42.4119 99.7193 42.7436 99.8629 43.1077C100.006 43.4718 100.076 43.8609 100.067 44.2522L100.064 56.0028C100.046 56.7701 99.7291 57.5001 99.1802 58.0366C98.6314 58.5731 97.8943 58.8735 97.1268 58.8735C96.3593 58.8735 95.6222 58.5731 95.0734 58.0366C94.5245 57.5001 94.2074 56.7701 94.19 56.0028L94.1911 53.0638L88.8291 53.0638L82.2868 53.0649C82.072 55.4209 81.5993 57.7462 80.8771 59.999C80.7125 60.5238 80.5313 61.0438 80.3337 61.5591C79.0673 64.9188 77.2455 68.0418 74.9442 70.7977L83.4956 79.3491L85.5717 77.273C86.1226 76.7221 86.8697 76.4126 87.6488 76.4126C88.4279 76.4126 89.1751 76.7221 89.726 77.273C90.2769 77.8239 90.5864 78.5711 90.5864 79.3502C90.5864 80.1293 90.2769 80.8765 89.726 81.4274L89.7282 81.4252Z" fill="#068339"/>
<path d="M10.5275 77.2709C10.2548 77.5433 10.0385 77.8668 9.89094 78.223C9.74342 78.5791 9.6676 78.9608 9.6678 79.3463C9.66801 79.7318 9.74423 80.1134 9.89212 80.4694C10.04 80.8254 10.2567 81.1487 10.5297 81.4208L14.684 85.5752L85.5761 14.6831L81.4217 10.5288C81.1517 10.246 80.8278 10.02 80.4691 9.86417C80.1105 9.70832 79.7243 9.62571 79.3333 9.62122C78.9423 9.61672 78.5543 9.69042 78.1922 9.83798C77.8301 9.98555 77.5011 10.204 77.2246 10.4805C76.9481 10.757 76.7296 11.086 76.5821 11.4481C76.4345 11.8103 76.3608 12.1982 76.3653 12.5892C76.3698 12.9803 76.4524 13.3664 76.6082 13.7251C76.7641 14.0837 76.9901 14.4076 77.2729 14.6777L79.35 16.7548L70.7954 25.3095C65.77 21.1178 59.5858 18.5582 53.068 17.9724L53.0691 6.06811H56.007C56.7799 6.059 57.5181 5.74559 58.0616 5.19583C58.605 4.64608 58.9098 3.90429 58.9099 3.13129C58.9101 2.35829 58.6055 1.61639 58.0623 1.06643C57.5191 0.51647 56.781 0.202782 56.0081 0.193377L44.2564 0.195575C43.4835 0.20498 42.7454 0.518665 42.2022 1.06862C41.659 1.61858 41.3544 2.36048 41.3546 3.13348C41.3547 3.90648 41.6596 4.64827 42.203 5.19802C42.7464 5.74778 43.4846 6.0612 44.2575 6.07031L47.1943 6.06921L47.1943 17.9724C40.6765 18.5582 34.4923 21.1178 29.4669 25.3095L20.9156 16.7581L22.9928 14.681C23.5437 14.13 23.8532 13.3829 23.8532 12.6038C23.8532 11.8247 23.5437 11.0775 22.9928 10.5266C22.4419 9.97568 21.6947 9.6662 20.9156 9.6662C20.1365 9.6662 19.3893 9.97569 18.8384 10.5266L10.5297 18.8353C9.97878 19.3862 9.66928 20.1334 9.66928 20.9125C9.66928 21.6916 9.97877 22.4388 10.5297 22.9897C11.0806 23.5406 11.8278 23.8501 12.6069 23.8501C13.3859 23.8501 14.1331 23.5406 14.684 22.9897L16.7645 20.9092L25.3159 29.4606C21.1218 34.4861 18.561 40.6718 17.9755 47.1913L6.0734 47.1902V44.2522C6.05594 43.4849 5.73886 42.7549 5.19 42.2184C4.64114 41.6819 3.90411 41.3815 3.13658 41.3815C2.36906 41.3815 1.63201 41.6819 1.08315 42.2184C0.534294 42.7549 0.217215 43.4849 0.199759 44.2522V56.0017C0.217215 56.769 0.534294 57.4991 1.08315 58.0356C1.63201 58.5721 2.36905 58.8725 3.13657 58.8725C3.9041 58.8725 4.64114 58.5721 5.19 58.0356C5.73886 57.4991 6.05594 56.769 6.0734 56.0017V53.0638L17.9766 53.0638C18.5609 59.582 21.1207 65.7666 25.3137 70.7912L16.7623 79.3426L14.6851 77.2654C14.4124 76.9926 14.0886 76.7763 13.7323 76.6288C13.3759 76.4812 12.994 76.4053 12.6083 76.4054C12.2226 76.4055 11.8407 76.4816 11.4844 76.6294C11.1281 76.7771 10.8044 76.9936 10.5319 77.2665L10.5275 77.2709Z" fill="#5ACC5A"/>
<path d="M30.8833 69.3761C25.7604 64.2532 22.8824 57.305 22.8824 50.06C22.8824 42.8151 25.7604 35.8669 30.8833 30.744C36.0062 25.6211 42.9544 22.7431 50.1993 22.7431C57.4443 22.7431 64.3924 25.6211 69.5154 30.744" fill="#75DE66"/>
<path d="M69.5845 30.7451C74.7074 35.868 77.5854 42.8162 77.5854 50.0611C77.5854 57.3061 74.7074 64.2543 69.5845 69.3772C64.4615 74.5001 57.5134 77.3781 50.2684 77.3781C43.0235 77.3781 36.0753 74.5001 30.9524 69.3772" fill="#2CB757" fill-opacity="0.4"/>
</g>
<defs>
<clipPath id="clip0_46_1147">
<rect width="100" height="100" fill="white"/>
</clipPath>
</defs>
</svg>
