<svg width="1000" height="1000" viewBox="0 0 1000 1000" fill="none" xmlns="http://www.w3.org/2000/svg">
<path fill-rule="evenodd" clip-rule="evenodd" d="M885.947 281.396H112.182V278.524H885.947V281.396Z" fill="url(#paint0_linear_29_213)"/>
<path fill-rule="evenodd" clip-rule="evenodd" d="M884.511 323.027H110.747V320.156H884.511V323.027Z" fill="url(#paint1_linear_29_213)"/>
<path fill-rule="evenodd" clip-rule="evenodd" d="M789.764 274.218H16V271.347H789.764V274.218Z" fill="url(#paint2_linear_29_213)"/>
<path fill-rule="evenodd" clip-rule="evenodd" d="M885.947 707.756H112.182V704.885H885.947V707.756Z" fill="url(#paint3_linear_29_213)"/>
<path fill-rule="evenodd" clip-rule="evenodd" d="M985 714.933H211.236V712.062H985V714.933Z" fill="url(#paint4_linear_29_213)"/>
<path fill-rule="evenodd" clip-rule="evenodd" d="M163.862 753.693L163.862 246.942L166.733 246.942L166.733 753.693L163.862 753.693Z" fill="url(#paint5_linear_29_213)"/>
<path fill-rule="evenodd" clip-rule="evenodd" d="M156.684 687.658L156.684 180.907L159.556 180.907L159.556 687.658L156.684 687.658Z" fill="url(#paint6_linear_29_213)"/>
<path fill-rule="evenodd" clip-rule="evenodd" d="M841.444 808.245L841.444 301.493L844.315 301.493L844.315 808.245L841.444 808.245Z" fill="url(#paint7_linear_29_213)"/>
<path fill-rule="evenodd" clip-rule="evenodd" d="M834.267 753.693L834.267 246.942L837.138 246.942L837.138 753.693L834.267 753.693Z" fill="url(#paint8_linear_29_213)"/>
<path fill-rule="evenodd" clip-rule="evenodd" d="M794.789 335.947L794.789 265.604L797.66 265.604L797.66 335.947L794.789 335.947Z" fill="url(#paint9_linear_29_213)"/>
<path fill-rule="evenodd" clip-rule="evenodd" d="M808.427 495.293L808.427 344.56L811.298 344.56L811.298 495.293L808.427 495.293Z" fill="url(#paint10_linear_29_213)"/>
<path fill-rule="evenodd" clip-rule="evenodd" d="M673.484 480.938L824.218 480.938L824.218 483.809L673.484 483.809L673.484 480.938Z" fill="url(#paint11_linear_29_213)"/>
<path fill-rule="evenodd" clip-rule="evenodd" d="M680.662 490.987L680.662 340.253L683.533 340.253L683.533 490.987L680.662 490.987Z" fill="url(#paint12_linear_29_213)"/>
<path fill-rule="evenodd" clip-rule="evenodd" d="M649.08 347.431L799.813 347.431L799.813 350.302L649.08 350.302L649.08 347.431Z" fill="url(#paint13_linear_29_213)"/>
<path fill-rule="evenodd" clip-rule="evenodd" d="M709.373 367.529H795.507V370.4H709.373V367.529Z" fill="url(#paint14_linear_29_213)"/>
<path fill-rule="evenodd" clip-rule="evenodd" d="M710.809 379.013H769.667V381.885H710.809V379.013Z" fill="url(#paint15_linear_29_213)"/>
<path fill-rule="evenodd" clip-rule="evenodd" d="M706.502 390.498H805.556V393.369H706.502V390.498Z" fill="url(#paint16_linear_29_213)"/>
<path fill-rule="evenodd" clip-rule="evenodd" d="M695.018 368.964H781.151V371.835H695.018V368.964Z" fill="url(#paint17_linear_29_213)"/>
<path fill-rule="evenodd" clip-rule="evenodd" d="M696.453 380.449H755.311V383.32H696.453V380.449Z" fill="url(#paint18_linear_29_213)"/>
<path fill-rule="evenodd" clip-rule="evenodd" d="M692.147 391.933H791.2V394.804H692.147V391.933Z" fill="url(#paint19_linear_29_213)"/>
<path fill-rule="evenodd" clip-rule="evenodd" d="M778.28 350.302L798.378 330.205L800.408 332.235L780.31 352.333L778.28 350.302Z" fill="url(#paint20_linear_29_213)"/>
<path fill-rule="evenodd" clip-rule="evenodd" d="M811.298 350.302L791.2 330.204L793.23 328.174L813.328 348.272L811.298 350.302Z" fill="url(#paint21_linear_29_213)"/>
<path fill-rule="evenodd" clip-rule="evenodd" d="M759.618 300.776L829.96 300.776L829.96 303.647L759.618 303.647L759.618 300.776Z" fill="url(#paint22_linear_29_213)"/>
<path fill-rule="evenodd" clip-rule="evenodd" d="M192.573 347.431H341.871V350.302H192.573V347.431Z" fill="url(#paint23_linear_29_213)"/>
<path fill-rule="evenodd" clip-rule="evenodd" d="M219.849 432.129H369.147V435H219.849V432.129Z" fill="url(#paint24_linear_29_213)"/>
<path fill-rule="evenodd" clip-rule="evenodd" d="M168.169 409.16L814.169 409.16V412.031L168.169 412.031V409.16Z" fill="url(#paint25_linear_29_213)"/>
<path fill-rule="evenodd" clip-rule="evenodd" d="M196.88 380.449H376.324V383.32H196.88V380.449Z" fill="url(#paint26_linear_29_213)"/>
<path fill-rule="evenodd" clip-rule="evenodd" d="M224.156 465.147H403.6V468.018H224.156V465.147Z" fill="url(#paint27_linear_29_213)"/>
<path fill-rule="evenodd" clip-rule="evenodd" d="M192.573 370.4H341.871V373.271H192.573V370.4Z" fill="url(#paint28_linear_29_213)"/>
<path fill-rule="evenodd" clip-rule="evenodd" d="M219.849 455.098H369.147V457.969H219.849V455.098Z" fill="url(#paint29_linear_29_213)"/>
<path fill-rule="evenodd" clip-rule="evenodd" d="M168.169 668.996L814.169 668.996V671.867L168.169 671.867V668.996Z" fill="url(#paint30_linear_29_213)"/>
<path fill-rule="evenodd" clip-rule="evenodd" d="M196.88 390.498H376.324V393.369H196.88V390.498Z" fill="url(#paint31_linear_29_213)"/>
<path fill-rule="evenodd" clip-rule="evenodd" d="M224.156 475.196H403.6V478.067H224.156V475.196Z" fill="url(#paint32_linear_29_213)"/>
<path fill-rule="evenodd" clip-rule="evenodd" d="M333.258 343.125L333.258 379.013L330.387 379.013L330.387 343.125L333.258 343.125Z" fill="url(#paint33_linear_29_213)"/>
<path fill-rule="evenodd" clip-rule="evenodd" d="M360.533 427.822L360.533 463.711L357.662 463.711L357.662 427.822L360.533 427.822Z" fill="url(#paint34_linear_29_213)"/>
<path fill-rule="evenodd" clip-rule="evenodd" d="M781.151 396.24L781.151 694.835L778.28 694.835L778.28 396.24L781.151 396.24Z" fill="url(#paint35_linear_29_213)"/>
<path fill-rule="evenodd" clip-rule="evenodd" d="M367.711 379.013L367.711 393.369L364.84 393.369L364.84 379.013L367.711 379.013Z" fill="url(#paint36_linear_29_213)"/>
<path fill-rule="evenodd" clip-rule="evenodd" d="M394.987 463.711L394.987 478.067L392.115 478.067L392.115 463.711L394.987 463.711Z" fill="url(#paint37_linear_29_213)"/>
<path fill-rule="evenodd" clip-rule="evenodd" d="M202.622 343.125L202.622 379.013L199.751 379.013L199.751 343.125L202.622 343.125Z" fill="url(#paint38_linear_29_213)"/>
<path fill-rule="evenodd" clip-rule="evenodd" d="M234.142 281.396L201.187 298.918L199.839 296.383L232.794 278.861L234.142 281.396Z" fill="url(#paint39_linear_29_213)"/>
<path fill-rule="evenodd" clip-rule="evenodd" d="M229.835 277.089L196.88 294.612L195.532 292.077L228.488 274.554L229.835 277.089Z" fill="url(#paint40_linear_29_213)"/>
<path fill-rule="evenodd" clip-rule="evenodd" d="M225.529 274.218L192.573 291.741L191.225 289.206L224.181 271.683L225.529 274.218Z" fill="url(#paint41_linear_29_213)"/>
<path fill-rule="evenodd" clip-rule="evenodd" d="M227.027 321.591L227.027 284.267L229.898 284.267L229.898 321.591L227.027 321.591Z" fill="url(#paint42_linear_29_213)"/>
<path fill-rule="evenodd" clip-rule="evenodd" d="M222.72 317.284L222.72 279.96L225.591 279.96L225.591 317.284L222.72 317.284Z" fill="url(#paint43_linear_29_213)"/>
<path fill-rule="evenodd" clip-rule="evenodd" d="M218.413 314.413L218.413 277.089L221.284 277.089L221.284 314.413L218.413 314.413Z" fill="url(#paint44_linear_29_213)"/>
<path fill-rule="evenodd" clip-rule="evenodd" d="M201.187 324.462L201.187 287.138L204.058 287.138L204.058 324.462L201.187 324.462Z" fill="url(#paint45_linear_29_213)"/>
<path fill-rule="evenodd" clip-rule="evenodd" d="M196.88 320.155L196.88 282.831L199.751 282.831L199.751 320.155L196.88 320.155Z" fill="url(#paint46_linear_29_213)"/>
<path fill-rule="evenodd" clip-rule="evenodd" d="M192.573 317.284L192.573 279.96L195.444 279.96L195.444 317.284L192.573 317.284Z" fill="url(#paint47_linear_29_213)"/>
<path fill-rule="evenodd" clip-rule="evenodd" d="M234.814 308.671L206.929 323.498L205.581 320.963L233.467 306.136L234.814 308.671Z" fill="url(#paint48_linear_29_213)"/>
<path fill-rule="evenodd" clip-rule="evenodd" d="M230.508 304.365L202.622 319.192L201.274 316.656L229.16 301.83L230.508 304.365Z" fill="url(#paint49_linear_29_213)"/>
<path fill-rule="evenodd" clip-rule="evenodd" d="M226.201 301.493L198.315 316.32L196.968 313.785L224.853 298.958L226.201 301.493Z" fill="url(#paint50_linear_29_213)"/>
<path fill-rule="evenodd" clip-rule="evenodd" d="M229.898 427.822L229.898 463.711L227.027 463.711L227.027 427.822L229.898 427.822Z" fill="url(#paint51_linear_29_213)"/>
<path fill-rule="evenodd" clip-rule="evenodd" d="M202.622 406.289L202.622 693.4L199.751 693.4L199.751 406.289L202.622 406.289Z" fill="url(#paint52_linear_29_213)"/>
<path fill-rule="evenodd" clip-rule="evenodd" d="M202.622 379.013L202.622 393.369L199.751 393.369L199.751 379.013L202.622 379.013Z" fill="url(#paint53_linear_29_213)"/>
<path fill-rule="evenodd" clip-rule="evenodd" d="M229.898 463.711L229.898 478.067L227.027 478.067L227.027 463.711L229.898 463.711Z" fill="url(#paint54_linear_29_213)"/>
<path fill-rule="evenodd" clip-rule="evenodd" d="M172.476 698.425C172.476 694.857 169.583 691.965 166.016 691.965C162.448 691.965 159.556 694.857 159.556 698.425C159.556 701.992 162.448 704.885 166.016 704.885C169.583 704.885 172.476 701.992 172.476 698.425ZM175.347 698.425C175.347 693.271 171.169 689.093 166.016 689.093C160.862 689.093 156.684 693.271 156.684 698.425C156.684 703.578 160.862 707.756 166.016 707.756C171.169 707.756 175.347 703.578 175.347 698.425Z" fill="url(#paint55_linear_29_213)"/>
<path fill-rule="evenodd" clip-rule="evenodd" d="M833.549 699.142C829.981 699.142 827.089 702.034 827.089 705.602C827.089 709.17 829.981 712.062 833.549 712.062C837.117 712.062 840.009 709.17 840.009 705.602C840.009 702.034 837.117 699.142 833.549 699.142ZM833.549 696.271C828.395 696.271 824.218 700.449 824.218 705.602C824.218 710.756 828.395 714.933 833.549 714.933C838.702 714.933 842.88 710.756 842.88 705.602C842.88 700.449 838.702 696.271 833.549 696.271Z" fill="url(#paint56_linear_29_213)"/>
<path fill-rule="evenodd" clip-rule="evenodd" d="M827.089 282.113C827.089 285.681 829.981 288.573 833.549 288.573C837.117 288.573 840.009 285.681 840.009 282.113C840.009 278.546 837.117 275.653 833.549 275.653C829.981 275.653 827.089 278.546 827.089 282.113ZM824.218 282.113C824.218 287.267 828.395 291.444 833.549 291.444C838.702 291.444 842.88 287.267 842.88 282.113C842.88 276.96 838.702 272.782 833.549 272.782C828.395 272.782 824.218 276.96 824.218 282.113Z" fill="url(#paint57_linear_29_213)"/>
<path fill-rule="evenodd" clip-rule="evenodd" d="M789.047 300.775C789.047 304.343 791.939 307.235 795.507 307.235C799.075 307.235 801.967 304.343 801.967 300.775C801.967 297.208 799.075 294.315 795.507 294.315C791.939 294.315 789.047 297.208 789.047 300.775ZM786.176 300.775C786.176 305.929 790.353 310.107 795.507 310.107C800.66 310.107 804.838 305.929 804.838 300.775C804.838 295.622 800.66 291.444 795.507 291.444C790.353 291.444 786.176 295.622 786.176 300.775Z" fill="url(#paint58_linear_29_213)"/>
<path fill-rule="evenodd" clip-rule="evenodd" d="M109.311 862.796L109.311 139.276L110.747 139.276L110.747 862.796L109.311 862.796Z" fill="white" fill-opacity="0.1"/>
<path fill-rule="evenodd" clip-rule="evenodd" d="M160.991 862.796L160.991 139.276L162.427 139.276L162.427 862.796L160.991 862.796Z" fill="white" fill-opacity="0.1"/>
<path fill-rule="evenodd" clip-rule="evenodd" d="M212.671 862.796L212.671 139.276L214.107 139.276L214.107 862.796L212.671 862.796Z" fill="white" fill-opacity="0.1"/>
<path fill-rule="evenodd" clip-rule="evenodd" d="M264.351 862.796L264.351 139.276L265.787 139.276L265.787 862.796L264.351 862.796Z" fill="white" fill-opacity="0.1"/>
<path fill-rule="evenodd" clip-rule="evenodd" d="M316.031 862.796L316.031 139.276L317.467 139.276L317.467 862.796L316.031 862.796Z" fill="white" fill-opacity="0.1"/>
<path fill-rule="evenodd" clip-rule="evenodd" d="M367.711 862.796L367.711 139.276L369.147 139.276L369.147 862.796L367.711 862.796Z" fill="white" fill-opacity="0.1"/>
<path fill-rule="evenodd" clip-rule="evenodd" d="M419.391 862.796L419.391 139.276L420.827 139.276L420.827 862.796L419.391 862.796Z" fill="white" fill-opacity="0.1"/>
<path fill-rule="evenodd" clip-rule="evenodd" d="M471.071 862.796L471.071 139.276L472.507 139.276L472.507 862.796L471.071 862.796Z" fill="white" fill-opacity="0.1"/>
<path fill-rule="evenodd" clip-rule="evenodd" d="M522.751 862.796L522.751 139.276L524.187 139.276L524.187 862.796L522.751 862.796Z" fill="white" fill-opacity="0.1"/>
<path fill-rule="evenodd" clip-rule="evenodd" d="M574.431 862.796L574.431 139.276L575.867 139.276L575.867 862.796L574.431 862.796Z" fill="white" fill-opacity="0.1"/>
<path fill-rule="evenodd" clip-rule="evenodd" d="M626.111 862.796L626.111 139.276L627.547 139.276L627.547 862.796L626.111 862.796Z" fill="white" fill-opacity="0.1"/>
<path fill-rule="evenodd" clip-rule="evenodd" d="M677.791 862.796L677.791 139.276L679.227 139.276L679.227 862.796L677.791 862.796Z" fill="white" fill-opacity="0.1"/>
<path fill-rule="evenodd" clip-rule="evenodd" d="M729.471 862.796L729.471 139.276L730.907 139.276L730.907 862.796L729.471 862.796Z" fill="white" fill-opacity="0.1"/>
<path fill-rule="evenodd" clip-rule="evenodd" d="M781.151 862.796L781.151 139.276L782.587 139.276L782.587 862.796L781.151 862.796Z" fill="white" fill-opacity="0.1"/>
<path fill-rule="evenodd" clip-rule="evenodd" d="M832.831 862.796L832.831 139.276L834.267 139.276L834.267 862.796L832.831 862.796Z" fill="white" fill-opacity="0.1"/>
<path fill-rule="evenodd" clip-rule="evenodd" d="M884.511 862.796L884.511 139.276L885.947 139.276L885.947 862.796L884.511 862.796Z" fill="white" fill-opacity="0.1"/>
<path fill-rule="evenodd" clip-rule="evenodd" d="M890.253 888.636L102.133 888.636L102.133 887.2L890.253 887.2L890.253 888.636Z" fill="white" fill-opacity="0.1"/>
<path fill-rule="evenodd" clip-rule="evenodd" d="M890.253 836.956L102.133 836.956L102.133 835.52L890.253 835.52L890.253 836.956Z" fill="white" fill-opacity="0.1"/>
<path fill-rule="evenodd" clip-rule="evenodd" d="M890.253 785.276L102.133 785.276L102.133 783.84L890.253 783.84L890.253 785.276Z" fill="white" fill-opacity="0.1"/>
<path fill-rule="evenodd" clip-rule="evenodd" d="M890.253 733.595L102.133 733.595L102.133 732.16L890.253 732.16L890.253 733.595Z" fill="white" fill-opacity="0.1"/>
<path fill-rule="evenodd" clip-rule="evenodd" d="M890.253 681.916L102.133 681.916L102.133 680.48L890.253 680.48L890.253 681.916Z" fill="white" fill-opacity="0.1"/>
<path fill-rule="evenodd" clip-rule="evenodd" d="M890.253 630.236L102.133 630.236L102.133 628.8L890.253 628.8L890.253 630.236Z" fill="white" fill-opacity="0.1"/>
<path fill-rule="evenodd" clip-rule="evenodd" d="M890.253 578.556L102.133 578.556L102.133 577.12L890.253 577.12L890.253 578.556Z" fill="white" fill-opacity="0.1"/>
<path fill-rule="evenodd" clip-rule="evenodd" d="M890.253 526.875L102.133 526.875L102.133 525.44L890.253 525.44L890.253 526.875Z" fill="white" fill-opacity="0.1"/>
<path fill-rule="evenodd" clip-rule="evenodd" d="M890.253 475.196L102.133 475.196L102.133 473.76L890.253 473.76L890.253 475.196Z" fill="white" fill-opacity="0.1"/>
<path fill-rule="evenodd" clip-rule="evenodd" d="M890.253 423.516L102.133 423.516L102.133 422.08L890.253 422.08L890.253 423.516Z" fill="white" fill-opacity="0.1"/>
<path fill-rule="evenodd" clip-rule="evenodd" d="M890.253 371.835L102.133 371.835L102.133 370.4L890.253 370.4L890.253 371.835Z" fill="white" fill-opacity="0.1"/>
<path fill-rule="evenodd" clip-rule="evenodd" d="M890.253 320.156L102.133 320.156L102.133 318.72L890.253 318.72L890.253 320.156Z" fill="white" fill-opacity="0.1"/>
<path fill-rule="evenodd" clip-rule="evenodd" d="M890.253 268.476L102.133 268.476L102.133 267.04L890.253 267.04L890.253 268.476Z" fill="white" fill-opacity="0.1"/>
<path fill-rule="evenodd" clip-rule="evenodd" d="M890.253 216.796L102.133 216.796L102.133 215.36L890.253 215.36L890.253 216.796Z" fill="white" fill-opacity="0.1"/>
<path fill-rule="evenodd" clip-rule="evenodd" d="M890.253 165.115L102.133 165.115L102.133 163.68L890.253 163.68L890.253 165.115Z" fill="white" fill-opacity="0.1"/>
<path fill-rule="evenodd" clip-rule="evenodd" d="M890.253 113.436L102.133 113.436L102.133 112L890.253 112L890.253 113.436Z" fill="white" fill-opacity="0.1"/>
<defs>
<linearGradient id="paint0_linear_29_213" x1="112.182" y1="281.396" x2="885.947" y2="281.396" gradientUnits="userSpaceOnUse">
<stop stop-color="white" stop-opacity="0"/>
<stop offset="0.5" stop-color="white"/>
<stop offset="1" stop-color="white" stop-opacity="0"/>
</linearGradient>
<linearGradient id="paint1_linear_29_213" x1="110.747" y1="323.027" x2="884.511" y2="323.027" gradientUnits="userSpaceOnUse">
<stop stop-color="white" stop-opacity="0"/>
<stop offset="0.5" stop-color="white"/>
<stop offset="1" stop-color="white" stop-opacity="0"/>
</linearGradient>
<linearGradient id="paint2_linear_29_213" x1="16" y1="274.218" x2="789.764" y2="274.218" gradientUnits="userSpaceOnUse">
<stop stop-color="white" stop-opacity="0"/>
<stop offset="0.5" stop-color="white"/>
<stop offset="1" stop-color="white" stop-opacity="0"/>
</linearGradient>
<linearGradient id="paint3_linear_29_213" x1="112.182" y1="707.756" x2="885.947" y2="707.756" gradientUnits="userSpaceOnUse">
<stop stop-color="white" stop-opacity="0"/>
<stop offset="0.5" stop-color="white"/>
<stop offset="1" stop-color="white" stop-opacity="0"/>
</linearGradient>
<linearGradient id="paint4_linear_29_213" x1="211.236" y1="714.933" x2="985" y2="714.933" gradientUnits="userSpaceOnUse">
<stop stop-color="white" stop-opacity="0"/>
<stop offset="0.5" stop-color="white"/>
<stop offset="1" stop-color="white" stop-opacity="0"/>
</linearGradient>
<linearGradient id="paint5_linear_29_213" x1="163.862" y1="246.942" x2="163.862" y2="753.693" gradientUnits="userSpaceOnUse">
<stop stop-color="white" stop-opacity="0"/>
<stop offset="0.5" stop-color="white"/>
<stop offset="1" stop-color="white" stop-opacity="0"/>
</linearGradient>
<linearGradient id="paint6_linear_29_213" x1="156.684" y1="180.907" x2="156.684" y2="687.658" gradientUnits="userSpaceOnUse">
<stop stop-color="white" stop-opacity="0"/>
<stop offset="0.5" stop-color="white"/>
<stop offset="1" stop-color="white" stop-opacity="0"/>
</linearGradient>
<linearGradient id="paint7_linear_29_213" x1="841.444" y1="301.493" x2="841.444" y2="808.245" gradientUnits="userSpaceOnUse">
<stop stop-color="white" stop-opacity="0"/>
<stop offset="0.5" stop-color="white"/>
<stop offset="1" stop-color="white" stop-opacity="0"/>
</linearGradient>
<linearGradient id="paint8_linear_29_213" x1="834.267" y1="246.942" x2="834.267" y2="753.693" gradientUnits="userSpaceOnUse">
<stop stop-color="white" stop-opacity="0"/>
<stop offset="0.5" stop-color="white"/>
<stop offset="1" stop-color="white" stop-opacity="0"/>
</linearGradient>
<linearGradient id="paint9_linear_29_213" x1="794.789" y1="265.604" x2="794.789" y2="335.947" gradientUnits="userSpaceOnUse">
<stop stop-color="white" stop-opacity="0"/>
<stop offset="0.5" stop-color="white"/>
<stop offset="1" stop-color="white" stop-opacity="0"/>
</linearGradient>
<linearGradient id="paint10_linear_29_213" x1="808.427" y1="344.56" x2="808.427" y2="495.293" gradientUnits="userSpaceOnUse">
<stop stop-color="white" stop-opacity="0"/>
<stop offset="0.5" stop-color="white"/>
<stop offset="1" stop-color="white" stop-opacity="0"/>
</linearGradient>
<linearGradient id="paint11_linear_29_213" x1="824.218" y1="480.938" x2="673.484" y2="480.938" gradientUnits="userSpaceOnUse">
<stop stop-color="white" stop-opacity="0"/>
<stop offset="0.5" stop-color="white"/>
<stop offset="1" stop-color="white" stop-opacity="0"/>
</linearGradient>
<linearGradient id="paint12_linear_29_213" x1="680.662" y1="340.253" x2="680.662" y2="490.987" gradientUnits="userSpaceOnUse">
<stop stop-color="white" stop-opacity="0"/>
<stop offset="0.5" stop-color="white"/>
<stop offset="1" stop-color="white" stop-opacity="0"/>
</linearGradient>
<linearGradient id="paint13_linear_29_213" x1="799.813" y1="347.431" x2="649.08" y2="347.431" gradientUnits="userSpaceOnUse">
<stop stop-color="white" stop-opacity="0"/>
<stop offset="0.5" stop-color="white"/>
<stop offset="1" stop-color="white" stop-opacity="0"/>
</linearGradient>
<linearGradient id="paint14_linear_29_213" x1="795.507" y1="367.529" x2="709.373" y2="367.529" gradientUnits="userSpaceOnUse">
<stop stop-color="white" stop-opacity="0"/>
<stop offset="0.5" stop-color="white"/>
<stop offset="1" stop-color="white" stop-opacity="0"/>
</linearGradient>
<linearGradient id="paint15_linear_29_213" x1="769.667" y1="379.013" x2="710.809" y2="379.013" gradientUnits="userSpaceOnUse">
<stop stop-color="white" stop-opacity="0"/>
<stop offset="0.5" stop-color="white"/>
<stop offset="1" stop-color="white" stop-opacity="0"/>
</linearGradient>
<linearGradient id="paint16_linear_29_213" x1="805.556" y1="390.498" x2="706.502" y2="390.498" gradientUnits="userSpaceOnUse">
<stop stop-color="white" stop-opacity="0"/>
<stop offset="0.5" stop-color="white"/>
<stop offset="1" stop-color="white" stop-opacity="0"/>
</linearGradient>
<linearGradient id="paint17_linear_29_213" x1="781.151" y1="368.964" x2="695.018" y2="368.964" gradientUnits="userSpaceOnUse">
<stop stop-color="white" stop-opacity="0"/>
<stop offset="0.5" stop-color="white"/>
<stop offset="1" stop-color="white" stop-opacity="0"/>
</linearGradient>
<linearGradient id="paint18_linear_29_213" x1="755.311" y1="380.449" x2="696.453" y2="380.449" gradientUnits="userSpaceOnUse">
<stop stop-color="white" stop-opacity="0"/>
<stop offset="0.5" stop-color="white"/>
<stop offset="1" stop-color="white" stop-opacity="0"/>
</linearGradient>
<linearGradient id="paint19_linear_29_213" x1="791.2" y1="391.933" x2="692.147" y2="391.933" gradientUnits="userSpaceOnUse">
<stop stop-color="white" stop-opacity="0"/>
<stop offset="0.5" stop-color="white"/>
<stop offset="1" stop-color="white" stop-opacity="0"/>
</linearGradient>
<linearGradient id="paint20_linear_29_213" x1="798.378" y1="330.205" x2="778.28" y2="350.302" gradientUnits="userSpaceOnUse">
<stop stop-color="white" stop-opacity="0"/>
<stop offset="0.5" stop-color="white"/>
<stop offset="1" stop-color="white" stop-opacity="0"/>
</linearGradient>
<linearGradient id="paint21_linear_29_213" x1="791.2" y1="330.204" x2="811.298" y2="350.302" gradientUnits="userSpaceOnUse">
<stop stop-color="white" stop-opacity="0"/>
<stop offset="0.5" stop-color="white"/>
<stop offset="1" stop-color="white" stop-opacity="0"/>
</linearGradient>
<linearGradient id="paint22_linear_29_213" x1="829.96" y1="300.776" x2="759.618" y2="300.776" gradientUnits="userSpaceOnUse">
<stop stop-color="white" stop-opacity="0"/>
<stop offset="0.5" stop-color="white"/>
<stop offset="1" stop-color="white" stop-opacity="0"/>
</linearGradient>
<linearGradient id="paint23_linear_29_213" x1="341.871" y1="347.431" x2="192.573" y2="347.431" gradientUnits="userSpaceOnUse">
<stop stop-color="white" stop-opacity="0"/>
<stop offset="0.5" stop-color="white"/>
<stop offset="1" stop-color="white" stop-opacity="0"/>
</linearGradient>
<linearGradient id="paint24_linear_29_213" x1="369.147" y1="432.129" x2="219.849" y2="432.129" gradientUnits="userSpaceOnUse">
<stop stop-color="white" stop-opacity="0"/>
<stop offset="0.5" stop-color="white"/>
<stop offset="1" stop-color="white" stop-opacity="0"/>
</linearGradient>
<linearGradient id="paint25_linear_29_213" x1="814.169" y1="409.16" x2="168.169" y2="409.16" gradientUnits="userSpaceOnUse">
<stop stop-color="white" stop-opacity="0"/>
<stop offset="0.5" stop-color="white"/>
<stop offset="1" stop-color="white" stop-opacity="0"/>
</linearGradient>
<linearGradient id="paint26_linear_29_213" x1="376.324" y1="380.449" x2="196.88" y2="380.449" gradientUnits="userSpaceOnUse">
<stop stop-color="white" stop-opacity="0"/>
<stop offset="0.5" stop-color="white"/>
<stop offset="1" stop-color="white" stop-opacity="0"/>
</linearGradient>
<linearGradient id="paint27_linear_29_213" x1="403.6" y1="465.147" x2="224.156" y2="465.147" gradientUnits="userSpaceOnUse">
<stop stop-color="white" stop-opacity="0"/>
<stop offset="0.5" stop-color="white"/>
<stop offset="1" stop-color="white" stop-opacity="0"/>
</linearGradient>
<linearGradient id="paint28_linear_29_213" x1="341.871" y1="370.4" x2="192.573" y2="370.4" gradientUnits="userSpaceOnUse">
<stop stop-color="white" stop-opacity="0"/>
<stop offset="0.5" stop-color="white"/>
<stop offset="1" stop-color="white" stop-opacity="0"/>
</linearGradient>
<linearGradient id="paint29_linear_29_213" x1="369.147" y1="455.098" x2="219.849" y2="455.098" gradientUnits="userSpaceOnUse">
<stop stop-color="white" stop-opacity="0"/>
<stop offset="0.5" stop-color="white"/>
<stop offset="1" stop-color="white" stop-opacity="0"/>
</linearGradient>
<linearGradient id="paint30_linear_29_213" x1="814.169" y1="668.996" x2="168.169" y2="668.996" gradientUnits="userSpaceOnUse">
<stop stop-color="white" stop-opacity="0"/>
<stop offset="0.5" stop-color="white"/>
<stop offset="1" stop-color="white" stop-opacity="0"/>
</linearGradient>
<linearGradient id="paint31_linear_29_213" x1="376.324" y1="390.498" x2="196.88" y2="390.498" gradientUnits="userSpaceOnUse">
<stop stop-color="white" stop-opacity="0"/>
<stop offset="0.5" stop-color="white"/>
<stop offset="1" stop-color="white" stop-opacity="0"/>
</linearGradient>
<linearGradient id="paint32_linear_29_213" x1="403.6" y1="475.195" x2="224.156" y2="475.195" gradientUnits="userSpaceOnUse">
<stop stop-color="white" stop-opacity="0"/>
<stop offset="0.5" stop-color="white"/>
<stop offset="1" stop-color="white" stop-opacity="0"/>
</linearGradient>
<linearGradient id="paint33_linear_29_213" x1="333.258" y1="379.013" x2="333.258" y2="343.125" gradientUnits="userSpaceOnUse">
<stop stop-color="white" stop-opacity="0"/>
<stop offset="0.5" stop-color="white"/>
<stop offset="1" stop-color="white" stop-opacity="0"/>
</linearGradient>
<linearGradient id="paint34_linear_29_213" x1="360.533" y1="463.711" x2="360.533" y2="427.822" gradientUnits="userSpaceOnUse">
<stop stop-color="white" stop-opacity="0"/>
<stop offset="0.5" stop-color="white"/>
<stop offset="1" stop-color="white" stop-opacity="0"/>
</linearGradient>
<linearGradient id="paint35_linear_29_213" x1="781.151" y1="694.835" x2="781.151" y2="396.24" gradientUnits="userSpaceOnUse">
<stop stop-color="white" stop-opacity="0"/>
<stop offset="0.5" stop-color="white"/>
<stop offset="1" stop-color="white" stop-opacity="0"/>
</linearGradient>
<linearGradient id="paint36_linear_29_213" x1="367.711" y1="393.369" x2="367.711" y2="379.013" gradientUnits="userSpaceOnUse">
<stop stop-color="white" stop-opacity="0"/>
<stop offset="0.5" stop-color="white"/>
<stop offset="1" stop-color="white" stop-opacity="0"/>
</linearGradient>
<linearGradient id="paint37_linear_29_213" x1="394.987" y1="478.067" x2="394.987" y2="463.711" gradientUnits="userSpaceOnUse">
<stop stop-color="white" stop-opacity="0"/>
<stop offset="0.5" stop-color="white"/>
<stop offset="1" stop-color="white" stop-opacity="0"/>
</linearGradient>
<linearGradient id="paint38_linear_29_213" x1="202.622" y1="379.013" x2="202.622" y2="343.125" gradientUnits="userSpaceOnUse">
<stop stop-color="white" stop-opacity="0"/>
<stop offset="0.5" stop-color="white"/>
<stop offset="1" stop-color="white" stop-opacity="0"/>
</linearGradient>
<linearGradient id="paint39_linear_29_213" x1="201.187" y1="298.918" x2="234.142" y2="281.396" gradientUnits="userSpaceOnUse">
<stop stop-color="white" stop-opacity="0"/>
<stop offset="0.5" stop-color="white"/>
<stop offset="1" stop-color="white" stop-opacity="0"/>
</linearGradient>
<linearGradient id="paint40_linear_29_213" x1="196.88" y1="294.612" x2="229.835" y2="277.089" gradientUnits="userSpaceOnUse">
<stop stop-color="white" stop-opacity="0"/>
<stop offset="0.5" stop-color="white"/>
<stop offset="1" stop-color="white" stop-opacity="0"/>
</linearGradient>
<linearGradient id="paint41_linear_29_213" x1="192.573" y1="291.741" x2="225.529" y2="274.218" gradientUnits="userSpaceOnUse">
<stop stop-color="white" stop-opacity="0"/>
<stop offset="0.5" stop-color="white"/>
<stop offset="1" stop-color="white" stop-opacity="0"/>
</linearGradient>
<linearGradient id="paint42_linear_29_213" x1="227.027" y1="284.267" x2="227.027" y2="321.591" gradientUnits="userSpaceOnUse">
<stop stop-color="white" stop-opacity="0"/>
<stop offset="0.5" stop-color="white"/>
<stop offset="1" stop-color="white" stop-opacity="0"/>
</linearGradient>
<linearGradient id="paint43_linear_29_213" x1="222.72" y1="279.96" x2="222.72" y2="317.284" gradientUnits="userSpaceOnUse">
<stop stop-color="white" stop-opacity="0"/>
<stop offset="0.5" stop-color="white"/>
<stop offset="1" stop-color="white" stop-opacity="0"/>
</linearGradient>
<linearGradient id="paint44_linear_29_213" x1="218.413" y1="277.089" x2="218.413" y2="314.413" gradientUnits="userSpaceOnUse">
<stop stop-color="white" stop-opacity="0"/>
<stop offset="0.5" stop-color="white"/>
<stop offset="1" stop-color="white" stop-opacity="0"/>
</linearGradient>
<linearGradient id="paint45_linear_29_213" x1="201.187" y1="287.138" x2="201.187" y2="324.462" gradientUnits="userSpaceOnUse">
<stop stop-color="white" stop-opacity="0"/>
<stop offset="0.5" stop-color="white"/>
<stop offset="1" stop-color="white" stop-opacity="0"/>
</linearGradient>
<linearGradient id="paint46_linear_29_213" x1="196.88" y1="282.831" x2="196.88" y2="320.155" gradientUnits="userSpaceOnUse">
<stop stop-color="white" stop-opacity="0"/>
<stop offset="0.5" stop-color="white"/>
<stop offset="1" stop-color="white" stop-opacity="0"/>
</linearGradient>
<linearGradient id="paint47_linear_29_213" x1="192.573" y1="279.96" x2="192.573" y2="317.284" gradientUnits="userSpaceOnUse">
<stop stop-color="white" stop-opacity="0"/>
<stop offset="0.5" stop-color="white"/>
<stop offset="1" stop-color="white" stop-opacity="0"/>
</linearGradient>
<linearGradient id="paint48_linear_29_213" x1="206.929" y1="323.498" x2="234.814" y2="308.671" gradientUnits="userSpaceOnUse">
<stop stop-color="white" stop-opacity="0"/>
<stop offset="0.5" stop-color="white"/>
<stop offset="1" stop-color="white" stop-opacity="0"/>
</linearGradient>
<linearGradient id="paint49_linear_29_213" x1="202.622" y1="319.192" x2="230.508" y2="304.365" gradientUnits="userSpaceOnUse">
<stop stop-color="white" stop-opacity="0"/>
<stop offset="0.5" stop-color="white"/>
<stop offset="1" stop-color="white" stop-opacity="0"/>
</linearGradient>
<linearGradient id="paint50_linear_29_213" x1="198.315" y1="316.32" x2="226.201" y2="301.493" gradientUnits="userSpaceOnUse">
<stop stop-color="white" stop-opacity="0"/>
<stop offset="0.5" stop-color="white"/>
<stop offset="1" stop-color="white" stop-opacity="0"/>
</linearGradient>
<linearGradient id="paint51_linear_29_213" x1="229.898" y1="463.711" x2="229.898" y2="427.822" gradientUnits="userSpaceOnUse">
<stop stop-color="white" stop-opacity="0"/>
<stop offset="0.5" stop-color="white"/>
<stop offset="1" stop-color="white" stop-opacity="0"/>
</linearGradient>
<linearGradient id="paint52_linear_29_213" x1="202.622" y1="693.4" x2="202.622" y2="406.289" gradientUnits="userSpaceOnUse">
<stop stop-color="white" stop-opacity="0"/>
<stop offset="0.5" stop-color="white"/>
<stop offset="1" stop-color="white" stop-opacity="0"/>
</linearGradient>
<linearGradient id="paint53_linear_29_213" x1="202.622" y1="393.369" x2="202.622" y2="379.013" gradientUnits="userSpaceOnUse">
<stop stop-color="white" stop-opacity="0"/>
<stop offset="0.5" stop-color="white"/>
<stop offset="1" stop-color="white" stop-opacity="0"/>
</linearGradient>
<linearGradient id="paint54_linear_29_213" x1="229.898" y1="478.067" x2="229.898" y2="463.711" gradientUnits="userSpaceOnUse">
<stop stop-color="white" stop-opacity="0"/>
<stop offset="0.5" stop-color="white"/>
<stop offset="1" stop-color="white" stop-opacity="0"/>
</linearGradient>
<linearGradient id="paint55_linear_29_213" x1="156.684" y1="706.32" x2="175.347" y2="689.093" gradientUnits="userSpaceOnUse">
<stop stop-color="white"/>
<stop offset="0.489583" stop-color="white" stop-opacity="0"/>
<stop offset="1" stop-color="white" stop-opacity="0.19"/>
</linearGradient>
<linearGradient id="paint56_linear_29_213" x1="841.444" y1="714.933" x2="824.218" y2="696.271" gradientUnits="userSpaceOnUse">
<stop stop-color="white"/>
<stop offset="0.489583" stop-color="white" stop-opacity="0"/>
<stop offset="1" stop-color="white" stop-opacity="0.19"/>
</linearGradient>
<linearGradient id="paint57_linear_29_213" x1="842.88" y1="274.218" x2="824.218" y2="291.444" gradientUnits="userSpaceOnUse">
<stop stop-color="white"/>
<stop offset="0.489583" stop-color="white" stop-opacity="0"/>
<stop offset="1" stop-color="white" stop-opacity="0.19"/>
</linearGradient>
<linearGradient id="paint58_linear_29_213" x1="804.838" y1="292.88" x2="786.176" y2="310.107" gradientUnits="userSpaceOnUse">
<stop stop-color="white"/>
<stop offset="0.489583" stop-color="white" stop-opacity="0"/>
<stop offset="1" stop-color="white" stop-opacity="0.19"/>
</linearGradient>
</defs>
</svg>
