<svg width="100" height="100" viewBox="0 0 100 100" fill="none" xmlns="http://www.w3.org/2000/svg">
<rect width="100" height="100" fill="white"/>
<path d="M50 0C22.3827 0 0 22.3827 0 50C0 77.6173 22.3827 100 50 100C77.6173 100 100 77.6173 100 50C100 22.3827 77.6173 0 50 0ZM90.713 50.7581C90.713 50.9892 90.7022 51.2202 90.6949 51.4495C90.6787 51.8953 90.657 52.3412 90.6264 52.7852C90.6264 52.87 90.6155 52.9549 90.6083 53.0397C90.5939 53.231 90.5794 53.4206 90.5614 53.6119C90.5415 53.8502 90.518 54.0903 90.4928 54.3339C90.4422 54.8105 90.3845 55.287 90.3123 55.7599C90.204 56.5307 90.0722 57.296 89.9224 58.056C89.8827 58.2473 89.8448 58.4368 89.8032 58.6264C89.7617 58.8159 89.7202 59.0054 89.6769 59.1931C89.5902 59.5698 89.4982 59.9452 89.4007 60.3195C89.3014 60.6931 89.2004 61.065 89.0921 61.435C88.9296 61.991 88.7557 62.5433 88.5704 63.0921C88.509 63.2726 88.4458 63.4531 88.3899 63.6336C88.2617 63.9946 88.1264 64.3556 87.9874 64.7166C87.7286 65.3833 87.4531 66.0451 87.1606 66.7022C87.0632 66.9188 86.9639 67.1354 86.8628 67.3502C86.7617 67.565 86.6643 67.769 86.5614 67.9765C86.5519 67.9928 86.5434 68.0097 86.5361 68.0271C86.4368 68.2292 86.3339 68.4314 86.231 68.6318C86.1282 68.8321 86.0505 68.9928 85.9531 69.1606L85.8448 69.361C85.7689 69.5036 85.6913 69.6444 85.6119 69.7852C85.3971 70.1697 85.1769 70.5523 84.9476 70.9296C84.8754 71.0523 84.8014 71.1733 84.7256 71.2906C84.6354 71.4404 84.5451 71.5902 84.4477 71.7383C84.1456 72.2112 83.8351 72.6787 83.5162 73.1408L82.5361 72.1606L81.5505 71.1751L74.5848 64.2076L75.0541 63.3231C77.856 58.0075 78.9162 51.9456 78.0848 45.9946C77.3429 40.779 75.1629 35.8732 71.7892 31.8271C68.4155 27.781 63.9815 24.7546 58.9843 23.0872C53.987 21.4198 48.6241 21.1773 43.4968 22.3869C38.3694 23.5965 33.6804 26.2103 29.9553 29.9354C26.2302 33.6605 23.6163 38.3496 22.4067 43.4769C21.1971 48.6043 21.4396 53.9672 23.107 58.9644C24.7744 63.9617 27.8008 68.3957 31.8469 71.7694C35.893 75.1431 40.7989 77.3231 46.0144 78.065C51.9655 78.8971 58.0276 77.8369 63.343 75.0343L64.2274 74.565L71.1949 81.5307L73.1588 83.4946L73.1859 83.5217L71.7581 84.4242L71.3736 84.6643C71.3532 84.6779 71.3321 84.6906 71.3105 84.7022C71.1895 84.778 71.0668 84.852 70.9495 84.9242C70.9174 84.9458 70.8843 84.9656 70.8502 84.9838L70.4783 85.1986C70.2798 85.3159 70.0794 85.4296 69.8791 85.5415C69.6787 85.6534 69.4838 85.7617 69.2834 85.8682C69.083 85.9747 68.8628 86.0921 68.6516 86.2022C68.015 86.5295 67.3712 86.8399 66.7202 87.1336L66.3592 87.296L65.9206 87.4765C65.5367 87.639 65.1498 87.796 64.7599 87.9477C64.37 88.0993 63.9801 88.2437 63.5903 88.3809C63.3267 88.4729 63.0632 88.5614 62.7996 88.6498L62.3466 88.796C61.8941 88.9392 61.438 89.0752 60.9783 89.204C60.5199 89.3303 60.0578 89.4513 59.5939 89.565L59.1282 89.6733L58.7365 89.7599C58.2106 89.8742 57.6835 89.9777 57.1552 90.0704C56.8899 90.1155 56.6245 90.1606 56.3592 90.2022L55.9603 90.2617C55.4188 90.3393 54.8935 90.4079 54.3574 90.4639C54.1191 90.4892 53.8809 90.5126 53.6354 90.5325C53.3899 90.5523 53.157 90.5722 52.9134 90.5902L52.1913 90.6336C51.9513 90.6462 51.7094 90.657 51.4693 90.6661C51.2292 90.6751 51.0181 90.6805 50.7924 90.6823C50.7624 90.6841 50.7322 90.6841 50.7022 90.6823C50.4783 90.6823 50.2563 90.6823 50.0325 90.6823H50.009C44.6625 90.6963 39.3662 89.6498 34.4268 87.6033C29.4874 85.5569 25.0029 82.5511 21.2329 78.7599C20.0424 77.5754 18.9248 76.3198 17.8863 75C17.7256 74.7942 17.565 74.5848 17.4079 74.3755C15.4323 71.7465 13.7853 68.8859 12.5036 65.8574C12.3508 65.4964 12.2034 65.1324 12.0614 64.7653C11.9097 64.3791 11.7653 63.9904 11.6282 63.5993C11.5523 63.3863 11.4801 63.1715 11.4079 62.9567C11.1276 62.1227 10.8755 61.2804 10.6516 60.4296C10.5686 60.1101 10.4874 59.7906 10.4116 59.4693C10.3357 59.148 10.2617 58.8249 10.1931 58.5018C10.0162 57.6871 9.86763 56.8664 9.74729 56.0397C9.72924 55.9278 9.7148 55.8159 9.70036 55.704C9.59326 54.9495 9.50903 54.1889 9.44765 53.4224C9.42419 53.1625 9.40433 52.9007 9.38989 52.639C9.33213 51.7629 9.30385 50.8833 9.30505 50C9.30626 49.1167 9.33454 48.2371 9.38989 47.361C9.40433 47.0993 9.42419 46.8375 9.44765 46.5776C9.50903 45.8123 9.59326 45.0517 9.70036 44.296C9.7148 44.1841 9.72924 44.0722 9.74729 43.9603C9.86763 43.136 10.0138 42.3177 10.1859 41.5054C10.2545 41.1817 10.3273 40.8592 10.4043 40.5379C10.6835 39.355 11.0156 38.1901 11.4007 37.0433C11.4711 36.8285 11.5451 36.6137 11.6209 36.4007C12.2983 34.4861 13.1202 32.6258 14.0794 30.8357C14.3123 30.3989 14.5542 29.9675 14.8014 29.5379C15.556 28.2469 16.381 26.9983 17.2726 25.7978C17.4711 25.5295 17.6733 25.2635 17.8791 25C18.9172 23.6697 20.0354 22.4038 21.2274 21.2094C24.9982 17.4199 29.483 14.4158 34.4224 12.3709C39.3618 10.3259 44.6577 9.28084 50.0036 9.29603H50.0126C58.1478 9.30284 66.0951 11.7418 72.8336 16.2995C79.5721 20.8573 84.794 27.3256 87.8285 34.8736C88.0692 35.4862 88.299 36.1047 88.5181 36.7292C88.7876 37.509 89.0319 38.2978 89.2509 39.0957C89.3393 39.4134 89.4224 39.7347 89.5036 40.056C89.5848 40.3773 89.6606 40.6986 89.7328 41.0235C89.8051 41.3484 89.8736 41.6715 89.9386 41.9964C90.0361 42.4862 90.1239 42.9777 90.2022 43.4711C90.2539 43.7996 90.3026 44.1294 90.3484 44.4603C90.4386 45.1221 90.512 45.7882 90.5686 46.4585C90.5975 46.7924 90.6227 47.1282 90.6426 47.4639C90.6943 48.3063 90.7202 49.1516 90.7202 50C90.7202 50.2329 90.7202 50.4639 90.7202 50.6967C90.7148 50.722 90.713 50.7383 90.713 50.7581ZM63.5758 50C63.567 53.344 62.3153 56.5654 60.0639 59.038C57.8124 61.5105 54.7221 63.0578 51.3935 63.3789C48.0649 63.7 44.7358 62.7722 42.0532 60.7756C39.3706 58.7791 37.5261 55.8565 36.8782 52.5758C36.2302 49.2951 36.8252 45.8907 38.5474 43.0242C40.2696 40.1577 42.996 38.0339 46.1967 37.0655C49.3975 36.0972 52.844 36.3534 55.8664 37.7844C58.8887 39.2154 61.2711 41.719 62.5505 44.8087C63.2322 46.4543 63.5807 48.2188 63.5758 50Z" fill="url(#paint0_linear_24_124)"/>
<defs>
<linearGradient id="paint0_linear_24_124" x1="20.5776" y1="12.9404" x2="82.7581" y2="91.2617" gradientUnits="userSpaceOnUse">
<stop stop-color="#FAE205"/>
<stop offset="1" stop-color="#FA6400"/>
</linearGradient>
</defs>
</svg>
