<svg width="1000" height="1000" viewBox="0 0 1000 1000" fill="none" xmlns="http://www.w3.org/2000/svg">
<path fill-rule="evenodd" clip-rule="evenodd" d="M885 281H111V278H885V281Z" fill="url(#paint0_linear_29_213)"/>
<path fill-rule="evenodd" clip-rule="evenodd" d="M884 322H110V319H884V322Z" fill="url(#paint1_linear_29_213)"/>
<path fill-rule="evenodd" clip-rule="evenodd" d="M789 273H15V271H789V273Z" fill="url(#paint2_linear_29_213)"/>
<path fill-rule="evenodd" clip-rule="evenodd" d="M885 707H111V704H885V707Z" fill="url(#paint3_linear_29_213)"/>
<path fill-rule="evenodd" clip-rule="evenodd" d="M984 714H210V711H984V714Z" fill="url(#paint4_linear_29_213)"/>
<path fill-rule="evenodd" clip-rule="evenodd" d="M163 753L163 246L166 246L166 753L163 753Z" fill="url(#paint5_linear_29_213)"/>
<path fill-rule="evenodd" clip-rule="evenodd" d="M156 687L156 180L159 180L159 687L156 687Z" fill="url(#paint6_linear_29_213)"/>
<path fill-rule="evenodd" clip-rule="evenodd" d="M840 807L840 301L843 301L843 807L840 807Z" fill="url(#paint7_linear_29_213)"/>
<path fill-rule="evenodd" clip-rule="evenodd" d="M833 753L833 246L836 246L836 753L833 753Z" fill="url(#paint8_linear_29_213)"/>
<path fill-rule="evenodd" clip-rule="evenodd" d="M794 335L794 265L797 265L797 335L794 335Z" fill="url(#paint9_linear_29_213)"/>
<path fill-rule="evenodd" clip-rule="evenodd" d="M807 494L807 344L810 344L810 494L807 494Z" fill="url(#paint10_linear_29_213)"/>
<path fill-rule="evenodd" clip-rule="evenodd" d="M672 480L823 480L823 483L672 483L672 480Z" fill="url(#paint11_linear_29_213)"/>
<path fill-rule="evenodd" clip-rule="evenodd" d="M680 490L680 339L683 339L683 490L680 490Z" fill="url(#paint12_linear_29_213)"/>
<path fill-rule="evenodd" clip-rule="evenodd" d="M648 347L799 347L799 349L648 349L648 347Z" fill="url(#paint13_linear_29_213)"/>
<path fill-rule="evenodd" clip-rule="evenodd" d="M708 367H795V370H708V367Z" fill="url(#paint14_linear_29_213)"/>
<path fill-rule="evenodd" clip-rule="evenodd" d="M710 378H769V381H710V378Z" fill="url(#paint15_linear_29_213)"/>
<path fill-rule="evenodd" clip-rule="evenodd" d="M706 390H805V393H706V390Z" fill="url(#paint16_linear_29_213)"/>
<path fill-rule="evenodd" clip-rule="evenodd" d="M694 368H780V371H694V368Z" fill="url(#paint17_linear_29_213)"/>
<path fill-rule="evenodd" clip-rule="evenodd" d="M695 380H754V383H695V380Z" fill="url(#paint18_linear_29_213)"/>
<path fill-rule="evenodd" clip-rule="evenodd" d="M691 391H790V394H691V391Z" fill="url(#paint19_linear_29_213)"/>
<path fill-rule="evenodd" clip-rule="evenodd" d="M777.28 349.485L797.378 329.387L799.408 331.417L779.31 351.515L777.28 349.485Z" fill="url(#paint20_linear_29_213)"/>
<path fill-rule="evenodd" clip-rule="evenodd" d="M810.298 349.484L790.2 329.387L792.23 327.356L812.328 347.454L810.298 349.484Z" fill="url(#paint21_linear_29_213)"/>
<path fill-rule="evenodd" clip-rule="evenodd" d="M759 300L829 300L829 303L759 303L759 300Z" fill="url(#paint22_linear_29_213)"/>
<path fill-rule="evenodd" clip-rule="evenodd" d="M192 347H341V349H192V347Z" fill="url(#paint23_linear_29_213)"/>
<path fill-rule="evenodd" clip-rule="evenodd" d="M219 431H368V434H219V431Z" fill="url(#paint24_linear_29_213)"/>
<path fill-rule="evenodd" clip-rule="evenodd" d="M167 408L813 408V411L167 411V408Z" fill="url(#paint25_linear_29_213)"/>
<path fill-rule="evenodd" clip-rule="evenodd" d="M196 380H375V383H196V380Z" fill="url(#paint26_linear_29_213)"/>
<path fill-rule="evenodd" clip-rule="evenodd" d="M223 464H403V467H223V464Z" fill="url(#paint27_linear_29_213)"/>
<path fill-rule="evenodd" clip-rule="evenodd" d="M192 370H341V372H192V370Z" fill="url(#paint28_linear_29_213)"/>
<path fill-rule="evenodd" clip-rule="evenodd" d="M219 454H368V457H219V454Z" fill="url(#paint29_linear_29_213)"/>
<path fill-rule="evenodd" clip-rule="evenodd" d="M167 668L813 668V671L167 671V668Z" fill="url(#paint30_linear_29_213)"/>
<path fill-rule="evenodd" clip-rule="evenodd" d="M196 390H375V393H196V390Z" fill="url(#paint31_linear_29_213)"/>
<path fill-rule="evenodd" clip-rule="evenodd" d="M223 474H403V477H223V474Z" fill="url(#paint32_linear_29_213)"/>
<path fill-rule="evenodd" clip-rule="evenodd" d="M332 342L332 378L329 378L329 342L332 342Z" fill="url(#paint33_linear_29_213)"/>
<path fill-rule="evenodd" clip-rule="evenodd" d="M360 427L360 463L357 463L357 427L360 427Z" fill="url(#paint34_linear_29_213)"/>
<path fill-rule="evenodd" clip-rule="evenodd" d="M780 395L780 694L777 694L777 395L780 395Z" fill="url(#paint35_linear_29_213)"/>
<path fill-rule="evenodd" clip-rule="evenodd" d="M367 378L367 393L364 393L364 378L367 378Z" fill="url(#paint36_linear_29_213)"/>
<path fill-rule="evenodd" clip-rule="evenodd" d="M394 463L394 477L391 477L391 463L394 463Z" fill="url(#paint37_linear_29_213)"/>
<path fill-rule="evenodd" clip-rule="evenodd" d="M202 342L202 378L199 378L199 342L202 342Z" fill="url(#paint38_linear_29_213)"/>
<path fill-rule="evenodd" clip-rule="evenodd" d="M198.228 290.105L224.621 316.497L222.591 318.527L196.198 292.135L198.228 290.105Z" fill="url(#paint39_linear_29_213)"/>
<path fill-rule="evenodd" clip-rule="evenodd" d="M213.107 297.805L235.439 320.137L233.408 322.167L211.076 299.835L213.107 297.805Z" fill="url(#paint40_linear_29_213)"/>
<path fill-rule="evenodd" clip-rule="evenodd" d="M229 427L229 463L226 463L226 427L229 427Z" fill="url(#paint41_linear_29_213)"/>
<path fill-rule="evenodd" clip-rule="evenodd" d="M202 405L202 693L199 693L199 405L202 405Z" fill="url(#paint42_linear_29_213)"/>
<path fill-rule="evenodd" clip-rule="evenodd" d="M202 378L202 393L199 393L199 378L202 378Z" fill="url(#paint43_linear_29_213)"/>
<path fill-rule="evenodd" clip-rule="evenodd" d="M229 463L229 477L226 477L226 463L229 463Z" fill="url(#paint44_linear_29_213)"/>
<path fill-rule="evenodd" clip-rule="evenodd" d="M210.5 313.13C218.028 313.13 224.13 307.028 224.13 299.5C224.13 291.972 218.028 285.87 210.5 285.87C202.972 285.87 196.87 291.972 196.87 299.5C196.87 307.028 202.972 313.13 210.5 313.13ZM210.5 316C219.613 316 227 308.613 227 299.5C227 290.387 219.613 283 210.5 283C201.387 283 194 290.387 194 299.5C194 308.613 201.387 316 210.5 316Z" fill="url(#paint45_linear_29_213)"/>
<path fill-rule="evenodd" clip-rule="evenodd" d="M208.538 290.945C203.56 292.278 200.606 297.395 201.94 302.373C203.274 307.351 208.391 310.305 213.368 308.971C218.346 307.637 221.3 302.52 219.967 297.543C218.633 292.565 213.516 289.611 208.538 290.945ZM207.795 288.171C201.286 289.915 197.423 296.606 199.167 303.116C200.911 309.625 207.602 313.488 214.112 311.744C220.621 310 224.484 303.309 222.74 296.799C220.996 290.29 214.305 286.427 207.795 288.171Z" fill="url(#paint46_linear_29_213)"/>
<path fill-rule="evenodd" clip-rule="evenodd" d="M209.963 296.262C207.922 296.809 206.71 298.907 207.257 300.948C207.804 302.99 209.902 304.201 211.944 303.654C213.985 303.107 215.196 301.009 214.649 298.968C214.103 296.926 212.004 295.715 209.963 296.262ZM209.22 293.488C205.647 294.446 203.527 298.118 204.484 301.691C205.441 305.264 209.114 307.385 212.687 306.427C216.26 305.47 218.38 301.797 217.423 298.224C216.465 294.651 212.793 292.531 209.22 293.488Z" fill="url(#paint47_linear_29_213)"/>
<path fill-rule="evenodd" clip-rule="evenodd" d="M171.231 697.5C171.231 693.868 168.441 690.923 165 690.923C161.559 690.923 158.769 693.868 158.769 697.5C158.769 701.132 161.559 704.077 165 704.077C168.441 704.077 171.231 701.132 171.231 697.5ZM174 697.5C174 692.253 169.971 688 165 688C160.029 688 156 692.253 156 697.5C156 702.747 160.029 707 165 707C169.971 707 174 702.747 174 697.5Z" fill="url(#paint48_linear_29_213)"/>
<path fill-rule="evenodd" clip-rule="evenodd" d="M832.5 697.923C828.868 697.923 825.923 700.868 825.923 704.5C825.923 708.132 828.868 711.077 832.5 711.077C836.132 711.077 839.077 708.132 839.077 704.5C839.077 700.868 836.132 697.923 832.5 697.923ZM832.5 695C827.253 695 823 699.253 823 704.5C823 709.747 827.253 714 832.5 714C837.747 714 842 709.747 842 704.5C842 699.253 837.747 695 832.5 695Z" fill="url(#paint49_linear_29_213)"/>
<path fill-rule="evenodd" clip-rule="evenodd" d="M825.923 281.5C825.923 285.132 828.868 288.077 832.5 288.077C836.132 288.077 839.077 285.132 839.077 281.5C839.077 277.868 836.132 274.923 832.5 274.923C828.868 274.923 825.923 277.868 825.923 281.5ZM823 281.5C823 286.747 827.253 291 832.5 291C837.747 291 842 286.747 842 281.5C842 276.253 837.747 272 832.5 272C827.253 272 823 276.253 823 281.5Z" fill="url(#paint50_linear_29_213)"/>
<path fill-rule="evenodd" clip-rule="evenodd" d="M787.923 300C787.923 303.441 790.868 306.231 794.5 306.231C798.132 306.231 801.077 303.441 801.077 300C801.077 296.559 798.132 293.769 794.5 293.769C790.868 293.769 787.923 296.559 787.923 300ZM785 300C785 304.971 789.253 309 794.5 309C799.747 309 804 304.971 804 300C804 295.029 799.747 291 794.5 291C789.253 291 785 295.029 785 300Z" fill="url(#paint51_linear_29_213)"/>
<path fill-rule="evenodd" clip-rule="evenodd" d="M108 862L108 138L110 138L110 862L108 862Z" fill="white" fill-opacity="0.1"/>
<path fill-rule="evenodd" clip-rule="evenodd" d="M160 862L160 138L161 138L161 862L160 862Z" fill="white" fill-opacity="0.1"/>
<path fill-rule="evenodd" clip-rule="evenodd" d="M212 862L212 138L213 138L213 862L212 862Z" fill="white" fill-opacity="0.1"/>
<path fill-rule="evenodd" clip-rule="evenodd" d="M263 862L263 138L265 138L265 862L263 862Z" fill="white" fill-opacity="0.1"/>
<path fill-rule="evenodd" clip-rule="evenodd" d="M315 862L315 138L316 138L316 862L315 862Z" fill="white" fill-opacity="0.1"/>
<path fill-rule="evenodd" clip-rule="evenodd" d="M367 862L367 138L368 138L368 862L367 862Z" fill="white" fill-opacity="0.1"/>
<path fill-rule="evenodd" clip-rule="evenodd" d="M418 862L418 138L420 138L420 862L418 862Z" fill="white" fill-opacity="0.1"/>
<path fill-rule="evenodd" clip-rule="evenodd" d="M470 862L470 138L472 138L472 862L470 862Z" fill="white" fill-opacity="0.1"/>
<path fill-rule="evenodd" clip-rule="evenodd" d="M522 862L522 138L523 138L523 862L522 862Z" fill="white" fill-opacity="0.1"/>
<path fill-rule="evenodd" clip-rule="evenodd" d="M573 862L573 138L575 138L575 862L573 862Z" fill="white" fill-opacity="0.1"/>
<path fill-rule="evenodd" clip-rule="evenodd" d="M625 862L625 138L627 138L627 862L625 862Z" fill="white" fill-opacity="0.1"/>
<path fill-rule="evenodd" clip-rule="evenodd" d="M677 862L677 138L678 138L678 862L677 862Z" fill="white" fill-opacity="0.1"/>
<path fill-rule="evenodd" clip-rule="evenodd" d="M728 862L728 138L730 138L730 862L728 862Z" fill="white" fill-opacity="0.1"/>
<path fill-rule="evenodd" clip-rule="evenodd" d="M780 862L780 138L782 138L782 862L780 862Z" fill="white" fill-opacity="0.1"/>
<path fill-rule="evenodd" clip-rule="evenodd" d="M832 862L832 138L833 138L833 862L832 862Z" fill="white" fill-opacity="0.1"/>
<path fill-rule="evenodd" clip-rule="evenodd" d="M884 862L884 138L885 138L885 862L884 862Z" fill="white" fill-opacity="0.1"/>
<path fill-rule="evenodd" clip-rule="evenodd" d="M889 888L101 888L101 886L889 886L889 888Z" fill="white" fill-opacity="0.1"/>
<path fill-rule="evenodd" clip-rule="evenodd" d="M889 836L101 836L101 835L889 835V836Z" fill="white" fill-opacity="0.1"/>
<path fill-rule="evenodd" clip-rule="evenodd" d="M889 784L101 784L101 783L889 783V784Z" fill="white" fill-opacity="0.1"/>
<path fill-rule="evenodd" clip-rule="evenodd" d="M889 733L101 733L101 731L889 731L889 733Z" fill="white" fill-opacity="0.1"/>
<path fill-rule="evenodd" clip-rule="evenodd" d="M889 681L101 681L101 680L889 680V681Z" fill="white" fill-opacity="0.1"/>
<path fill-rule="evenodd" clip-rule="evenodd" d="M889 629L101 629L101 628L889 628V629Z" fill="white" fill-opacity="0.1"/>
<path fill-rule="evenodd" clip-rule="evenodd" d="M889 578L101 578L101 576L889 576L889 578Z" fill="white" fill-opacity="0.1"/>
<path fill-rule="evenodd" clip-rule="evenodd" d="M889 526L101 526L101 525L889 525V526Z" fill="white" fill-opacity="0.1"/>
<path fill-rule="evenodd" clip-rule="evenodd" d="M889 474L101 474L101 473L889 473V474Z" fill="white" fill-opacity="0.1"/>
<path fill-rule="evenodd" clip-rule="evenodd" d="M889 423L101 423L101 421L889 421L889 423Z" fill="white" fill-opacity="0.1"/>
<path fill-rule="evenodd" clip-rule="evenodd" d="M889 371L101 371L101 370L889 370V371Z" fill="white" fill-opacity="0.1"/>
<path fill-rule="evenodd" clip-rule="evenodd" d="M889 319L101 319L101 318L889 318V319Z" fill="white" fill-opacity="0.1"/>
<path fill-rule="evenodd" clip-rule="evenodd" d="M889 268L101 268L101 266L889 266L889 268Z" fill="white" fill-opacity="0.1"/>
<path fill-rule="evenodd" clip-rule="evenodd" d="M889 216L101 216L101 215L889 215V216Z" fill="white" fill-opacity="0.1"/>
<path fill-rule="evenodd" clip-rule="evenodd" d="M889 164L101 164L101 163L889 163V164Z" fill="white" fill-opacity="0.1"/>
<path fill-rule="evenodd" clip-rule="evenodd" d="M889 113L101 113L101 111L889 111L889 113Z" fill="white" fill-opacity="0.1"/>
<defs>
<linearGradient id="paint0_linear_29_213" x1="111" y1="281" x2="885" y2="281" gradientUnits="userSpaceOnUse">
<stop stop-color="white" stop-opacity="0"/>
<stop offset="0.5" stop-color="white"/>
<stop offset="1" stop-color="white" stop-opacity="0"/>
</linearGradient>
<linearGradient id="paint1_linear_29_213" x1="110" y1="322" x2="884" y2="322" gradientUnits="userSpaceOnUse">
<stop stop-color="white" stop-opacity="0"/>
<stop offset="0.5" stop-color="white"/>
<stop offset="1" stop-color="white" stop-opacity="0"/>
</linearGradient>
<linearGradient id="paint2_linear_29_213" x1="15" y1="273" x2="789" y2="273" gradientUnits="userSpaceOnUse">
<stop stop-color="white" stop-opacity="0"/>
<stop offset="0.5" stop-color="white"/>
<stop offset="1" stop-color="white" stop-opacity="0"/>
</linearGradient>
<linearGradient id="paint3_linear_29_213" x1="111" y1="707" x2="885" y2="707" gradientUnits="userSpaceOnUse">
<stop stop-color="white" stop-opacity="0"/>
<stop offset="0.5" stop-color="white"/>
<stop offset="1" stop-color="white" stop-opacity="0"/>
</linearGradient>
<linearGradient id="paint4_linear_29_213" x1="210" y1="714" x2="984" y2="714" gradientUnits="userSpaceOnUse">
<stop stop-color="white" stop-opacity="0"/>
<stop offset="0.5" stop-color="white"/>
<stop offset="1" stop-color="white" stop-opacity="0"/>
</linearGradient>
<linearGradient id="paint5_linear_29_213" x1="163" y1="246" x2="163" y2="753" gradientUnits="userSpaceOnUse">
<stop stop-color="white" stop-opacity="0"/>
<stop offset="0.5" stop-color="white"/>
<stop offset="1" stop-color="white" stop-opacity="0"/>
</linearGradient>
<linearGradient id="paint6_linear_29_213" x1="156" y1="180" x2="156" y2="687" gradientUnits="userSpaceOnUse">
<stop stop-color="white" stop-opacity="0"/>
<stop offset="0.5" stop-color="white"/>
<stop offset="1" stop-color="white" stop-opacity="0"/>
</linearGradient>
<linearGradient id="paint7_linear_29_213" x1="840" y1="301" x2="840" y2="807" gradientUnits="userSpaceOnUse">
<stop stop-color="white" stop-opacity="0"/>
<stop offset="0.5" stop-color="white"/>
<stop offset="1" stop-color="white" stop-opacity="0"/>
</linearGradient>
<linearGradient id="paint8_linear_29_213" x1="833" y1="246" x2="833" y2="753" gradientUnits="userSpaceOnUse">
<stop stop-color="white" stop-opacity="0"/>
<stop offset="0.5" stop-color="white"/>
<stop offset="1" stop-color="white" stop-opacity="0"/>
</linearGradient>
<linearGradient id="paint9_linear_29_213" x1="794" y1="265" x2="794" y2="335" gradientUnits="userSpaceOnUse">
<stop stop-color="white" stop-opacity="0"/>
<stop offset="0.5" stop-color="white"/>
<stop offset="1" stop-color="white" stop-opacity="0"/>
</linearGradient>
<linearGradient id="paint10_linear_29_213" x1="807" y1="344" x2="807" y2="494" gradientUnits="userSpaceOnUse">
<stop stop-color="white" stop-opacity="0"/>
<stop offset="0.5" stop-color="white"/>
<stop offset="1" stop-color="white" stop-opacity="0"/>
</linearGradient>
<linearGradient id="paint11_linear_29_213" x1="823" y1="480" x2="672" y2="480" gradientUnits="userSpaceOnUse">
<stop stop-color="white" stop-opacity="0"/>
<stop offset="0.5" stop-color="white"/>
<stop offset="1" stop-color="white" stop-opacity="0"/>
</linearGradient>
<linearGradient id="paint12_linear_29_213" x1="680" y1="339" x2="680" y2="490" gradientUnits="userSpaceOnUse">
<stop stop-color="white" stop-opacity="0"/>
<stop offset="0.5" stop-color="white"/>
<stop offset="1" stop-color="white" stop-opacity="0"/>
</linearGradient>
<linearGradient id="paint13_linear_29_213" x1="799" y1="347" x2="648" y2="347" gradientUnits="userSpaceOnUse">
<stop stop-color="white" stop-opacity="0"/>
<stop offset="0.5" stop-color="white"/>
<stop offset="1" stop-color="white" stop-opacity="0"/>
</linearGradient>
<linearGradient id="paint14_linear_29_213" x1="795" y1="367" x2="708" y2="367" gradientUnits="userSpaceOnUse">
<stop stop-color="white" stop-opacity="0"/>
<stop offset="0.5" stop-color="white"/>
<stop offset="1" stop-color="white" stop-opacity="0"/>
</linearGradient>
<linearGradient id="paint15_linear_29_213" x1="769" y1="378" x2="710" y2="378" gradientUnits="userSpaceOnUse">
<stop stop-color="white" stop-opacity="0"/>
<stop offset="0.5" stop-color="white"/>
<stop offset="1" stop-color="white" stop-opacity="0"/>
</linearGradient>
<linearGradient id="paint16_linear_29_213" x1="805" y1="390" x2="706" y2="390" gradientUnits="userSpaceOnUse">
<stop stop-color="white" stop-opacity="0"/>
<stop offset="0.5" stop-color="white"/>
<stop offset="1" stop-color="white" stop-opacity="0"/>
</linearGradient>
<linearGradient id="paint17_linear_29_213" x1="780" y1="368" x2="694" y2="368" gradientUnits="userSpaceOnUse">
<stop stop-color="white" stop-opacity="0"/>
<stop offset="0.5" stop-color="white"/>
<stop offset="1" stop-color="white" stop-opacity="0"/>
</linearGradient>
<linearGradient id="paint18_linear_29_213" x1="754" y1="380" x2="695" y2="380" gradientUnits="userSpaceOnUse">
<stop stop-color="white" stop-opacity="0"/>
<stop offset="0.5" stop-color="white"/>
<stop offset="1" stop-color="white" stop-opacity="0"/>
</linearGradient>
<linearGradient id="paint19_linear_29_213" x1="790" y1="391" x2="691" y2="391" gradientUnits="userSpaceOnUse">
<stop stop-color="white" stop-opacity="0"/>
<stop offset="0.5" stop-color="white"/>
<stop offset="1" stop-color="white" stop-opacity="0"/>
</linearGradient>
<linearGradient id="paint20_linear_29_213" x1="797.378" y1="329.387" x2="777.28" y2="349.485" gradientUnits="userSpaceOnUse">
<stop stop-color="white" stop-opacity="0"/>
<stop offset="0.5" stop-color="white"/>
<stop offset="1" stop-color="white" stop-opacity="0"/>
</linearGradient>
<linearGradient id="paint21_linear_29_213" x1="790.2" y1="329.387" x2="810.298" y2="349.484" gradientUnits="userSpaceOnUse">
<stop stop-color="white" stop-opacity="0"/>
<stop offset="0.5" stop-color="white"/>
<stop offset="1" stop-color="white" stop-opacity="0"/>
</linearGradient>
<linearGradient id="paint22_linear_29_213" x1="829" y1="300" x2="759" y2="300" gradientUnits="userSpaceOnUse">
<stop stop-color="white" stop-opacity="0"/>
<stop offset="0.5" stop-color="white"/>
<stop offset="1" stop-color="white" stop-opacity="0"/>
</linearGradient>
<linearGradient id="paint23_linear_29_213" x1="341" y1="347" x2="192" y2="347" gradientUnits="userSpaceOnUse">
<stop stop-color="white" stop-opacity="0"/>
<stop offset="0.5" stop-color="white"/>
<stop offset="1" stop-color="white" stop-opacity="0"/>
</linearGradient>
<linearGradient id="paint24_linear_29_213" x1="368" y1="431" x2="219" y2="431" gradientUnits="userSpaceOnUse">
<stop stop-color="white" stop-opacity="0"/>
<stop offset="0.5" stop-color="white"/>
<stop offset="1" stop-color="white" stop-opacity="0"/>
</linearGradient>
<linearGradient id="paint25_linear_29_213" x1="813" y1="408" x2="167" y2="408" gradientUnits="userSpaceOnUse">
<stop stop-color="white" stop-opacity="0"/>
<stop offset="0.5" stop-color="white"/>
<stop offset="1" stop-color="white" stop-opacity="0"/>
</linearGradient>
<linearGradient id="paint26_linear_29_213" x1="375" y1="380" x2="196" y2="380" gradientUnits="userSpaceOnUse">
<stop stop-color="white" stop-opacity="0"/>
<stop offset="0.5" stop-color="white"/>
<stop offset="1" stop-color="white" stop-opacity="0"/>
</linearGradient>
<linearGradient id="paint27_linear_29_213" x1="403" y1="464" x2="223" y2="464" gradientUnits="userSpaceOnUse">
<stop stop-color="white" stop-opacity="0"/>
<stop offset="0.5" stop-color="white"/>
<stop offset="1" stop-color="white" stop-opacity="0"/>
</linearGradient>
<linearGradient id="paint28_linear_29_213" x1="341" y1="370" x2="192" y2="370" gradientUnits="userSpaceOnUse">
<stop stop-color="white" stop-opacity="0"/>
<stop offset="0.5" stop-color="white"/>
<stop offset="1" stop-color="white" stop-opacity="0"/>
</linearGradient>
<linearGradient id="paint29_linear_29_213" x1="368" y1="454" x2="219" y2="454" gradientUnits="userSpaceOnUse">
<stop stop-color="white" stop-opacity="0"/>
<stop offset="0.5" stop-color="white"/>
<stop offset="1" stop-color="white" stop-opacity="0"/>
</linearGradient>
<linearGradient id="paint30_linear_29_213" x1="813" y1="668" x2="167" y2="668" gradientUnits="userSpaceOnUse">
<stop stop-color="white" stop-opacity="0"/>
<stop offset="0.5" stop-color="white"/>
<stop offset="1" stop-color="white" stop-opacity="0"/>
</linearGradient>
<linearGradient id="paint31_linear_29_213" x1="375" y1="390" x2="196" y2="390" gradientUnits="userSpaceOnUse">
<stop stop-color="white" stop-opacity="0"/>
<stop offset="0.5" stop-color="white"/>
<stop offset="1" stop-color="white" stop-opacity="0"/>
</linearGradient>
<linearGradient id="paint32_linear_29_213" x1="403" y1="474" x2="223" y2="474" gradientUnits="userSpaceOnUse">
<stop stop-color="white" stop-opacity="0"/>
<stop offset="0.5" stop-color="white"/>
<stop offset="1" stop-color="white" stop-opacity="0"/>
</linearGradient>
<linearGradient id="paint33_linear_29_213" x1="332" y1="378" x2="332" y2="342" gradientUnits="userSpaceOnUse">
<stop stop-color="white" stop-opacity="0"/>
<stop offset="0.5" stop-color="white"/>
<stop offset="1" stop-color="white" stop-opacity="0"/>
</linearGradient>
<linearGradient id="paint34_linear_29_213" x1="360" y1="463" x2="360" y2="427" gradientUnits="userSpaceOnUse">
<stop stop-color="white" stop-opacity="0"/>
<stop offset="0.5" stop-color="white"/>
<stop offset="1" stop-color="white" stop-opacity="0"/>
</linearGradient>
<linearGradient id="paint35_linear_29_213" x1="780" y1="694" x2="780" y2="395" gradientUnits="userSpaceOnUse">
<stop stop-color="white" stop-opacity="0"/>
<stop offset="0.5" stop-color="white"/>
<stop offset="1" stop-color="white" stop-opacity="0"/>
</linearGradient>
<linearGradient id="paint36_linear_29_213" x1="367" y1="393" x2="367" y2="378" gradientUnits="userSpaceOnUse">
<stop stop-color="white" stop-opacity="0"/>
<stop offset="0.5" stop-color="white"/>
<stop offset="1" stop-color="white" stop-opacity="0"/>
</linearGradient>
<linearGradient id="paint37_linear_29_213" x1="394" y1="477" x2="394" y2="463" gradientUnits="userSpaceOnUse">
<stop stop-color="white" stop-opacity="0"/>
<stop offset="0.5" stop-color="white"/>
<stop offset="1" stop-color="white" stop-opacity="0"/>
</linearGradient>
<linearGradient id="paint38_linear_29_213" x1="202" y1="378" x2="202" y2="342" gradientUnits="userSpaceOnUse">
<stop stop-color="white" stop-opacity="0"/>
<stop offset="0.5" stop-color="white"/>
<stop offset="1" stop-color="white" stop-opacity="0"/>
</linearGradient>
<linearGradient id="paint39_linear_29_213" x1="224.621" y1="316.497" x2="198.228" y2="290.105" gradientUnits="userSpaceOnUse">
<stop stop-color="white" stop-opacity="0"/>
<stop offset="0.5" stop-color="white"/>
<stop offset="1" stop-color="white" stop-opacity="0"/>
</linearGradient>
<linearGradient id="paint40_linear_29_213" x1="235.439" y1="320.137" x2="213.107" y2="297.805" gradientUnits="userSpaceOnUse">
<stop stop-color="white" stop-opacity="0"/>
<stop offset="0.5" stop-color="white"/>
<stop offset="1" stop-color="white" stop-opacity="0"/>
</linearGradient>
<linearGradient id="paint41_linear_29_213" x1="229" y1="463" x2="229" y2="427" gradientUnits="userSpaceOnUse">
<stop stop-color="white" stop-opacity="0"/>
<stop offset="0.5" stop-color="white"/>
<stop offset="1" stop-color="white" stop-opacity="0"/>
</linearGradient>
<linearGradient id="paint42_linear_29_213" x1="202" y1="693" x2="202" y2="405" gradientUnits="userSpaceOnUse">
<stop stop-color="white" stop-opacity="0"/>
<stop offset="0.5" stop-color="white"/>
<stop offset="1" stop-color="white" stop-opacity="0"/>
</linearGradient>
<linearGradient id="paint43_linear_29_213" x1="202" y1="393" x2="202" y2="378" gradientUnits="userSpaceOnUse">
<stop stop-color="white" stop-opacity="0"/>
<stop offset="0.5" stop-color="white"/>
<stop offset="1" stop-color="white" stop-opacity="0"/>
</linearGradient>
<linearGradient id="paint44_linear_29_213" x1="229" y1="477" x2="229" y2="463" gradientUnits="userSpaceOnUse">
<stop stop-color="white" stop-opacity="0"/>
<stop offset="0.5" stop-color="white"/>
<stop offset="1" stop-color="white" stop-opacity="0"/>
</linearGradient>
<linearGradient id="paint45_linear_29_213" x1="196.538" y1="283" x2="227" y2="316" gradientUnits="userSpaceOnUse">
<stop stop-color="white"/>
<stop offset="0.489583" stop-color="white" stop-opacity="0"/>
<stop offset="1" stop-color="white" stop-opacity="0.19"/>
</linearGradient>
<linearGradient id="paint46_linear_29_213" x1="224.085" y1="309.072" x2="196.009" y2="291.329" gradientUnits="userSpaceOnUse">
<stop stop-color="white"/>
<stop offset="0.489583" stop-color="white" stop-opacity="0"/>
<stop offset="1" stop-color="white" stop-opacity="0.19"/>
</linearGradient>
<linearGradient id="paint47_linear_29_213" x1="218.161" y1="304.961" x2="202.75" y2="295.222" gradientUnits="userSpaceOnUse">
<stop stop-color="white"/>
<stop offset="0.489583" stop-color="white" stop-opacity="0"/>
<stop offset="1" stop-color="white" stop-opacity="0.19"/>
</linearGradient>
<linearGradient id="paint48_linear_29_213" x1="156" y1="705.538" x2="174.891" y2="689.019" gradientUnits="userSpaceOnUse">
<stop stop-color="white"/>
<stop offset="0.489583" stop-color="white" stop-opacity="0"/>
<stop offset="1" stop-color="white" stop-opacity="0.19"/>
</linearGradient>
<linearGradient id="paint49_linear_29_213" x1="840.538" y1="714" x2="823" y2="695" gradientUnits="userSpaceOnUse">
<stop stop-color="white"/>
<stop offset="0.489583" stop-color="white" stop-opacity="0"/>
<stop offset="1" stop-color="white" stop-opacity="0.19"/>
</linearGradient>
<linearGradient id="paint50_linear_29_213" x1="842" y1="273.462" x2="823" y2="291" gradientUnits="userSpaceOnUse">
<stop stop-color="white"/>
<stop offset="0.489583" stop-color="white" stop-opacity="0"/>
<stop offset="1" stop-color="white" stop-opacity="0.19"/>
</linearGradient>
<linearGradient id="paint51_linear_29_213" x1="804" y1="292.385" x2="785.948" y2="309.973" gradientUnits="userSpaceOnUse">
<stop stop-color="white"/>
<stop offset="0.489583" stop-color="white" stop-opacity="0"/>
<stop offset="1" stop-color="white" stop-opacity="0.19"/>
</linearGradient>
</defs>
</svg>
