<svg width="320" height="79" viewBox="0 0 320 79" fill="none" xmlns="http://www.w3.org/2000/svg">
<path d="M269.667 24H270.979V15.5449H269.672L267.446 17.127V18.416L269.567 16.8984H269.667V24Z" fill="black" fill-opacity="0.2"/>
<path d="M269.667 24H270.979V15.5449H269.672L267.446 17.127V18.416L269.567 16.8984H269.667V24Z" fill="black" fill-opacity="0.36" style="mix-blend-mode:overlay"/>
<path d="M273.379 24H274.638V20.2734C274.638 19.2773 275.213 18.6152 276.244 18.6152C277.134 18.6152 277.609 19.1367 277.609 20.1855V24H278.869V19.8867C278.869 18.3809 278.031 17.5195 276.672 17.5195C275.711 17.5195 275.037 17.9414 274.726 18.6504H274.627V15.1406H273.379V24Z" fill="black" fill-opacity="0.2"/>
<path d="M273.379 24H274.638V20.2734C274.638 19.2773 275.213 18.6152 276.244 18.6152C277.134 18.6152 277.609 19.1367 277.609 20.1855V24H278.869V19.8867C278.869 18.3809 278.031 17.5195 276.672 17.5195C275.711 17.5195 275.037 17.9414 274.726 18.6504H274.627V15.1406H273.379V24Z" fill="black" fill-opacity="0.36" style="mix-blend-mode:overlay"/>
<path d="M285.449 24.1055C286.287 24.1055 286.984 23.7422 287.365 23.0977H287.465V24H288.678V19.6465C288.678 18.3105 287.775 17.5137 286.176 17.5137C284.728 17.5137 283.697 18.2109 283.568 19.2832H284.787C284.928 18.8203 285.414 18.5566 286.117 18.5566C286.978 18.5566 287.424 18.9492 287.424 19.6465V20.2031L285.695 20.3086C284.178 20.4023 283.322 21.0645 283.322 22.207C283.322 23.3672 284.219 24.1055 285.449 24.1055ZM285.771 23.0918C285.086 23.0918 284.588 22.7461 284.588 22.1543C284.588 21.5742 284.986 21.2637 285.865 21.2051L287.424 21.0996V21.6504C287.424 22.4707 286.721 23.0918 285.771 23.0918Z" fill="black" fill-opacity="0.2"/>
<path d="M285.449 24.1055C286.287 24.1055 286.984 23.7422 287.365 23.0977H287.465V24H288.678V19.6465C288.678 18.3105 287.775 17.5137 286.176 17.5137C284.728 17.5137 283.697 18.2109 283.568 19.2832H284.787C284.928 18.8203 285.414 18.5566 286.117 18.5566C286.978 18.5566 287.424 18.9492 287.424 19.6465V20.2031L285.695 20.3086C284.178 20.4023 283.322 21.0645 283.322 22.207C283.322 23.3672 284.219 24.1055 285.449 24.1055ZM285.771 23.0918C285.086 23.0918 284.588 22.7461 284.588 22.1543C284.588 21.5742 284.986 21.2637 285.865 21.2051L287.424 21.0996V21.6504C287.424 22.4707 286.721 23.0918 285.771 23.0918Z" fill="black" fill-opacity="0.36" style="mix-blend-mode:overlay"/>
<path d="M293.04 26.4316C294.845 26.4316 295.987 25.5117 295.987 24.0645V17.6367H294.78V18.6504H294.681C294.323 17.959 293.556 17.5254 292.677 17.5254C291.048 17.5254 290.028 18.8086 290.028 20.7363C290.028 22.6465 291.036 23.9062 292.665 23.9062C293.544 23.9062 294.247 23.5254 294.634 22.834H294.728V24.0586C294.728 24.9199 294.106 25.4355 293.058 25.4355C292.208 25.4355 291.675 25.1309 291.569 24.6504H290.28C290.415 25.7227 291.446 26.4316 293.04 26.4316ZM293.022 22.8633C291.938 22.8633 291.329 22.0371 291.329 20.7363C291.329 19.4355 291.938 18.6035 293.022 18.6035C294.095 18.6035 294.751 19.4355 294.751 20.7363C294.751 22.0371 294.101 22.8633 293.022 22.8633Z" fill="black" fill-opacity="0.2"/>
<path d="M293.04 26.4316C294.845 26.4316 295.987 25.5117 295.987 24.0645V17.6367H294.78V18.6504H294.681C294.323 17.959 293.556 17.5254 292.677 17.5254C291.048 17.5254 290.028 18.8086 290.028 20.7363C290.028 22.6465 291.036 23.9062 292.665 23.9062C293.544 23.9062 294.247 23.5254 294.634 22.834H294.728V24.0586C294.728 24.9199 294.106 25.4355 293.058 25.4355C292.208 25.4355 291.675 25.1309 291.569 24.6504H290.28C290.415 25.7227 291.446 26.4316 293.04 26.4316ZM293.022 22.8633C291.938 22.8633 291.329 22.0371 291.329 20.7363C291.329 19.4355 291.938 18.6035 293.022 18.6035C294.095 18.6035 294.751 19.4355 294.751 20.7363C294.751 22.0371 294.101 22.8633 293.022 22.8633Z" fill="black" fill-opacity="0.36" style="mix-blend-mode:overlay"/>
<path d="M300.391 24.123C302.254 24.123 303.397 22.875 303.397 20.8184C303.397 18.7617 302.248 17.5137 300.391 17.5137C298.527 17.5137 297.379 18.7676 297.379 20.8184C297.379 22.875 298.522 24.123 300.391 24.123ZM300.391 23.0508C299.295 23.0508 298.68 22.2363 298.68 20.8184C298.68 19.4004 299.295 18.5801 300.391 18.5801C301.481 18.5801 302.102 19.4004 302.102 20.8184C302.102 22.2305 301.481 23.0508 300.391 23.0508Z" fill="black" fill-opacity="0.2"/>
<path d="M300.391 24.123C302.254 24.123 303.397 22.875 303.397 20.8184C303.397 18.7617 302.248 17.5137 300.391 17.5137C298.527 17.5137 297.379 18.7676 297.379 20.8184C297.379 22.875 298.522 24.123 300.391 24.123ZM300.391 23.0508C299.295 23.0508 298.68 22.2363 298.68 20.8184C298.68 19.4004 299.295 18.5801 300.391 18.5801C301.481 18.5801 302.102 19.4004 302.102 20.8184C302.102 22.2305 301.481 23.0508 300.391 23.0508Z" fill="black" fill-opacity="0.36" style="mix-blend-mode:overlay"/>
<path d="M41.623 24.2051C43.8379 24.2051 45.2734 22.8164 45.2734 20.6719V19.623H41.8047V20.6836H43.9785V20.8711C43.9668 22.1719 43.0234 23.0449 41.6406 23.0449C40.0527 23.0449 39.0566 21.791 39.0566 19.7695V19.7578C39.0566 17.7656 40.0469 16.5 41.6113 16.5C42.7715 16.5 43.5801 17.0625 43.8848 18.0645L43.9023 18.123H45.2148L45.2031 18.0645C44.8984 16.4297 43.5332 15.3398 41.6113 15.3398C39.2441 15.3398 37.7148 17.0801 37.7148 19.7637V19.7754C37.7148 22.4941 39.2266 24.2051 41.623 24.2051Z" fill="black" fill-opacity="0.2"/>
<path d="M41.623 24.2051C43.8379 24.2051 45.2734 22.8164 45.2734 20.6719V19.623H41.8047V20.6836H43.9785V20.8711C43.9668 22.1719 43.0234 23.0449 41.6406 23.0449C40.0527 23.0449 39.0566 21.791 39.0566 19.7695V19.7578C39.0566 17.7656 40.0469 16.5 41.6113 16.5C42.7715 16.5 43.5801 17.0625 43.8848 18.0645L43.9023 18.123H45.2148L45.2031 18.0645C44.8984 16.4297 43.5332 15.3398 41.6113 15.3398C39.2441 15.3398 37.7148 17.0801 37.7148 19.7637V19.7754C37.7148 22.4941 39.2266 24.2051 41.623 24.2051Z" fill="black" fill-opacity="0.36" style="mix-blend-mode:overlay"/>
<path d="M49.0909 24H50.4034V20.5371L53.3859 15.5449H51.9269L49.7999 19.2305H49.7003L47.5734 15.5449H46.1144L49.0909 20.5371V24Z" fill="black" fill-opacity="0.2"/>
<path d="M49.0909 24H50.4034V20.5371L53.3859 15.5449H51.9269L49.7999 19.2305H49.7003L47.5734 15.5449H46.1144L49.0909 20.5371V24Z" fill="black" fill-opacity="0.36" style="mix-blend-mode:overlay"/>
<path d="M54.7424 24H55.9377V17.7949H56.0315L58.51 24H59.4827L61.967 17.7949H62.0549V24H63.2502V15.5449H61.7385L59.0432 22.2891H58.9495L56.2541 15.5449H54.7424V24Z" fill="black" fill-opacity="0.2"/>
<path d="M54.7424 24H55.9377V17.7949H56.0315L58.51 24H59.4827L61.967 17.7949H62.0549V24H63.2502V15.5449H61.7385L59.0432 22.2891H58.9495L56.2541 15.5449H54.7424V24Z" fill="black" fill-opacity="0.36" style="mix-blend-mode:overlay"/>
<path d="M68.8548 24.2051C69.4115 24.2051 69.9271 24.1172 70.3783 23.9414L71.0931 24.9141H72.4466L71.3334 23.3965C72.2709 22.6406 72.7982 21.3809 72.7982 19.7754V19.7637C72.7982 17.0508 71.2865 15.3398 68.8548 15.3398C66.4291 15.3398 64.9056 17.0449 64.9056 19.7637V19.7754C64.9056 22.4883 66.3939 24.2051 68.8548 24.2051ZM68.8548 23.0449C67.2259 23.0449 66.2474 21.7559 66.2474 19.7754V19.7637C66.2474 17.7656 67.2552 16.5 68.8548 16.5C70.4545 16.5 71.4564 17.7656 71.4564 19.7637V19.7754C71.4564 20.8945 71.14 21.7969 70.5716 22.3652L69.8978 21.4512H68.5443L69.6341 22.9277C69.3939 23.0039 69.1302 23.0449 68.8548 23.0449Z" fill="black" fill-opacity="0.2"/>
<path d="M68.8548 24.2051C69.4115 24.2051 69.9271 24.1172 70.3783 23.9414L71.0931 24.9141H72.4466L71.3334 23.3965C72.2709 22.6406 72.7982 21.3809 72.7982 19.7754V19.7637C72.7982 17.0508 71.2865 15.3398 68.8548 15.3398C66.4291 15.3398 64.9056 17.0449 64.9056 19.7637V19.7754C64.9056 22.4883 66.3939 24.2051 68.8548 24.2051ZM68.8548 23.0449C67.2259 23.0449 66.2474 21.7559 66.2474 19.7754V19.7637C66.2474 17.7656 67.2552 16.5 68.8548 16.5C70.4545 16.5 71.4564 17.7656 71.4564 19.7637V19.7754C71.4564 20.8945 71.14 21.7969 70.5716 22.3652L69.8978 21.4512H68.5443L69.6341 22.9277C69.3939 23.0039 69.1302 23.0449 68.8548 23.0449Z" fill="black" fill-opacity="0.36" style="mix-blend-mode:overlay"/>
<path fill-rule="evenodd" clip-rule="evenodd" d="M25.4444 10H14.5556C12.0396 10 10 12.0396 10 14.5556V25.4444C10 27.9604 12.0396 30 14.5556 30H25.4444C27.9604 30 30 27.9604 30 25.4444V14.5556C30 12.0396 27.9604 10 25.4444 10Z" fill="#DFEDF5"/>
<path fill-rule="evenodd" clip-rule="evenodd" d="M25.4444 10H14.5556C12.0396 10 10 12.0396 10 14.5556V25.4444C10 27.9604 12.0396 30 14.5556 30H25.4444C27.9604 30 30 27.9604 30 25.4444V14.5556C30 12.0396 27.9604 10 25.4444 10Z" fill="white"/>
<ellipse cx="20.0001" cy="20" rx="8.63636" ry="8.63636" fill="#4681C7" fill-opacity="0.06"/>
<path d="M28.3865 20C28.3865 24.6317 24.6318 28.3864 20.0001 28.3864C15.3685 28.3864 11.6138 24.6317 11.6138 20C11.6138 15.3684 15.3685 11.6136 20.0001 11.6136C24.6318 11.6136 28.3865 15.3684 28.3865 20Z" stroke="#2869BF" stroke-opacity="0.04" stroke-width="0.5"/>
<circle cx="20" cy="20" r="5.45455" fill="#4681C7" fill-opacity="0.09"/>
<circle cx="20" cy="20" r="5.20455" stroke="#2869BF" stroke-opacity="0.04" stroke-width="0.5"/>
<path fill-rule="evenodd" clip-rule="evenodd" d="M20.25 10H19.75V19.75H10V20.25H19.75V30H20.25V20.25H30V19.75H20.25V10Z" fill="#3668A8" fill-opacity="0.2"/>
<path fill-rule="evenodd" clip-rule="evenodd" d="M25.4444 10H14.5556C12.0396 10 10 12.0396 10 14.5556V25.4444C10 27.9604 12.0396 30 14.5556 30H25.4444C27.9604 30 30 27.9604 30 25.4444V14.5556C30 12.0396 27.9604 10 25.4444 10Z" fill="#DFEDF5"/>
<path fill-rule="evenodd" clip-rule="evenodd" d="M25.4444 10H14.5556C12.0396 10 10 12.0396 10 14.5556V25.4444C10 27.9604 12.0396 30 14.5556 30H25.4444C27.9604 30 30 27.9604 30 25.4444V14.5556C30 12.0396 27.9604 10 25.4444 10Z" fill="white"/>
<path d="M20 12C15.5812 12 12 15.5812 12 20C12 24.4188 15.5812 28 20 28C24.4188 28 28 24.4188 28 20C28 15.5812 24.4188 12 20 12ZM26.5141 20.1213C26.5141 20.1583 26.5123 20.1952 26.5112 20.2319C26.5086 20.3032 26.5051 20.3746 26.5002 20.4456C26.5002 20.4592 26.4985 20.4728 26.4973 20.4864C26.495 20.517 26.4927 20.5473 26.4898 20.5779C26.4866 20.616 26.4829 20.6544 26.4788 20.6934C26.4708 20.7697 26.4615 20.8459 26.45 20.9216C26.4326 21.0449 26.4116 21.1674 26.3876 21.289C26.3812 21.3196 26.3752 21.3499 26.3685 21.3802C26.3619 21.4105 26.3552 21.4409 26.3483 21.4709C26.3344 21.5312 26.3197 21.5912 26.3041 21.6511C26.2882 21.7109 26.2721 21.7704 26.2547 21.8296C26.2287 21.9186 26.2009 22.0069 26.1713 22.0947C26.1614 22.1236 26.1513 22.1525 26.1424 22.1814C26.1219 22.2391 26.1002 22.2969 26.078 22.3547C26.0366 22.4613 25.9925 22.5672 25.9457 22.6723C25.9301 22.707 25.9142 22.7417 25.8981 22.776C25.8819 22.8104 25.8663 22.843 25.8498 22.8762C25.8483 22.8789 25.8469 22.8816 25.8458 22.8843C25.8299 22.9167 25.8134 22.949 25.797 22.9811C25.7805 23.0131 25.7681 23.0388 25.7525 23.0657L25.7352 23.0978C25.723 23.1206 25.7106 23.1431 25.6979 23.1656C25.6635 23.2271 25.6283 23.2884 25.5916 23.3487C25.5801 23.3684 25.5682 23.3877 25.5561 23.4065C25.5417 23.4305 25.5272 23.4544 25.5116 23.4781C25.4633 23.5538 25.4136 23.6286 25.3626 23.7025L25.2058 23.5457L25.0481 23.388L23.9336 22.2732L24.0087 22.1317C24.457 21.2812 24.6266 20.3113 24.4936 19.3591C24.3749 18.5246 24.0261 17.7397 23.4863 17.0923C22.9465 16.445 22.237 15.9607 21.4375 15.6939C20.6379 15.4272 19.7799 15.3884 18.9595 15.5819C18.1391 15.7754 17.3889 16.1937 16.7928 16.7897C16.1968 17.3857 15.7786 18.1359 15.5851 18.9563C15.3915 19.7767 15.4303 20.6347 15.6971 21.4343C15.9639 22.2339 16.4481 22.9433 17.0955 23.4831C17.7429 24.0229 18.5278 24.3717 19.3623 24.4904C20.3145 24.6235 21.2844 24.4539 22.1349 24.0055L22.2764 23.9304L23.3912 25.0449L23.7054 25.3591L23.7097 25.3635L23.4813 25.5079L23.4198 25.5463C23.4165 25.5485 23.4131 25.5505 23.4097 25.5523C23.3903 25.5645 23.3707 25.5763 23.3519 25.5879C23.3468 25.5913 23.3415 25.5945 23.336 25.5974L23.2765 25.6318C23.2448 25.6505 23.2127 25.6687 23.1806 25.6866C23.1486 25.7045 23.1174 25.7219 23.0853 25.7389C23.0533 25.756 23.0181 25.7747 22.9843 25.7923C22.8824 25.8447 22.7794 25.8944 22.6752 25.9414L22.6175 25.9674L22.5473 25.9962C22.4859 26.0222 22.424 26.0474 22.3616 26.0716C22.2992 26.0959 22.2368 26.119 22.1744 26.1409C22.1323 26.1557 22.0901 26.1698 22.0479 26.184L21.9755 26.2074C21.9031 26.2303 21.8301 26.252 21.7565 26.2726C21.6832 26.2929 21.6092 26.3122 21.535 26.3304L21.4605 26.3477L21.3978 26.3616C21.3137 26.3799 21.2294 26.3964 21.1448 26.4113C21.1024 26.4185 21.0599 26.4257 21.0175 26.4323L20.9536 26.4419C20.867 26.4543 20.783 26.4653 20.6972 26.4742C20.6591 26.4783 20.6209 26.482 20.5817 26.4852C20.5424 26.4884 20.5051 26.4916 20.4661 26.4944L20.3506 26.5014C20.3122 26.5034 20.2735 26.5051 20.2351 26.5066C20.1967 26.508 20.1629 26.5089 20.1268 26.5092C20.122 26.5095 20.1172 26.5095 20.1123 26.5092C20.0765 26.5092 20.041 26.5092 20.0052 26.5092H20.0014C19.146 26.5114 18.2986 26.344 17.5083 26.0165C16.718 25.6891 16.0005 25.2082 15.3973 24.6016C15.2068 24.4121 15.028 24.2112 14.8618 24C14.8361 23.9671 14.8104 23.9336 14.7853 23.9001C14.4692 23.4794 14.2056 23.0217 14.0006 22.5372C13.9761 22.4794 13.9525 22.4212 13.9298 22.3625C13.9056 22.3006 13.8825 22.2385 13.8605 22.1759C13.8484 22.1418 13.8368 22.1074 13.8253 22.0731C13.7804 21.9396 13.7401 21.8049 13.7043 21.6687C13.691 21.6176 13.678 21.5665 13.6658 21.5151C13.6537 21.4637 13.6419 21.412 13.6309 21.3603C13.6026 21.2299 13.5788 21.0986 13.5596 20.9664C13.5567 20.9484 13.5544 20.9305 13.5521 20.9126C13.5349 20.7919 13.5214 20.6702 13.5116 20.5476C13.5079 20.506 13.5047 20.4641 13.5024 20.4222C13.4931 20.2821 13.4886 20.1413 13.4888 20C13.489 19.8587 13.4935 19.7179 13.5024 19.5778C13.5047 19.5359 13.5079 19.494 13.5116 19.4524C13.5214 19.33 13.5349 19.2083 13.5521 19.0874C13.5544 19.0695 13.5567 19.0516 13.5596 19.0336C13.5788 18.9018 13.6022 18.7708 13.6297 18.6409C13.6407 18.5891 13.6524 18.5375 13.6647 18.4861C13.7094 18.2968 13.7625 18.1104 13.8241 17.9269C13.8354 17.8926 13.8472 17.8582 13.8594 17.8241C13.9677 17.5178 14.0992 17.2201 14.2527 16.9337C14.29 16.8638 14.3287 16.7948 14.3682 16.7261C14.489 16.5195 14.621 16.3197 14.7636 16.1277C14.7954 16.0847 14.8277 16.0422 14.8606 16C15.0268 15.7871 15.2057 15.5846 15.3964 15.3935C15.9997 14.7872 16.7173 14.3065 17.5076 13.9793C18.2979 13.6522 19.1452 13.4849 20.0006 13.4874H20.002C21.3036 13.4885 22.5752 13.8787 23.6534 14.6079C24.7315 15.3372 25.567 16.3721 26.0526 17.5798C26.0911 17.6778 26.1278 17.7768 26.1629 17.8767C26.206 18.0014 26.2451 18.1277 26.2801 18.2553C26.2943 18.3061 26.3076 18.3575 26.3206 18.409C26.3336 18.4604 26.3457 18.5118 26.3573 18.5638C26.3688 18.6157 26.3798 18.6674 26.3902 18.7194C26.4058 18.7978 26.4198 18.8764 26.4323 18.9554C26.4406 19.0079 26.4484 19.0607 26.4557 19.1136C26.4702 19.2195 26.4819 19.3261 26.491 19.4334C26.4956 19.4868 26.4996 19.5405 26.5028 19.5942C26.5111 19.729 26.5152 19.8643 26.5152 20C26.5152 20.0373 26.5152 20.0742 26.5152 20.1115C26.5144 20.1155 26.5141 20.1181 26.5141 20.1213ZM22.1721 20C22.1707 20.535 21.9704 21.0505 21.6102 21.4461C21.25 21.8417 20.7555 22.0892 20.223 22.1406C19.6904 22.192 19.1577 22.0435 18.7285 21.7241C18.2993 21.4047 18.0042 20.937 17.9005 20.4121C17.7968 19.8872 17.892 19.3425 18.1676 18.8839C18.4431 18.4252 18.8794 18.0854 19.3915 17.9305C19.9036 17.7755 20.455 17.8165 20.9386 18.0455C21.4222 18.2745 21.8034 18.675 22.0081 19.1694C22.1172 19.4327 22.1729 19.715 22.1721 20Z" fill="url(#paint0_linear_1_246)"/>
<path d="M14.96 48.4043H17.0244V40.2422H19.9844V38.54H12V40.2422H14.96V48.4043Z" fill="black" fill-opacity="0.5"/>
<path d="M14.96 48.4043H17.0244V40.2422H19.9844V38.54H12V40.2422H14.96V48.4043Z" fill="black" fill-opacity="0.6" style="mix-blend-mode:overlay"/>
<path d="M21.6696 48.4043H23.734V44.7949H25.4225L27.2614 48.4043H29.5993L27.5211 44.4873C28.6491 44.043 29.3053 42.9561 29.3053 41.6914V41.6777C29.3053 39.7363 28.0202 38.54 25.778 38.54H21.6696V48.4043ZM23.734 43.291V40.1533H25.525C26.5573 40.1533 27.193 40.7686 27.193 41.7188V41.7324C27.193 42.7031 26.5846 43.291 25.5524 43.291H23.734Z" fill="black" fill-opacity="0.5"/>
<path d="M21.6696 48.4043H23.734V44.7949H25.4225L27.2614 48.4043H29.5993L27.5211 44.4873C28.6491 44.043 29.3053 42.9561 29.3053 41.6914V41.6777C29.3053 39.7363 28.0202 38.54 25.778 38.54H21.6696V48.4043ZM23.734 43.291V40.1533H25.525C26.5573 40.1533 27.193 40.7686 27.193 41.7188V41.7324C27.193 42.7031 26.5846 43.291 25.5524 43.291H23.734Z" fill="black" fill-opacity="0.6" style="mix-blend-mode:overlay"/>
<path d="M30.6555 48.4043H32.8841L35.0374 44.9453H35.1057L37.2659 48.4043H39.6175L36.4319 43.4756V43.4482L39.6653 38.54H37.3548L35.2766 42.0947H35.1946L33.1028 38.54H30.6692L33.7864 43.4141V43.4346L30.6555 48.4043Z" fill="black" fill-opacity="0.5"/>
<path d="M30.6555 48.4043H32.8841L35.0374 44.9453H35.1057L37.2659 48.4043H39.6175L36.4319 43.4756V43.4482L39.6653 38.54H37.3548L35.2766 42.0947H35.1946L33.1028 38.54H30.6692L33.7864 43.4141V43.4346L30.6555 48.4043Z" fill="black" fill-opacity="0.6" style="mix-blend-mode:overlay"/>
<path d="M47.9371 48.5615C50.2545 48.5615 51.649 47.0986 51.649 44.6445V44.6309C51.649 42.1973 50.2339 40.7139 47.9371 40.7139C45.6402 40.7139 44.2252 42.2041 44.2252 44.6309V44.6445C44.2252 47.0918 45.6197 48.5615 47.9371 48.5615ZM47.9371 46.9961C46.8707 46.9961 46.2691 46.1279 46.2691 44.6445V44.6309C46.2691 43.1611 46.8775 42.2793 47.9371 42.2793C48.9898 42.2793 49.605 43.1611 49.605 44.6309V44.6445C49.605 46.1279 48.9966 46.9961 47.9371 46.9961Z" fill="black" fill-opacity="0.5"/>
<path d="M47.9371 48.5615C50.2545 48.5615 51.649 47.0986 51.649 44.6445V44.6309C51.649 42.1973 50.2339 40.7139 47.9371 40.7139C45.6402 40.7139 44.2252 42.2041 44.2252 44.6309V44.6445C44.2252 47.0918 45.6197 48.5615 47.9371 48.5615ZM47.9371 46.9961C46.8707 46.9961 46.2691 46.1279 46.2691 44.6445V44.6309C46.2691 43.1611 46.8775 42.2793 47.9371 42.2793C48.9898 42.2793 49.605 43.1611 49.605 44.6309V44.6445C49.605 46.1279 48.9966 46.9961 47.9371 46.9961Z" fill="black" fill-opacity="0.6" style="mix-blend-mode:overlay"/>
<path d="M53.1359 48.4043H55.132V44.0498C55.132 43.0312 55.6926 42.3682 56.6154 42.3682C57.5588 42.3682 57.9963 42.9287 57.9963 43.9883V48.4043H59.9924V43.5371C59.9924 41.7393 59.09 40.7139 57.4152 40.7139C56.342 40.7139 55.5969 41.2266 55.2551 42.04H55.132V40.8779H53.1359V48.4043Z" fill="black" fill-opacity="0.5"/>
<path d="M53.1359 48.4043H55.132V44.0498C55.132 43.0312 55.6926 42.3682 56.6154 42.3682C57.5588 42.3682 57.9963 42.9287 57.9963 43.9883V48.4043H59.9924V43.5371C59.9924 41.7393 59.09 40.7139 57.4152 40.7139C56.342 40.7139 55.5969 41.2266 55.2551 42.04H55.132V40.8779H53.1359V48.4043Z" fill="black" fill-opacity="0.6" style="mix-blend-mode:overlay"/>
<path d="M67.8471 48.4043H69.9116V40.2422H72.8716V38.54H64.8872V40.2422H67.8471V48.4043Z" fill="black" fill-opacity="0.5"/>
<path d="M67.8471 48.4043H69.9116V40.2422H72.8716V38.54H64.8872V40.2422H67.8471V48.4043Z" fill="black" fill-opacity="0.6" style="mix-blend-mode:overlay"/>
<path d="M76.1222 48.5615C77.1954 48.5615 77.9611 48.0625 78.3029 47.2422H78.4259V48.4043H80.422V40.8779H78.4259V45.2256C78.4259 46.2441 77.8927 46.9072 76.9083 46.9072C75.965 46.9072 75.5616 46.3535 75.5616 45.2871V40.8779H73.5655V45.7451C73.5655 47.5361 74.4337 48.5615 76.1222 48.5615Z" fill="black" fill-opacity="0.5"/>
<path d="M76.1222 48.5615C77.1954 48.5615 77.9611 48.0625 78.3029 47.2422H78.4259V48.4043H80.422V40.8779H78.4259V45.2256C78.4259 46.2441 77.8927 46.9072 76.9083 46.9072C75.965 46.9072 75.5616 46.3535 75.5616 45.2871V40.8779H73.5655V45.7451C73.5655 47.5361 74.4337 48.5615 76.1222 48.5615Z" fill="black" fill-opacity="0.6" style="mix-blend-mode:overlay"/>
<path d="M85.5935 48.5615C87.7947 48.5615 88.7654 47.29 88.9978 46.3467L89.0115 46.2783H87.1521L87.1316 46.3193C86.9949 46.6064 86.5095 47.0713 85.6345 47.0713C84.575 47.0713 83.9119 46.3535 83.8914 45.1162H89.073V44.4941C89.073 42.2178 87.7058 40.7139 85.5115 40.7139C83.3171 40.7139 81.9158 42.252 81.9158 44.6445V44.6514C81.9158 47.0645 83.3035 48.5615 85.5935 48.5615ZM85.5457 42.2109C86.4138 42.2109 87.0359 42.7715 87.1589 43.8652H83.9119C84.0349 42.7988 84.6775 42.2109 85.5457 42.2109Z" fill="black" fill-opacity="0.5"/>
<path d="M85.5935 48.5615C87.7947 48.5615 88.7654 47.29 88.9978 46.3467L89.0115 46.2783H87.1521L87.1316 46.3193C86.9949 46.6064 86.5095 47.0713 85.6345 47.0713C84.575 47.0713 83.9119 46.3535 83.8914 45.1162H89.073V44.4941C89.073 42.2178 87.7058 40.7139 85.5115 40.7139C83.3171 40.7139 81.9158 42.252 81.9158 44.6445V44.6514C81.9158 47.0645 83.3035 48.5615 85.5935 48.5615ZM85.5457 42.2109C86.4138 42.2109 87.0359 42.7715 87.1589 43.8652H83.9119C84.0349 42.7988 84.6775 42.2109 85.5457 42.2109Z" fill="black" fill-opacity="0.6" style="mix-blend-mode:overlay"/>
<path d="M93.5609 48.5615C95.4887 48.5615 96.8627 47.5908 96.8627 46.1006V46.0938C96.8627 44.9795 96.1586 44.3506 94.6547 44.0293L93.4037 43.7627C92.6244 43.5918 92.3441 43.3594 92.3441 42.9561V42.9492C92.3441 42.4434 92.8363 42.1221 93.5268 42.1221C94.2719 42.1221 94.7162 42.498 94.8256 42.9014L94.8324 42.9355H96.685V42.9082C96.6029 41.6982 95.5092 40.7139 93.5336 40.7139C91.6537 40.7139 90.3959 41.6572 90.3959 43.0723V43.0791C90.3959 44.207 91.1068 44.9111 92.5424 45.2188L93.8002 45.4854C94.5658 45.6562 94.8666 45.9092 94.8666 46.3125V46.3262C94.8666 46.8252 94.3471 47.1533 93.5814 47.1533C92.7953 47.1533 92.3373 46.8184 92.1801 46.3535L92.1664 46.3262H90.2045L90.2113 46.3535C90.3549 47.6455 91.517 48.5615 93.5609 48.5615Z" fill="black" fill-opacity="0.5"/>
<path d="M93.5609 48.5615C95.4887 48.5615 96.8627 47.5908 96.8627 46.1006V46.0938C96.8627 44.9795 96.1586 44.3506 94.6547 44.0293L93.4037 43.7627C92.6244 43.5918 92.3441 43.3594 92.3441 42.9561V42.9492C92.3441 42.4434 92.8363 42.1221 93.5268 42.1221C94.2719 42.1221 94.7162 42.498 94.8256 42.9014L94.8324 42.9355H96.685V42.9082C96.6029 41.6982 95.5092 40.7139 93.5336 40.7139C91.6537 40.7139 90.3959 41.6572 90.3959 43.0723V43.0791C90.3959 44.207 91.1068 44.9111 92.5424 45.2188L93.8002 45.4854C94.5658 45.6562 94.8666 45.9092 94.8666 46.3125V46.3262C94.8666 46.8252 94.3471 47.1533 93.5814 47.1533C92.7953 47.1533 92.3373 46.8184 92.1801 46.3535L92.1664 46.3262H90.2045L90.2113 46.3535C90.3549 47.6455 91.517 48.5615 93.5609 48.5615Z" fill="black" fill-opacity="0.6" style="mix-blend-mode:overlay"/>
<path d="M101.043 48.5205C102.103 48.5205 102.902 48.0488 103.292 47.2354H103.415V48.4043H105.411V38H103.415V42.0811H103.292C102.916 41.2607 102.075 40.7549 101.043 40.7549C99.1358 40.7549 97.9873 42.2109 97.9873 44.6309V44.6445C97.9873 47.0508 99.1631 48.5205 101.043 48.5205ZM101.72 46.8662C100.667 46.8662 100.018 46.0322 100.018 44.6445V44.6309C100.018 43.2568 100.667 42.4092 101.72 42.4092C102.772 42.4092 103.436 43.2568 103.436 44.6377V44.6514C103.436 46.0322 102.779 46.8662 101.72 46.8662Z" fill="black" fill-opacity="0.5"/>
<path d="M101.043 48.5205C102.103 48.5205 102.902 48.0488 103.292 47.2354H103.415V48.4043H105.411V38H103.415V42.0811H103.292C102.916 41.2607 102.075 40.7549 101.043 40.7549C99.1358 40.7549 97.9873 42.2109 97.9873 44.6309V44.6445C97.9873 47.0508 99.1631 48.5205 101.043 48.5205ZM101.72 46.8662C100.667 46.8662 100.018 46.0322 100.018 44.6445V44.6309C100.018 43.2568 100.667 42.4092 101.72 42.4092C102.772 42.4092 103.436 43.2568 103.436 44.6377V44.6514C103.436 46.0322 102.779 46.8662 101.72 46.8662Z" fill="black" fill-opacity="0.6" style="mix-blend-mode:overlay"/>
<path d="M109.386 48.5205C110.371 48.5205 111.164 48.1035 111.547 47.4062H111.67V48.4043H113.638V43.2637C113.638 41.6572 112.51 40.7139 110.514 40.7139C108.621 40.7139 107.377 41.5889 107.219 42.9082L107.213 42.9697H109.058L109.072 42.9424C109.229 42.498 109.687 42.2451 110.405 42.2451C111.225 42.2451 111.67 42.6143 111.67 43.2637V43.8857L109.851 43.9951C107.978 44.1045 106.932 44.8975 106.932 46.251V46.2646C106.932 47.6318 107.951 48.5205 109.386 48.5205ZM108.881 46.1416V46.1279C108.881 45.5811 109.298 45.2598 110.152 45.2051L111.67 45.1094V45.6631C111.67 46.4561 110.979 47.0645 110.056 47.0645C109.366 47.0645 108.881 46.7158 108.881 46.1416Z" fill="black" fill-opacity="0.5"/>
<path d="M109.386 48.5205C110.371 48.5205 111.164 48.1035 111.547 47.4062H111.67V48.4043H113.638V43.2637C113.638 41.6572 112.51 40.7139 110.514 40.7139C108.621 40.7139 107.377 41.5889 107.219 42.9082L107.213 42.9697H109.058L109.072 42.9424C109.229 42.498 109.687 42.2451 110.405 42.2451C111.225 42.2451 111.67 42.6143 111.67 43.2637V43.8857L109.851 43.9951C107.978 44.1045 106.932 44.8975 106.932 46.251V46.2646C106.932 47.6318 107.951 48.5205 109.386 48.5205ZM108.881 46.1416V46.1279C108.881 45.5811 109.298 45.2598 110.152 45.2051L111.67 45.1094V45.6631C111.67 46.4561 110.979 47.0645 110.056 47.0645C109.366 47.0645 108.881 46.7158 108.881 46.1416Z" fill="black" fill-opacity="0.6" style="mix-blend-mode:overlay"/>
<path d="M116.144 51.0566C118.003 51.0566 118.994 50.3867 119.664 48.3975L122.228 40.8779H120.122L118.543 46.5791H118.407L116.827 40.8779H114.633L117.279 48.4043L117.21 48.6914C117.067 49.2793 116.657 49.5527 115.946 49.5527C115.761 49.5527 115.563 49.5459 115.426 49.5322V51.0361C115.659 51.0498 115.911 51.0566 116.144 51.0566Z" fill="black" fill-opacity="0.5"/>
<path d="M116.144 51.0566C118.003 51.0566 118.994 50.3867 119.664 48.3975L122.228 40.8779H120.122L118.543 46.5791H118.407L116.827 40.8779H114.633L117.279 48.4043L117.21 48.6914C117.067 49.2793 116.657 49.5527 115.946 49.5527C115.761 49.5527 115.563 49.5459 115.426 49.5322V51.0361C115.659 51.0498 115.911 51.0566 116.144 51.0566Z" fill="black" fill-opacity="0.6" style="mix-blend-mode:overlay"/>
<path d="M128.996 48.5205C129.98 48.5205 130.773 48.1035 131.156 47.4062H131.279V48.4043H133.248V43.2637C133.248 41.6572 132.12 40.7139 130.124 40.7139C128.23 40.7139 126.986 41.5889 126.829 42.9082L126.822 42.9697H128.668L128.681 42.9424C128.838 42.498 129.296 42.2451 130.014 42.2451C130.835 42.2451 131.279 42.6143 131.279 43.2637V43.8857L129.461 43.9951C127.588 44.1045 126.542 44.8975 126.542 46.251V46.2646C126.542 47.6318 127.56 48.5205 128.996 48.5205ZM128.49 46.1416V46.1279C128.49 45.5811 128.907 45.2598 129.761 45.2051L131.279 45.1094V45.6631C131.279 46.4561 130.588 47.0645 129.666 47.0645C128.975 47.0645 128.49 46.7158 128.49 46.1416Z" fill="black" fill-opacity="0.5"/>
<path d="M128.996 48.5205C129.98 48.5205 130.773 48.1035 131.156 47.4062H131.279V48.4043H133.248V43.2637C133.248 41.6572 132.12 40.7139 130.124 40.7139C128.23 40.7139 126.986 41.5889 126.829 42.9082L126.822 42.9697H128.668L128.681 42.9424C128.838 42.498 129.296 42.2451 130.014 42.2451C130.835 42.2451 131.279 42.6143 131.279 43.2637V43.8857L129.461 43.9951C127.588 44.1045 126.542 44.8975 126.542 46.251V46.2646C126.542 47.6318 127.56 48.5205 128.996 48.5205ZM128.49 46.1416V46.1279C128.49 45.5811 128.907 45.2598 129.761 45.2051L131.279 45.1094V45.6631C131.279 46.4561 130.588 47.0645 129.666 47.0645C128.975 47.0645 128.49 46.7158 128.49 46.1416Z" fill="black" fill-opacity="0.6" style="mix-blend-mode:overlay"/>
<path d="M138.187 48.4316C138.57 48.4316 138.939 48.3906 139.185 48.3428V46.8594C138.993 46.8799 138.857 46.8936 138.597 46.8936C137.92 46.8936 137.633 46.5928 137.633 45.916V42.3818H139.185V40.8779H137.633V39.0801H135.616V40.8779H134.454V42.3818H135.616V46.374C135.616 47.8369 136.355 48.4316 138.187 48.4316Z" fill="black" fill-opacity="0.5"/>
<path d="M138.187 48.4316C138.57 48.4316 138.939 48.3906 139.185 48.3428V46.8594C138.993 46.8799 138.857 46.8936 138.597 46.8936C137.92 46.8936 137.633 46.5928 137.633 45.916V42.3818H139.185V40.8779H137.633V39.0801H135.616V40.8779H134.454V42.3818H135.616V46.374C135.616 47.8369 136.355 48.4316 138.187 48.4316Z" fill="black" fill-opacity="0.6" style="mix-blend-mode:overlay"/>
<path d="M146.588 48.4043H148.653V38.54H146.595L144.045 40.3105V42.1699L146.465 40.4883H146.588V48.4043Z" fill="black" fill-opacity="0.5"/>
<path d="M146.588 48.4043H148.653V38.54H146.595L144.045 40.3105V42.1699L146.465 40.4883H146.588V48.4043Z" fill="black" fill-opacity="0.6" style="mix-blend-mode:overlay"/>
<path d="M155.062 48.623C157.434 48.623 159.068 47.4404 159.068 45.7314V45.7178C159.068 44.4326 158.104 43.4756 156.764 43.2158V43.1748C157.912 42.8877 158.705 42.0605 158.705 40.9873V40.9736C158.705 39.4424 157.201 38.3213 155.062 38.3213C152.915 38.3213 151.418 39.4424 151.418 40.9736V40.9873C151.418 42.0605 152.204 42.8945 153.36 43.1748V43.2158C152.013 43.4824 151.056 44.4326 151.056 45.7178V45.7314C151.056 47.4404 152.69 48.623 155.062 48.623ZM155.062 42.5527C154.111 42.5527 153.455 41.9922 153.455 41.1855V41.1719C153.455 40.3652 154.118 39.8115 155.062 39.8115C155.998 39.8115 156.661 40.3652 156.661 41.1719V41.1855C156.661 41.9922 156.005 42.5527 155.062 42.5527ZM155.062 47.1191C153.975 47.1191 153.209 46.4834 153.209 45.5947V45.5811C153.209 44.6924 153.968 44.0498 155.062 44.0498C156.155 44.0498 156.907 44.6924 156.907 45.5811V45.5947C156.907 46.4834 156.142 47.1191 155.062 47.1191Z" fill="black" fill-opacity="0.5"/>
<path d="M155.062 48.623C157.434 48.623 159.068 47.4404 159.068 45.7314V45.7178C159.068 44.4326 158.104 43.4756 156.764 43.2158V43.1748C157.912 42.8877 158.705 42.0605 158.705 40.9873V40.9736C158.705 39.4424 157.201 38.3213 155.062 38.3213C152.915 38.3213 151.418 39.4424 151.418 40.9736V40.9873C151.418 42.0605 152.204 42.8945 153.36 43.1748V43.2158C152.013 43.4824 151.056 44.4326 151.056 45.7178V45.7314C151.056 47.4404 152.69 48.623 155.062 48.623ZM155.062 42.5527C154.111 42.5527 153.455 41.9922 153.455 41.1855V41.1719C153.455 40.3652 154.118 39.8115 155.062 39.8115C155.998 39.8115 156.661 40.3652 156.661 41.1719V41.1855C156.661 41.9922 156.005 42.5527 155.062 42.5527ZM155.062 47.1191C153.975 47.1191 153.209 46.4834 153.209 45.5947V45.5811C153.209 44.6924 153.968 44.0498 155.062 44.0498C156.155 44.0498 156.907 44.6924 156.907 45.5811V45.5947C156.907 46.4834 156.142 47.1191 155.062 47.1191Z" fill="black" fill-opacity="0.6" style="mix-blend-mode:overlay"/>
<path d="M162.216 42.1768C162.92 42.1768 163.419 41.6641 163.419 40.9941C163.419 40.3174 162.92 39.8047 162.216 39.8047C161.518 39.8047 161.012 40.3174 161.012 40.9941C161.012 41.6641 161.518 42.1768 162.216 42.1768ZM162.216 47.126C162.92 47.126 163.419 46.6133 163.419 45.9434C163.419 45.2666 162.92 44.7539 162.216 44.7539C161.518 44.7539 161.012 45.2666 161.012 45.9434C161.012 46.6133 161.518 47.126 162.216 47.126Z" fill="black" fill-opacity="0.5"/>
<path d="M162.216 42.1768C162.92 42.1768 163.419 41.6641 163.419 40.9941C163.419 40.3174 162.92 39.8047 162.216 39.8047C161.518 39.8047 161.012 40.3174 161.012 40.9941C161.012 41.6641 161.518 42.1768 162.216 42.1768ZM162.216 47.126C162.92 47.126 163.419 46.6133 163.419 45.9434C163.419 45.2666 162.92 44.7539 162.216 44.7539C161.518 44.7539 161.012 45.2666 161.012 45.9434C161.012 46.6133 161.518 47.126 162.216 47.126Z" fill="black" fill-opacity="0.6" style="mix-blend-mode:overlay"/>
<path d="M169.192 48.6572C171.632 48.6572 173.109 46.6611 173.109 43.4756V43.4619C173.109 40.2695 171.632 38.2871 169.192 38.2871C166.758 38.2871 165.275 40.2695 165.275 43.4619V43.4756C165.275 46.6611 166.758 48.6572 169.192 48.6572ZM169.192 47.0234C168.03 47.0234 167.367 45.7041 167.367 43.4756V43.4619C167.367 41.2266 168.03 39.9209 169.192 39.9209C170.361 39.9209 171.024 41.2266 171.024 43.4619V43.4756C171.024 45.7041 170.361 47.0234 169.192 47.0234Z" fill="black" fill-opacity="0.5"/>
<path d="M169.192 48.6572C171.632 48.6572 173.109 46.6611 173.109 43.4756V43.4619C173.109 40.2695 171.632 38.2871 169.192 38.2871C166.758 38.2871 165.275 40.2695 165.275 43.4619V43.4756C165.275 46.6611 166.758 48.6572 169.192 48.6572ZM169.192 47.0234C168.03 47.0234 167.367 45.7041 167.367 43.4756V43.4619C167.367 41.2266 168.03 39.9209 169.192 39.9209C170.361 39.9209 171.024 41.2266 171.024 43.4619V43.4756C171.024 45.7041 170.361 47.0234 169.192 47.0234Z" fill="black" fill-opacity="0.6" style="mix-blend-mode:overlay"/>
<path d="M178.636 48.6572C181.076 48.6572 182.553 46.6611 182.553 43.4756V43.4619C182.553 40.2695 181.076 38.2871 178.636 38.2871C176.202 38.2871 174.719 40.2695 174.719 43.4619V43.4756C174.719 46.6611 176.202 48.6572 178.636 48.6572ZM178.636 47.0234C177.474 47.0234 176.811 45.7041 176.811 43.4756V43.4619C176.811 41.2266 177.474 39.9209 178.636 39.9209C179.805 39.9209 180.468 41.2266 180.468 43.4619V43.4756C180.468 45.7041 179.805 47.0234 178.636 47.0234Z" fill="black" fill-opacity="0.5"/>
<path d="M178.636 48.6572C181.076 48.6572 182.553 46.6611 182.553 43.4756V43.4619C182.553 40.2695 181.076 38.2871 178.636 38.2871C176.202 38.2871 174.719 40.2695 174.719 43.4619V43.4756C174.719 46.6611 176.202 48.6572 178.636 48.6572ZM178.636 47.0234C177.474 47.0234 176.811 45.7041 176.811 43.4756V43.4619C176.811 41.2266 177.474 39.9209 178.636 39.9209C179.805 39.9209 180.468 41.2266 180.468 43.4619V43.4756C180.468 45.7041 179.805 47.0234 178.636 47.0234Z" fill="black" fill-opacity="0.6" style="mix-blend-mode:overlay"/>
<path d="M15.7051 65.6523C17.9062 65.6523 19.3486 64.5039 19.3486 62.6582V62.6514C19.3486 61.2295 18.5352 60.4023 16.4775 59.9443L15.3838 59.6982C14.0439 59.4043 13.5039 58.8711 13.5039 58.085V58.0781C13.5039 57.0459 14.4541 56.4648 15.6846 56.458C16.9697 56.4512 17.79 57.0938 17.9268 57.9619L17.9404 58.0508H19.1709L19.1641 57.9551C19.0615 56.4854 17.6875 55.3232 15.7188 55.3232C13.6816 55.3232 12.2529 56.4785 12.2461 58.1123V58.1191C12.2461 59.5479 13.1006 60.457 15.0762 60.8945L16.1699 61.1338C17.5234 61.4346 18.0908 61.9951 18.0908 62.8154V62.8223C18.0908 63.8271 17.1133 64.5176 15.7734 64.5176C14.3516 64.5176 13.3262 63.8955 13.2373 62.9111L13.2305 62.8359H12L12.0068 62.9111C12.1504 64.5176 13.5449 65.6523 15.7051 65.6523Z" fill="black" fill-opacity="0.5"/>
<path d="M15.7051 65.6523C17.9062 65.6523 19.3486 64.5039 19.3486 62.6582V62.6514C19.3486 61.2295 18.5352 60.4023 16.4775 59.9443L15.3838 59.6982C14.0439 59.4043 13.5039 58.8711 13.5039 58.085V58.0781C13.5039 57.0459 14.4541 56.4648 15.6846 56.458C16.9697 56.4512 17.79 57.0938 17.9268 57.9619L17.9404 58.0508H19.1709L19.1641 57.9551C19.0615 56.4854 17.6875 55.3232 15.7188 55.3232C13.6816 55.3232 12.2529 56.4785 12.2461 58.1123V58.1191C12.2461 59.5479 13.1006 60.457 15.0762 60.8945L16.1699 61.1338C17.5234 61.4346 18.0908 61.9951 18.0908 62.8154V62.8223C18.0908 63.8271 17.1133 64.5176 15.7734 64.5176C14.3516 64.5176 13.3262 63.8955 13.2373 62.9111L13.2305 62.8359H12L12.0068 62.9111C12.1504 64.5176 13.5449 65.6523 15.7051 65.6523Z" fill="black" fill-opacity="0.6" style="mix-blend-mode:overlay"/>
<path d="M23.5768 65.5498C24.6569 65.5498 25.402 65.1055 25.7643 64.3193H25.8737V65.4199H27.0631V58.0508H25.8737V62.4121C25.8737 63.7041 25.1832 64.4971 23.8844 64.4971C22.7086 64.4971 22.2301 63.8613 22.2301 62.5352V58.0508H21.0407V62.8223C21.0407 64.5654 21.902 65.5498 23.5768 65.5498Z" fill="black" fill-opacity="0.5"/>
<path d="M23.5768 65.5498C24.6569 65.5498 25.402 65.1055 25.7643 64.3193H25.8737V65.4199H27.0631V58.0508H25.8737V62.4121C25.8737 63.7041 25.1832 64.4971 23.8844 64.4971C22.7086 64.4971 22.2301 63.8613 22.2301 62.5352V58.0508H21.0407V62.8223C21.0407 64.5654 21.902 65.5498 23.5768 65.5498Z" fill="black" fill-opacity="0.6" style="mix-blend-mode:overlay"/>
<path d="M32.1595 65.5498C33.93 65.5498 34.9212 64.5996 35.222 63.2666L35.2356 63.1914L34.0598 63.1982L34.0462 63.2393C33.7727 64.0596 33.1438 64.4971 32.1526 64.4971C30.8401 64.4971 29.9925 63.4102 29.9925 61.7148V61.7012C29.9925 60.04 30.8264 58.9736 32.1526 58.9736C33.2122 58.9736 33.8684 59.5615 34.053 60.2861L34.0598 60.3066H35.2425L35.2356 60.2656C35.0169 58.9531 33.9436 57.9209 32.1526 57.9209C30.0882 57.9209 28.7757 59.4111 28.7757 61.7012V61.7148C28.7757 64.0527 30.095 65.5498 32.1595 65.5498Z" fill="black" fill-opacity="0.5"/>
<path d="M32.1595 65.5498C33.93 65.5498 34.9212 64.5996 35.222 63.2666L35.2356 63.1914L34.0598 63.1982L34.0462 63.2393C33.7727 64.0596 33.1438 64.4971 32.1526 64.4971C30.8401 64.4971 29.9925 63.4102 29.9925 61.7148V61.7012C29.9925 60.04 30.8264 58.9736 32.1526 58.9736C33.2122 58.9736 33.8684 59.5615 34.053 60.2861L34.0598 60.3066H35.2425L35.2356 60.2656C35.0169 58.9531 33.9436 57.9209 32.1526 57.9209C30.0882 57.9209 28.7757 59.4111 28.7757 61.7012V61.7148C28.7757 64.0527 30.095 65.5498 32.1595 65.5498Z" fill="black" fill-opacity="0.6" style="mix-blend-mode:overlay"/>
<path d="M39.8534 65.5498C41.6239 65.5498 42.6152 64.5996 42.9159 63.2666L42.9296 63.1914L41.7538 63.1982L41.7402 63.2393C41.4667 64.0596 40.8378 64.4971 39.8466 64.4971C38.5341 64.4971 37.6864 63.4102 37.6864 61.7148V61.7012C37.6864 60.04 38.5204 58.9736 39.8466 58.9736C40.9062 58.9736 41.5624 59.5615 41.747 60.2861L41.7538 60.3066H42.9364L42.9296 60.2656C42.7109 58.9531 41.6376 57.9209 39.8466 57.9209C37.7821 57.9209 36.4696 59.4111 36.4696 61.7012V61.7148C36.4696 64.0527 37.789 65.5498 39.8534 65.5498Z" fill="black" fill-opacity="0.5"/>
<path d="M39.8534 65.5498C41.6239 65.5498 42.6152 64.5996 42.9159 63.2666L42.9296 63.1914L41.7538 63.1982L41.7402 63.2393C41.4667 64.0596 40.8378 64.4971 39.8466 64.4971C38.5341 64.4971 37.6864 63.4102 37.6864 61.7148V61.7012C37.6864 60.04 38.5204 58.9736 39.8466 58.9736C40.9062 58.9736 41.5624 59.5615 41.747 60.2861L41.7538 60.3066H42.9364L42.9296 60.2656C42.7109 58.9531 41.6376 57.9209 39.8466 57.9209C37.7821 57.9209 36.4696 59.4111 36.4696 61.7012V61.7148C36.4696 64.0527 37.789 65.5498 39.8534 65.5498Z" fill="black" fill-opacity="0.6" style="mix-blend-mode:overlay"/>
<path d="M47.5406 65.5498C49.2769 65.5498 50.3296 64.5654 50.5826 63.5674L50.5962 63.5127H49.4068L49.3795 63.5742C49.1812 64.0186 48.566 64.4902 47.5679 64.4902C46.2554 64.4902 45.4146 63.6016 45.3804 62.0771H50.6851V61.6123C50.6851 59.4111 49.4683 57.9209 47.4654 57.9209C45.4625 57.9209 44.1636 59.4795 44.1636 61.7559V61.7627C44.1636 64.0732 45.4351 65.5498 47.5406 65.5498ZM47.4586 58.9805C48.5455 58.9805 49.3521 59.6709 49.4752 61.127H45.4009C45.5308 59.7256 46.3648 58.9805 47.4586 58.9805Z" fill="black" fill-opacity="0.5"/>
<path d="M47.5406 65.5498C49.2769 65.5498 50.3296 64.5654 50.5826 63.5674L50.5962 63.5127H49.4068L49.3795 63.5742C49.1812 64.0186 48.566 64.4902 47.5679 64.4902C46.2554 64.4902 45.4146 63.6016 45.3804 62.0771H50.6851V61.6123C50.6851 59.4111 49.4683 57.9209 47.4654 57.9209C45.4625 57.9209 44.1636 59.4795 44.1636 61.7559V61.7627C44.1636 64.0732 45.4351 65.5498 47.5406 65.5498ZM47.4586 58.9805C48.5455 58.9805 49.3521 59.6709 49.4752 61.127H45.4009C45.5308 59.7256 46.3648 58.9805 47.4586 58.9805Z" fill="black" fill-opacity="0.6" style="mix-blend-mode:overlay"/>
<path d="M54.9201 65.5498C56.5949 65.5498 57.8732 64.6406 57.8732 63.3281V63.3145C57.8732 62.2617 57.2033 61.6602 55.8156 61.3252L54.6809 61.0518C53.8127 60.8398 53.4436 60.5254 53.4436 60.0264V60.0127C53.4436 59.3633 54.0861 58.9121 54.9611 58.9121C55.8498 58.9121 56.424 59.3154 56.5812 59.8965H57.7502C57.5861 58.6934 56.5129 57.9209 54.968 57.9209C53.4025 57.9209 52.2268 58.8438 52.2268 60.0674V60.0742C52.2268 61.1338 52.8488 61.7354 54.2297 62.0635L55.3713 62.3369C56.2805 62.5557 56.6564 62.9043 56.6564 63.4033V63.417C56.6564 64.0869 55.9523 64.5586 54.9611 64.5586C54.0178 64.5586 53.4299 64.1553 53.2316 63.54H52.0148C52.1516 64.7568 53.2795 65.5498 54.9201 65.5498Z" fill="black" fill-opacity="0.5"/>
<path d="M54.9201 65.5498C56.5949 65.5498 57.8732 64.6406 57.8732 63.3281V63.3145C57.8732 62.2617 57.2033 61.6602 55.8156 61.3252L54.6809 61.0518C53.8127 60.8398 53.4436 60.5254 53.4436 60.0264V60.0127C53.4436 59.3633 54.0861 58.9121 54.9611 58.9121C55.8498 58.9121 56.424 59.3154 56.5812 59.8965H57.7502C57.5861 58.6934 56.5129 57.9209 54.968 57.9209C53.4025 57.9209 52.2268 58.8438 52.2268 60.0674V60.0742C52.2268 61.1338 52.8488 61.7354 54.2297 62.0635L55.3713 62.3369C56.2805 62.5557 56.6564 62.9043 56.6564 63.4033V63.417C56.6564 64.0869 55.9523 64.5586 54.9611 64.5586C54.0178 64.5586 53.4299 64.1553 53.2316 63.54H52.0148C52.1516 64.7568 53.2795 65.5498 54.9201 65.5498Z" fill="black" fill-opacity="0.6" style="mix-blend-mode:overlay"/>
<path d="M61.9715 65.5498C63.6463 65.5498 64.9246 64.6406 64.9246 63.3281V63.3145C64.9246 62.2617 64.2547 61.6602 62.867 61.3252L61.7323 61.0518C60.8641 60.8398 60.495 60.5254 60.495 60.0264V60.0127C60.495 59.3633 61.1375 58.9121 62.0125 58.9121C62.9012 58.9121 63.4754 59.3154 63.6327 59.8965H64.8016C64.6375 58.6934 63.5643 57.9209 62.0194 57.9209C60.4539 57.9209 59.2782 58.8438 59.2782 60.0674V60.0742C59.2782 61.1338 59.9002 61.7354 61.2811 62.0635L62.4227 62.3369C63.3319 62.5557 63.7079 62.9043 63.7079 63.4033V63.417C63.7079 64.0869 63.0037 64.5586 62.0125 64.5586C61.0692 64.5586 60.4813 64.1553 60.283 63.54H59.0662C59.203 64.7568 60.3309 65.5498 61.9715 65.5498Z" fill="black" fill-opacity="0.5"/>
<path d="M61.9715 65.5498C63.6463 65.5498 64.9246 64.6406 64.9246 63.3281V63.3145C64.9246 62.2617 64.2547 61.6602 62.867 61.3252L61.7323 61.0518C60.8641 60.8398 60.495 60.5254 60.495 60.0264V60.0127C60.495 59.3633 61.1375 58.9121 62.0125 58.9121C62.9012 58.9121 63.4754 59.3154 63.6327 59.8965H64.8016C64.6375 58.6934 63.5643 57.9209 62.0194 57.9209C60.4539 57.9209 59.2782 58.8438 59.2782 60.0674V60.0742C59.2782 61.1338 59.9002 61.7354 61.2811 62.0635L62.4227 62.3369C63.3319 62.5557 63.7079 62.9043 63.7079 63.4033V63.417C63.7079 64.0869 63.0037 64.5586 62.0125 64.5586C61.0692 64.5586 60.4813 64.1553 60.283 63.54H59.0662C59.203 64.7568 60.3309 65.5498 61.9715 65.5498Z" fill="black" fill-opacity="0.6" style="mix-blend-mode:overlay"/>
<path d="M67.1225 65.4199H68.312V59.0352H69.9868V58.0508H68.312V57.2646C68.312 56.458 68.6538 56.041 69.5014 56.041C69.7134 56.041 69.9116 56.0479 70.0552 56.0752V55.125C69.8091 55.0771 69.5493 55.0566 69.2622 55.0566C67.8608 55.0566 67.1225 55.7607 67.1225 57.2305V58.0508H65.8989V59.0352H67.1225V65.4199Z" fill="black" fill-opacity="0.5"/>
<path d="M67.1225 65.4199H68.312V59.0352H69.9868V58.0508H68.312V57.2646C68.312 56.458 68.6538 56.041 69.5014 56.041C69.7134 56.041 69.9116 56.0479 70.0552 56.0752V55.125C69.8091 55.0771 69.5493 55.0566 69.2622 55.0566C67.8608 55.0566 67.1225 55.7607 67.1225 57.2305V58.0508H65.8989V59.0352H67.1225V65.4199Z" fill="black" fill-opacity="0.6" style="mix-blend-mode:overlay"/>
<path d="M74.0304 65.5498C75.1105 65.5498 75.8556 65.1055 76.2179 64.3193H76.3273V65.4199H77.5167V58.0508H76.3273V62.4121C76.3273 63.7041 75.6368 64.4971 74.338 64.4971C73.1622 64.4971 72.6837 63.8613 72.6837 62.5352V58.0508H71.4943V62.8223C71.4943 64.5654 72.3556 65.5498 74.0304 65.5498Z" fill="black" fill-opacity="0.5"/>
<path d="M74.0304 65.5498C75.1105 65.5498 75.8556 65.1055 76.2179 64.3193H76.3273V65.4199H77.5167V58.0508H76.3273V62.4121C76.3273 63.7041 75.6368 64.4971 74.338 64.4971C73.1622 64.4971 72.6837 63.8613 72.6837 62.5352V58.0508H71.4943V62.8223C71.4943 64.5654 72.3556 65.5498 74.0304 65.5498Z" fill="black" fill-opacity="0.6" style="mix-blend-mode:overlay"/>
<path d="M79.6668 65.4199H80.8562V55.125H79.6668V65.4199Z" fill="black" fill-opacity="0.5"/>
<path d="M79.6668 65.4199H80.8562V55.125H79.6668V65.4199Z" fill="black" fill-opacity="0.6" style="mix-blend-mode:overlay"/>
<path d="M83.0678 65.4199H84.2572V55.125H83.0678V65.4199Z" fill="black" fill-opacity="0.5"/>
<path d="M83.0678 65.4199H84.2572V55.125H83.0678V65.4199Z" fill="black" fill-opacity="0.6" style="mix-blend-mode:overlay"/>
<path d="M87.0293 68.0039C88.335 68.0039 88.9434 67.5254 89.5518 65.8711L92.4297 58.0508H91.1787L89.1621 64.1143H89.0528L87.0293 58.0508H85.7579L88.4854 65.4268L88.3487 65.8643C88.0821 66.7119 87.6719 67.0195 86.9952 67.0195C86.8311 67.0195 86.6465 67.0127 86.503 66.9854V67.9629C86.667 67.9902 86.8721 68.0039 87.0293 68.0039Z" fill="black" fill-opacity="0.5"/>
<path d="M87.0293 68.0039C88.335 68.0039 88.9434 67.5254 89.5518 65.8711L92.4297 58.0508H91.1787L89.1621 64.1143H89.0528L87.0293 58.0508H85.7579L88.4854 65.4268L88.3487 65.8643C88.0821 66.7119 87.6719 67.0195 86.9952 67.0195C86.8311 67.0195 86.6465 67.0127 86.503 66.9854V67.9629C86.667 67.9902 86.8721 68.0039 87.0293 68.0039Z" fill="black" fill-opacity="0.6" style="mix-blend-mode:overlay"/>
<path d="M101.324 65.5498C103.19 65.5498 104.413 64.0391 104.413 61.7422V61.7285C104.413 59.418 103.197 57.9209 101.324 57.9209C100.312 57.9209 99.43 58.4268 99.0267 59.2129H98.9173V55.125H97.7279V65.4199H98.9173V64.2441H99.0267C99.4779 65.0645 100.298 65.5498 101.324 65.5498ZM101.05 64.4971C99.7103 64.4971 98.89 63.4443 98.89 61.7422V61.7285C98.89 60.0264 99.7103 58.9736 101.05 58.9736C102.397 58.9736 103.197 60.0127 103.197 61.7285V61.7422C103.197 63.458 102.397 64.4971 101.05 64.4971Z" fill="black" fill-opacity="0.5"/>
<path d="M101.324 65.5498C103.19 65.5498 104.413 64.0391 104.413 61.7422V61.7285C104.413 59.418 103.197 57.9209 101.324 57.9209C100.312 57.9209 99.43 58.4268 99.0267 59.2129H98.9173V55.125H97.7279V65.4199H98.9173V64.2441H99.0267C99.4779 65.0645 100.298 65.5498 101.324 65.5498ZM101.05 64.4971C99.7103 64.4971 98.89 63.4443 98.89 61.7422V61.7285C98.89 60.0264 99.7103 58.9736 101.05 58.9736C102.397 58.9736 103.197 60.0127 103.197 61.7285V61.7422C103.197 63.458 102.397 64.4971 101.05 64.4971Z" fill="black" fill-opacity="0.6" style="mix-blend-mode:overlay"/>
<path d="M109.147 65.5498C111.246 65.5498 112.545 64.1006 112.545 61.7422V61.7285C112.545 59.3633 111.246 57.9209 109.147 57.9209C107.049 57.9209 105.75 59.3633 105.75 61.7285V61.7422C105.75 64.1006 107.049 65.5498 109.147 65.5498ZM109.147 64.4971C107.753 64.4971 106.967 63.4785 106.967 61.7422V61.7285C106.967 59.9854 107.753 58.9736 109.147 58.9736C110.542 58.9736 111.328 59.9854 111.328 61.7285V61.7422C111.328 63.4785 110.542 64.4971 109.147 64.4971Z" fill="black" fill-opacity="0.5"/>
<path d="M109.147 65.5498C111.246 65.5498 112.545 64.1006 112.545 61.7422V61.7285C112.545 59.3633 111.246 57.9209 109.147 57.9209C107.049 57.9209 105.75 59.3633 105.75 61.7285V61.7422C105.75 64.1006 107.049 65.5498 109.147 65.5498ZM109.147 64.4971C107.753 64.4971 106.967 63.4785 106.967 61.7422V61.7285C106.967 59.9854 107.753 58.9736 109.147 58.9736C110.542 58.9736 111.328 59.9854 111.328 61.7285V61.7422C111.328 63.4785 110.542 64.4971 109.147 64.4971Z" fill="black" fill-opacity="0.6" style="mix-blend-mode:overlay"/>
<path d="M117.279 65.5498C119.378 65.5498 120.676 64.1006 120.676 61.7422V61.7285C120.676 59.3633 119.378 57.9209 117.279 57.9209C115.18 57.9209 113.881 59.3633 113.881 61.7285V61.7422C113.881 64.1006 115.18 65.5498 117.279 65.5498ZM117.279 64.4971C115.884 64.4971 115.098 63.4785 115.098 61.7422V61.7285C115.098 59.9854 115.884 58.9736 117.279 58.9736C118.673 58.9736 119.46 59.9854 119.46 61.7285V61.7422C119.46 63.4785 118.673 64.4971 117.279 64.4971Z" fill="black" fill-opacity="0.5"/>
<path d="M117.279 65.5498C119.378 65.5498 120.676 64.1006 120.676 61.7422V61.7285C120.676 59.3633 119.378 57.9209 117.279 57.9209C115.18 57.9209 113.881 59.3633 113.881 61.7285V61.7422C113.881 64.1006 115.18 65.5498 117.279 65.5498ZM117.279 64.4971C115.884 64.4971 115.098 63.4785 115.098 61.7422V61.7285C115.098 59.9854 115.884 58.9736 117.279 58.9736C118.673 58.9736 119.46 59.9854 119.46 61.7285V61.7422C119.46 63.4785 118.673 64.4971 117.279 64.4971Z" fill="black" fill-opacity="0.6" style="mix-blend-mode:overlay"/>
<path d="M122.45 65.4199H123.64V62.624L124.33 61.9541L127.092 65.4199H128.589L125.164 61.1475L128.377 58.0508H126.935L123.749 61.2705H123.64V55.125H122.45V65.4199Z" fill="black" fill-opacity="0.5"/>
<path d="M122.45 65.4199H123.64V62.624L124.33 61.9541L127.092 65.4199H128.589L125.164 61.1475L128.377 58.0508H126.935L123.749 61.2705H123.64V55.125H122.45V65.4199Z" fill="black" fill-opacity="0.6" style="mix-blend-mode:overlay"/>
<path d="M132.51 65.5498C134.246 65.5498 135.299 64.5654 135.552 63.5674L135.565 63.5127H134.376L134.349 63.5742C134.15 64.0186 133.535 64.4902 132.537 64.4902C131.224 64.4902 130.384 63.6016 130.349 62.0771H135.654V61.6123C135.654 59.4111 134.437 57.9209 132.434 57.9209C130.432 57.9209 129.133 59.4795 129.133 61.7559V61.7627C129.133 64.0732 130.404 65.5498 132.51 65.5498ZM132.428 58.9805C133.515 58.9805 134.321 59.6709 134.444 61.127H130.37C130.5 59.7256 131.334 58.9805 132.428 58.9805Z" fill="black" fill-opacity="0.5"/>
<path d="M132.51 65.5498C134.246 65.5498 135.299 64.5654 135.552 63.5674L135.565 63.5127H134.376L134.349 63.5742C134.15 64.0186 133.535 64.4902 132.537 64.4902C131.224 64.4902 130.384 63.6016 130.349 62.0771H135.654V61.6123C135.654 59.4111 134.437 57.9209 132.434 57.9209C130.432 57.9209 129.133 59.4795 129.133 61.7559V61.7627C129.133 64.0732 130.404 65.5498 132.51 65.5498ZM132.428 58.9805C133.515 58.9805 134.321 59.6709 134.444 61.127H130.37C130.5 59.7256 131.334 58.9805 132.428 58.9805Z" fill="black" fill-opacity="0.6" style="mix-blend-mode:overlay"/>
<path d="M140.081 65.5498C141.106 65.5498 141.926 65.0645 142.377 64.2441H142.487V65.4199H143.676V55.125H142.487V59.2129H142.377C141.974 58.4268 141.092 57.9209 140.081 57.9209C138.208 57.9209 136.991 59.418 136.991 61.7285V61.7422C136.991 64.0391 138.214 65.5498 140.081 65.5498ZM140.354 64.4971C139.007 64.4971 138.208 63.458 138.208 61.7422V61.7285C138.208 60.0127 139.007 58.9736 140.354 58.9736C141.694 58.9736 142.514 60.0264 142.514 61.7285V61.7422C142.514 63.4443 141.694 64.4971 140.354 64.4971Z" fill="black" fill-opacity="0.5"/>
<path d="M140.081 65.5498C141.106 65.5498 141.926 65.0645 142.377 64.2441H142.487V65.4199H143.676V55.125H142.487V59.2129H142.377C141.974 58.4268 141.092 57.9209 140.081 57.9209C138.208 57.9209 136.991 59.418 136.991 61.7285V61.7422C136.991 64.0391 138.214 65.5498 140.081 65.5498ZM140.354 64.4971C139.007 64.4971 138.208 63.458 138.208 61.7422V61.7285C138.208 60.0127 139.007 58.9736 140.354 58.9736C141.694 58.9736 142.514 60.0264 142.514 61.7285V61.7422C142.514 63.4443 141.694 64.4971 140.354 64.4971Z" fill="black" fill-opacity="0.6" style="mix-blend-mode:overlay"/>
<path d="M151.64 65.5498C152.632 65.5498 153.404 65.1191 153.869 64.333H153.978V65.4199H155.168V60.375C155.168 58.8438 154.163 57.9209 152.365 57.9209C150.793 57.9209 149.672 58.7002 149.48 59.8555L149.473 59.8965H150.663L150.67 59.876C150.861 59.3018 151.442 58.9736 152.324 58.9736C153.425 58.9736 153.978 59.4658 153.978 60.375V61.0449L151.866 61.1748C150.15 61.2773 149.179 62.0361 149.179 63.3486V63.3623C149.179 64.7021 150.239 65.5498 151.64 65.5498ZM150.396 63.335V63.3213C150.396 62.5898 150.888 62.1934 152.01 62.125L153.978 62.002V62.6719C153.978 63.7246 153.096 64.5176 151.887 64.5176C151.032 64.5176 150.396 64.0801 150.396 63.335Z" fill="black" fill-opacity="0.5"/>
<path d="M151.64 65.5498C152.632 65.5498 153.404 65.1191 153.869 64.333H153.978V65.4199H155.168V60.375C155.168 58.8438 154.163 57.9209 152.365 57.9209C150.793 57.9209 149.672 58.7002 149.48 59.8555L149.473 59.8965H150.663L150.67 59.876C150.861 59.3018 151.442 58.9736 152.324 58.9736C153.425 58.9736 153.978 59.4658 153.978 60.375V61.0449L151.866 61.1748C150.15 61.2773 149.179 62.0361 149.179 63.3486V63.3623C149.179 64.7021 150.239 65.5498 151.64 65.5498ZM150.396 63.335V63.3213C150.396 62.5898 150.888 62.1934 152.01 62.125L153.978 62.002V62.6719C153.978 63.7246 153.096 64.5176 151.887 64.5176C151.032 64.5176 150.396 64.0801 150.396 63.335Z" fill="black" fill-opacity="0.6" style="mix-blend-mode:overlay"/>
<path d="M163.528 65.5498C165.203 65.5498 166.482 64.6406 166.482 63.3281V63.3145C166.482 62.2617 165.812 61.6602 164.424 61.3252L163.289 61.0518C162.421 60.8398 162.052 60.5254 162.052 60.0264V60.0127C162.052 59.3633 162.694 58.9121 163.569 58.9121C164.458 58.9121 165.032 59.3154 165.19 59.8965H166.358C166.194 58.6934 165.121 57.9209 163.576 57.9209C162.011 57.9209 160.835 58.8438 160.835 60.0674V60.0742C160.835 61.1338 161.457 61.7354 162.838 62.0635L163.98 62.3369C164.889 62.5557 165.265 62.9043 165.265 63.4033V63.417C165.265 64.0869 164.561 64.5586 163.569 64.5586C162.626 64.5586 162.038 64.1553 161.84 63.54H160.623C160.76 64.7568 161.888 65.5498 163.528 65.5498Z" fill="black" fill-opacity="0.5"/>
<path d="M163.528 65.5498C165.203 65.5498 166.482 64.6406 166.482 63.3281V63.3145C166.482 62.2617 165.812 61.6602 164.424 61.3252L163.289 61.0518C162.421 60.8398 162.052 60.5254 162.052 60.0264V60.0127C162.052 59.3633 162.694 58.9121 163.569 58.9121C164.458 58.9121 165.032 59.3154 165.19 59.8965H166.358C166.194 58.6934 165.121 57.9209 163.576 57.9209C162.011 57.9209 160.835 58.8438 160.835 60.0674V60.0742C160.835 61.1338 161.457 61.7354 162.838 62.0635L163.98 62.3369C164.889 62.5557 165.265 62.9043 165.265 63.4033V63.417C165.265 64.0869 164.561 64.5586 163.569 64.5586C162.626 64.5586 162.038 64.1553 161.84 63.54H160.623C160.76 64.7568 161.888 65.5498 163.528 65.5498Z" fill="black" fill-opacity="0.6" style="mix-blend-mode:overlay"/>
<path d="M168.256 65.4199H169.445V55.125H168.256V65.4199Z" fill="black" fill-opacity="0.5"/>
<path d="M168.256 65.4199H169.445V55.125H168.256V65.4199Z" fill="black" fill-opacity="0.6" style="mix-blend-mode:overlay"/>
<path d="M174.617 65.5498C176.715 65.5498 178.014 64.1006 178.014 61.7422V61.7285C178.014 59.3633 176.715 57.9209 174.617 57.9209C172.518 57.9209 171.219 59.3633 171.219 61.7285V61.7422C171.219 64.1006 172.518 65.5498 174.617 65.5498ZM174.617 64.4971C173.222 64.4971 172.436 63.4785 172.436 61.7422V61.7285C172.436 59.9854 173.222 58.9736 174.617 58.9736C176.011 58.9736 176.797 59.9854 176.797 61.7285V61.7422C176.797 63.4785 176.011 64.4971 174.617 64.4971Z" fill="black" fill-opacity="0.5"/>
<path d="M174.617 65.5498C176.715 65.5498 178.014 64.1006 178.014 61.7422V61.7285C178.014 59.3633 176.715 57.9209 174.617 57.9209C172.518 57.9209 171.219 59.3633 171.219 61.7285V61.7422C171.219 64.1006 172.518 65.5498 174.617 65.5498ZM174.617 64.4971C173.222 64.4971 172.436 63.4785 172.436 61.7422V61.7285C172.436 59.9854 173.222 58.9736 174.617 58.9736C176.011 58.9736 176.797 59.9854 176.797 61.7285V61.7422C176.797 63.4785 176.011 64.4971 174.617 64.4971Z" fill="black" fill-opacity="0.6" style="mix-blend-mode:overlay"/>
<path d="M182.338 65.4746C182.57 65.4746 182.796 65.4473 183.028 65.4062V64.3945C182.81 64.415 182.693 64.4219 182.481 64.4219C181.716 64.4219 181.415 64.0732 181.415 63.2051V59.0352H183.028V58.0508H181.415V56.1436H180.185V58.0508H179.022V59.0352H180.185V63.5059C180.185 64.9141 180.82 65.4746 182.338 65.4746Z" fill="black" fill-opacity="0.5"/>
<path d="M182.338 65.4746C182.57 65.4746 182.796 65.4473 183.028 65.4062V64.3945C182.81 64.415 182.693 64.4219 182.481 64.4219C181.716 64.4219 181.415 64.0732 181.415 63.2051V59.0352H183.028V58.0508H181.415V56.1436H180.185V58.0508H179.022V59.0352H180.185V63.5059C180.185 64.9141 180.82 65.4746 182.338 65.4746Z" fill="black" fill-opacity="0.6" style="mix-blend-mode:overlay"/>
<path d="M188.955 65.4199H190.145V59.0352H191.82V58.0508H190.145V57.2646C190.145 56.458 190.487 56.041 191.334 56.041C191.546 56.041 191.744 56.0479 191.888 56.0752V55.125C191.642 55.0771 191.382 55.0566 191.095 55.0566C189.694 55.0566 188.955 55.7607 188.955 57.2305V58.0508H187.732V59.0352H188.955V65.4199Z" fill="black" fill-opacity="0.5"/>
<path d="M188.955 65.4199H190.145V59.0352H191.82V58.0508H190.145V57.2646C190.145 56.458 190.487 56.041 191.334 56.041C191.546 56.041 191.744 56.0479 191.888 56.0752V55.125C191.642 55.0771 191.382 55.0566 191.095 55.0566C189.694 55.0566 188.955 55.7607 188.955 57.2305V58.0508H187.732V59.0352H188.955V65.4199Z" fill="black" fill-opacity="0.6" style="mix-blend-mode:overlay"/>
<path d="M196.109 65.5498C198.208 65.5498 199.507 64.1006 199.507 61.7422V61.7285C199.507 59.3633 198.208 57.9209 196.109 57.9209C194.011 57.9209 192.712 59.3633 192.712 61.7285V61.7422C192.712 64.1006 194.011 65.5498 196.109 65.5498ZM196.109 64.4971C194.715 64.4971 193.929 63.4785 193.929 61.7422V61.7285C193.929 59.9854 194.715 58.9736 196.109 58.9736C197.504 58.9736 198.29 59.9854 198.29 61.7285V61.7422C198.29 63.4785 197.504 64.4971 196.109 64.4971Z" fill="black" fill-opacity="0.5"/>
<path d="M196.109 65.5498C198.208 65.5498 199.507 64.1006 199.507 61.7422V61.7285C199.507 59.3633 198.208 57.9209 196.109 57.9209C194.011 57.9209 192.712 59.3633 192.712 61.7285V61.7422C192.712 64.1006 194.011 65.5498 196.109 65.5498ZM196.109 64.4971C194.715 64.4971 193.929 63.4785 193.929 61.7422V61.7285C193.929 59.9854 194.715 58.9736 196.109 58.9736C197.504 58.9736 198.29 59.9854 198.29 61.7285V61.7422C198.29 63.4785 197.504 64.4971 196.109 64.4971Z" fill="black" fill-opacity="0.6" style="mix-blend-mode:overlay"/>
<path d="M201.212 65.4199H202.402V60.8535C202.402 59.7734 203.209 59.0557 204.343 59.0557C204.603 59.0557 204.829 59.083 205.075 59.124V57.9688C204.959 57.9482 204.706 57.9209 204.48 57.9209C203.482 57.9209 202.792 58.3721 202.511 59.1445H202.402V58.0508H201.212V65.4199Z" fill="black" fill-opacity="0.5"/>
<path d="M201.212 65.4199H202.402V60.8535C202.402 59.7734 203.209 59.0557 204.343 59.0557C204.603 59.0557 204.829 59.083 205.075 59.124V57.9688C204.959 57.9482 204.706 57.9209 204.48 57.9209C203.482 57.9209 202.792 58.3721 202.511 59.1445H202.402V58.0508H201.212V65.4199Z" fill="black" fill-opacity="0.6" style="mix-blend-mode:overlay"/>
<path d="M212.916 65.4199H214.146V56.6631H217.325V55.5557H209.737V56.6631H212.916V65.4199Z" fill="black" fill-opacity="0.5"/>
<path d="M212.916 65.4199H214.146V56.6631H217.325V55.5557H209.737V56.6631H212.916V65.4199Z" fill="black" fill-opacity="0.6" style="mix-blend-mode:overlay"/>
<path d="M219.085 65.4199H220.316V61.5166H222.743L224.855 65.4199H226.297L224.014 61.3252C225.251 60.9355 225.997 59.8691 225.997 58.502V58.4883C225.997 56.7178 224.752 55.5557 222.852 55.5557H219.085V65.4199ZM220.316 60.4229V56.6494H222.688C223.959 56.6494 224.725 57.3535 224.725 58.5293V58.543C224.725 59.7461 224.007 60.4229 222.743 60.4229H220.316Z" fill="black" fill-opacity="0.5"/>
<path d="M219.085 65.4199H220.316V61.5166H222.743L224.855 65.4199H226.297L224.014 61.3252C225.251 60.9355 225.997 59.8691 225.997 58.502V58.4883C225.997 56.7178 224.752 55.5557 222.852 55.5557H219.085V65.4199ZM220.316 60.4229V56.6494H222.688C223.959 56.6494 224.725 57.3535 224.725 58.5293V58.543C224.725 59.7461 224.007 60.4229 222.743 60.4229H220.316Z" fill="black" fill-opacity="0.6" style="mix-blend-mode:overlay"/>
<path d="M227.443 65.4199H228.837L231.496 61.4824H231.537L234.162 65.4199H235.639L232.303 60.5254V60.498L235.714 55.5557H234.313L231.647 59.5273H231.606L228.967 55.5557H227.484L230.806 60.4365V60.4639L227.443 65.4199Z" fill="black" fill-opacity="0.5"/>
<path d="M227.443 65.4199H228.837L231.496 61.4824H231.537L234.162 65.4199H235.639L232.303 60.5254V60.498L235.714 55.5557H234.313L231.647 59.5273H231.606L228.967 55.5557H227.484L230.806 60.4365V60.4639L227.443 65.4199Z" fill="black" fill-opacity="0.6" style="mix-blend-mode:overlay"/>
<defs>
<linearGradient id="paint0_linear_1_246" x1="15.2924" y1="14.0705" x2="25.2413" y2="26.6019" gradientUnits="userSpaceOnUse">
<stop stop-color="#FAE205"/>
<stop offset="1" stop-color="#FA6400"/>
</linearGradient>
</defs>
</svg>
