<svg width="417" height="500" viewBox="0 0 417 500" fill="none" xmlns="http://www.w3.org/2000/svg">
<path d="M167.03 41.66C167.03 18.6518 148.378 0 125.37 0C102.362 0 83.71 18.6518 83.71 41.66C83.71 64.6682 102.362 83.32 125.37 83.32C148.378 83.32 167.03 64.6682 167.03 41.66Z" fill="#7038FF"/>
<path d="M125.37 60.26C120.437 60.26 115.706 58.3004 112.218 54.8122C108.73 51.324 106.77 46.593 106.77 41.66V41.66C106.77 36.727 108.73 31.996 112.218 28.5078C115.706 25.0196 120.437 23.06 125.37 23.06V23.06C127.815 23.0574 130.236 23.5365 132.496 24.4699C134.755 25.4033 136.809 26.7728 138.539 28.5001C140.269 30.2274 141.642 32.2787 142.579 34.5367C143.516 36.7947 143.999 39.2153 144 41.66V41.66C143.999 44.1048 143.516 46.5253 142.579 48.7833C141.642 51.0413 140.269 53.0926 138.539 54.8199C136.809 56.5472 134.755 57.9167 132.496 58.8501C130.236 59.7835 127.815 60.2626 125.37 60.26Z" fill="#EF008F"/>
<path d="M250.35 0H167.03V83.32H250.35V0Z" fill="#0A335B"/>
<path d="M83.71 83.32H0.390015C0.390015 61.2222 9.16832 40.0294 24.7939 24.4039C40.4194 8.77833 61.6122 0 83.71 0V0V83.32Z" fill="#6EC3F4"/>
<path d="M250.36 0H333.68C333.68 22.0978 324.902 43.2906 309.276 58.9161C293.651 74.5417 272.458 83.32 250.36 83.32V0V0Z" fill="#7038FF"/>
<path d="M333.68 0H417V83.32C394.902 83.32 373.709 74.5417 358.084 58.9161C342.458 43.2906 333.68 22.0978 333.68 0V0Z" fill="#6EC3F4"/>
<path d="M83.71 166.64C61.6122 166.64 40.4194 157.862 24.7939 142.236C9.16832 126.611 0.390015 105.418 0.390015 83.32H83.71V166.64Z" fill="#7038FF"/>
<path d="M83.71 130.7C77.4884 130.7 71.3278 129.474 65.58 127.093C59.8321 124.712 54.6096 121.222 50.2108 116.822C45.8119 112.422 42.3229 107.199 39.9429 101.451C37.563 95.7024 36.3387 89.5416 36.34 83.32H83.71V130.7Z" fill="#EF008F"/>
<path d="M167.03 83.32H83.71V166.64H167.03V83.32Z" fill="#0A335B"/>
<path d="M143.2 107.15H107.54V142.81H143.2V107.15Z" fill="#6EC3F4"/>
<path d="M250.35 83.32H167.03V166.64H250.35V83.32Z" fill="#6EC3F4"/>
<path d="M250.36 83.32V166.64H167C167 155.695 169.156 144.857 173.346 134.746C177.536 124.634 183.677 115.447 191.418 107.71C199.159 99.9722 208.349 93.8358 218.463 89.6509C228.576 85.466 239.415 83.3148 250.36 83.32V83.32Z" fill="#7038FF"/>
<path d="M417 83.32V166.64H333.68C333.68 144.542 342.458 123.349 358.084 107.724C373.709 92.0983 394.902 83.32 417 83.32Z" fill="#7038FF"/>
<path d="M250.36 83.32C261.302 83.32 272.136 85.4751 282.245 89.6624C292.354 93.8496 301.539 99.9869 309.276 107.724C317.013 115.461 323.15 124.646 327.338 134.755C331.525 144.864 333.68 155.698 333.68 166.64H250.36V83.32Z" fill="#EF008F"/>
<path d="M167.03 166.64H83.71V249.96H167.03V166.64Z" fill="#EF008F"/>
<path d="M250.35 166.64H167.03V249.96H250.35V166.64Z" fill="#E2E2E2"/>
<path d="M83.71 208.3C83.71 185.292 65.0582 166.64 42.05 166.64C19.0418 166.64 0.390015 185.292 0.390015 208.3C0.390015 231.308 19.0418 249.96 42.05 249.96C65.0582 249.96 83.71 231.308 83.71 208.3Z" fill="#0A335B"/>
<path d="M42.05 226.89C37.1196 226.89 32.3911 224.931 28.9048 221.445C25.4185 217.959 23.46 213.23 23.46 208.3V208.3C23.4626 203.37 25.422 198.644 28.9078 195.158C32.3935 191.672 37.1204 189.713 42.05 189.71C46.9803 189.71 51.7088 191.669 55.1951 195.155C58.6814 198.641 60.64 203.37 60.64 208.3V208.3C60.64 213.23 58.6814 217.959 55.1951 221.445C51.7088 224.931 46.9803 226.89 42.05 226.89V226.89Z" fill="#7038FF"/>
<path d="M333.68 166.64H250.36V249.96H333.68V166.64Z" fill="#E2E2E2"/>
<path d="M167 166.64H250.32V250C239.375 250 228.537 247.844 218.426 243.654C208.314 239.464 199.127 233.323 191.39 225.582C183.652 217.841 177.516 208.651 173.331 198.537C169.146 188.424 166.995 177.585 167 166.64V166.64Z" fill="#0A335B"/>
<path d="M250.36 166.64H333.68C333.685 177.585 331.534 188.424 327.349 198.537C323.164 208.651 317.028 217.841 309.29 225.582C301.553 233.323 292.366 239.464 282.254 243.654C272.143 247.844 261.305 250 250.36 250V250V166.64Z" fill="#7038FF"/>
<path d="M250.36 166.64H209.1C209.1 161.222 210.167 155.857 212.241 150.852C214.315 145.847 217.354 141.299 221.185 137.468C225.017 133.638 229.565 130.6 234.571 128.527C239.577 126.455 244.942 125.389 250.36 125.39V125.39V166.64Z" fill="#E2E2E2"/>
<path d="M250.36 125.39C261.303 125.39 271.797 129.737 279.535 137.475C287.273 145.213 291.62 155.707 291.62 166.65H250.36V125.39Z" fill="#7038FF"/>
<path d="M250.36 207.9C239.417 207.9 228.923 203.553 221.185 195.815C213.447 188.077 209.1 177.583 209.1 166.64H250.36V207.9Z" fill="#EF008F"/>
<path d="M250.36 207.9V166.64H291.61C291.611 172.058 290.545 177.423 288.473 182.429C286.4 187.435 283.362 191.983 279.532 195.815C275.701 199.646 271.153 202.685 266.148 204.759C261.143 206.833 255.778 207.9 250.36 207.9V207.9Z" fill="#0A335B"/>
<path d="M417 250H333.68V166.64C344.625 166.64 355.463 168.796 365.574 172.986C375.686 177.176 384.873 183.317 392.61 191.058C400.348 198.799 406.484 207.989 410.669 218.103C414.854 228.216 417.005 239.055 417 250Z" fill="#0A335B"/>
<path d="M83.71 333.29C61.6182 333.287 40.4315 324.512 24.8074 308.894C9.18331 293.275 0.400619 272.092 0.390015 250H83.71V333.29Z" fill="#6EC3F4"/>
<path d="M167.03 249.97H83.71V333.29H167.03V249.97Z" fill="#0A335B"/>
<path d="M167.04 333.29H83.71L167.04 249.97V333.29Z" fill="#0A335B"/>
<path d="M167 250C189.098 250 210.291 258.778 225.916 274.404C241.542 290.029 250.32 311.222 250.32 333.32V333.32H167V250Z" fill="#7038FF"/>
<path d="M417 333.29H333.68V250C355.773 250 376.961 258.774 392.585 274.393C408.21 290.012 416.992 311.197 417 333.29Z" fill="#EF008F"/>
<path d="M333.68 250V333.32H250.36C250.36 311.222 259.138 290.029 274.764 274.404C290.389 258.778 311.582 250 333.68 250V250Z" fill="#0A335B"/>
<path d="M333.68 250V333.32H250.36C250.36 311.222 259.138 290.029 274.764 274.404C290.389 258.778 311.582 250 333.68 250V250Z" fill="#0A335B"/>
<path d="M386 333.29H333.68V281C347.55 281.003 360.852 286.512 370.662 296.316C380.473 306.121 385.989 319.42 386 333.29Z" fill="#6EC3F4"/>
<path d="M333.68 281V333.33H281.35C281.35 319.451 286.863 306.141 296.677 296.327C306.491 286.513 319.801 281 333.68 281V281Z" fill="#7038FF"/>
<path d="M83.71 416.61C61.6122 416.61 40.4194 425.388 24.7939 441.014C9.16832 456.639 0.390015 477.832 0.390015 499.93H83.71V416.61Z" fill="#7038FF"/>
<path d="M83.71 416.61V499.93H167C167 477.837 158.226 456.649 142.607 441.024C126.988 425.4 105.803 416.618 83.71 416.61V416.61Z" fill="#EF008F"/>
<path d="M83.7101 451.78C70.9399 451.78 58.6927 456.853 49.6629 465.883C40.633 474.913 35.5601 487.16 35.5601 499.93H83.7101V451.78Z" fill="#6EC3F4"/>
<path d="M83.71 451.78V499.93H131.86C131.86 487.16 126.787 474.913 117.757 465.883C108.727 456.853 96.4801 451.78 83.71 451.78V451.78Z" fill="#E2E2E2"/>
<path d="M167 416.61C167 427.553 169.155 438.388 173.343 448.497C177.531 458.607 183.669 467.793 191.407 475.53C199.145 483.267 208.332 489.404 218.442 493.591C228.552 497.777 239.387 499.931 250.33 499.93V499.93C250.33 488.987 248.175 478.152 243.987 468.043C239.799 457.933 233.661 448.747 225.923 441.01C218.185 433.273 208.998 427.136 198.888 422.949C188.778 418.763 177.943 416.609 167 416.61V416.61Z" fill="#0A335B"/>
<path d="M417 416.61H333.68V499.93H417V416.61Z" fill="#0A335B"/>
<path d="M333.68 416.61C311.582 416.61 290.389 425.388 274.764 441.014C259.138 456.639 250.36 477.832 250.36 499.93H333.68V416.61Z" fill="#7038FF"/>
<path d="M83.71 333.29C83.7126 355.382 92.4877 376.569 108.106 392.193C123.725 407.817 144.908 416.599 167 416.61V416.61C167 394.517 158.226 373.329 142.607 357.704C126.988 342.08 105.803 333.298 83.71 333.29V333.29Z" fill="#7038FF"/>
<path d="M250.36 333.29C239.415 333.285 228.576 335.436 218.463 339.621C208.349 343.806 199.159 349.942 191.418 357.68C183.677 365.417 177.536 374.604 173.346 384.716C169.156 394.827 167 405.665 167 416.61V416.61C189.099 416.61 210.293 407.832 225.92 392.207C241.547 376.582 250.327 355.389 250.33 333.29H250.36Z" fill="#EF008F"/>
<path d="M333.68 333.29H250.36V416.61H333.68V333.29Z" fill="#E2E2E2"/>
<path d="M312.85 333.29C310.113 333.286 307.401 333.822 304.871 334.867C302.341 335.912 300.042 337.446 298.105 339.381C296.169 341.316 294.632 343.613 293.585 346.143C292.537 348.672 291.999 351.383 292 354.12C291.993 356.861 292.528 359.577 293.573 362.111C294.618 364.646 296.153 366.949 298.09 368.889C300.027 370.828 302.328 372.367 304.861 373.415C307.394 374.464 310.109 375.003 312.85 375V375C318.374 374.997 323.67 372.802 327.576 368.896C331.482 364.99 333.677 359.694 333.68 354.17C333.687 351.43 333.153 348.716 332.109 346.183C331.065 343.65 329.532 341.348 327.597 339.409C325.662 337.469 323.363 335.93 320.833 334.88C318.302 333.83 315.59 333.29 312.85 333.29V333.29Z" fill="#EF008F"/>
<path d="M312.85 349.19C311.542 349.19 310.288 349.709 309.364 350.634C308.439 351.558 307.92 352.812 307.92 354.12C307.92 355.427 308.439 356.681 309.364 357.606C310.288 358.531 311.542 359.05 312.85 359.05V359.05C314.157 359.05 315.411 358.531 316.336 357.606C317.261 356.681 317.78 355.427 317.78 354.12V354.12C317.78 352.812 317.261 351.558 316.336 350.634C315.411 349.709 314.157 349.19 312.85 349.19V349.19Z" fill="#E2E2E2"/>
<path d="M271.19 333.29C268.454 333.289 265.745 333.827 263.217 334.873C260.689 335.919 258.392 337.454 256.458 339.388C254.523 341.323 252.989 343.619 251.943 346.147C250.897 348.675 250.359 351.384 250.36 354.12V354.12C250.353 356.86 250.887 359.574 251.931 362.107C252.975 364.64 254.508 366.942 256.443 368.881C258.378 370.821 260.677 372.36 263.207 373.41C265.738 374.46 268.45 375 271.19 375V375C273.928 374.996 276.638 374.453 279.165 373.401C281.693 372.35 283.988 370.81 285.921 368.871C287.853 366.932 289.385 364.632 290.428 362.101C291.471 359.569 292.005 356.858 292 354.12V354.12C292 348.599 289.808 343.304 285.906 339.398C282.004 335.492 276.711 333.295 271.19 333.29Z" fill="#6EC3F4"/>
<path d="M271.19 349.19C270.542 349.189 269.901 349.315 269.302 349.563C268.703 349.81 268.159 350.173 267.701 350.631C267.243 351.089 266.88 351.633 266.633 352.232C266.385 352.83 266.259 353.472 266.26 354.12V354.12C266.26 355.427 266.779 356.681 267.704 357.606C268.629 358.531 269.882 359.05 271.19 359.05C272.498 359.05 273.751 358.531 274.676 357.606C275.601 356.681 276.12 355.427 276.12 354.12V354.12C276.12 352.812 275.601 351.558 274.676 350.634C273.751 349.709 272.498 349.19 271.19 349.19Z" fill="#0A335B"/>
<path d="M312.85 375C307.33 374.992 302.033 377.177 298.123 381.073C294.213 384.97 292.011 390.26 292 395.78V395.78C292 401.304 294.195 406.603 298.101 410.509C302.007 414.415 307.306 416.61 312.83 416.61C318.354 416.607 323.65 414.412 327.556 410.506C331.462 406.6 333.657 401.304 333.66 395.78C333.647 390.268 331.449 384.985 327.548 381.09C323.648 377.195 318.362 375.005 312.85 375Z" fill="#0A335B"/>
<path d="M312.85 390.85C311.542 390.85 310.288 391.369 309.364 392.294C308.439 393.218 307.92 394.472 307.92 395.78V395.78C307.92 397.087 308.439 398.341 309.364 399.266C310.288 400.191 311.542 400.71 312.85 400.71V400.71C314.157 400.71 315.411 400.191 316.336 399.266C317.261 398.341 317.78 397.087 317.78 395.78V395.78C317.78 394.472 317.261 393.218 316.336 392.294C315.411 391.369 314.157 390.85 312.85 390.85V390.85Z" fill="#EF008F"/>
<path d="M292.02 395.78C292.02 384.276 282.694 374.95 271.19 374.95C259.686 374.95 250.36 384.276 250.36 395.78C250.36 407.284 259.686 416.61 271.19 416.61C282.694 416.61 292.02 407.284 292.02 395.78Z" fill="#7038FF"/>
<path d="M271.19 390.85C269.882 390.85 268.629 391.369 267.704 392.294C266.779 393.218 266.26 394.472 266.26 395.78V395.78C266.26 397.087 266.779 398.341 267.704 399.266C268.629 400.191 269.882 400.71 271.19 400.71V400.71C272.498 400.71 273.751 400.191 274.676 399.266C275.601 398.341 276.12 397.087 276.12 395.78V395.78C276.12 394.472 275.601 393.218 274.676 392.294C273.751 391.369 272.498 390.85 271.19 390.85V390.85Z" fill="#6EC3F4"/>
<path d="M417 333.29H333.68V416.61H417V333.29Z" fill="#7038FF"/>
<path d="M393.08 357.2H357.59V392.69H393.08V357.2Z" fill="#0A335B"/>
<path d="M345.13 446.54C346.201 446.535 347.227 446.112 347.99 445.36C348.369 444.988 348.671 444.543 348.877 444.053C349.082 443.563 349.188 443.037 349.188 442.505C349.188 441.973 349.082 441.447 348.877 440.957C348.671 440.467 348.369 440.022 347.99 439.65C347.227 438.898 346.201 438.475 345.13 438.47C344.06 438.47 343.034 438.895 342.277 439.652C341.52 440.409 341.095 441.435 341.095 442.505C341.095 443.575 341.52 444.601 342.277 445.358C343.034 446.115 344.06 446.54 345.13 446.54" fill="#EF008F"/>
<path d="M386.74 446.54C387.81 446.54 388.837 446.115 389.593 445.358C390.35 444.601 390.775 443.575 390.775 442.505C390.775 441.435 390.35 440.409 389.593 439.652C388.837 438.895 387.81 438.47 386.74 438.47V438.47C385.67 438.47 384.644 438.895 383.887 439.652C383.13 440.409 382.705 441.435 382.705 442.505C382.705 443.575 383.13 444.601 383.887 445.358C384.644 446.115 385.67 446.54 386.74 446.54V446.54Z" fill="#EF008F"/>
<path d="M365.93 446.54C367 446.54 368.026 446.115 368.783 445.358C369.54 444.601 369.965 443.575 369.965 442.505C369.965 441.435 369.54 440.409 368.783 439.652C368.026 438.895 367 438.47 365.93 438.47C364.86 438.47 363.834 438.895 363.077 439.652C362.32 440.409 361.895 441.435 361.895 442.505C361.895 443.575 362.32 444.601 363.077 445.358C363.834 446.115 364.86 446.54 365.93 446.54V446.54Z" fill="#EF008F"/>
<path d="M407.57 446.54C408.494 446.535 409.387 446.21 410.099 445.62C410.81 445.031 411.296 444.213 411.473 443.306C411.65 442.4 411.507 441.459 411.07 440.646C410.632 439.832 409.927 439.195 409.072 438.842C408.218 438.49 407.269 438.444 406.385 438.713C405.501 438.981 404.737 439.547 404.223 440.315C403.709 441.083 403.477 442.005 403.565 442.925C403.654 443.844 404.059 444.705 404.71 445.36C405.47 446.115 406.498 446.54 407.57 446.54" fill="#EF008F"/>
<path d="M345.13 430C346.201 429.995 347.227 429.572 347.99 428.82C348.369 428.448 348.671 428.003 348.877 427.513C349.082 427.023 349.188 426.497 349.188 425.965C349.188 425.433 349.082 424.907 348.877 424.417C348.671 423.927 348.369 423.482 347.99 423.11C347.227 422.358 346.201 421.935 345.13 421.93C344.06 421.93 343.034 422.355 342.277 423.112C341.52 423.868 341.095 424.895 341.095 425.965C341.095 427.035 341.52 428.061 342.277 428.818C343.034 429.575 344.06 430 345.13 430" fill="#EF008F"/>
<path d="M386.74 430C387.81 430 388.837 429.575 389.593 428.818C390.35 428.061 390.775 427.035 390.775 425.965C390.775 424.895 390.35 423.868 389.593 423.112C388.837 422.355 387.81 421.93 386.74 421.93V421.93C385.67 421.93 384.644 422.355 383.887 423.112C383.13 423.868 382.705 424.895 382.705 425.965C382.705 427.035 383.13 428.061 383.887 428.818C384.644 429.575 385.67 430 386.74 430V430Z" fill="#EF008F"/>
<path d="M365.93 430C367 430 368.026 429.575 368.783 428.818C369.54 428.061 369.965 427.035 369.965 425.965C369.965 424.895 369.54 423.868 368.783 423.112C368.026 422.355 367 421.93 365.93 421.93C364.86 421.93 363.834 422.355 363.077 423.112C362.32 423.868 361.895 424.895 361.895 425.965C361.895 427.035 362.32 428.061 363.077 428.818C363.834 429.575 364.86 430 365.93 430V430Z" fill="#EF008F"/>
<path d="M407.57 430C408.494 429.995 409.387 429.67 410.099 429.08C410.81 428.491 411.296 427.673 411.473 426.766C411.65 425.859 411.507 424.919 411.07 424.106C410.632 423.292 409.927 422.655 409.072 422.302C408.218 421.95 407.269 421.904 406.385 422.173C405.501 422.441 404.737 423.007 404.223 423.775C403.709 424.543 403.477 425.465 403.565 426.384C403.654 427.304 404.059 428.165 404.71 428.82C405.47 429.575 406.498 429.999 407.57 430" fill="#EF008F"/>
<path d="M345.13 463.12C346.201 463.115 347.227 462.692 347.99 461.94C348.369 461.568 348.671 461.123 348.877 460.633C349.082 460.143 349.188 459.617 349.188 459.085C349.188 458.553 349.082 458.027 348.877 457.537C348.671 457.047 348.369 456.602 347.99 456.23C347.227 455.478 346.201 455.055 345.13 455.05C344.06 455.05 343.034 455.475 342.277 456.232C341.52 456.989 341.095 458.015 341.095 459.085C341.095 460.155 341.52 461.182 342.277 461.938C343.034 462.695 344.06 463.12 345.13 463.12" fill="#EF008F"/>
<path d="M386.74 463.12C387.81 463.12 388.837 462.695 389.593 461.938C390.35 461.182 390.775 460.155 390.775 459.085C390.775 458.015 390.35 456.989 389.593 456.232C388.837 455.475 387.81 455.05 386.74 455.05V455.05C385.67 455.05 384.644 455.475 383.887 456.232C383.13 456.989 382.705 458.015 382.705 459.085C382.705 460.155 383.13 461.182 383.887 461.938C384.644 462.695 385.67 463.12 386.74 463.12V463.12Z" fill="#EF008F"/>
<path d="M365.93 463.12C367 463.12 368.026 462.695 368.783 461.938C369.54 461.182 369.965 460.155 369.965 459.085C369.965 458.015 369.54 456.989 368.783 456.232C368.026 455.475 367 455.05 365.93 455.05C364.86 455.05 363.834 455.475 363.077 456.232C362.32 456.989 361.895 458.015 361.895 459.085C361.895 460.155 362.32 461.182 363.077 461.938C363.834 462.695 364.86 463.12 365.93 463.12V463.12Z" fill="#EF008F"/>
<path d="M407.57 463.12C408.494 463.115 409.387 462.79 410.099 462.2C410.81 461.611 411.296 460.793 411.473 459.886C411.65 458.98 411.507 458.04 411.07 457.226C410.632 456.412 409.927 455.775 409.072 455.422C408.218 455.07 407.269 455.024 406.385 455.293C405.501 455.561 404.737 456.127 404.223 456.895C403.709 457.663 403.477 458.585 403.565 459.505C403.654 460.424 404.059 461.285 404.71 461.94C405.47 462.695 406.498 463.12 407.57 463.12" fill="#EF008F"/>
<path d="M345.13 479.7C346.191 479.7 347.208 479.279 347.958 478.528C348.709 477.778 349.13 476.761 349.13 475.7C349.127 474.632 348.703 473.608 347.95 472.85C347.187 472.098 346.161 471.675 345.09 471.67C344.02 471.67 342.993 472.095 342.237 472.852C341.48 473.609 341.055 474.635 341.055 475.705C341.055 476.775 341.48 477.801 342.237 478.558C342.993 479.315 344.02 479.74 345.09 479.74" fill="#EF008F"/>
<path d="M386.74 479.7C387.81 479.7 388.837 479.275 389.593 478.518C390.35 477.761 390.775 476.735 390.775 475.665C390.775 474.595 390.35 473.569 389.593 472.812C388.837 472.055 387.81 471.63 386.74 471.63V471.63C385.67 471.63 384.644 472.055 383.887 472.812C383.13 473.569 382.705 474.595 382.705 475.665C382.705 476.735 383.13 477.761 383.887 478.518C384.644 479.275 385.67 479.7 386.74 479.7V479.7Z" fill="#EF008F"/>
<path d="M365.93 479.7C367 479.7 368.026 479.275 368.783 478.518C369.54 477.761 369.965 476.735 369.965 475.665C369.965 474.595 369.54 473.569 368.783 472.812C368.026 472.055 367 471.63 365.93 471.63C364.86 471.63 363.834 472.055 363.077 472.812C362.32 473.569 361.895 474.595 361.895 475.665C361.895 476.735 362.32 477.761 363.077 478.518C363.834 479.275 364.86 479.7 365.93 479.7V479.7Z" fill="#EF008F"/>
<path d="M407.57 479.7C408.494 479.695 409.387 479.37 410.099 478.78C410.81 478.191 411.296 477.373 411.473 476.466C411.65 475.56 411.507 474.619 411.07 473.806C410.632 472.992 409.927 472.355 409.072 472.002C408.218 471.65 407.269 471.604 406.385 471.873C405.501 472.141 404.737 472.707 404.223 473.475C403.709 474.243 403.477 475.165 403.565 476.085C403.654 477.004 404.059 477.865 404.71 478.52C405.47 479.275 406.498 479.7 407.57 479.7" fill="#EF008F"/>
<path d="M345.13 496.28C346.191 496.28 347.208 495.859 347.958 495.108C348.709 494.358 349.13 493.341 349.13 492.28C349.127 491.212 348.703 490.188 347.95 489.43C347.187 488.678 346.161 488.255 345.09 488.25C344.02 488.25 342.993 488.675 342.237 489.432C341.48 490.189 341.055 491.215 341.055 492.285C341.055 493.355 341.48 494.381 342.237 495.138C342.993 495.895 344.02 496.32 345.09 496.32" fill="#EF008F"/>
<path d="M386.74 496.28C387.81 496.28 388.837 495.855 389.593 495.098C390.35 494.341 390.775 493.315 390.775 492.245C390.775 491.175 390.35 490.148 389.593 489.392C388.837 488.635 387.81 488.21 386.74 488.21V488.21C385.67 488.21 384.644 488.635 383.887 489.392C383.13 490.148 382.705 491.175 382.705 492.245C382.705 493.315 383.13 494.341 383.887 495.098C384.644 495.855 385.67 496.28 386.74 496.28V496.28Z" fill="#EF008F"/>
<path d="M365.93 496.28C367 496.28 368.026 495.855 368.783 495.098C369.54 494.341 369.965 493.315 369.965 492.245C369.965 491.175 369.54 490.148 368.783 489.392C368.026 488.635 367 488.21 365.93 488.21C364.86 488.21 363.834 488.635 363.077 489.392C362.32 490.148 361.895 491.175 361.895 492.245C361.895 493.315 362.32 494.341 363.077 495.098C363.834 495.855 364.86 496.28 365.93 496.28V496.28Z" fill="#EF008F"/>
<path d="M407.57 496.28C408.494 496.275 409.387 495.95 410.099 495.36C410.81 494.771 411.296 493.953 411.473 493.046C411.65 492.14 411.507 491.199 411.07 490.386C410.632 489.572 409.927 488.935 409.072 488.582C408.218 488.23 407.269 488.184 406.385 488.453C405.501 488.721 404.737 489.287 404.223 490.055C403.709 490.823 403.477 491.745 403.565 492.665C403.654 493.584 404.059 494.445 404.71 495.1C405.47 495.855 406.498 496.28 407.57 496.28" fill="#EF008F"/>
<path d="M94.1001 196.64C95.0244 196.637 95.9192 196.314 96.6322 195.726C97.3453 195.138 97.8326 194.321 98.0114 193.414C98.1902 192.507 98.0493 191.566 97.6128 190.751C97.1763 189.936 96.4711 189.298 95.6171 188.944C94.7631 188.591 93.8129 188.544 92.9282 188.812C92.0435 189.079 91.2788 189.645 90.7642 190.413C90.2496 191.181 90.0167 192.103 90.1053 193.023C90.1939 193.943 90.5984 194.804 91.2501 195.46C92.0084 196.212 93.0321 196.636 94.1001 196.64" fill="#E2E2E2"/>
<path d="M135.72 196.64C136.79 196.64 137.817 196.215 138.573 195.458C139.33 194.701 139.755 193.675 139.755 192.605C139.755 191.535 139.33 190.509 138.573 189.752C137.817 188.995 136.79 188.57 135.72 188.57C134.65 188.57 133.624 188.995 132.867 189.752C132.11 190.509 131.685 191.535 131.685 192.605C131.685 193.675 132.11 194.701 132.867 195.458C133.624 196.215 134.65 196.64 135.72 196.64Z" fill="#E2E2E2"/>
<path d="M114.9 196.64C115.97 196.64 116.996 196.215 117.753 195.458C118.51 194.701 118.935 193.675 118.935 192.605C118.935 191.535 118.51 190.509 117.753 189.752C116.996 188.995 115.97 188.57 114.9 188.57C113.83 188.57 112.804 188.995 112.047 189.752C111.29 190.509 110.865 191.535 110.865 192.605C110.865 193.675 111.29 194.701 112.047 195.458C112.804 196.215 113.83 196.64 114.9 196.64Z" fill="#E2E2E2"/>
<path d="M156.54 196.64C157.464 196.635 158.357 196.31 159.069 195.72C159.78 195.131 160.266 194.313 160.443 193.406C160.62 192.5 160.477 191.559 160.04 190.746C159.602 189.932 158.897 189.295 158.042 188.942C157.188 188.59 156.239 188.544 155.355 188.813C154.471 189.081 153.707 189.647 153.193 190.415C152.679 191.183 152.447 192.105 152.535 193.025C152.624 193.944 153.029 194.805 153.68 195.46C154.44 196.215 155.468 196.64 156.54 196.64Z" fill="#E2E2E2"/>
<path d="M94.1001 180.06C95.0244 180.057 95.9192 179.734 96.6322 179.146C97.3453 178.558 97.8326 177.741 98.0114 176.834C98.1902 175.927 98.0493 174.986 97.6128 174.171C97.1763 173.356 96.4711 172.718 95.6171 172.364C94.7631 172.011 93.8129 171.964 92.9282 172.232C92.0435 172.499 91.2788 173.065 90.7642 173.833C90.2496 174.601 90.0167 175.523 90.1053 176.443C90.1939 177.363 90.5984 178.224 91.2501 178.88C92.0084 179.632 93.0321 180.056 94.1001 180.06" fill="#E2E2E2"/>
<path d="M135.72 180.06C136.79 180.06 137.817 179.635 138.573 178.878C139.33 178.121 139.755 177.095 139.755 176.025C139.755 174.955 139.33 173.929 138.573 173.172C137.817 172.415 136.79 171.99 135.72 171.99C134.65 171.99 133.624 172.415 132.867 173.172C132.11 173.929 131.685 174.955 131.685 176.025C131.685 177.095 132.11 178.121 132.867 178.878C133.624 179.635 134.65 180.06 135.72 180.06Z" fill="#E2E2E2"/>
<path d="M114.9 180.06C115.97 180.06 116.996 179.635 117.753 178.878C118.51 178.121 118.935 177.095 118.935 176.025C118.935 174.955 118.51 173.929 117.753 173.172C116.996 172.415 115.97 171.99 114.9 171.99C113.83 171.99 112.804 172.415 112.047 173.172C111.29 173.929 110.865 174.955 110.865 176.025C110.865 177.095 111.29 178.121 112.047 178.878C112.804 179.635 113.83 180.06 114.9 180.06Z" fill="#E2E2E2"/>
<path d="M156.54 180.06C157.464 180.055 158.357 179.73 159.069 179.14C159.78 178.551 160.266 177.733 160.443 176.826C160.62 175.92 160.477 174.979 160.04 174.166C159.602 173.352 158.897 172.715 158.042 172.362C157.188 172.01 156.239 171.964 155.355 172.233C154.471 172.501 153.707 173.067 153.193 173.835C152.679 174.603 152.447 175.525 152.535 176.445C152.624 177.364 153.029 178.225 153.68 178.88C154.44 179.635 155.468 180.06 156.54 180.06" fill="#E2E2E2"/>
<path d="M94.1001 213.22C95.0244 213.217 95.9192 212.894 96.6322 212.306C97.3453 211.718 97.8326 210.901 98.0114 209.994C98.1902 209.087 98.0493 208.146 97.6128 207.331C97.1763 206.516 96.4711 205.878 95.6171 205.524C94.7631 205.171 93.8129 205.124 92.9282 205.392C92.0435 205.659 91.2788 206.225 90.7642 206.993C90.2496 207.761 90.0167 208.683 90.1053 209.603C90.1939 210.523 90.5984 211.384 91.2501 212.04C92.0084 212.792 93.0321 213.216 94.1001 213.22" fill="#E2E2E2"/>
<path d="M135.72 213.22C136.79 213.22 137.817 212.795 138.573 212.038C139.33 211.281 139.755 210.255 139.755 209.185C139.755 208.115 139.33 207.089 138.573 206.332C137.817 205.575 136.79 205.15 135.72 205.15C134.65 205.15 133.624 205.575 132.867 206.332C132.11 207.089 131.685 208.115 131.685 209.185C131.685 210.255 132.11 211.281 132.867 212.038C133.624 212.795 134.65 213.22 135.72 213.22Z" fill="#E2E2E2"/>
<path d="M114.9 213.22C115.97 213.22 116.996 212.795 117.753 212.038C118.51 211.281 118.935 210.255 118.935 209.185C118.935 208.115 118.51 207.089 117.753 206.332C116.996 205.575 115.97 205.15 114.9 205.15C113.83 205.15 112.804 205.575 112.047 206.332C111.29 207.089 110.865 208.115 110.865 209.185C110.865 210.255 111.29 211.281 112.047 212.038C112.804 212.795 113.83 213.22 114.9 213.22Z" fill="#E2E2E2"/>
<path d="M156.54 213.22C157.464 213.215 158.357 212.89 159.069 212.3C159.78 211.711 160.266 210.893 160.443 209.986C160.62 209.08 160.477 208.139 160.04 207.326C159.602 206.512 158.897 205.875 158.042 205.522C157.188 205.17 156.239 205.124 155.355 205.393C154.471 205.661 153.707 206.227 153.193 206.995C152.679 207.763 152.447 208.685 152.535 209.605C152.624 210.524 153.029 211.385 153.68 212.04C154.44 212.795 155.468 213.22 156.54 213.22" fill="#E2E2E2"/>
<path d="M94.1001 229.8C95.0244 229.797 95.9192 229.474 96.6322 228.886C97.3453 228.298 97.8326 227.481 98.0114 226.574C98.1902 225.667 98.0493 224.726 97.6128 223.911C97.1763 223.096 96.4711 222.458 95.6171 222.104C94.7631 221.751 93.8129 221.704 92.9282 221.972C92.0435 222.239 91.2788 222.805 90.7642 223.573C90.2496 224.341 90.0167 225.263 90.1053 226.183C90.1939 227.103 90.5984 227.964 91.2501 228.62C92.0084 229.372 93.0321 229.796 94.1001 229.8" fill="#E2E2E2"/>
<path d="M135.72 229.8C136.79 229.8 137.817 229.375 138.573 228.618C139.33 227.861 139.755 226.835 139.755 225.765C139.755 224.695 139.33 223.669 138.573 222.912C137.817 222.155 136.79 221.73 135.72 221.73C134.65 221.73 133.624 222.155 132.867 222.912C132.11 223.669 131.685 224.695 131.685 225.765C131.685 226.835 132.11 227.861 132.867 228.618C133.624 229.375 134.65 229.8 135.72 229.8Z" fill="#E2E2E2"/>
<path d="M114.9 229.8C115.97 229.8 116.996 229.375 117.753 228.618C118.51 227.861 118.935 226.835 118.935 225.765C118.935 224.695 118.51 223.669 117.753 222.912C116.996 222.155 115.97 221.73 114.9 221.73C113.83 221.73 112.804 222.155 112.047 222.912C111.29 223.669 110.865 224.695 110.865 225.765C110.865 226.835 111.29 227.861 112.047 228.618C112.804 229.375 113.83 229.8 114.9 229.8Z" fill="#E2E2E2"/>
<path d="M156.54 229.8C157.464 229.795 158.357 229.47 159.069 228.88C159.78 228.291 160.266 227.473 160.443 226.566C160.62 225.66 160.477 224.719 160.04 223.906C159.602 223.092 158.897 222.455 158.042 222.102C157.188 221.75 156.239 221.704 155.355 221.973C154.471 222.241 153.707 222.807 153.193 223.575C152.679 224.343 152.447 225.265 152.535 226.185C152.624 227.104 153.029 227.965 153.68 228.62C154.44 229.375 155.468 229.8 156.54 229.8" fill="#E2E2E2"/>
<path d="M94.1001 246.38C95.0244 246.377 95.9192 246.054 96.6322 245.466C97.3453 244.877 97.8326 244.061 98.0114 243.154C98.1902 242.247 98.0493 241.306 97.6128 240.491C97.1763 239.676 96.4711 239.038 95.6171 238.684C94.7631 238.331 93.8129 238.284 92.9282 238.552C92.0435 238.819 91.2788 239.385 90.7642 240.153C90.2496 240.921 90.0167 241.843 90.1053 242.763C90.1939 243.683 90.5984 244.544 91.2501 245.2C92.0084 245.952 93.0321 246.376 94.1001 246.38" fill="#E2E2E2"/>
<path d="M135.72 246.38C136.79 246.38 137.817 245.955 138.573 245.198C139.33 244.442 139.755 243.415 139.755 242.345C139.755 241.275 139.33 240.249 138.573 239.492C137.817 238.735 136.79 238.31 135.72 238.31C134.65 238.31 133.624 238.735 132.867 239.492C132.11 240.249 131.685 241.275 131.685 242.345C131.685 243.415 132.11 244.442 132.867 245.198C133.624 245.955 134.65 246.38 135.72 246.38Z" fill="#E2E2E2"/>
<path d="M114.9 246.38C115.97 246.38 116.996 245.955 117.753 245.198C118.51 244.442 118.935 243.415 118.935 242.345C118.935 241.275 118.51 240.249 117.753 239.492C116.996 238.735 115.97 238.31 114.9 238.31C113.83 238.31 112.804 238.735 112.047 239.492C111.29 240.249 110.865 241.275 110.865 242.345C110.865 243.415 111.29 244.442 112.047 245.198C112.804 245.955 113.83 246.38 114.9 246.38Z" fill="#E2E2E2"/>
<path d="M156.54 246.38C157.608 246.377 158.632 245.953 159.39 245.2C160.142 244.437 160.565 243.411 160.57 242.34C160.57 241.27 160.145 240.243 159.388 239.487C158.631 238.73 157.605 238.305 156.535 238.305C155.465 238.305 154.439 238.73 153.682 239.487C152.925 240.243 152.5 241.27 152.5 242.34C152.5 243.401 152.921 244.418 153.672 245.168C154.422 245.919 155.439 246.34 156.5 246.34" fill="#E2E2E2"/>
</svg>
