<svg width="1440" height="900" viewBox="0 0 1440 900" fill="none" xmlns="http://www.w3.org/2000/svg">
<rect x="362" width="1078" height="900" fill="white" fill-opacity="0.67"/>
<rect width="362" height="900" fill="white" fill-opacity="0.35"/>
<circle cx="34" cy="22" r="7" fill="#EB5757"/>
<circle cx="56" cy="22" r="7" fill="#F2C94C"/>
<circle cx="78" cy="22" r="7" fill="#6FCF97"/>
<rect x="38" y="258" width="286" height="45" rx="5" fill="white" fill-opacity="0.37"/>
<path d="M51.3252 278.055C51.3252 282.001 54.5332 285.209 58.4795 285.209C59.9473 285.209 61.292 284.761 62.417 283.996L66.46 288.039C66.7061 288.294 67.0488 288.408 67.3916 288.408C68.1387 288.408 68.6748 287.846 68.6748 287.116C68.6748 286.765 68.5518 286.439 68.3145 286.193L64.2979 282.168C65.1328 281.017 65.6338 279.593 65.6338 278.055C65.6338 274.108 62.4258 270.9 58.4795 270.9C54.5332 270.9 51.3252 274.108 51.3252 278.055ZM53.1885 278.055C53.1885 275.137 55.5527 272.764 58.4795 272.764C61.3975 272.764 63.7705 275.137 63.7705 278.055C63.7705 280.973 61.3975 283.346 58.4795 283.346C55.5527 283.346 53.1885 280.973 53.1885 278.055Z" fill="#1C1C1E"/>
<path d="M88.7031 286.211C91.709 286.211 93.5371 284.743 93.5371 282.432V282.423C93.5371 280.463 92.4121 279.399 89.793 278.846L88.4043 278.556C86.8223 278.213 86.1016 277.633 86.1016 276.684V276.675C86.1016 275.567 87.1035 274.82 88.6768 274.812C90.1797 274.812 91.1992 275.523 91.375 276.701L91.3838 276.824H93.2998L93.291 276.675C93.1592 274.548 91.3486 273.106 88.7031 273.106C86.0225 273.106 84.1152 274.592 84.1064 276.754V276.763C84.1064 278.644 85.3105 279.786 87.7979 280.313L89.1777 280.604C90.8564 280.973 91.5508 281.526 91.5508 282.546V282.555C91.5508 283.741 90.4785 284.506 88.7822 284.506C87.0859 284.506 85.917 283.776 85.7412 282.607L85.7236 282.493H83.8076L83.8164 282.625C83.9746 284.857 85.8555 286.211 88.7031 286.211ZM99.0303 286.185C101.271 286.185 102.695 284.849 102.994 283.381L103.012 283.284H101.21L101.184 283.354C100.946 284.049 100.199 284.629 99.0742 284.629C97.5625 284.629 96.6045 283.609 96.5693 281.86H103.117V281.219C103.117 278.441 101.526 276.578 98.9336 276.578C96.3408 276.578 94.6709 278.512 94.6709 281.403V281.412C94.6709 284.33 96.3145 286.185 99.0303 286.185ZM98.9424 278.134C100.182 278.134 101.078 278.916 101.236 280.516H96.5957C96.7627 278.969 97.7119 278.134 98.9424 278.134ZM107.31 286.167C108.531 286.167 109.604 285.534 110.14 284.541H110.175V286H112.082V279.628C112.082 277.773 110.649 276.578 108.391 276.578C106.114 276.578 104.734 277.8 104.603 279.391L104.594 279.487H106.387L106.404 279.408C106.562 278.67 107.239 278.151 108.338 278.151C109.516 278.151 110.175 278.767 110.175 279.786V280.48L107.661 280.63C105.473 280.762 104.225 281.746 104.225 283.354V283.372C104.225 285.033 105.464 286.167 107.31 286.167ZM106.141 283.328V283.311C106.141 282.528 106.773 282.027 107.916 281.957L110.175 281.816V282.537C110.175 283.741 109.164 284.646 107.828 284.646C106.809 284.646 106.141 284.137 106.141 283.328ZM113.928 286H115.826V280.489C115.826 279.109 116.582 278.31 117.804 278.31C118.173 278.31 118.507 278.354 118.656 278.415V276.648C118.507 276.622 118.27 276.578 117.997 276.578C116.942 276.578 116.169 277.255 115.87 278.336H115.826V276.754H113.928V286ZM123.402 286.185C125.626 286.185 127.173 284.761 127.375 282.906L127.384 282.845H125.556L125.547 282.915C125.318 283.917 124.571 284.594 123.402 284.594C121.935 284.594 120.959 283.407 120.959 281.386V281.377C120.959 279.399 121.917 278.169 123.394 278.169C124.633 278.169 125.336 278.934 125.538 279.839L125.556 279.909H127.366L127.357 279.848C127.199 278.107 125.758 276.578 123.376 276.578C120.739 276.578 119.017 278.433 119.017 281.359V281.368C119.017 284.33 120.704 286.185 123.402 286.185ZM128.799 286H130.697V280.647C130.697 279.206 131.567 278.204 132.877 278.204C134.213 278.204 134.986 279.118 134.986 280.647V286H136.885V280.287C136.885 278.055 135.584 276.578 133.606 276.578C132.227 276.578 131.233 277.202 130.741 278.274H130.697V273.317H128.799V286Z" fill="black"/>
<circle cx="181" cy="151" r="73" fill="white" fill-opacity="0.37"/>
<path d="M180.938 215.944C216.178 215.944 245.264 186.857 245.264 151.618C245.264 116.44 216.115 87.3531 180.876 87.3531C145.698 87.3531 116.673 116.44 116.673 151.618C116.673 186.857 145.76 215.944 180.938 215.944ZM180.938 149.442C171.864 149.442 164.53 141.798 164.53 131.543C164.53 122.034 171.864 114.078 180.938 114.078C189.95 114.078 197.284 122.034 197.284 131.543C197.284 141.798 189.95 149.504 180.938 149.442ZM152.473 183.998C149.551 183.998 148.184 182.072 148.184 179.461C148.184 172.5 158.501 154.539 180.938 154.539C203.312 154.539 213.629 172.5 213.629 179.461C213.629 182.072 212.262 183.998 209.403 183.998H152.473Z" fill="white" fill-opacity="0.75"/>
<rect x="411" y="28" width="56" height="40" rx="5" fill="white" fill-opacity="0.37"/>
<path d="M441.936 49.9482H447.965C449.397 49.9482 450.25 49.1045 450.25 47.6982V41.6426C450.25 40.2363 449.397 39.4014 447.965 39.4014H441.936C440.503 39.4014 439.659 40.2363 439.659 41.6426V47.6982C439.659 49.1045 440.503 49.9482 441.936 49.9482ZM429.974 49.834H435.871C437.269 49.834 438.112 49.0078 438.112 47.6279V41.7129C438.112 40.333 437.269 39.5156 435.871 39.5156H429.974C428.585 39.5156 427.75 40.3242 427.75 41.7129V47.6279C427.75 49.0166 428.585 49.834 429.974 49.834ZM442.103 48.2168C441.628 48.2168 441.391 47.9707 441.391 47.4873V41.8535C441.391 41.3701 441.628 41.1328 442.103 41.1328H447.798C448.281 41.1328 448.51 41.3701 448.51 41.8535V47.4873C448.51 47.9707 448.281 48.2168 447.798 48.2168H442.103ZM428.559 53.042C428.119 53.042 427.75 53.4199 427.75 53.8945C427.75 54.3516 428.119 54.7383 428.559 54.7383H430.94C431.283 55.582 432.109 56.1885 433.076 56.1885C434.043 56.1885 434.878 55.5908 435.212 54.7383H449.415C449.881 54.7383 450.25 54.3516 450.25 53.8945C450.25 53.4287 449.881 53.042 449.415 53.042H435.212C434.869 52.1982 434.043 51.6006 433.076 51.6006C432.109 51.6006 431.283 52.1982 430.94 53.042H428.559ZM433.076 54.9756C432.461 54.9756 431.995 54.4922 431.995 53.8945C431.995 53.2793 432.461 52.8047 433.076 52.8047C433.683 52.8047 434.157 53.2793 434.157 53.8945C434.157 54.4922 433.683 54.9756 433.076 54.9756Z" fill="#1C1C1E"/>
<rect x="38" y="360" width="286" height="45" rx="5" fill="white" fill-opacity="0.65"/>
<path d="M57.9912 391.76C62.9746 391.76 67.0879 387.646 67.0879 382.663C67.0879 377.688 62.9658 373.575 57.9824 373.575C53.0078 373.575 48.9033 377.688 48.9033 382.663C48.9033 387.646 53.0166 391.76 57.9912 391.76ZM52.2256 384.254L55.1963 380.439C55.4072 380.185 55.6182 380.07 55.8467 380.07C56.0225 380.07 56.1895 380.132 56.3828 380.229L60.1006 382.25L63.0537 380.677C63.6689 380.36 64.1787 380.958 63.7568 381.503L60.7686 385.326C60.5664 385.581 60.3467 385.704 60.1182 385.704C59.9424 385.704 59.7754 385.643 59.582 385.537L55.8643 383.516L52.9287 385.089C52.3311 385.396 51.7686 384.834 52.2256 384.254Z" fill="#1C1C1E"/>
<rect x="82" y="377" width="216" height="11" fill="#1C1C1E"/>
<path d="M64.3281 449.65C67.0703 449.65 69.2324 447.638 69.2324 445.124C69.2324 443.261 68.1689 441.6 66.4199 440.87C66.4287 436.889 63.5635 434.023 59.8809 434.023C57.543 434.023 55.7852 435.236 54.6865 436.827C52.4541 436.229 50.1074 437.891 50.0195 440.369C48.0068 440.729 46.7676 442.54 46.7676 444.737C46.7676 447.418 49.1055 449.65 52.1816 449.65H64.3281ZM54.8008 442.892C54.8008 440.94 56.3652 439.402 58.1494 439.332C58.2197 439.332 58.29 439.341 58.3516 439.341L57.8857 438.849C57.7891 438.761 57.7275 438.611 57.7275 438.453C57.7275 438.154 57.9648 437.891 58.2988 437.891C58.4658 437.891 58.6152 437.961 58.7207 438.075L60.2412 439.631C60.4609 439.842 60.4697 440.246 60.2412 440.466L58.7031 442.004C58.6064 442.101 58.4482 442.171 58.3076 442.171C57.9824 442.171 57.7363 441.934 57.7363 441.6C57.7363 441.459 57.7891 441.327 57.8682 441.23L58.5186 440.58C58.4395 440.58 58.3428 440.58 58.2461 440.58C57.0156 440.624 56.0488 441.652 56.0488 442.909C56.0488 444.236 57.1035 445.309 58.4307 445.309C59.7578 445.309 60.8125 444.236 60.8125 442.909C60.8125 442.575 61.0938 442.303 61.4365 442.303C61.7793 442.303 62.0605 442.575 62.0605 442.909C62.0605 444.922 60.4346 446.557 58.4307 446.557C56.418 446.557 54.8008 444.922 54.8008 442.892Z" fill="#1C1C1E" fill-opacity="0.75"/>
<rect x="82" y="437" width="216" height="11" fill="#1C1C1E" fill-opacity="0.75"/>
<rect x="82" y="497" width="216" height="11" fill="#1C1C1E" fill-opacity="0.75"/>
<path d="M57.9912 511.76C62.9746 511.76 67.0879 507.646 67.0879 502.663C67.0879 497.688 62.9658 493.575 57.9824 493.575C53.0078 493.575 48.9033 497.688 48.9033 502.663C48.9033 507.646 53.0166 511.76 57.9912 511.76ZM61.8672 502.663C61.8672 504.685 61.2871 506.645 60.2148 508.218C59.9775 508.569 59.5469 508.657 59.2217 508.438C58.8789 508.209 58.8174 507.778 59.0459 507.418C59.96 506.091 60.4609 504.395 60.4609 502.663C60.4609 500.923 59.9688 499.244 59.0459 497.917C58.8174 497.557 58.8789 497.126 59.2217 496.897C59.5557 496.669 59.9863 496.757 60.2148 497.108C61.2871 498.699 61.8672 500.659 61.8672 502.663ZM59.0459 502.663C59.0459 504.14 58.6152 505.572 57.8242 506.688C57.5957 507.022 57.1826 507.119 56.8486 506.891C56.5146 506.68 56.4355 506.231 56.6816 505.854C57.2881 504.992 57.6309 503.85 57.6309 502.663C57.6309 501.485 57.2881 500.343 56.6816 499.481C56.4355 499.104 56.5146 498.655 56.8486 498.444C57.1826 498.216 57.5957 498.304 57.8242 498.638C58.6152 499.745 59.0459 501.169 59.0459 502.663ZM56.2158 502.663C56.2158 503.604 55.9346 504.526 55.4512 505.168C55.2402 505.484 54.8096 505.563 54.4844 505.353C54.1328 505.115 54.0625 504.676 54.3262 504.289C54.625 503.867 54.8008 503.27 54.8008 502.663C54.8008 502.048 54.625 501.459 54.3262 501.046C54.0537 500.659 54.124 500.211 54.4844 499.974C54.8096 499.763 55.2314 499.851 55.4512 500.158C55.9346 500.835 56.2158 501.758 56.2158 502.663Z" fill="#1C1C1E" fill-opacity="0.75"/>
<g clip-path="url(#clip0_1_3)">
<path d="M44.8164 571.057H45.8799C46.5479 571.057 47.0576 570.538 47.0576 569.87V568.341C47.8662 568.394 48.833 568.446 49.8525 568.473V564.658C49.8525 563.111 50.1338 562.241 50.96 561.178L51.7334 560.193L51.8477 559.842C50.0635 559.868 49.0088 559.921 47.9541 559.982C47.5498 560 47.3916 559.824 47.4795 559.446C47.6729 558.576 48.0684 557.407 48.3408 556.915C48.5693 556.484 48.877 556.291 49.4219 556.221C49.958 556.142 51.083 556.098 53.043 556.08C53.2715 555.377 53.5615 554.823 54.0889 554.331C51.5313 554.349 49.9404 554.401 49.3516 554.472C48.1387 554.612 47.1895 555.263 46.6973 556.3C46.3984 556.95 45.8184 558.611 45.4932 560.193L44.7197 561.178C43.9023 562.25 43.6035 563.111 43.6123 564.658L43.6211 566.144V569.879C43.6211 570.547 44.1484 571.057 44.8164 571.057ZM52.3398 571.197H53.3945C54.0713 571.197 54.5898 570.679 54.5898 570.011V568.49C56.541 568.613 59.4326 568.71 61.7617 568.71C64.0908 568.71 66.9824 568.622 68.9424 568.49V570.011C68.9424 570.679 69.4609 571.197 70.1289 571.197H71.1924C71.8604 571.197 72.3789 570.679 72.3789 570.011V564.799C72.3789 563.243 72.0977 562.382 71.2715 561.318L70.4893 560.334C70.1641 558.761 69.584 557.1 69.2764 556.449C68.793 555.403 67.835 554.788 66.6221 554.621C65.9893 554.533 64.0996 554.489 61.7617 554.489C59.4238 554.489 57.543 554.542 56.9014 554.621C55.6885 554.771 54.7393 555.403 54.2471 556.449C53.9395 557.1 53.3594 558.761 53.0342 560.334L52.252 561.318C51.4346 562.382 51.1445 563.243 51.1445 564.799V570.011C51.1445 570.679 51.6631 571.197 52.3398 571.197ZM55.0117 559.525C55.2051 558.655 55.5918 557.495 55.8555 557.029C56.1104 556.563 56.4004 556.37 56.9541 556.3C57.5693 556.212 59.0811 556.159 61.7617 556.159C64.4512 556.159 65.9541 556.194 66.5781 556.3C67.1231 556.379 67.4043 556.563 67.668 557.029C67.9404 557.486 68.3096 558.655 68.5117 559.525C68.6084 559.903 68.4502 560.079 68.0459 560.062C66.7012 559.982 64.9873 559.895 61.7617 559.895C58.5361 559.895 56.8311 559.982 55.4775 560.062C55.082 560.079 54.9238 559.903 55.0117 559.525ZM47.0488 565.643C46.293 565.643 45.7217 565.062 45.7217 564.307C45.7217 563.551 46.293 562.979 47.0488 562.979C47.8047 562.979 48.3848 563.551 48.3848 564.307C48.3848 565.062 47.8047 565.643 47.0488 565.643ZM55.3193 566.249C54.4844 566.249 53.8516 565.616 53.8516 564.781C53.8516 563.938 54.4844 563.305 55.3193 563.305C56.1543 563.305 56.7959 563.938 56.7959 564.781C56.7959 565.616 56.1543 566.249 55.3193 566.249ZM68.2041 566.249C67.3691 566.249 66.7275 565.616 66.7275 564.781C66.7275 563.938 67.3691 563.305 68.2041 563.305C69.0391 563.305 69.6807 563.938 69.6807 564.781C69.6807 565.616 69.0391 566.249 68.2041 566.249ZM59.3887 565.88C58.7647 565.88 58.3252 565.44 58.3252 564.816C58.3252 564.192 58.7647 563.753 59.3887 563.753H64.1348C64.7676 563.753 65.207 564.192 65.207 564.816C65.207 565.44 64.7676 565.88 64.1348 565.88H59.3887Z" fill="#1C1C1E" fill-opacity="0.75"/>
</g>
<rect x="82" y="557" width="216" height="11" fill="#1C1C1E" fill-opacity="0.75"/>
<rect x="523" y="129" width="358" height="145" rx="15" fill="white" fill-opacity="0.35"/>
<rect x="544" y="151" width="316" height="21" fill="#1C1C1E"/>
<rect x="544" y="182" width="149" height="15" fill="#1C1C1E"/>
<rect x="544" y="209" width="280" height="7" fill="#1C1C1E" fill-opacity="0.75"/>
<rect x="544" y="228" width="224" height="7" fill="#1C1C1E" fill-opacity="0.75"/>
<rect x="544" y="245" width="257" height="7" fill="#1C1C1E" fill-opacity="0.75"/>
<rect x="523" y="314" width="358" height="145" rx="15" fill="white" fill-opacity="0.35"/>
<rect x="544" y="336" width="316" height="21" fill="#1C1C1E"/>
<rect x="544" y="367" width="149" height="15" fill="#1C1C1E"/>
<rect x="544" y="394" width="280" height="7" fill="#1C1C1E" fill-opacity="0.75"/>
<rect x="544" y="413" width="224" height="7" fill="#1C1C1E" fill-opacity="0.75"/>
<rect x="544" y="430" width="257" height="7" fill="#1C1C1E" fill-opacity="0.75"/>
<rect x="921" y="129" width="358" height="145" rx="15" fill="white" fill-opacity="0.35"/>
<rect x="942" y="151" width="316" height="21" fill="#1C1C1E"/>
<rect x="942" y="182" width="149" height="15" fill="#1C1C1E"/>
<rect x="942" y="209" width="280" height="7" fill="#1C1C1E" fill-opacity="0.75"/>
<rect x="942" y="228" width="224" height="7" fill="#1C1C1E" fill-opacity="0.75"/>
<rect x="942" y="245" width="257" height="7" fill="#1C1C1E" fill-opacity="0.75"/>
<rect x="921" y="314" width="358" height="145" rx="15" fill="white" fill-opacity="0.35"/>
<rect x="942" y="336" width="316" height="21" fill="#1C1C1E"/>
<rect x="942" y="367" width="149" height="15" fill="#1C1C1E"/>
<rect x="942" y="394" width="280" height="7" fill="#1C1C1E" fill-opacity="0.75"/>
<rect x="942" y="413" width="224" height="7" fill="#1C1C1E" fill-opacity="0.75"/>
<rect x="942" y="430" width="257" height="7" fill="#1C1C1E" fill-opacity="0.75"/>
<defs>
<clipPath id="clip0_1_3">
<rect width="28" height="28" fill="white" transform="translate(44 549)"/>
</clipPath>
</defs>
</svg>
