<svg width="390" height="844" viewBox="0 0 390 844" fill="none" xmlns="http://www.w3.org/2000/svg">
<path fill-rule="evenodd" clip-rule="evenodd" d="M111 0H0V844H390V0H279V18C279 26.2843 272.284 33 264 33H126C117.716 33 111 26.2843 111 18V0Z" fill="white" fill-opacity="0.35"/>
<path opacity="0.4" fill-rule="evenodd" clip-rule="evenodd" d="M346.667 18.3333H363.333C364.254 18.3333 365 19.0795 365 20V26C365 26.9205 364.254 27.6667 363.333 27.6667H346.667C345.746 27.6667 345 26.9205 345 26V20C345 19.0795 345.746 18.3333 346.667 18.3333ZM344 20C344 18.5272 345.194 17.3333 346.667 17.3333H363.333C364.806 17.3333 366 18.5272 366 20V26C366 27.4728 364.806 28.6667 363.333 28.6667H346.667C345.194 28.6667 344 27.4728 344 26V20ZM368.328 23C368.328 23.8731 367.805 24.6612 367 25V21C367.805 21.3388 368.328 22.1269 368.328 23Z" fill="#1C1C1E"/>
<rect x="346" y="19.3333" width="18" height="7.33333" rx="1.33333" fill="#1C1C1E"/>
<path fill-rule="evenodd" clip-rule="evenodd" d="M331.33 19.608C333.546 19.6081 335.677 20.4595 337.283 21.9863C337.404 22.1042 337.598 22.1027 337.717 21.983L338.873 20.8163C338.933 20.7556 338.967 20.6734 338.966 20.5878C338.966 20.5022 338.931 20.4203 338.87 20.3603C334.655 16.3208 328.005 16.3208 323.79 20.3603C323.729 20.4203 323.694 20.5021 323.694 20.5877C323.693 20.6733 323.727 20.7556 323.787 20.8163L324.943 21.983C325.062 22.1029 325.256 22.1044 325.377 21.9863C326.983 20.4594 329.114 19.608 331.33 19.608ZM331.33 23.4037C332.548 23.4036 333.722 23.8561 334.624 24.6733C334.746 24.7893 334.939 24.7868 335.058 24.6677L336.212 23.501C336.273 23.4398 336.307 23.3568 336.306 23.2705C336.305 23.1843 336.27 23.1019 336.208 23.042C333.459 20.4856 329.204 20.4856 326.455 23.042C326.393 23.1019 326.358 23.1843 326.357 23.2706C326.356 23.3569 326.39 23.4399 326.451 23.501L327.605 24.6677C327.724 24.7868 327.917 24.7893 328.039 24.6733C328.941 23.8567 330.114 23.4042 331.33 23.4037ZM333.643 25.9575C333.645 26.044 333.611 26.1274 333.549 26.188L331.552 28.2037C331.493 28.2629 331.414 28.2962 331.33 28.2962C331.247 28.2962 331.167 28.2629 331.109 28.2037L329.111 26.188C329.049 26.1273 329.015 26.0439 329.017 25.9574C329.019 25.8709 329.056 25.789 329.121 25.731C330.396 24.6521 332.264 24.6521 333.54 25.731C333.604 25.789 333.642 25.871 333.643 25.9575Z" fill="#1C1C1E"/>
<path fill-rule="evenodd" clip-rule="evenodd" d="M317.667 17.6667H316.667C316.114 17.6667 315.667 18.1144 315.667 18.6667V27.3333C315.667 27.8856 316.114 28.3333 316.667 28.3333H317.667C318.219 28.3333 318.667 27.8856 318.667 27.3333V18.6667C318.667 18.1144 318.219 17.6667 317.667 17.6667ZM312 20H313C313.552 20 314 20.4477 314 21V27.3333C314 27.8856 313.552 28.3333 313 28.3333H312C311.448 28.3333 311 27.8856 311 27.3333V21C311 20.4477 311.448 20 312 20ZM308.333 22.3333H307.333C306.781 22.3333 306.333 22.7811 306.333 23.3333V27.3333C306.333 27.8856 306.781 28.3333 307.333 28.3333H308.333C308.886 28.3333 309.333 27.8856 309.333 27.3333V23.3333C309.333 22.7811 308.886 22.3333 308.333 22.3333ZM303.667 24.3333H302.667C302.114 24.3333 301.667 24.7811 301.667 25.3333V27.3333C301.667 27.8856 302.114 28.3333 302.667 28.3333H303.667C304.219 28.3333 304.667 27.8856 304.667 27.3333V25.3333C304.667 24.7811 304.219 24.3333 303.667 24.3333Z" fill="#1C1C1E"/>
<path d="M45.9337 18.8896C43.794 18.8896 42.2696 20.3525 42.2696 22.3555V22.3691C42.2696 24.2422 43.5958 25.623 45.4893 25.623C46.8429 25.623 47.7042 24.9326 48.0665 24.1533H48.2032C48.2032 24.2285 48.1964 24.3037 48.1964 24.3789C48.1212 26.2656 47.4581 27.7969 45.8927 27.7969C45.0245 27.7969 44.4161 27.3457 44.1563 26.6553L44.1358 26.5869H42.3995L42.4132 26.6621C42.7276 28.1729 44.0811 29.2461 45.8927 29.2461C48.3741 29.2461 49.8712 27.2773 49.8712 23.9551V23.9414C49.8712 20.3867 48.0391 18.8896 45.9337 18.8896ZM45.9268 24.2695C44.8057 24.2695 43.9923 23.4492 43.9923 22.3076V22.2939C43.9923 21.1934 44.8604 20.3252 45.9473 20.3252C47.0411 20.3252 47.8956 21.207 47.8956 22.335V22.3486C47.8956 23.4629 47.0411 24.2695 45.9268 24.2695ZM52.6947 22.6084C53.3236 22.6084 53.7816 22.1299 53.7816 21.5283C53.7816 20.9199 53.3236 20.4482 52.6947 20.4482C52.0726 20.4482 51.6078 20.9199 51.6078 21.5283C51.6078 22.1299 52.0726 22.6084 52.6947 22.6084ZM52.6947 27.6807C53.3236 27.6807 53.7816 27.209 53.7816 26.6006C53.7816 25.9922 53.3236 25.5205 52.6947 25.5205C52.0726 25.5205 51.6078 25.9922 51.6078 26.6006C51.6078 27.209 52.0726 27.6807 52.6947 27.6807ZM60.3034 29H61.9918V27.1064H63.318V25.6504H61.9918V19.1357H59.4967C58.1569 21.1729 56.7555 23.4424 55.4772 25.6641V27.1064H60.3034V29ZM57.1178 25.6914V25.5889C58.0748 23.9141 59.2164 22.0889 60.2282 20.5439H60.3307V25.6914H57.1178ZM67.1259 29H68.8896V19.1357H67.1327L64.5556 20.9473V22.6084L67.0097 20.8721H67.1259V29Z" fill="#1C1C1E"/>
<rect x="97" y="824" width="197" height="7" rx="3.5" fill="#1C1C1E"/>
<rect x="17" y="122" width="358" height="145" rx="15" fill="white" fill-opacity="0.35"/>
<rect x="38" y="144" width="316" height="21" fill="#1C1C1E" fill-opacity="0.45"/>
<rect x="38" y="175" width="149" height="15" fill="#1C1C1E" fill-opacity="0.45"/>
<rect x="38" y="202" width="280" height="7" fill="#1C1C1E" fill-opacity="0.25"/>
<rect x="38" y="221" width="224" height="7" fill="#1C1C1E" fill-opacity="0.25"/>
<rect x="38" y="238" width="257" height="7" fill="#1C1C1E" fill-opacity="0.25"/>
<rect x="17" y="298" width="358" height="145" rx="15" fill="white" fill-opacity="0.35"/>
<rect x="38" y="320" width="316" height="21" fill="#1C1C1E" fill-opacity="0.45"/>
<rect x="38" y="351" width="149" height="15" fill="#1C1C1E" fill-opacity="0.45"/>
<rect x="38" y="378" width="280" height="7" fill="#1C1C1E" fill-opacity="0.25"/>
<rect x="38" y="397" width="224" height="7" fill="#1C1C1E" fill-opacity="0.25"/>
<rect x="38" y="414" width="257" height="7" fill="#1C1C1E" fill-opacity="0.25"/>
<rect x="17" y="474" width="358" height="145" rx="15" fill="white" fill-opacity="0.35"/>
<rect x="38" y="496" width="316" height="21" fill="#1C1C1E" fill-opacity="0.45"/>
<rect x="38" y="527" width="149" height="15" fill="#1C1C1E" fill-opacity="0.45"/>
<rect x="38" y="554" width="280" height="7" fill="#1C1C1E" fill-opacity="0.25"/>
<rect x="38" y="573" width="224" height="7" fill="#1C1C1E" fill-opacity="0.25"/>
<rect x="38" y="590" width="257" height="7" fill="#1C1C1E" fill-opacity="0.25"/>
<rect x="17" y="650" width="358" height="145" rx="15" fill="white" fill-opacity="0.35"/>
<rect x="38" y="672" width="316" height="21" fill="#1C1C1E" fill-opacity="0.45"/>
<rect x="38" y="703" width="149" height="15" fill="#1C1C1E" fill-opacity="0.45"/>
<rect x="38" y="730" width="280" height="7" fill="#1C1C1E" fill-opacity="0.25"/>
<rect x="38" y="749" width="224" height="7" fill="#1C1C1E" fill-opacity="0.25"/>
<rect x="38" y="766" width="257" height="7" fill="#1C1C1E" fill-opacity="0.25"/>
<rect x="20" y="58" width="316" height="21" fill="#1C1C1E" fill-opacity="0.45"/>
<rect x="20" y="85" width="167" height="13" fill="#1C1C1E" fill-opacity="0.25"/>
</svg>
