<svg width="47" height="41" viewBox="0 0 47 41" fill="none" xmlns="http://www.w3.org/2000/svg">
<path fill-rule="evenodd" clip-rule="evenodd" d="M1.86983 2.85957L16 12.5276V16H14V20H0V8C0 6.04283 0.702814 4.24982 1.86983 2.85957ZM3.37898 1.4688C4.68408 0.543724 6.27854 0 8 0H23V16H18V11.4727L3.37898 1.4688ZM25 0V16H29V11.4727L43.621 1.4688C42.3159 0.543724 40.7215 0 39 0H25ZM45.1302 2.85957L31 12.5276V16H33V20H47V8C47 6.04284 46.2972 4.24982 45.1302 2.85957ZM47 22H33V26H31V29.4724L44.5611 38.751C46.065 37.2965 47 35.2575 47 33V22ZM42.8587 40.0096L29 30.5273V26H25V41H39C40.3992 41 41.7145 40.6408 42.8587 40.0096ZM23 41V26H18V30.5273L4.14132 40.0096C5.28553 40.6408 6.60082 41 8 41H23ZM2.43893 38.751L16 29.4724V26H14V22H0V33C0 35.2575 0.935027 37.2965 2.43893 38.751ZM31 18H16V24H31V18Z" fill="url(#paint0_linear_31_430)"/>
<defs>
<linearGradient id="paint0_linear_31_430" x1="-2" y1="43" x2="43.5" y2="3" gradientUnits="userSpaceOnUse">
<stop stop-color="#D6993C"/>
<stop offset="1" stop-color="#F1E9A1"/>
</linearGradient>
</defs>
</svg>
