<?xml version="1.0" encoding="UTF-8"?>
<svg width="78px" height="40px" viewBox="0 0 78 40" version="1.1" xmlns="http://www.w3.org/2000/svg" xmlns:xlink="http://www.w3.org/1999/xlink">
    <!-- Generator: Sketch 53.2 (72643) - https://sketchapp.com -->
    <title>logo_ETE_black_EL</title>
    <desc>Created with Sketch.</desc>
    <g id="Page-1" stroke="none" stroke-width="1" fill="none" fill-rule="evenodd">
        <g id="Artboard" transform="translate(-448.000000, -1086.000000)">
            <g id="logo_ETE_black_EL" transform="translate(448.000000, 1086.000000)">
                <path d="M4.1,38.17 L3.77,39.22 L0,39.22 L0,39.09 C0.23,39.09 0.39,39.05 0.49,38.98 C0.59,38.9 0.64,38.75 0.64,38.53 L0.64,35.63 C0.64,35.41 0.59,35.26 0.5,35.18 C0.4,35.1 0.24,35.06 0,35.06 L0,34.92 L3.68,34.92 L3.73,35.88 L3.6,35.88 C3.56,35.61 3.47,35.43 3.34,35.33 C3.2,35.23 3,35.18 2.72,35.18 L1.49,35.18 C1.38,35.18 1.32,35.24 1.32,35.36 L1.32,36.63 C1.32,36.71 1.33,36.77 1.35,36.8 C1.37,36.83 1.41,36.84 1.49,36.84 L2.38,36.84 C2.65,36.84 2.85,36.81 2.96,36.74 C3.13,36.65 3.21,36.48 3.21,36.23 L3.34,36.23 L3.34,37.72 L3.21,37.72 C3.21,37.36 3.06,37.15 2.77,37.11 L2.38,37.09 L1.52,37.09 C1.39,37.09 1.32,37.13 1.32,37.21 L1.32,38.57 C1.32,38.7 1.34,38.8 1.37,38.85 C1.42,38.92 1.5,38.96 1.62,38.96 L2.63,38.96 C2.99,38.96 3.26,38.9 3.46,38.77 C3.65,38.65 3.82,38.43 3.98,38.11 L4.1,38.17 Z M10.5,37.08 C10.5,37.73 10.29,38.27 9.87,38.69 C9.45,39.11 8.92,39.32 8.26,39.32 C7.61,39.32 7.08,39.11 6.66,38.69 C6.25,38.27 6.04,37.73 6.04,37.08 C6.04,36.42 6.24,35.88 6.65,35.46 C7.06,35.04 7.6,34.83 8.26,34.83 C8.93,34.83 9.47,35.04 9.88,35.46 C10.29,35.87 10.5,36.41 10.5,37.08 Z M9.75,37.08 C9.75,36.54 9.64,36.09 9.42,35.72 C9.16,35.29 8.77,35.07 8.26,35.07 C7.76,35.07 7.38,35.29 7.11,35.73 C6.89,36.09 6.78,36.54 6.78,37.08 C6.78,37.6 6.89,38.05 7.11,38.42 C7.39,38.86 7.77,39.09 8.26,39.09 C8.76,39.09 9.14,38.87 9.41,38.43 C9.64,38.05 9.75,37.6 9.75,37.08 Z M9.26,37.72 L9.12,37.72 C9.1,37.54 9.07,37.43 9.02,37.38 C8.96,37.31 8.82,37.28 8.61,37.28 L7.86,37.28 C7.67,37.28 7.54,37.33 7.48,37.42 C7.44,37.5 7.41,37.6 7.41,37.72 L7.28,37.72 L7.28,36.37 L7.41,36.37 C7.43,36.56 7.48,36.69 7.58,36.74 C7.65,36.79 7.78,36.81 7.99,36.81 L8.54,36.81 C8.72,36.81 8.86,36.78 8.94,36.72 C9.04,36.66 9.1,36.54 9.12,36.37 L9.26,36.37 L9.26,37.72 Z M17.04,35.06 C16.66,35.06 16.46,35.16 16.43,35.36 L16.43,39.22 L16.29,39.22 L13.39,35.76 L13.39,38.51 C13.39,38.75 13.43,38.91 13.51,38.98 C13.59,39.06 13.76,39.09 14.01,39.09 L14.01,39.22 L12.47,39.22 L12.47,39.09 C12.83,39.09 13.03,38.99 13.08,38.8 L13.08,35.5 C12.94,35.24 12.73,35.09 12.47,35.06 L12.47,34.92 L13.57,34.92 L16.12,37.98 L16.12,35.65 C16.12,35.4 16.08,35.25 15.99,35.18 C15.92,35.13 15.76,35.09 15.5,35.06 L15.5,34.92 L17.04,34.92 L17.04,35.06 Z M20.84,39.22 L18.88,39.22 L18.88,39.09 C19.13,39.09 19.29,39.06 19.37,39 C19.47,38.92 19.51,38.76 19.51,38.52 L19.51,35.63 C19.51,35.41 19.46,35.26 19.36,35.17 C19.27,35.1 19.11,35.06 18.88,35.06 L18.88,34.92 L20.84,34.92 L20.84,35.06 C20.53,35.06 20.35,35.13 20.28,35.26 C20.23,35.36 20.2,35.49 20.2,35.63 L20.2,38.52 C20.2,38.74 20.25,38.89 20.35,38.97 C20.44,39.05 20.61,39.09 20.84,39.09 L20.84,39.22 Z M27.34,39.22 L25.33,39.22 L25.33,39.09 C25.4,39.09 25.51,39.08 25.65,39.06 C25.76,39.04 25.82,38.99 25.82,38.91 C25.82,38.86 25.79,38.8 25.73,38.74 C25.69,38.69 25.65,38.66 25.64,38.65 L24.3,37.26 L24.19,37.18 L24.06,37.17 L24.06,38.55 C24.06,38.75 24.12,38.89 24.22,38.97 C24.31,39.04 24.46,39.08 24.67,39.09 L24.67,39.22 L22.76,39.22 L22.76,39.09 C22.98,39.09 23.14,39.05 23.24,38.97 C23.34,38.89 23.39,38.75 23.39,38.53 L23.39,35.68 C23.39,35.44 23.35,35.27 23.26,35.19 C23.17,35.1 23.01,35.06 22.76,35.06 L22.76,34.92 L24.69,34.92 L24.69,35.06 C24.27,35.06 24.06,35.26 24.06,35.66 L24.06,36.99 C24.13,36.99 24.21,36.95 24.28,36.87 L25.35,35.81 C25.41,35.75 25.47,35.69 25.52,35.63 C25.54,35.61 25.56,35.58 25.58,35.56 C25.67,35.45 25.72,35.35 25.74,35.26 C25.74,35.18 25.68,35.12 25.56,35.09 C25.46,35.07 25.38,35.06 25.3,35.06 L25.3,34.92 L26.98,34.92 L26.98,35.06 C26.62,35.06 26.26,35.24 25.91,35.6 L24.74,36.79 L26.63,38.69 C26.75,38.81 26.85,38.9 26.95,38.96 C27.08,39.05 27.21,39.09 27.34,39.09 L27.34,39.22 Z M33.73,39.22 L31.78,39.22 L31.78,39.09 C32,39.09 32.17,39.05 32.26,38.97 C32.36,38.89 32.41,38.74 32.41,38.52 L32.41,37.34 C32.41,37.22 32.35,37.15 32.25,37.15 L30.41,37.15 C30.28,37.15 30.21,37.22 30.21,37.34 L30.21,38.52 C30.21,38.74 30.26,38.89 30.36,38.97 C30.46,39.05 30.63,39.09 30.85,39.09 L30.85,39.22 L28.91,39.22 L28.91,39.09 C29.13,39.09 29.29,39.05 29.39,38.97 C29.49,38.89 29.54,38.74 29.54,38.52 L29.54,35.63 C29.54,35.41 29.49,35.26 29.4,35.18 C29.3,35.1 29.14,35.06 28.91,35.06 L28.91,34.92 L30.85,34.92 L30.85,35.06 L30.56,35.09 C30.33,35.12 30.21,35.3 30.21,35.63 L30.21,36.7 C30.21,36.83 30.28,36.9 30.42,36.9 L32.25,36.9 C32.35,36.9 32.41,36.83 32.41,36.69 L32.41,35.63 C32.41,35.41 32.36,35.26 32.25,35.18 C32.18,35.14 32.03,35.1 31.78,35.06 L31.78,34.92 L33.73,34.92 L33.73,35.06 C33.4,35.06 33.21,35.14 33.14,35.3 C33.11,35.37 33.1,35.48 33.1,35.63 L33.1,38.52 C33.1,38.75 33.15,38.9 33.25,38.98 C33.33,39.06 33.49,39.09 33.73,39.09 L33.73,39.22 Z M41,36.04 L40.86,36.04 C40.86,35.78 40.8,35.58 40.68,35.44 C40.54,35.27 40.35,35.19 40.11,35.18 L39.58,35.18 C39.47,35.18 39.41,35.2 39.39,35.24 C39.38,35.27 39.37,35.32 39.37,35.37 L39.37,38.41 C39.37,38.69 39.41,38.87 39.49,38.96 C39.57,39.05 39.75,39.09 40.02,39.09 L40.02,39.22 L38.03,39.22 L38.03,39.09 C38.18,39.09 38.29,39.09 38.34,39.08 C38.49,39.05 38.6,38.97 38.64,38.84 C38.67,38.76 38.69,38.63 38.69,38.44 L38.69,35.37 C38.69,35.28 38.68,35.23 38.67,35.22 C38.65,35.2 38.6,35.19 38.53,35.18 L38.3,35.18 C37.94,35.18 37.69,35.22 37.54,35.32 C37.36,35.44 37.25,35.67 37.19,36.04 L37.07,36.04 L37.1,34.92 L41,34.92 L41,36.04 Z M46.18,36.05 C46.18,36.46 46.01,36.78 45.66,36.98 C45.39,37.15 45.03,37.24 44.58,37.25 L44.18,37.25 C44.1,37.25 44.06,37.29 44.06,37.38 L44.06,38.39 C44.06,38.67 44.1,38.85 44.17,38.94 C44.25,39.04 44.43,39.09 44.69,39.09 L44.69,39.22 L42.77,39.22 L42.77,39.09 C43.07,39.09 43.25,39.03 43.3,38.91 C43.35,38.79 43.38,38.62 43.38,38.39 L43.38,35.6 C43.38,35.38 43.33,35.24 43.23,35.17 C43.15,35.1 42.99,35.06 42.77,35.06 L42.77,34.92 L44.65,34.92 C45.08,34.92 45.43,35 45.69,35.16 C46.01,35.35 46.18,35.65 46.18,36.05 Z M45.46,36.08 C45.46,35.78 45.36,35.54 45.16,35.38 C44.96,35.23 44.71,35.15 44.4,35.15 C44.21,35.15 44.09,35.21 44.06,35.32 L44.06,36.83 C44.06,36.97 44.11,37.04 44.22,37.04 C44.57,37.04 44.86,36.97 45.07,36.83 C45.33,36.67 45.46,36.42 45.46,36.08 Z M52.77,39.22 L50.96,39.22 L50.96,39.09 C51.29,39.09 51.45,39 51.45,38.81 C51.45,38.78 51.44,38.75 51.43,38.7 C51.41,38.65 51.41,38.63 51.41,38.62 L51.04,37.8 L49.2,37.8 L48.9,38.49 C48.83,38.65 48.79,38.76 48.79,38.83 C48.79,38.88 48.81,38.92 48.85,38.98 C48.9,39.03 48.94,39.06 48.99,39.07 C49.07,39.09 49.18,39.09 49.3,39.09 L49.3,39.22 L47.89,39.22 L47.89,39.09 C48.08,39.09 48.23,39.01 48.34,38.85 C48.41,38.76 48.46,38.66 48.52,38.54 L50.29,34.85 L50.44,34.85 L52.15,38.61 C52.23,38.78 52.3,38.89 52.38,38.96 C52.47,39.05 52.6,39.09 52.77,39.09 L52.77,39.22 Z M50.95,37.56 L50.15,35.76 L49.3,37.56 L50.95,37.56 Z M59.08,39.22 L57.13,39.22 L57.13,39.09 C57.36,39.09 57.52,39.05 57.62,38.97 C57.72,38.89 57.77,38.74 57.77,38.52 L57.77,35.74 C57.77,35.53 57.72,35.38 57.63,35.29 C57.55,35.21 57.39,35.17 57.18,35.17 L56.18,35.17 C55.99,35.19 55.87,35.24 55.8,35.32 C55.74,35.4 55.71,35.54 55.71,35.74 L55.71,38.51 C55.71,38.74 55.76,38.89 55.86,38.98 C55.96,39.05 56.12,39.09 56.35,39.09 L56.35,39.22 L54.4,39.22 L54.4,39.09 C54.62,39.09 54.78,39.05 54.88,38.97 C54.98,38.89 55.03,38.74 55.03,38.52 L55.03,35.63 C55.03,35.41 54.99,35.26 54.89,35.18 C54.8,35.1 54.63,35.06 54.4,35.06 L54.4,34.92 L59.08,34.92 L59.08,35.06 C58.98,35.06 58.89,35.07 58.79,35.09 C58.56,35.12 58.45,35.29 58.45,35.63 L58.45,38.52 C58.45,38.76 58.5,38.91 58.59,38.98 C58.68,39.06 58.84,39.09 59.08,39.09 L59.08,39.22 Z M64.99,38.17 L64.66,39.22 L60.89,39.22 L60.89,39.09 C61.12,39.09 61.28,39.05 61.38,38.98 C61.48,38.9 61.53,38.75 61.53,38.53 L61.53,35.63 C61.53,35.41 61.48,35.26 61.38,35.18 C61.29,35.1 61.13,35.06 60.89,35.06 L60.89,34.92 L64.57,34.92 L64.62,35.88 L64.49,35.88 C64.45,35.61 64.36,35.43 64.23,35.33 C64.09,35.23 63.88,35.18 63.61,35.18 L62.38,35.18 C62.27,35.18 62.21,35.24 62.21,35.36 L62.21,36.63 C62.21,36.71 62.22,36.77 62.24,36.8 C62.25,36.83 62.3,36.84 62.38,36.84 L63.27,36.84 C63.54,36.84 63.74,36.81 63.85,36.74 C64.01,36.65 64.09,36.48 64.09,36.23 L64.23,36.23 L64.23,37.72 L64.09,37.72 C64.09,37.36 63.95,37.15 63.66,37.11 L63.27,37.09 L62.41,37.09 C62.28,37.09 62.21,37.13 62.21,37.21 L62.21,38.57 C62.21,38.7 62.23,38.8 62.26,38.85 C62.3,38.92 62.39,38.96 62.51,38.96 L63.52,38.96 C63.88,38.96 64.15,38.9 64.34,38.77 C64.54,38.65 64.71,38.43 64.87,38.11 L64.99,38.17 Z M70.98,38.03 L70.76,39.22 L66.77,39.22 L69.73,35.2 L68.38,35.2 C68,35.2 67.73,35.25 67.57,35.33 C67.35,35.46 67.22,35.7 67.18,36.05 L67.04,36.05 L67.13,34.92 L70.77,34.92 L67.8,38.96 L69.37,38.96 C69.8,38.96 70.12,38.91 70.32,38.8 C70.58,38.67 70.76,38.41 70.85,38.03 L70.98,38.03 Z M77.46,39.22 L75.66,39.22 L75.66,39.09 C75.98,39.09 76.15,39 76.15,38.81 C76.15,38.78 76.14,38.75 76.12,38.7 C76.11,38.65 76.1,38.63 76.1,38.62 L75.74,37.8 L73.9,37.8 L73.59,38.49 C73.52,38.65 73.49,38.76 73.49,38.83 C73.49,38.88 73.51,38.92 73.55,38.98 C73.59,39.03 73.64,39.06 73.68,39.07 C73.77,39.09 73.88,39.09 74,39.09 L74,39.22 L72.59,39.22 L72.59,39.09 C72.77,39.09 72.92,39.01 73.04,38.85 C73.1,38.76 73.16,38.66 73.22,38.54 L74.98,34.85 L75.13,34.85 L76.85,38.61 C76.92,38.78 77,38.89 77.07,38.96 C77.17,39.05 77.3,39.09 77.46,39.09 L77.46,39.22 Z M75.64,37.56 L74.85,35.76 L74,37.56 L75.64,37.56 Z" id="Shape" fill="#2B2A29" fill-rule="nonzero"></path>
                <path d="M38.72,30.85 C26.26,30.85 16.09,24 16.09,15.6 C16.09,7.2 26.26,0.35 38.72,0.35 C51.17,0.35 61.36,7.2 61.36,15.6 C61.36,24 51.17,30.85 38.72,30.85 Z" id="Path" fill="#FEFEFE"></path>
                <path d="M19.91,22.27 C27.09,29.84 38.68,31.12 48.46,28.25 C52.01,27.08 55.37,25.13 58.12,22.27 L19.91,22.27 Z" id="Path" fill="#007180"></path>
                <polygon id="Path" fill="#2B2A29" fill-rule="nonzero" points="38.82 15.12 39.43 15.12 39.43 13.2 38.82 13.2"></polygon>
                <polygon id="Path" fill="#2B2A29" fill-rule="nonzero" points="38.1 15.12 38.72 15.12 38.72 13.2 38.1 13.2"></polygon>
                <polygon id="Path" fill="#2B2A29" fill-rule="nonzero" points="38.14 13.05 39.52 13.05 39.52 12.67 38.14 12.67"></polygon>
                <path d="M37.66,21.26 L37.66,18.1 C37.74,17.16 38.35,17.05 38.77,17.02 C39.18,17.05 39.79,17.16 39.87,18.1 L39.87,21.26 L37.66,21.26 Z" id="Path" fill="#2B2A29"></path>
                <path d="M37.66,21.26 L37.66,18.1 C37.7,17.63 37.87,17.36 38.09,17.21 C38.3,17.06 38.56,17.03 38.77,17.02 L38.77,17.02 C38.97,17.03 39.23,17.06 39.45,17.21 C39.66,17.36 39.84,17.63 39.88,18.1 L39.88,21.26 L37.66,21.26 L37.66,21.26 Z M37.67,18.1 L37.67,21.25 L39.86,21.25 L39.86,18.1 C39.82,17.64 39.65,17.37 39.44,17.23 C39.23,17.08 38.97,17.04 38.77,17.03 C38.56,17.04 38.31,17.08 38.09,17.23 C37.88,17.37 37.71,17.64 37.67,18.1 Z" id="Shape" fill="#2B2A29" fill-rule="nonzero"></path>
                <polygon id="Path" fill="#2B2A29" fill-rule="nonzero" points="40.19 19.32 40.62 19.32 40.62 18.82 40.19 18.82"></polygon>
                <path d="M40.19,18.81 L40.62,18.81 L40.62,19.33 L40.18,19.33 L40.18,18.81 L40.19,18.81 Z M40.61,18.83 L40.19,18.83 L40.19,19.31 L40.61,19.31 L40.61,18.83 Z" id="Shape" fill="#2B2A29" fill-rule="nonzero"></path>
                <polygon id="Path" fill="#2B2A29" fill-rule="nonzero" points="36.97 19.32 37.4 19.32 37.4 18.82 36.97 18.82"></polygon>
                <path d="M37.39,18.83 L36.97,18.83 L36.97,19.31 L37.39,19.31 L37.39,18.83 Z M36.97,18.81 L37.41,18.81 L37.41,19.33 L36.96,19.33 L36.96,18.81 L36.97,18.81 Z" id="Shape" fill="#2B2A29" fill-rule="nonzero"></path>
                <polygon id="Path" fill="#2B2A29" fill-rule="nonzero" points="41.92 15.63 41.96 15.63 41.96 15.73 35.63 15.73 35.63 15.63"></polygon>
                <polygon id="Path" fill="#FEFEFE" fill-rule="nonzero" points="37.69 18.17 39.73 18.17 39.73 18.06 37.69 18.06"></polygon>
                <polygon id="Path" fill="#FEFEFE" fill-rule="nonzero" points="38.77 19.68 39.73 19.68 39.73 19.58 38.77 19.58"></polygon>
                <polygon id="Path" fill="#FEFEFE" fill-rule="nonzero" points="38.77 20.75 39.73 20.75 39.73 20.65 38.77 20.65"></polygon>
                <polygon id="Path" fill="#FEFEFE" fill-rule="nonzero" points="37.71 19.68 38.67 19.68 38.67 19.58 37.71 19.58"></polygon>
                <polygon id="Path" fill="#FEFEFE" fill-rule="nonzero" points="37.71 20.75 38.67 20.75 38.67 20.65 37.71 20.65"></polygon>
                <polygon id="Path" fill="#FEFEFE" fill-rule="nonzero" points="39.52 19 39.73 19 39.73 18.62 39.52 18.62"></polygon>
                <polygon id="Path" fill="#FEFEFE" fill-rule="nonzero" points="38.45 19 38.67 19 38.67 18.62 38.45 18.62"></polygon>
                <polygon id="Path" fill="#FEFEFE" fill-rule="nonzero" points="39.27 19 39.48 19 39.48 18.62 39.27 18.62"></polygon>
                <polygon id="Path" fill="#FEFEFE" fill-rule="nonzero" points="38.1 19 38.31 19 38.31 18.62 38.1 18.62"></polygon>
                <polygon id="Path" fill="#FEFEFE" fill-rule="nonzero" points="38.91 19 39.12 19 39.12 18.62 38.91 18.62"></polygon>
                <polygon id="Path" fill="#FEFEFE" fill-rule="nonzero" points="37.85 19 38.06 19 38.06 18.62 37.85 18.62"></polygon>
                <polygon id="Path" fill="#FEFEFE" fill-rule="nonzero" points="39.52 19.38 39.73 19.38 39.73 19.02 39.52 19.02"></polygon>
                <polygon id="Path" fill="#FEFEFE" fill-rule="nonzero" points="38.45 19.38 38.67 19.38 38.67 19.02 38.45 19.02"></polygon>
                <polygon id="Path" fill="#FEFEFE" fill-rule="nonzero" points="39.27 19.38 39.48 19.38 39.48 19.02 39.27 19.02"></polygon>
                <polygon id="Path" fill="#FEFEFE" fill-rule="nonzero" points="38.1 19.38 38.31 19.38 38.31 19.02 38.1 19.02"></polygon>
                <polygon id="Path" fill="#FEFEFE" fill-rule="nonzero" points="38.91 19.38 39.12 19.38 39.12 19.02 38.91 19.02"></polygon>
                <polygon id="Path" fill="#FEFEFE" fill-rule="nonzero" points="37.85 19.38 38.06 19.38 38.06 19.02 37.85 19.02"></polygon>
                <polygon id="Path" fill="#FEFEFE" fill-rule="nonzero" points="39.57 21.04 39.78 21.04 39.78 20.85 39.57 20.85"></polygon>
                <polygon id="Path" fill="#FEFEFE" fill-rule="nonzero" points="38.45 21.04 38.67 21.04 38.67 20.85 38.45 20.85"></polygon>
                <polygon id="Path" fill="#FEFEFE" fill-rule="nonzero" points="39.21 21.04 39.43 21.04 39.43 20.85 39.21 20.85"></polygon>
                <polygon id="Path" fill="#FEFEFE" fill-rule="nonzero" points="38.1 21.04 38.31 21.04 38.31 20.85 38.1 20.85"></polygon>
                <polygon id="Path" fill="#FEFEFE" fill-rule="nonzero" points="38.91 21.04 39.12 21.04 39.12 20.85 38.91 20.85"></polygon>
                <polygon id="Path" fill="#FEFEFE" fill-rule="nonzero" points="37.8 21.04 38.01 21.04 38.01 20.85 37.8 20.85"></polygon>
                <polygon id="Path" fill="#2B2A29" points="42.06 10.51 38.81 9.43 35.56 10.51"></polygon>
                <path d="M42.21,10.22 L41.9,10.53 L41.89,10.55 L41.86,10.54 L38.76,9.52 L35.67,10.54 L35.65,10.55 L35.63,10.53 L35.3,10.22 L35.25,10.16 L35.32,10.14 L38.75,9.03 L38.76,9.03 L38.77,9.03 L42.2,10.14 L42.27,10.16 L42.21,10.22 Z M41.86,10.44 L42.1,10.21 L38.76,9.13 L35.42,10.21 L35.67,10.44 L38.75,9.42 L38.76,9.42 L38.77,9.42 L41.86,10.44 Z" id="Shape" fill="#2B2A29" fill-rule="nonzero"></path>
                <path d="M42.19,10.07 L42.19,9.68 L41.95,9.99 L42.19,10.07 Z M42.24,9.62 L42.24,10.14 L42.21,10.13 L41.91,10.02 L41.87,10.01 L41.89,9.98 L42.2,9.6 L42.24,9.55 L42.24,9.62 Z" id="Shape" fill="#2B2A29" fill-rule="nonzero"></path>
                <path d="M35.4,10.1 L35.4,9.55 L35.44,9.6 L35.74,9.98 L35.76,10.01 L35.73,10.02 L35.43,10.13 L35.4,10.14 L35.4,10.1 Z M35.44,9.68 L35.44,10.07 L35.68,9.99 L35.44,9.68 Z" id="Shape" fill="#2B2A29" fill-rule="nonzero"></path>
                <path d="M38.79,8.56 L39.09,9.14 L39.12,9.2 L39.06,9.18 L38.77,9.08 L38.45,9.19 L38.39,9.21 L38.75,8.56 L38.77,8.52 L38.79,8.56 Z M39.02,9.11 L38.77,8.62 L38.49,9.12 L38.76,9.03 L38.77,9.03 L38.77,9.03 L39.02,9.11 Z" id="Shape" fill="#2B2A29" fill-rule="nonzero"></path>
                <polygon id="Path" fill="#FEFEFE" points="40.91 10.52 38.77 9.8 36.67 10.52"></polygon>
                <path d="M40.64,10.48 L38.77,9.84 L36.93,10.48 L40.64,10.48 Z M38.78,9.76 L40.92,10.48 L41.17,10.57 L36.41,10.57 L38.76,9.76 L38.77,9.75 L38.78,9.76 Z" id="Shape" fill="#2B2A29" fill-rule="nonzero"></path>
                <path d="M60.33,11.34 L60.22,11.59 L60.2,11.63 L60.16,11.61 L57.96,10.88 L55.75,11.61 L55.71,11.63 L55.58,11.34 L55.55,11.29 L55.61,11.27 L57.95,10.5 L57.96,10.5 L57.98,10.5 L60.3,11.27 L60.36,11.29 L60.33,11.34 Z M60.15,11.5 L60.22,11.35 L57.96,10.6 L55.69,11.35 L55.76,11.5 L57.95,10.78 L57.96,10.78 L57.98,10.78 L60.15,11.5 Z" id="Shape" fill="#2B2A29" fill-rule="nonzero"></path>
                <path d="M17.36,11.35 L17.43,11.5 L19.61,10.78 L19.62,10.78 L19.64,10.78 L21.82,11.5 L21.89,11.35 L19.62,10.6 L17.36,11.35 Z M17.36,11.59 L17.25,11.34 L17.23,11.29 L17.28,11.27 L19.61,10.5 L19.62,10.5 L19.64,10.5 L21.98,11.27 L22.03,11.29 L22.01,11.34 L21.88,11.63 L21.83,11.61 L19.62,10.88 L17.42,11.61 L17.38,11.63 L17.36,11.59 Z" id="Shape" fill="#2B2A29" fill-rule="nonzero"></path>
                <polygon id="Path" fill="#2B2A29" points="60.25 11.56 58.04 10.8 55.85 11.57"></polygon>
                <path d="M60.19,11.55 L58.04,10.81 L55.91,11.56 L60.19,11.55 Z M58.04,10.79 L60.25,11.55 L60.31,11.57 L60.25,11.57 L55.85,11.58 L55.79,11.58 L55.85,11.56 L58.04,10.79 L58.04,10.79 L58.04,10.79 Z" id="Shape" fill="#2B2A29" fill-rule="nonzero"></path>
                <polygon id="Path" fill="#2B2A29" points="17.49 11.56 19.7 10.8 21.89 11.57"></polygon>
                <path d="M17.48,11.55 L19.69,10.79 L19.7,10.79 L19.7,10.79 L21.89,11.56 L21.94,11.58 L21.89,11.58 L17.49,11.57 L17.43,11.57 L17.48,11.55 Z M19.7,10.81 L17.54,11.55 L21.83,11.56 L19.7,10.81 Z" id="Shape" fill="#2B2A29" fill-rule="nonzero"></path>
                <polygon id="Path" fill="#FEFEFE" points="59.58 11.53 58.04 10.98 56.5 11.53"></polygon>
                <path d="M59.52,11.52 L58.04,10.99 L56.56,11.52 L59.52,11.52 Z M58.04,10.97 L59.58,11.52 L59.63,11.54 L56.45,11.54 L56.5,11.52 L58.04,10.97 L58.04,10.97 L58.04,10.97 Z" id="Shape" fill="#2B2A29" fill-rule="nonzero"></path>
                <polygon id="Path" fill="#FEFEFE" points="18.11 11.53 19.65 10.98 21.18 11.53"></polygon>
                <path d="M18.11,11.52 L19.64,10.97 L19.65,10.97 L19.65,10.97 L21.19,11.52 L21.24,11.54 L18.06,11.54 L18.11,11.52 Z M19.65,10.99 L18.16,11.52 L21.13,11.52 L19.65,10.99 Z" id="Shape" fill="#2B2A29" fill-rule="nonzero"></path>
                <path d="M17.29,11.22 L17.29,10.63 L17.35,10.72 L17.65,11.09 L17.69,11.13 L17.64,11.15 L17.34,11.25 L17.29,11.27 L17.29,11.22 Z M17.36,10.85 L17.36,11.16 L17.56,11.1 L17.36,10.85 Z" id="Shape" fill="#2B2A29" fill-rule="nonzero"></path>
                <path d="M55.66,11.22 L55.66,10.63 L56.03,11.09 L56.06,11.13 L56.01,11.15 L55.71,11.25 L55.66,11.27 L55.66,11.22 Z M55.74,10.85 L55.74,11.16 L55.93,11.1 L55.74,10.85 Z" id="Shape" fill="#2B2A29" fill-rule="nonzero"></path>
                <path d="M21.95,11.16 L21.95,10.85 L21.75,11.1 L21.95,11.16 Z M22.03,10.74 L22.03,11.27 L21.97,11.25 L21.68,11.15 L21.62,11.13 L21.66,11.09 L22.03,10.63 L22.03,10.74 Z" id="Shape" fill="#2B2A29" fill-rule="nonzero"></path>
                <path d="M58.06,10.11 L58.38,10.71 L58.28,10.68 L58.02,10.58 L57.76,10.67 L57.66,10.7 L57.71,10.6 L57.98,10.11 L58.02,10.04 L58.06,10.11 Z M58.2,10.56 L58.02,10.22 L57.84,10.55 L58.01,10.5 L58.02,10.49 L58.03,10.5 L58.2,10.56 Z" id="Shape" fill="#2B2A29" fill-rule="nonzero"></path>
                <path d="M19.67,10.22 L19.49,10.56 L19.65,10.5 L19.66,10.49 L19.68,10.5 L19.85,10.55 L19.67,10.22 Z M19.35,10.61 L19.63,10.11 L19.66,10.04 L19.98,10.6 L20.03,10.7 L19.92,10.67 L19.67,10.58 L19.41,10.68 L19.3,10.71 L19.35,10.61 Z" id="Shape" fill="#2B2A29" fill-rule="nonzero"></path>
                <polygon id="Path" fill="#FEFEFE" fill-rule="nonzero" points="57.37 12.93 58.64 12.93 58.64 12.79 57.37 12.79"></polygon>
                <path d="M58.62,12.81 L57.39,12.81 L57.39,12.92 L58.62,12.92 L58.62,12.81 Z M57.37,12.77 L58.65,12.77 L58.65,12.95 L57.35,12.95 L57.35,12.77 L57.37,12.77 Z" id="Shape" fill="#2B2A29" fill-rule="nonzero"></path>
                <polygon id="Path" fill="#FEFEFE" fill-rule="nonzero" points="53.97 12.93 55.24 12.93 55.24 12.79 53.97 12.79"></polygon>
                <path d="M55.23,12.81 L53.99,12.81 L53.99,12.92 L55.23,12.92 L55.23,12.81 Z M53.97,12.77 L55.26,12.77 L55.26,12.95 L53.96,12.95 L53.96,12.77 L53.97,12.77 Z" id="Shape" fill="#2B2A29" fill-rule="nonzero"></path>
                <polygon id="Path" fill="#FEFEFE" fill-rule="nonzero" points="51.74 12.93 53.01 12.93 53.01 12.79 51.74 12.79"></polygon>
                <path d="M52.99,12.81 L51.76,12.81 L51.76,12.92 L52.99,12.92 L52.99,12.81 Z M51.74,12.77 L53.03,12.77 L53.03,12.95 L51.73,12.95 L51.73,12.77 L51.74,12.77 Z" id="Shape" fill="#2B2A29" fill-rule="nonzero"></path>
                <polygon id="Path" fill="#FEFEFE" fill-rule="nonzero" points="49.51 12.93 50.78 12.93 50.78 12.79 49.51 12.79"></polygon>
                <path d="M50.76,12.81 L49.53,12.81 L49.53,12.92 L50.76,12.92 L50.76,12.81 Z M49.51,12.77 L50.8,12.77 L50.8,12.95 L49.5,12.95 L49.5,12.77 L49.51,12.77 Z" id="Shape" fill="#2B2A29" fill-rule="nonzero"></path>
                <polygon id="Path" fill="#FEFEFE" fill-rule="nonzero" points="47.28 12.93 48.55 12.93 48.55 12.79 47.28 12.79"></polygon>
                <path d="M48.53,12.81 L47.3,12.81 L47.3,12.92 L48.53,12.92 L48.53,12.81 Z M47.28,12.77 L48.57,12.77 L48.57,12.95 L47.27,12.95 L47.27,12.77 L47.28,12.77 Z" id="Shape" fill="#2B2A29" fill-rule="nonzero"></path>
                <polygon id="Path" fill="#FEFEFE" fill-rule="nonzero" points="44.95 12.93 46.22 12.93 46.22 12.79 44.95 12.79"></polygon>
                <path d="M46.2,12.81 L44.97,12.81 L44.97,12.92 L46.2,12.92 L46.2,12.81 Z M44.95,12.77 L46.24,12.77 L46.24,12.95 L44.93,12.95 L44.93,12.77 L44.95,12.77 Z" id="Shape" fill="#2B2A29" fill-rule="nonzero"></path>
                <polygon id="Path" fill="#FEFEFE" fill-rule="nonzero" points="42.72 12.93 43.99 12.93 43.99 12.79 42.72 12.79"></polygon>
                <path d="M43.97,12.81 L42.74,12.81 L42.74,12.92 L43.97,12.92 L43.97,12.81 Z M42.72,12.77 L44,12.77 L44,12.95 L42.7,12.95 L42.7,12.77 L42.72,12.77 Z" id="Shape" fill="#2B2A29" fill-rule="nonzero"></path>
                <polygon id="Path" fill="#FEFEFE" fill-rule="nonzero" points="19.05 12.93 20.32 12.93 20.32 12.79 19.05 12.79"></polygon>
                <path d="M19.05,12.77 L20.33,12.77 L20.33,12.95 L19.03,12.95 L19.03,12.77 L19.05,12.77 Z M20.3,12.81 L19.06,12.81 L19.06,12.92 L20.3,12.92 L20.3,12.81 Z" id="Shape" fill="#2B2A29" fill-rule="nonzero"></path>
                <polygon id="Path" fill="#FEFEFE" fill-rule="nonzero" points="22.44 12.93 23.71 12.93 23.71 12.79 22.44 12.79"></polygon>
                <path d="M22.44,12.77 L23.73,12.77 L23.73,12.95 L22.43,12.95 L22.43,12.77 L22.44,12.77 Z M23.7,12.81 L22.46,12.81 L22.46,12.92 L23.7,12.92 L23.7,12.81 Z" id="Shape" fill="#2B2A29" fill-rule="nonzero"></path>
                <polygon id="Path" fill="#FEFEFE" fill-rule="nonzero" points="24.67 12.93 25.94 12.93 25.94 12.79 24.67 12.79"></polygon>
                <path d="M24.67,12.77 L25.96,12.77 L25.96,12.95 L24.66,12.95 L24.66,12.77 L24.67,12.77 Z M25.93,12.81 L24.69,12.81 L24.69,12.92 L25.93,12.92 L25.93,12.81 Z" id="Shape" fill="#2B2A29" fill-rule="nonzero"></path>
                <polygon id="Path" fill="#FEFEFE" fill-rule="nonzero" points="26.9 12.93 28.17 12.93 28.17 12.79 26.9 12.79"></polygon>
                <path d="M26.9,12.77 L28.19,12.77 L28.19,12.95 L26.89,12.95 L26.89,12.77 L26.9,12.77 Z M28.16,12.81 L26.92,12.81 L26.92,12.92 L28.16,12.92 L28.16,12.81 Z" id="Shape" fill="#2B2A29" fill-rule="nonzero"></path>
                <polygon id="Path" fill="#FEFEFE" fill-rule="nonzero" points="29.19 12.93 30.45 12.93 30.45 12.79 29.19 12.79"></polygon>
                <path d="M29.19,12.77 L30.47,12.77 L30.47,12.95 L29.17,12.95 L29.17,12.77 L29.19,12.77 Z M30.44,12.81 L29.2,12.81 L29.2,12.92 L30.44,12.92 L30.44,12.81 Z" id="Shape" fill="#2B2A29" fill-rule="nonzero"></path>
                <polygon id="Path" fill="#FEFEFE" fill-rule="nonzero" points="31.52 12.93 32.79 12.93 32.79 12.79 31.52 12.79"></polygon>
                <path d="M31.52,12.77 L32.8,12.77 L32.8,12.95 L31.5,12.95 L31.5,12.77 L31.52,12.77 Z M32.77,12.81 L31.53,12.81 L31.53,12.92 L32.77,12.92 L32.77,12.81 Z" id="Shape" fill="#2B2A29" fill-rule="nonzero"></path>
                <polygon id="Path" fill="#FEFEFE" fill-rule="nonzero" points="33.75 12.93 35.02 12.93 35.02 12.79 33.75 12.79"></polygon>
                <path d="M33.75,12.77 L35.03,12.77 L35.03,12.95 L33.73,12.95 L33.73,12.77 L33.75,12.77 Z M35,12.81 L33.76,12.81 L33.76,12.92 L35,12.92 L35,12.81 Z" id="Shape" fill="#2B2A29" fill-rule="nonzero"></path>
                <polygon id="Path" fill="#2B2A29" fill-rule="nonzero" points="59.37 15.61 59.73 15.61 59.73 11.88 59.37 11.88"></polygon>
                <polygon id="Path" fill="#2B2A29" fill-rule="nonzero" points="56.28 15.61 56.64 15.61 56.64 11.88 56.28 11.88"></polygon>
                <polygon id="Path" fill="#2B2A29" fill-rule="nonzero" points="17.96 15.61 18.31 15.61 18.31 11.88 17.96 11.88"></polygon>
                <polygon id="Path" fill="#2B2A29" fill-rule="nonzero" points="21.05 15.61 21.41 15.61 21.41 11.88 21.05 11.88"></polygon>
                <polygon id="Path" fill="#2B2A29" fill-rule="nonzero" points="41.9 15.7 60.21 15.7 60.21 15.56 41.9 15.56"></polygon>
                <polygon id="Path" fill="#2B2A29" fill-rule="nonzero" points="41.9 19.55 60.21 19.55 60.21 19.41 41.9 19.41"></polygon>
                <polygon id="Path" fill="#2B2A29" fill-rule="nonzero" points="17.43 15.7 35.74 15.7 35.74 15.56 17.43 15.56"></polygon>
                <polygon id="Path" fill="#2B2A29" fill-rule="nonzero" points="17.43 19.55 35.74 19.55 35.74 19.41 17.43 19.41"></polygon>
                <polygon id="Path" fill="#2B2A29" fill-rule="nonzero" points="41.9 12.03 60.21 12.03 60.21 11.73 41.9 11.73"></polygon>
                <polygon id="Path" fill="#2B2A29" fill-rule="nonzero" points="41.9 16.24 60.21 16.24 60.21 15.93 41.9 15.93"></polygon>
                <polygon id="Path" fill="#2B2A29" fill-rule="nonzero" points="41.9 20.09 60.21 20.09 60.21 19.79 41.9 19.79"></polygon>
                <polygon id="Path" fill="#2B2A29" fill-rule="nonzero" points="17.43 12.03 35.74 12.03 35.74 11.73 17.43 11.73"></polygon>
                <polygon id="Path" fill="#2B2A29" fill-rule="nonzero" points="17.43 16.24 35.74 16.24 35.74 15.93 17.43 15.93"></polygon>
                <polygon id="Path" fill="#2B2A29" fill-rule="nonzero" points="17.43 20.09 35.74 20.09 35.74 19.79 17.43 19.79"></polygon>
                <polygon id="Path" fill="#2B2A29" fill-rule="nonzero" points="41.9 21.01 56.86 21.01 56.86 20.91 41.9 20.91"></polygon>
                <polygon id="Path" fill="#2B2A29" fill-rule="nonzero" points="55.75 22.31 55.85 22.31 55.85 11.52 55.75 11.52"></polygon>
                <polygon id="Path" fill="#2B2A29" fill-rule="nonzero" points="59.16 16.75 60.26 16.75 60.26 16.65 59.16 16.65"></polygon>
                <polygon id="Path" fill="#2B2A29" fill-rule="nonzero" points="55.81 16.75 56.86 16.75 56.86 16.65 55.81 16.65"></polygon>
                <polygon id="Path" fill="#2B2A29" fill-rule="nonzero" points="59.16 17.2 60.26 17.2 60.26 17.1 59.16 17.1"></polygon>
                <polygon id="Path" fill="#2B2A29" fill-rule="nonzero" points="55.81 17.2 56.86 17.2 56.86 17.1 55.81 17.1"></polygon>
                <polygon id="Path" fill="#2B2A29" fill-rule="nonzero" points="59.16 17.71 60.26 17.71 60.26 17.61 59.16 17.61"></polygon>
                <polygon id="Path" fill="#2B2A29" fill-rule="nonzero" points="55.81 17.71 56.86 17.71 56.86 17.61 55.81 17.61"></polygon>
                <polygon id="Path" fill="#2B2A29" fill-rule="nonzero" points="59.16 18.22 60.26 18.22 60.26 18.12 59.16 18.12"></polygon>
                <polygon id="Path" fill="#2B2A29" fill-rule="nonzero" points="55.81 18.22 56.86 18.22 56.86 18.12 55.81 18.12"></polygon>
                <polygon id="Path" fill="#2B2A29" fill-rule="nonzero" points="59.16 18.67 60.26 18.67 60.26 18.57 59.16 18.57"></polygon>
                <polygon id="Path" fill="#2B2A29" fill-rule="nonzero" points="55.81 18.67 56.86 18.67 56.86 18.57 55.81 18.57"></polygon>
                <polygon id="Path" fill="#2B2A29" fill-rule="nonzero" points="59.16 19.23 60.26 19.23 60.26 19.13 59.16 19.13"></polygon>
                <polygon id="Path" fill="#2B2A29" fill-rule="nonzero" points="59.16 20.5 60.26 20.5 60.26 20.4 59.16 20.4"></polygon>
                <polygon id="Path" fill="#2B2A29" fill-rule="nonzero" points="59.06 21.01 59.75 21.01 59.75 20.91 59.06 20.91"></polygon>
                <polygon id="Path" fill="#2B2A29" fill-rule="nonzero" points="59.1 21.51 59.6 21.51 59.6 21.41 59.1 21.41"></polygon>
                <polygon id="Path" fill="#2B2A29" fill-rule="nonzero" points="55.81 19.23 56.86 19.23 56.86 19.13 55.81 19.13"></polygon>
                <polygon id="Path" fill="#2B2A29" fill-rule="nonzero" points="41.9 20.5 56.86 20.5 56.86 20.4 41.9 20.4"></polygon>
                <polygon id="Path" fill="#2B2A29" fill-rule="nonzero" points="41.9 21.51 56.86 21.51 56.86 21.41 41.9 21.41"></polygon>
                <polygon id="Path" fill="#2B2A29" fill-rule="nonzero" points="58.66 22.36 41.9 22.36 41.9 11.48 55.85 11.48 55.85 11.57 41.99 11.57 41.99 22.27 58.66 22.27"></polygon>
                <polygon id="Path" fill="#2B2A29" fill-rule="nonzero" points="20.82 21.01 35.78 21.01 35.78 20.91 20.82 20.91"></polygon>
                <polygon id="Path" fill="#2B2A29" fill-rule="nonzero" points="17.43 20.28 17.53 20.28 17.53 11.52 17.43 11.52"></polygon>
                <polygon id="Path" fill="#2B2A29" fill-rule="nonzero" points="21.79 22.31 21.89 22.31 21.89 11.52 21.79 11.52"></polygon>
                <polygon id="Path" fill="#2B2A29" fill-rule="nonzero" points="17.48 16.75 18.57 16.75 18.57 16.65 17.48 16.65"></polygon>
                <polygon id="Path" fill="#2B2A29" fill-rule="nonzero" points="20.82 16.75 21.88 16.75 21.88 16.65 20.82 16.65"></polygon>
                <polygon id="Path" fill="#2B2A29" fill-rule="nonzero" points="17.48 17.2 18.57 17.2 18.57 17.1 17.48 17.1"></polygon>
                <polygon id="Path" fill="#2B2A29" fill-rule="nonzero" points="20.82 17.2 21.88 17.2 21.88 17.1 20.82 17.1"></polygon>
                <polygon id="Path" fill="#2B2A29" fill-rule="nonzero" points="17.48 17.71 18.57 17.71 18.57 17.61 17.48 17.61"></polygon>
                <polygon id="Path" fill="#2B2A29" fill-rule="nonzero" points="20.82 17.71 21.88 17.71 21.88 17.61 20.82 17.61"></polygon>
                <polygon id="Path" fill="#2B2A29" fill-rule="nonzero" points="17.48 18.22 18.57 18.22 18.57 18.12 17.48 18.12"></polygon>
                <polygon id="Path" fill="#2B2A29" fill-rule="nonzero" points="20.82 18.22 21.88 18.22 21.88 18.12 20.82 18.12"></polygon>
                <polygon id="Path" fill="#2B2A29" fill-rule="nonzero" points="17.48 18.67 18.57 18.67 18.57 18.57 17.48 18.57"></polygon>
                <polygon id="Path" fill="#2B2A29" fill-rule="nonzero" points="20.82 18.67 21.88 18.67 21.88 18.57 20.82 18.57"></polygon>
                <polygon id="Path" fill="#2B2A29" fill-rule="nonzero" points="17.48 19.23 18.57 19.23 18.57 19.13 17.48 19.13"></polygon>
                <polygon id="Path" fill="#2B2A29" fill-rule="nonzero" points="17.48 20.5 18.57 20.5 18.57 20.4 17.48 20.4"></polygon>
                <polygon id="Path" fill="#2B2A29" fill-rule="nonzero" points="18.03 21.01 18.56 21.01 18.56 20.91 18.03 20.91"></polygon>
                <polygon id="Path" fill="#2B2A29" fill-rule="nonzero" points="18.13 21.51 18.48 21.51 18.48 21.41 18.13 21.41"></polygon>
                <polygon id="Path" fill="#2B2A29" fill-rule="nonzero" points="20.82 19.23 21.88 19.23 21.88 19.13 20.82 19.13"></polygon>
                <polygon id="Path" fill="#2B2A29" fill-rule="nonzero" points="20.82 20.5 35.78 20.5 35.78 20.4 20.82 20.4"></polygon>
                <polygon id="Path" fill="#2B2A29" fill-rule="nonzero" points="20.82 21.51 35.78 21.51 35.78 21.41 20.82 21.41"></polygon>
                <polygon id="Path" fill="#2B2A29" fill-rule="nonzero" points="19.86 22.22 35.74 22.22 35.74 11.52 21.88 11.52 21.88 11.43 35.83 11.43 35.83 22.31 19.86 22.31"></polygon>
                <polygon id="Path" fill="#2B2A29" fill-rule="nonzero" points="57.52 15.22 57.96 15.22 57.96 13.52 57.52 13.52"></polygon>
                <polygon id="Path" fill="#2B2A29" fill-rule="nonzero" points="54.13 15.22 54.56 15.22 54.56 13.52 54.13 13.52"></polygon>
                <polygon id="Path" fill="#2B2A29" fill-rule="nonzero" points="54.13 19.08 54.56 19.08 54.56 17.27 54.13 17.27"></polygon>
                <polygon id="Path" fill="#2B2A29" fill-rule="nonzero" points="51.9 19.08 52.33 19.08 52.33 17.27 51.9 17.27"></polygon>
                <polygon id="Path" fill="#2B2A29" fill-rule="nonzero" points="49.67 19.08 50.1 19.08 50.1 17.27 49.67 17.27"></polygon>
                <polygon id="Path" fill="#2B2A29" fill-rule="nonzero" points="47.38 19.08 47.82 19.08 47.82 17.27 47.38 17.27"></polygon>
                <polygon id="Path" fill="#2B2A29" fill-rule="nonzero" points="45.05 19.08 45.49 19.08 45.49 17.27 45.05 17.27"></polygon>
                <polygon id="Path" fill="#2B2A29" fill-rule="nonzero" points="42.82 19.08 43.26 19.08 43.26 17.27 42.82 17.27"></polygon>
                <polygon id="Path" fill="#2B2A29" fill-rule="nonzero" points="51.9 15.22 52.33 15.22 52.33 13.52 51.9 13.52"></polygon>
                <polygon id="Path" fill="#2B2A29" fill-rule="nonzero" points="49.67 15.22 50.1 15.22 50.1 13.52 49.67 13.52"></polygon>
                <polygon id="Path" fill="#2B2A29" fill-rule="nonzero" points="47.38 15.22 47.82 15.22 47.82 13.52 47.38 13.52"></polygon>
                <polygon id="Path" fill="#2B2A29" fill-rule="nonzero" points="45.05 15.22 45.49 15.22 45.49 13.52 45.05 13.52"></polygon>
                <polygon id="Path" fill="#2B2A29" fill-rule="nonzero" points="42.82 15.22 43.26 15.22 43.26 13.52 42.82 13.52"></polygon>
                <polygon id="Path" fill="#2B2A29" fill-rule="nonzero" points="58.08 15.22 58.51 15.22 58.51 13.52 58.08 13.52"></polygon>
                <polygon id="Path" fill="#2B2A29" fill-rule="nonzero" points="54.68 15.22 55.12 15.22 55.12 13.52 54.68 13.52"></polygon>
                <polygon id="Path" fill="#2B2A29" fill-rule="nonzero" points="54.68 19.08 55.12 19.08 55.12 17.27 54.68 17.27"></polygon>
                <polygon id="Path" fill="#2B2A29" fill-rule="nonzero" points="52.45 19.08 52.89 19.08 52.89 17.27 52.45 17.27"></polygon>
                <polygon id="Path" fill="#2B2A29" fill-rule="nonzero" points="50.22 19.08 50.66 19.08 50.66 17.27 50.22 17.27"></polygon>
                <polygon id="Path" fill="#2B2A29" fill-rule="nonzero" points="47.99 19.08 48.43 19.08 48.43 17.27 47.99 17.27"></polygon>
                <polygon id="Path" fill="#2B2A29" fill-rule="nonzero" points="45.66 19.08 46.09 19.08 46.09 17.27 45.66 17.27"></polygon>
                <polygon id="Path" fill="#2B2A29" fill-rule="nonzero" points="43.43 19.08 43.86 19.08 43.86 17.27 43.43 17.27"></polygon>
                <polygon id="Path" fill="#2B2A29" fill-rule="nonzero" points="52.45 15.22 52.89 15.22 52.89 13.52 52.45 13.52"></polygon>
                <polygon id="Path" fill="#2B2A29" fill-rule="nonzero" points="50.22 15.22 50.66 15.22 50.66 13.52 50.22 13.52"></polygon>
                <polygon id="Path" fill="#2B2A29" fill-rule="nonzero" points="47.99 15.22 48.43 15.22 48.43 13.52 47.99 13.52"></polygon>
                <polygon id="Path" fill="#2B2A29" fill-rule="nonzero" points="45.66 15.22 46.09 15.22 46.09 13.52 45.66 13.52"></polygon>
                <polygon id="Path" fill="#2B2A29" fill-rule="nonzero" points="43.43 15.22 43.86 15.22 43.86 13.52 43.43 13.52"></polygon>
                <polygon id="Path" fill="#2B2A29" fill-rule="nonzero" points="54.09 17.14 55.11 17.14 55.11 16.77 54.09 16.77"></polygon>
                <polygon id="Path" fill="#2B2A29" fill-rule="nonzero" points="54.09 13.34 55.11 13.34 55.11 12.97 54.09 12.97"></polygon>
                <polygon id="Path" fill="#2B2A29" fill-rule="nonzero" points="57.49 13.34 58.51 13.34 58.51 12.97 57.49 12.97"></polygon>
                <polygon id="Path" fill="#2B2A29" fill-rule="nonzero" points="51.86 17.14 52.88 17.14 52.88 16.77 51.86 16.77"></polygon>
                <polygon id="Path" fill="#2B2A29" fill-rule="nonzero" points="51.86 13.34 52.88 13.34 52.88 12.97 51.86 12.97"></polygon>
                <polygon id="Path" fill="#2B2A29" fill-rule="nonzero" points="49.63 17.14 50.65 17.14 50.65 16.77 49.63 16.77"></polygon>
                <polygon id="Path" fill="#2B2A29" fill-rule="nonzero" points="49.63 13.34 50.65 13.34 50.65 12.97 49.63 12.97"></polygon>
                <polygon id="Path" fill="#2B2A29" fill-rule="nonzero" points="47.4 17.14 48.42 17.14 48.42 16.77 47.4 16.77"></polygon>
                <polygon id="Path" fill="#2B2A29" fill-rule="nonzero" points="47.4 13.34 48.42 13.34 48.42 12.97 47.4 12.97"></polygon>
                <polygon id="Path" fill="#2B2A29" fill-rule="nonzero" points="45.07 17.14 46.09 17.14 46.09 16.77 45.07 16.77"></polygon>
                <polygon id="Path" fill="#2B2A29" fill-rule="nonzero" points="45.07 13.34 46.09 13.34 46.09 12.97 45.07 12.97"></polygon>
                <polygon id="Path" fill="#2B2A29" fill-rule="nonzero" points="42.84 17.14 43.86 17.14 43.86 16.77 42.84 16.77"></polygon>
                <polygon id="Path" fill="#2B2A29" fill-rule="nonzero" points="42.84 13.34 43.86 13.34 43.86 12.97 42.84 12.97"></polygon>
                <polygon id="Path" fill="#2B2A29" fill-rule="nonzero" points="58.1 17.17 58.99 17.17 58.99 16.59 58.1 16.59"></polygon>
                <polygon id="Path" fill="#2B2A29" fill-rule="nonzero" points="57.04 17.17 57.93 17.17 57.93 16.59 57.04 16.59"></polygon>
                <polygon id="Path" fill="#2B2A29" fill-rule="nonzero" points="58.1 19.13 58.99 19.13 58.99 17.3 58.1 17.3"></polygon>
                <polygon id="Path" fill="#2B2A29" fill-rule="nonzero" points="57.04 19.13 57.93 19.13 57.93 17.3 57.04 17.3"></polygon>
                <polygon id="Path" fill="#2B2A29" fill-rule="nonzero" points="58.1 21.48 58.99 21.48 58.99 20.09 58.1 20.09"></polygon>
                <polygon id="Path" fill="#2B2A29" fill-rule="nonzero" points="57.04 21.48 57.93 21.48 57.93 20.09 57.04 20.09"></polygon>
                <polygon id="Path" fill="#2B2A29" fill-rule="nonzero" points="54.12 21.49 55.14 21.49 55.14 20.24 54.12 20.24"></polygon>
                <polygon id="Path" fill="#2B2A29" fill-rule="nonzero" points="51.89 21.49 52.91 21.49 52.91 20.24 51.89 20.24"></polygon>
                <polygon id="Path" fill="#2B2A29" fill-rule="nonzero" points="49.66 21.49 50.68 21.49 50.68 20.24 49.66 20.24"></polygon>
                <polygon id="Path" fill="#2B2A29" fill-rule="nonzero" points="47.38 21.49 48.4 21.49 48.4 20.24 47.38 20.24"></polygon>
                <polygon id="Path" fill="#2B2A29" fill-rule="nonzero" points="45.05 21.49 46.07 21.49 46.07 20.24 45.05 20.24"></polygon>
                <polygon id="Path" fill="#2B2A29" fill-rule="nonzero" points="42.81 22.32 43.84 22.32 43.84 20.24 42.81 20.24"></polygon>
                <polygon id="Path" fill="#2B2A29" fill-rule="nonzero" points="19.78 15.22 20.21 15.22 20.21 13.52 19.78 13.52"></polygon>
                <polygon id="Path" fill="#2B2A29" fill-rule="nonzero" points="23.18 15.22 23.61 15.22 23.61 13.52 23.18 13.52"></polygon>
                <polygon id="Path" fill="#2B2A29" fill-rule="nonzero" points="23.18 19.08 23.61 19.08 23.61 17.27 23.18 17.27"></polygon>
                <polygon id="Path" fill="#2B2A29" fill-rule="nonzero" points="25.41 19.08 25.84 19.08 25.84 17.27 25.41 17.27"></polygon>
                <polygon id="Path" fill="#2B2A29" fill-rule="nonzero" points="27.64 19.08 28.07 19.08 28.07 17.27 27.64 17.27"></polygon>
                <polygon id="Path" fill="#2B2A29" fill-rule="nonzero" points="29.92 19.08 30.35 19.08 30.35 17.27 29.92 17.27"></polygon>
                <polygon id="Path" fill="#2B2A29" fill-rule="nonzero" points="32.2 19.08 32.63 19.08 32.63 17.27 32.2 17.27"></polygon>
                <polygon id="Path" fill="#2B2A29" fill-rule="nonzero" points="34.43 19.08 34.86 19.08 34.86 17.27 34.43 17.27"></polygon>
                <polygon id="Path" fill="#2B2A29" fill-rule="nonzero" points="25.41 15.22 25.84 15.22 25.84 13.52 25.41 13.52"></polygon>
                <polygon id="Path" fill="#2B2A29" fill-rule="nonzero" points="27.64 15.22 28.07 15.22 28.07 13.52 27.64 13.52"></polygon>
                <polygon id="Path" fill="#2B2A29" fill-rule="nonzero" points="29.92 15.22 30.35 15.22 30.35 13.52 29.92 13.52"></polygon>
                <polygon id="Path" fill="#2B2A29" fill-rule="nonzero" points="32.2 15.22 32.63 15.22 32.63 13.52 32.2 13.52"></polygon>
                <polygon id="Path" fill="#2B2A29" fill-rule="nonzero" points="34.43 15.22 34.86 15.22 34.86 13.52 34.43 13.52"></polygon>
                <polygon id="Path" fill="#2B2A29" fill-rule="nonzero" points="19.17 15.22 19.6 15.22 19.6 13.52 19.17 13.52"></polygon>
                <polygon id="Path" fill="#2B2A29" fill-rule="nonzero" points="22.57 15.22 23 15.22 23 13.52 22.57 13.52"></polygon>
                <polygon id="Path" fill="#2B2A29" fill-rule="nonzero" points="22.57 19.08 23 19.08 23 17.27 22.57 17.27"></polygon>
                <polygon id="Path" fill="#2B2A29" fill-rule="nonzero" points="24.8 19.08 25.23 19.08 25.23 17.27 24.8 17.27"></polygon>
                <polygon id="Path" fill="#2B2A29" fill-rule="nonzero" points="27.03 19.08 27.46 19.08 27.46 17.27 27.03 17.27"></polygon>
                <polygon id="Path" fill="#2B2A29" fill-rule="nonzero" points="29.31 19.08 29.74 19.08 29.74 17.27 29.31 17.27"></polygon>
                <polygon id="Path" fill="#2B2A29" fill-rule="nonzero" points="31.64 19.08 32.08 19.08 32.08 17.27 31.64 17.27"></polygon>
                <polygon id="Path" fill="#2B2A29" fill-rule="nonzero" points="33.87 19.08 34.31 19.08 34.31 17.27 33.87 17.27"></polygon>
                <polygon id="Path" fill="#2B2A29" fill-rule="nonzero" points="24.8 15.22 25.23 15.22 25.23 13.52 24.8 13.52"></polygon>
                <polygon id="Path" fill="#2B2A29" fill-rule="nonzero" points="27.03 15.22 27.46 15.22 27.46 13.52 27.03 13.52"></polygon>
                <polygon id="Path" fill="#2B2A29" fill-rule="nonzero" points="29.31 15.22 29.74 15.22 29.74 13.52 29.31 13.52"></polygon>
                <polygon id="Path" fill="#2B2A29" fill-rule="nonzero" points="31.64 15.22 32.08 15.22 32.08 13.52 31.64 13.52"></polygon>
                <polygon id="Path" fill="#2B2A29" fill-rule="nonzero" points="33.87 15.22 34.31 15.22 34.31 13.52 33.87 13.52"></polygon>
                <polygon id="Path" fill="#2B2A29" fill-rule="nonzero" points="22.57 17.14 23.59 17.14 23.59 16.77 22.57 16.77"></polygon>
                <polygon id="Path" fill="#2B2A29" fill-rule="nonzero" points="22.57 13.34 23.59 13.34 23.59 12.97 22.57 12.97"></polygon>
                <polygon id="Path" fill="#2B2A29" fill-rule="nonzero" points="19.17 13.34 20.2 13.34 20.2 12.97 19.17 12.97"></polygon>
                <polygon id="Path" fill="#2B2A29" fill-rule="nonzero" points="24.8 17.14 25.83 17.14 25.83 16.77 24.8 16.77"></polygon>
                <polygon id="Path" fill="#2B2A29" fill-rule="nonzero" points="24.8 13.34 25.83 13.34 25.83 12.97 24.8 12.97"></polygon>
                <polygon id="Path" fill="#2B2A29" fill-rule="nonzero" points="27.03 17.14 28.06 17.14 28.06 16.77 27.03 16.77"></polygon>
                <polygon id="Path" fill="#2B2A29" fill-rule="nonzero" points="27.03 13.34 28.06 13.34 28.06 12.97 27.03 12.97"></polygon>
                <polygon id="Path" fill="#2B2A29" fill-rule="nonzero" points="29.31 17.14 30.34 17.14 30.34 16.77 29.31 16.77"></polygon>
                <polygon id="Path" fill="#2B2A29" fill-rule="nonzero" points="29.31 13.34 30.34 13.34 30.34 12.97 29.31 12.97"></polygon>
                <polygon id="Path" fill="#2B2A29" fill-rule="nonzero" points="31.64 17.14 32.67 17.14 32.67 16.77 31.64 16.77"></polygon>
                <polygon id="Path" fill="#2B2A29" fill-rule="nonzero" points="31.64 13.34 32.67 13.34 32.67 12.97 31.64 12.97"></polygon>
                <polygon id="Path" fill="#2B2A29" fill-rule="nonzero" points="33.88 17.14 34.9 17.14 34.9 16.77 33.88 16.77"></polygon>
                <polygon id="Path" fill="#2B2A29" fill-rule="nonzero" points="33.88 13.34 34.9 13.34 34.9 12.97 33.88 12.97"></polygon>
                <polygon id="Path" fill="#2B2A29" fill-rule="nonzero" points="18.74 17.17 19.63 17.17 19.63 16.59 18.74 16.59"></polygon>
                <polygon id="Path" fill="#2B2A29" fill-rule="nonzero" points="19.76 17.17 20.65 17.17 20.65 16.59 19.76 16.59"></polygon>
                <polygon id="Path" fill="#2B2A29" fill-rule="nonzero" points="18.74 19.13 19.63 19.13 19.63 17.3 18.74 17.3"></polygon>
                <polygon id="Path" fill="#2B2A29" fill-rule="nonzero" points="19.76 19.13 20.65 19.13 20.65 17.3 19.76 17.3"></polygon>
                <polygon id="Path" fill="#2B2A29" fill-rule="nonzero" points="18.74 21.48 19.63 21.48 19.63 20.09 18.74 20.09"></polygon>
                <polygon id="Path" fill="#2B2A29" fill-rule="nonzero" points="19.76 21.48 20.65 21.48 20.65 20.09 19.76 20.09"></polygon>
                <polygon id="Path" fill="#2B2A29" fill-rule="nonzero" points="22.6 21.49 23.62 21.49 23.62 20.24 22.6 20.24"></polygon>
                <polygon id="Path" fill="#2B2A29" fill-rule="nonzero" points="24.83 21.49 25.85 21.49 25.85 20.24 24.83 20.24"></polygon>
                <polygon id="Path" fill="#2B2A29" fill-rule="nonzero" points="27.06 21.49 28.08 21.49 28.08 20.24 27.06 20.24"></polygon>
                <polygon id="Path" fill="#2B2A29" fill-rule="nonzero" points="29.29 21.49 30.31 21.49 30.31 20.24 29.29 20.24"></polygon>
                <polygon id="Path" fill="#2B2A29" fill-rule="nonzero" points="31.62 21.49 32.64 21.49 32.64 20.24 31.62 20.24"></polygon>
                <polygon id="Path" fill="#2B2A29" fill-rule="nonzero" points="33.85 22.32 34.87 22.32 34.87 20.24 33.85 20.24"></polygon>
                <polygon id="Path" fill="#2B2A29" fill-rule="nonzero" points="35.74 16.24 41.91 16.24 41.91 15.93 35.74 15.93"></polygon>
                <polygon id="Path" fill="#FEFEFE" fill-rule="nonzero" points="36.26 15.63 41.35 15.63 41.35 14.87 36.26 14.87"></polygon>
                <path d="M41.31,14.92 L36.3,14.92 L36.3,15.59 L41.31,15.59 L41.31,14.92 Z M36.26,14.82 L41.4,14.82 L41.4,15.68 L36.21,15.68 L36.21,14.82 L36.26,14.82 Z" id="Shape" fill="#2B2A29" fill-rule="nonzero"></path>
                <polygon id="Path" fill="#2B2A29" fill-rule="nonzero" points="39.87 15.56 40.44 15.56 40.44 15.02 39.87 15.02"></polygon>
                <polygon id="Path" fill="#2B2A29" fill-rule="nonzero" points="38.93 15.56 39.58 15.56 39.58 15.02 38.93 15.02"></polygon>
                <polygon id="Path" fill="#2B2A29" fill-rule="nonzero" points="38.01 15.56 38.67 15.56 38.67 15.02 38.01 15.02"></polygon>
                <polygon id="Path" fill="#2B2A29" fill-rule="nonzero" points="37.18 15.56 37.75 15.56 37.75 15.02 37.18 15.02"></polygon>
                <polygon id="Path" fill="#2B2A29" fill-rule="nonzero" points="36.32 15.56 36.89 15.56 36.89 15.02 36.32 15.02"></polygon>
                <polygon id="Path" fill="#2B2A29" fill-rule="nonzero" points="40.79 15.56 41.36 15.56 41.36 15.02 40.79 15.02"></polygon>
                <polygon id="Path" fill="#2B2A29" fill-rule="nonzero" points="40.98 15.53 41.4 15.53 41.4 11.38 40.98 11.38"></polygon>
                <path d="M41.4,15.55 L40.95,15.55 L40.95,11.35 L41.43,11.35 L41.43,15.55 L41.4,15.55 Z M41,15.5 L41.38,15.5 L41.38,11.4 L41,11.4 L41,15.5 Z" id="Shape" fill="#2B2A29" fill-rule="nonzero"></path>
                <polygon id="Path" fill="#2B2A29" fill-rule="nonzero" points="36.26 15.53 36.69 15.53 36.69 11.38 36.26 11.38"></polygon>
                <path d="M36.69,15.55 L36.24,15.55 L36.24,11.35 L36.71,11.35 L36.71,15.55 L36.69,15.55 Z M36.29,15.5 L36.66,15.5 L36.66,11.4 L36.29,11.4 L36.29,15.5 Z" id="Shape" fill="#2B2A29" fill-rule="nonzero"></path>
                <path d="M38.89,16.57 L38.89,16.61 C39.13,16.63 40.22,16.77 40.25,17.99 L40.86,17.99 L40.86,16.57 L38.89,16.57 Z M38.8,16.65 L38.8,16.48 L40.95,16.48 L40.95,18.08 L40.16,18.08 L40.16,18.04 C40.16,16.71 38.85,16.7 38.85,16.7 L38.8,16.7 L38.8,16.65 Z" id="Shape" fill="#2B2A29" fill-rule="nonzero"></path>
                <path d="M38.83,16.53 L38.83,16.7 L38.79,16.7 C38.79,16.7 37.47,16.71 37.47,18.04 L37.47,18.08 L36.69,18.08 L36.69,16.48 L38.83,16.48 L38.83,16.53 Z M38.74,16.61 L38.74,16.57 L36.78,16.57 L36.78,17.99 L37.38,17.99 C37.41,16.77 38.51,16.63 38.74,16.61 Z" id="Shape" fill="#2B2A29" fill-rule="nonzero"></path>
                <path d="M40.28,19.79 L40.88,19.79 L40.88,18.22 L40.28,18.22 L40.28,19.79 Z M40.93,19.88 L40.19,19.88 L40.19,18.13 L40.97,18.13 L40.97,19.88 L40.93,19.88 Z" id="Shape" fill="#2B2A29" fill-rule="nonzero"></path>
                <path d="M37.45,19.88 L36.72,19.88 L36.72,18.13 L37.49,18.13 L37.49,19.88 L37.45,19.88 Z M36.8,19.79 L37.41,19.79 L37.41,18.22 L36.8,18.22 L36.8,19.79 Z" id="Shape" fill="#2B2A29" fill-rule="nonzero"></path>
                <path d="M37.51,20.08 L37.51,21.51 L36.74,21.51 L36.74,20.04 L37.51,20.04 L37.51,20.08 Z M37.42,20.13 L36.83,20.13 L36.83,21.42 L37.42,21.42 L37.42,20.13 Z" id="Shape" fill="#2B2A29" fill-rule="nonzero"></path>
                <path d="M40.96,20.08 L40.96,21.51 L40.18,21.51 L40.18,20.04 L40.96,20.04 L40.96,20.08 Z M40.87,20.13 L40.27,20.13 L40.27,21.42 L40.87,21.42 L40.87,20.13 Z" id="Shape" fill="#2B2A29" fill-rule="nonzero"></path>
                <path d="M40.04,12.33 L37.61,12.33 L37.61,12.64 L37.75,12.64 L37.75,14.79 L39.88,14.79 L39.88,12.64 L40.04,12.64 L40.04,12.33 Z M37.56,12.23 L40.13,12.23 L40.13,12.73 L39.97,12.73 L39.97,14.89 L37.66,14.89 L37.66,12.73 L37.51,12.73 L37.51,12.23 L37.56,12.23 Z" id="Shape" fill="#2B2A29" fill-rule="nonzero"></path>
                <path d="M39.99,12.32 L37.56,12.32 L37.56,12.63 L39.99,12.63 L39.99,12.32 Z M37.52,12.25 L40.08,12.25 L40.08,12.7 L37.47,12.7 L37.47,12.25 L37.52,12.25 Z" id="Shape" fill="#2B2A29" fill-rule="nonzero"></path>
                <path d="M36.88,12.14 L36.7,12.14 L36.7,11.89 C36.53,12.07 36.37,11.9 36.37,11.74 C36.41,11.56 36.47,11.52 36.69,11.52 L37.07,11.52 C37.3,11.52 37.35,11.56 37.39,11.74 C37.39,11.9 37.24,12.07 37.07,11.89 L37.07,12.14 L36.88,12.14 Z" id="Path" fill="#FEFEFE"></path>
                <path d="M36.88,12.18 L36.65,12.18 L36.65,11.99 C36.63,11.99 36.62,12 36.6,12.01 C36.55,12.02 36.51,12.01 36.47,11.99 C36.43,11.97 36.4,11.94 36.37,11.9 C36.34,11.86 36.33,11.8 36.33,11.74 L36.33,11.74 L36.33,11.73 C36.35,11.63 36.38,11.56 36.44,11.52 C36.5,11.49 36.57,11.48 36.69,11.48 L37.07,11.48 C37.19,11.48 37.27,11.49 37.33,11.52 L37.33,11.52 C37.39,11.56 37.42,11.63 37.44,11.73 L37.44,11.74 L37.44,11.74 C37.44,11.8 37.42,11.86 37.39,11.9 C37.37,11.94 37.34,11.97 37.3,11.99 L37.3,11.99 C37.26,12.01 37.21,12.02 37.16,12.01 C37.15,12 37.13,11.99 37.11,11.99 L37.11,12.18 L36.88,12.18 Z M36.74,12.09 L37.03,12.09 L37.03,11.78 L37.1,11.86 C37.13,11.89 37.16,11.91 37.19,11.91 C37.21,11.92 37.24,11.92 37.26,11.91 L37.26,11.91 C37.28,11.9 37.3,11.88 37.32,11.85 C37.34,11.82 37.35,11.78 37.35,11.75 C37.33,11.67 37.31,11.63 37.28,11.6 L37.28,11.6 C37.24,11.58 37.18,11.57 37.07,11.57 L36.69,11.57 C36.59,11.57 36.53,11.58 36.49,11.6 C36.45,11.63 36.43,11.67 36.42,11.75 C36.42,11.78 36.43,11.82 36.45,11.85 C36.46,11.88 36.48,11.9 36.51,11.91 C36.53,11.92 36.55,11.92 36.58,11.91 C36.61,11.91 36.63,11.89 36.66,11.86 L36.74,11.78 L36.74,12.09 Z" id="Shape" fill="#2B2A29" fill-rule="nonzero"></path>
                <path d="M40.8,12.14 L40.99,12.14 L40.99,11.89 C41.16,12.07 41.31,11.9 41.31,11.74 C41.27,11.56 41.22,11.52 40.99,11.52 L40.61,11.52 C40.39,11.52 40.33,11.56 40.29,11.74 C40.29,11.9 40.45,12.07 40.62,11.89 L40.62,12.14 L40.8,12.14 Z" id="Path" fill="#FEFEFE"></path>
                <path d="M40.8,12.09 L40.94,12.09 L40.94,11.78 L41.02,11.86 C41.05,11.89 41.08,11.91 41.11,11.91 C41.13,11.92 41.16,11.92 41.18,11.91 C41.2,11.9 41.22,11.88 41.24,11.85 C41.26,11.82 41.27,11.78 41.27,11.75 C41.25,11.67 41.23,11.63 41.2,11.6 L41.2,11.6 C41.16,11.58 41.1,11.57 40.99,11.57 L40.61,11.57 C40.51,11.57 40.44,11.58 40.41,11.6 L40.41,11.6 C40.37,11.63 40.35,11.67 40.34,11.75 C40.34,11.78 40.35,11.82 40.37,11.85 C40.38,11.88 40.4,11.9 40.43,11.91 C40.45,11.92 40.47,11.92 40.5,11.91 C40.53,11.91 40.55,11.89 40.58,11.86 L40.66,11.78 L40.66,12.09 L40.8,12.09 Z M40.99,12.18 L40.57,12.18 L40.57,11.99 C40.55,11.99 40.54,12 40.52,12.01 C40.47,12.02 40.43,12.01 40.39,11.99 C40.35,11.97 40.32,11.94 40.29,11.9 C40.26,11.86 40.25,11.8 40.25,11.74 L40.25,11.74 L40.25,11.73 C40.27,11.63 40.3,11.56 40.36,11.52 L40.36,11.52 C40.41,11.49 40.49,11.48 40.61,11.48 L40.99,11.48 C41.11,11.48 41.19,11.49 41.25,11.52 L41.25,11.52 C41.31,11.56 41.33,11.63 41.36,11.73 L41.36,11.74 L41.36,11.74 C41.36,11.8 41.34,11.86 41.31,11.9 C41.29,11.94 41.25,11.97 41.22,11.99 C41.18,12.01 41.13,12.02 41.08,12.01 C41.07,12 41.05,11.99 41.03,11.99 L41.03,12.18 L40.99,12.18 Z" id="Shape" fill="#2B2A29" fill-rule="nonzero"></path>
                <polygon id="Path" fill="#FEFEFE" points="37.04 11.98 36.67 11.98 36.63 14.88 37.09 14.88"></polygon>
                <path d="M37,12.03 L36.72,12.03 L36.67,14.83 L37.05,14.83 L37,12.03 Z M36.67,11.93 L37.09,11.93 L37.09,11.98 L37.14,14.88 L37.14,14.93 L36.58,14.93 L36.58,14.88 L36.63,11.98 L36.63,11.93 L36.67,11.93 Z" id="Shape" fill="#2B2A29" fill-rule="nonzero"></path>
                <polygon id="Path" fill="#FEFEFE" points="40.59 11.98 40.96 11.98 41.01 14.88 40.54 14.88"></polygon>
                <path d="M40.59,11.93 L41.01,11.93 L41.01,11.98 L41.06,14.88 L41.06,14.93 L40.49,14.93 L40.5,14.88 L40.55,11.93 L40.59,11.93 Z M40.92,12.03 L40.64,12.03 L40.59,14.83 L40.96,14.83 L40.92,12.03 Z" id="Shape" fill="#2B2A29" fill-rule="nonzero"></path>
                <polygon id="Path" fill="#2B2A29" fill-rule="nonzero" points="35.72 10.82 41.91 10.82 41.91 10.72 35.72 10.72"></polygon>
                <polygon id="Path" fill="#2B2A29" fill-rule="nonzero" points="35.73 21.92 41.91 21.92 41.91 21.82 35.73 21.82"></polygon>
                <polygon id="Path" fill="#2B2A29" fill-rule="nonzero" points="35.73 22.32 41.91 22.32 41.91 22.22 35.73 22.22"></polygon>
                <polygon id="Path" fill="#2B2A29" fill-rule="nonzero" points="41.31 21.86 41.41 21.86 41.41 16.03 41.31 16.03"></polygon>
                <polygon id="Path" fill="#2B2A29" fill-rule="nonzero" points="36.29 21.86 36.39 21.86 36.39 16.03 36.29 16.03"></polygon>
                <polygon id="Path" fill="#2B2A29" fill-rule="nonzero" points="37.66 21.46 39.88 21.46 39.88 21.36 37.66 21.36"></polygon>
                <polygon id="Path" fill="#2B2A29" fill-rule="nonzero" points="41.86 11.48 41.96 11.48 41.96 10.41 41.86 10.41"></polygon>
                <polygon id="Path" fill="#2B2A29" fill-rule="nonzero" points="35.73 11.48 35.83 11.48 35.83 10.41 35.73 10.41"></polygon>
                <polygon id="Path" fill="#2B2A29" fill-rule="nonzero" points="35.78 11.37 41.91 11.37 41.91 11.07 35.78 11.07"></polygon>
                <path d="M19.35,9.39 L22.04,10.28 L34.43,10.3 L34.47,9.53 L38.79,7.91 L43.01,9.47 C43.21,9.67 43.09,10.04 43.11,10.28 L55.04,10.32 L58.09,9.41 C57.79,8.67 56.71,7.81 56.06,7.16 C48.05,0.36 34.55,-0.19 25.42,4.51 C23.25,5.82 20.96,7.24 19.35,9.39 Z" id="Path" fill="#007180"></path>
                <path d="M19.81,22.35 C16.43,17.22 16.73,13.52 19.51,9.02 C16.04,9.76 15.74,17.62 17.23,20.21 C18.6,22.31 18.7,22.31 19.81,22.35 Z" id="Path" fill="#FEFEFE"></path>
                <path d="M57.93,22.52 C60.95,17.68 60.8,13.79 57.95,9.09 C61.59,9.29 61.76,17.73 60.14,20.48 C58.74,22.62 59.06,22.49 57.93,22.52 Z" id="Path" fill="#FEFEFE"></path>
                <path d="M38.88,31.17 C32.58,31.17 26.85,29.44 22.7,26.64 C18.51,23.81 15.91,19.9 15.91,15.59 C15.91,11.27 18.51,7.36 22.7,4.54 C26.85,1.74 32.58,0 38.88,0 C45.18,0 50.91,1.74 55.07,4.54 C59.26,7.36 61.86,11.27 61.86,15.59 C61.86,19.9 59.26,23.81 55.07,26.64 C50.91,29.44 45.18,31.17 38.88,31.17 Z M23.07,26.09 C27.12,28.82 32.71,30.52 38.88,30.52 C45.05,30.52 50.65,28.82 54.7,26.09 C58.72,23.39 61.21,19.67 61.21,15.59 C61.21,11.5 58.72,7.78 54.7,5.08 C50.65,2.35 45.05,0.66 38.88,0.66 C32.71,0.66 27.12,2.35 23.06,5.08 C19.05,7.78 16.56,11.5 16.56,15.59 C16.56,19.67 19.05,23.39 23.07,26.09 Z" id="Shape" fill="#CCA55D" fill-rule="nonzero"></path>
            </g>
        </g>
    </g>
</svg>